<svg xmlns="http://www.w3.org/2000/svg" width="100" height="100" fill="none"><rect width="100" height="100" fill="#EAEAEA" rx="11.173"/><path fill="#383838" fill-rule="evenodd" d="M37.465 62.09c-.46 0-.575.63-.747 1.375-.172.86-.69 3.667-2.125 6.361-.518.974-1.15 1.892-1.953 2.637-1.838 1.776-4.48 2.808-7.295 2.808-3.561 0-7.123-1.776-9.305-4.585-.403-.516-.747-1.089-1.091-1.662-1.322-2.293-2.93-6.017-2.93-13.182 0-3.897.459-8.54 2.412-12.493.69-1.434 1.61-2.81 2.47-3.784 1.953-2.177 4.308-3.095 7.353-3.095 5.112 0 7.639 2.637 8.846 4.586 1.091 1.777 1.78 4.871 2.125 6.82.115.86.35 1.107.736 1.125.17.008.344-.018.47-.208.23-.344.173-1.147.173-2.12.057-6.477.478-8.365.632-9.457.053-.377.074-.533.115-.803.086-.58-.478-.53-.772-.318-.267.19-.434.547-.894 1.522-.173.402-.345.745-.632.86-.115.057-.23.057-.345.057-.23 0-.573-.057-1.034-.287-.286-.114-.574-.286-.861-.458-2.527-1.433-4.366-2.465-9.018-2.465-1.379 0-2.815.172-4.193.46-2.987.63-6.204 2.177-8.961 5.328-.977 1.09-1.781 2.293-2.47 3.555-1.551 2.865-2.585 6.59-2.585 11.06 0 6.592 2.47 11.52 5.399 14.673 2.183 2.35 6.72 6.017 14.13 6.017 2.414 0 6.262-.4 9.938-3.61.747.4.977 1.088 1.609 2.464.172.402.401.86.804.86.23 0 .432-.155.46-.746 0 0-.018-.867-.157-3.466-.12-2.639.099-6.22.156-7.423.058-.745.115-1.146.115-1.547 0-.344-.057-.86-.574-.86M85.463 67.95c-.326.52-.653 1.043-1.034 1.512-2.067 2.556-5.44 4.173-8.81 4.173-2.123 0-4.134-.604-5.747-1.663V40.637c1.406-1.24 3.544-2.314 6.78-2.314 2.883 0 5.112.835 6.961 2.816.816.886 1.686 2.14 2.339 3.443 1.849 3.599 2.284 7.824 2.284 11.37 0 6.52-1.523 9.911-2.774 11.997Zm-20.856 4.02c-1.615 1.061-3.629 1.666-5.753 1.666-3.372 0-6.745-1.617-8.811-4.172-.38-.47-.707-.992-1.033-1.513-1.252-2.087-2.774-5.477-2.774-11.996 0-3.547.435-7.772 2.284-11.371.652-1.304 1.523-2.556 2.339-3.443 1.849-1.982 4.078-2.816 6.96-2.816 3.241 0 5.381 1.076 6.787 2.319v31.327ZM91.88 45.782c-.653-1.148-1.415-2.243-2.34-3.235-2.61-2.868-5.656-4.276-8.484-4.85-1.305-.26-2.665-.418-3.97-.418-3.563 0-5.383.615-7.215 1.54v-1.178c0-.476.115-1.517.459-1.889.4-.37 1.144-.37 1.66-.37 1.66-.054 2.517 0 2.517-.53 0-.477-.744-.477-.972-.477-1.832 0-2.404.106-6.926.106-1.889 0-3.72-.106-5.667-.106-.4 0-.858 0-.858.477 0 .37.394.421.853.421l.291.002c.401 0 2.004.106 2.519.265.515.16.687.477.801.9.057.372.057.742.057 1.166v1.217c-1.834-.926-3.653-1.542-7.22-1.542-1.306 0-2.665.157-3.972.417-2.828.575-5.873 1.982-8.484 4.851-.925.991-1.686 2.086-2.338 3.234-1.47 2.608-2.447 5.998-2.447 10.067 0 5.998 2.338 10.484 5.112 13.353 2.066 2.138 6.363 5.476 13.38 5.476 1.53 0 3.674-.182 5.97-1.178v1.353c0 .742-.058.984-.23 1.408-.368.816-1.775.853-2.805.853-1.13 0-1.602.207-1.602.471 0 .424.515.477.744.477 1.489 0 2.519-.158 4.98-.158 5.495 0 5.438.158 7.956.158.458 0 .858-.053.858-.423 0-.371-.458-.424-.687-.424-2.289-.106-3.376-.318-3.72-.742-.229-.265-.229-.636-.229-.953V73.5c2.293.995 4.434 1.177 5.964 1.177 7.015 0 11.313-3.338 13.38-5.477 2.773-2.868 5.112-7.355 5.112-13.353 0-4.067-.979-7.459-2.447-10.066ZM54.61 13.875c-.385-.337-.938-.329-1.256-.231.208-.255.693-.464.836-.49.108.041.42.361.42.721Zm1.23-1.394c-.254-1.352-3.401-.456-4.986-1.03-.03.393.488 1.025.984 1.258-.848.734-1.608 2.213-1.762 4.02-.153-1.807-.914-3.286-1.761-4.02.495-.233 1.014-.864.983-1.258-1.585.574-4.732-.322-4.985 1.03-.054.286.084.722.233.847.027-.09.166-.387.605-.454 2.217-.334 4.068 3.076 2.397 4.455-.025.021-.011.06.023.06h5.01c.034 0 .049-.039.024-.06-1.672-1.379.18-4.79 2.397-4.455.439.067.578.363.604.454.15-.125.287-.561.233-.847Zm.539-3.102c-.04-.128 1.26-.131 1.26.681 0 .544-.778.802-.778 1.367 0 .263.284.456.37.456-.2-.907.629-.432.852-.263-.444-1.22.556-1.211.458-1.77-.069-.391-.938-.273-1.253-.471-.558-.351-1.22-1.716-1.655-.351.812.752.34 1.859-.69 1.859 0 0-.006.162.003.175 1.23-.06 1.657-.961 1.433-1.683Zm-14.34 2.241c.224-.17 1.052-.644.852.263.087 0 .37-.193.37-.456 0-.565-.778-.823-.778-1.367 0-.812 1.3-.809 1.26-.681-.224.722.205 1.623 1.434 1.683.009-.013.003-.175.003-.175-1.03 0-1.502-1.107-.691-1.859-.435-1.365-1.096 0-1.655.35-.314.199-1.184.08-1.253.471-.098.56.902.552.458 1.771Zm3.49 2.255c.385-.337.939-.329 1.256-.231-.207-.255-.693-.464-.835-.49-.109.041-.421.361-.421.721Zm5.132-7.56-.6-.73-.6.73.6.768.6-.768Zm3.422 2.206-.426-.518-.426.518.426.507.426-.507Zm3.458 14.986-.54-.57-.54.57.54.501.54-.5ZM46.891 8.521l-.426-.518-.426.518.426.507.427-.507Zm-1.22 2.541h1.59c1.337 0 1.938-.819 2.12-1.529h1.36c.182.71.784 1.53 2.12 1.53h1.591s.278-.377.348-.564c.251-.67-.07-.984-.538-.984l-.605.548-.605-.548c-.469 0-.79.313-.538.984.031.086.108.212.18.323-.563-.077-1.284-.463-1.442-1.289 0 0 .417-.66.522-.928.376-.962-.104-1.355-.806-1.355l-.907 1.063-.907-1.063c-.702 0-1.182.393-.806 1.355.105.267.522.928.522.928-.158.826-.878 1.212-1.443 1.289.073-.11.15-.237.182-.323.25-.67-.07-.984-.538-.984l-.606.548-.605-.548c-.469 0-.789.313-.538.984.07.187.348.563.348.563Zm16.44 4.92c-.306.155-2.107.997-4.414.685.024-.11.044-.22.061-.331 1.535-.183 2.783-.443 3.579-.885.906-.503 1.302-1.705.845-2.6-.012-.022-.045-.026-.061-.007-.25.288-1.828 2-4.312 2.532a4.6 4.6 0 0 0-.035-.384c1.207-.683 2.384-1.47 2.945-2.19.848-1.087.77-2.474-.037-3.182a.038.038 0 0 0-.057.008c-.255.42-2.644 4.274-5.267 5.938a4.083 4.083 0 0 1-.097.06.124.124 0 0 0-.02.2c.303.274.491.655.491 1.078 0 .734-.568 1.345-1.318 1.478-.38.074-.931.052-1.46-.122-.024-.008-.048.008-.048.032v2.327c0 .037.057.047.07.01.322-.849 1.284-1.03 1.704-1.03.152.909.422 1.66.773 2.066.572.657 1.506.648 1.912.193a.033.033 0 0 0-.01-.05c-.237-.137-1.6-.971-1.872-2.338.108-.038.213-.08.314-.129.439.726 1.079 1.372 1.594 1.62.865.414 1.657.212 2.008-.394.013-.021-.003-.048-.029-.05-.535-.043-2.177-.513-2.876-1.657.08-.074.158-.15.231-.232.732.556 1.766 1.048 2.507 1.148.867.118 1.849-.158 1.873-1.164 0-.02-.018-.037-.04-.036-.307.019-2.347.108-3.801-.725.05-.095.097-.193.141-.293 0 0 2.197.519 3.237.347 1.034-.17 1.64-.94 1.523-1.897-.003-.024-.031-.037-.053-.026Zm-19.394 1.577c.044.1.092.197.142.292-1.453.832-3.492.745-3.802.726-.022-.001-.04.016-.04.036.025 1.005 1.007 1.281 1.873 1.163.74-.1 1.776-.591 2.507-1.147.074.081.152.158.232.231-.7 1.144-2.342 1.614-2.877 1.657-.026.002-.041.029-.029.05.352.606 1.144.808 2.01.394.514-.247 1.154-.894 1.593-1.62.101.05.206.092.313.129-.272 1.367-1.634 2.201-1.872 2.338a.033.033 0 0 0-.009.05c.405.455 1.34.465 1.911-.193.352-.405.622-1.157.773-2.065.421 0 1.383.18 1.704 1.03.014.036.071.027.071-.01v-2.328c0-.024-.025-.04-.049-.032-.528.175-1.078.196-1.46.122-.75-.132-1.317-.743-1.317-1.478 0-.423.188-.804.49-1.077a.123.123 0 0 0-.019-.2 4.985 4.985 0 0 1-.098-.06c-2.621-1.664-5.01-5.515-5.267-5.938a.04.04 0 0 0-.058-.008c-.805.707-.884 2.094-.036 3.182.561.72 1.739 1.506 2.945 2.189a4.516 4.516 0 0 0-.035.384c-2.482-.532-4.057-2.241-4.31-2.531-.017-.02-.05-.016-.062.007-.457.895-.06 2.096.845 2.6.795.44 2.043.7 3.578.884.017.11.037.222.061.332-2.304.31-4.104-.53-4.413-.686-.023-.011-.051.003-.054.027-.117.957.489 1.726 1.523 1.896 1.04.172 3.236-.346 3.236-.346Zm14.284 7.184-.8-.628c-.32.19-.554.49-.645.844-.482.067-1.794-.223-1.666-.416 1.438-2.02.338-3.221-.984-3.154v1.355c0 .436-.381.789-.85.789h-.913c-.655 0-1.082.657-1.082.657s-.426-.657-1.081-.657h-.913c-.47 0-.85-.353-.85-.789V21.39c-1.322-.067-2.423 1.135-.984 3.154.126.19-1.223.496-1.855.419a.937.937 0 0 0-.677-.281.967.967 0 0 0-.335.06s-2.486-2.35-2.532-2.372l.02-.048c.142-.264-.075-.552-.212-.532.16-.19.167-1.025-.716-1.218.026.168.039.51.039.51s-.682-.368-1.024-.05c-.301.355.116 1 .116 1s-.349.008-.52-.007c.252.853 1.1.793 1.284.624-.012.136.294.33.554.175l.114-.056c.02.027 2.442 2.31 2.442 2.31a.793.793 0 0 0-.128.583c.058.337.339.616.698.689.254.05.492.001.683-.11l.641.593a.296.296 0 0 0 .22.078c.157-.01.275-.137.263-.283a.25.25 0 0 0-.085-.165l-.653-.606c.53-.371 1.518-.633 2.338-.633.144 0 .212-.121.162-.24-.371-.892.427-1.538 1.253-1.012.36.23.727.68 1.002 1.434-1.355.328-3.057 1.23-3.401 2.215-.133.38.305.898.837 1.003.02.004.04-.009.043-.028.278-1.47 1.862-2.566 2.687-2.752l.07.185c-.899.424-1.77 1.318-2.018 2.38-.114.487.43.926.878 1.046.023.006.045-.01.046-.032.086-1.343.68-2.485 1.213-3.004.014.1.025.202.033.306 0 0-.546 1.517-.546 2.623 0 .515.767.874.88.925.142-.05.908-.41.908-.925 0-1.106-.545-2.623-.545-2.623.007-.104.018-.206.033-.306.532.52 1.127 1.66 1.212 3.004.001.022.024.038.046.032.45-.12.993-.559.88-1.045-.25-1.063-1.12-1.957-2.018-2.38.04-.111.027-.075.069-.186.825.186 2.409 1.282 2.686 2.752a.036.036 0 0 0 .044.028c.531-.105.97-.623.836-1.003-.343-.985-2.045-1.887-3.4-2.215.275-.753.641-1.205 1.002-1.434.825-.526 1.624.12 1.253 1.012-.05.119.017.24.162.24.927 0 2.07.335 2.522.783.289.433.823.71 1.425.65.685-.067 1.243-.58 1.32-1.214.067-.556-.22-1.055-.68-1.327l-.8.628Zm-5.898-4.05c.285-.105.732-.02.717.391-.004.093.127.093.136-.002.086-.615-.33-.792-.767-.72-.054-.211-.098-.396-.148-.58-.04-.148-.055-.426.116-.426.093 0 .056.259.047.37-.008.098.028.157.107.16.05.002.112-.061.149-.103.25-.282.307-.717.015-.928-.245-.176-.857-.045-1.025.207-.026-.095-.147-.251-.205-.32-.057-.066-.072-.111.007-.17.037-.028.148-.139.148-.253 0-.068-.052-.193-.22-.193-.131 0-.277.091-.277.294 0 .045.01.094.04.146a1.49 1.49 0 0 0-.426.02l1.606 4.398c.46-.226.797-.585.797-.97 0-.328-.484-.219-.72.037-.075-.416-.142-.8-.216-1.182-.02-.106.034-.144.119-.175Zm-2.27-2.987.337.936c-.29.068-.754.278-.754.557 0 .37.657.611 1.037.582a.251.251 0 0 0 .062.23c-.138 0-.398.063-.483.155-.202-.187-.517-.255-.667-.141-.15.115-.155.31.002.53.11.151.15.302.028.478.458 0 .29-.594.468-.594a.75.75 0 0 0 .044.396c.034.099.034.168-.025.263-.148.236-.378.777-.346 1.267-.15-.001-.227-.038-.174-.243.02-.076-.028-.13-.09-.036a.786.786 0 0 0-.102.356c0 .436.52.523.719.431.574.555 1.703.407 2.08.221l-1.986-5.441c-.04-.103-.186-.054-.15.053Zm-.07 4.482c-.04-.224.272-.624.669-1.01-.085.251-.032.685.133.834-.287 0-.63.054-.802.176Z" clip-rule="evenodd"/></svg>