<svg viewBox="0 0 456 346" fill="none" xmlns="http://www.w3.org/2000/svg">
  <g clip-path="url(#clip0_1_1729)">
    <path d="M776.369 -185.98L760.296 -210.881L772.237 -218.588L811.852 -157.214L799.911 -149.506L781.122 -178.615L752.534 -160.163L771.323 -131.053L759.47 -123.402L719.854 -184.777L731.708 -192.428L752.478 -160.25L758.152 -174.222L776.369 -185.98Z" fill="#FF2A92" />
    <path d="M849.746 -219.681L873.195 -204.012L867.546 -189.809L844.159 -205.765L821.498 -191.138L827.203 -205.254L836.267 -211.105L813.651 -226.44L826.797 -166.86L819.127 -161.909L804.387 -232.758L809.857 -246.473L849.69 -219.768L849.864 -219.881L849.746 -219.681Z" fill="#FF2A92" />
    <path d="M30.6475 270.518L26.1152 273.444L56.223 320.089L76.0953 307.262L70.3901 321.378L49.1233 335.105L14.2616 281.095L19.9668 266.979L36.4399 256.346C40.1006 253.983 44.0408 253.137 48.2606 253.809C52.3264 254.497 55.5681 256.586 57.9858 260.076C59.9855 263.174 60.7317 266.626 60.2245 270.431C59.7377 274.14 58.2374 277.427 55.7237 280.292C55.8845 278.118 55.2103 275.862 53.7012 273.524C51.2865 269.783 47.9591 267.625 43.719 267.049C39.4788 266.474 35.1217 267.63 30.6475 270.518ZM48.4895 284.961L54.242 281.248C58.3676 278.585 62.7319 277.631 67.335 278.386C71.9585 279.045 75.553 281.362 78.1186 285.337C80.2692 288.669 81.1372 292.373 80.7229 296.45C80.2707 300.468 78.7282 304.072 76.0953 307.262C76.0358 304.236 75.2891 301.613 73.8554 299.392C71.3683 295.284 67.7274 292.831 62.9326 292.034C58.1582 291.141 53.3306 292.27 48.4497 295.42L42.7843 299.077L48.4895 284.961Z" fill="#FF2A92" />
    <path d="M90.4138 255.789L106.277 245.55C110.481 242.753 114.98 241.754 119.775 242.551C124.532 243.289 128.25 245.733 130.929 249.884C133.079 253.215 134.031 257.114 133.785 261.578C133.464 265.926 132.045 269.658 129.528 272.773C129.523 269.96 128.645 267.132 126.892 264.289C124.347 260.218 120.582 257.638 115.599 256.549C110.636 255.364 105.743 256.328 100.92 259.441L95.1677 263.154L109.656 285.599L129.528 272.773L123.823 286.889L102.556 300.616L62.9403 239.241L74.794 231.59L90.4138 255.789ZM150.581 269.617L110.965 208.242L122.906 200.535L162.521 261.91L150.581 269.617Z" fill="#FF2A92" />
    <path d="M177.858 228.038L181.013 172.096L187.577 156.059L228.438 219.362L216.497 227.07L187.804 182.617L184.423 238.209L178.002 254.277L137.312 191.236L149.165 183.585L177.858 228.038Z" fill="#FF2A92" />
    <path d="M213.63 141.975L243.787 122.51L238.082 136.626L219.779 148.44L254.64 202.45L242.787 210.101L207.925 156.091L213.63 141.975Z" fill="#FF2A92" />
    <path d="M257.104 113.914L274.274 102.831C278.691 99.9806 283.371 99.0708 288.317 100.102C293.321 101.095 297.267 103.765 300.155 108.111C302.381 111.56 303.352 115.487 303.068 119.893C302.746 124.241 301.343 128.252 298.858 131.926C298.79 127.996 297.745 124.654 295.722 121.903C293.757 119.113 291.351 116.981 288.506 115.506C285.681 113.934 282.46 113.281 278.844 113.545C275.19 113.75 271.736 114.903 268.482 117.003L263.253 120.379L278.986 144.753L298.858 131.926L293.065 146.099L283.739 152.118L298.114 174.389L286.261 182.04L251.399 128.03L257.104 113.914Z" fill="#FF2A92" />
    <path d="M356.62 98.6172L380.069 114.286L374.42 128.489L351.033 112.533L328.371 127.16L334.077 113.044L343.141 107.193L320.525 91.8575L333.67 151.438L326 156.389L311.261 85.5402L316.731 71.8247L356.564 98.5295L356.738 98.417L356.62 98.6172Z" fill="#FF2A92" />
    <path d="M388.931 10.8138C387.902 18.0195 384.049 24.3568 377.372 29.8258C370.716 35.1989 363.832 37.8615 356.722 37.8137L361.917 25.3935C367.255 25.757 372.526 24.5493 377.729 21.7705C383.028 19.0126 386.762 15.3604 388.931 10.8138ZM392.099 89.7521L395.254 33.8095L401.819 17.7727L442.679 81.0764L430.738 88.7838L402.045 44.3309L398.664 99.9228L392.243 115.991L351.553 52.9504L363.406 45.2992L392.099 89.7521Z" fill="#FF2A92" />
    <path d="M442.144 -5.52331L472.301 -24.9888L466.595 -10.8728L448.292 0.941539L483.154 54.9513L471.3 62.6025L436.438 8.59269L442.144 -5.52331Z" fill="#FF2A92" />
    <path d="M485.618 -33.5844L502.788 -44.6674C507.204 -47.5178 511.885 -48.4276 516.831 -47.3969C521.834 -46.4036 525.78 -43.7338 528.668 -39.3873C530.894 -35.9387 531.865 -32.0112 531.581 -27.605C531.26 -23.2571 529.856 -19.2462 527.371 -15.572C527.303 -19.5029 526.258 -22.8441 524.235 -25.5958C522.27 -28.3849 519.865 -30.5172 517.019 -31.9927C514.194 -33.5641 510.973 -34.2178 507.357 -33.9539C503.703 -33.7483 500.249 -32.5954 496.995 -30.4951L491.766 -27.1196L507.499 -2.74507L527.371 -15.572L521.579 -1.39979L512.253 4.6199L526.628 26.8902L514.774 34.5413L479.912 -19.4685L485.618 -33.5844Z" fill="#FF2A92" />
    <path d="M585.134 -48.8812L608.582 -33.2129L602.933 -19.0092L579.546 -34.9654L556.885 -20.3382L562.59 -34.4542L571.654 -40.3051L549.038 -55.6409L562.184 3.93979L554.514 8.89055L539.775 -61.9582L545.244 -75.6738L585.077 -48.9689L585.251 -49.0814L585.134 -48.8812Z" fill="#FF2A92" />
    <path d="M636.58 -95.7514L620.508 -120.652L632.449 -128.359L672.064 -66.9847L660.123 -59.2772L641.334 -88.3864L612.746 -69.9336L631.535 -40.8244L619.682 -33.1733L580.066 -94.548L591.92 -102.199L612.689 -70.0213L618.364 -83.9933L636.58 -95.7514Z" fill="#FF2A92" />
    <path d="M648.046 -138.427L693.63 -167.85L687.838 -153.678L675.2 -145.521L710.061 -91.5107L698.121 -83.8033L663.259 -137.813L642.254 -124.255L648.046 -138.427Z" fill="#FF2A92" />
    <path d="M1231.48 -515.015L1248.65 -526.097C1253.06 -528.948 1257.75 -529.858 1262.69 -528.827C1267.69 -527.834 1271.64 -525.164 1274.53 -520.818C1276.75 -517.369 1277.73 -513.441 1277.44 -509.035C1277.12 -504.687 1275.72 -500.676 1273.23 -497.002C1273.16 -500.933 1272.12 -504.274 1270.1 -507.026C1268.13 -509.815 1265.73 -511.947 1262.88 -513.423C1260.05 -514.994 1256.83 -515.648 1253.22 -515.384C1249.56 -515.178 1246.11 -514.026 1242.86 -511.925L1237.63 -508.55L1253.36 -484.175L1273.23 -497.002L1267.44 -482.83L1258.11 -476.81L1272.49 -454.54L1260.63 -446.889L1225.77 -500.899L1231.48 -515.015Z" fill="#FF2A92" />
    <path d="M1326.84 -517.444L1317.42 -570.487L1325.44 -575.663L1340.15 -483.432L1331.69 -477.975L1329.44 -498.877L1271.84 -533.984L1277.54 -548.1L1326.84 -517.444Z" fill="#FF2A92" />
    <path d="M1358.82 -562.058L1375.12 -572.578C1379.13 -575.166 1383.53 -576.062 1388.32 -575.265C1393.08 -574.526 1396.76 -572.14 1399.36 -568.107C1401.51 -564.775 1402.41 -560.965 1402.05 -556.675C1401.62 -552.503 1400.11 -548.84 1397.54 -545.688C1397.53 -548.751 1396.72 -551.539 1395.1 -554.052C1392.61 -558.161 1388.89 -560.682 1383.92 -561.617C1379.01 -562.589 1374.15 -561.519 1369.32 -558.406L1363.57 -554.693L1377.66 -532.861L1397.54 -545.688L1391.83 -531.572L1370.56 -517.845L1335.7 -571.855L1341.41 -585.971L1371.13 -605.155L1365.42 -591.039L1347.56 -579.506L1358.82 -562.058Z" fill="#FF2A92" />
    <path d="M1400.16 -623.897L1433.37 -645.331L1472.99 -583.957L1461.05 -576.249L1426.19 -630.259L1406.75 -617.713C1416.97 -604.685 1421.46 -591.479 1420.22 -578.093C1417.64 -583.628 1414 -589.192 1409.33 -594.783C1404.4 -600.63 1399.42 -605.61 1394.37 -609.724L1400.16 -623.897ZM1422.84 -549.355L1409.63 -557.966C1412.45 -560.613 1414.85 -563.779 1416.84 -567.462C1418.84 -571.24 1419.97 -574.784 1420.22 -578.093C1422.95 -573.229 1424.63 -568.143 1425.26 -562.835C1425.79 -557.548 1424.98 -553.054 1422.84 -549.355Z" fill="#FF2A92" />
    <path d="M1495.67 -638.962L1480.85 -629.398L1494.49 -608.267L1523.25 -626.832L1517.54 -612.716L1487.39 -593.251L1452.53 -647.261L1458.23 -661.377L1488.82 -681.124L1483.12 -667.008L1464.38 -654.912L1476.09 -636.763L1501.37 -653.078L1495.67 -638.962Z" fill="#FF2A92" />
    <path d="M1534.58 -728.669C1533.55 -721.464 1529.7 -715.126 1523.02 -709.657C1516.37 -704.284 1509.48 -701.622 1502.37 -701.669L1507.57 -714.09C1512.91 -713.726 1518.18 -714.934 1523.38 -717.713C1528.68 -720.471 1532.41 -724.123 1534.58 -728.669ZM1537.75 -649.731L1540.91 -705.674L1547.47 -721.71L1588.33 -658.407L1576.39 -650.699L1547.7 -695.152L1544.32 -639.56L1537.89 -623.492L1497.2 -686.533L1509.06 -694.184L1537.75 -649.731Z" fill="#FF2A92" />
    <path d="M923.845 -261.796L935.699 -269.447L930.5 -256.651L928.147 -255.132L938.56 -238.999L927.403 -231.798L916.99 -247.931L888.14 -229.31L891.806 -286.948L897.926 -301.952L923.845 -261.796ZM898.088 -277.216L896.303 -244.018L912.689 -254.595L898.088 -277.216Z" fill="#FF2A92" />
    <path d="M978.008 -313.524C982.234 -306.977 984.766 -300.249 985.605 -293.338C986.406 -286.485 985.069 -280.778 981.593 -276.216C981.695 -283.072 979.256 -290.357 974.276 -298.073C968.993 -306.256 962.637 -312.214 955.207 -315.947C947.834 -319.717 941.33 -319.784 935.693 -316.145C934.066 -315.095 932.638 -313.801 931.409 -312.262C932.29 -319.952 935.49 -325.578 941.01 -329.141C946.821 -332.892 953.195 -333.156 960.132 -329.932C967.031 -326.768 972.99 -321.298 978.008 -313.524ZM935.107 -274.779C930.806 -281.442 928.264 -288.123 927.48 -294.821C926.62 -301.636 927.93 -307.45 931.409 -312.262C931.307 -305.406 933.746 -298.12 938.726 -290.405C944.008 -282.222 950.365 -276.264 957.795 -272.531C965.226 -268.798 971.73 -268.732 977.308 -272.332C978.935 -273.383 980.363 -274.677 981.593 -276.216C980.692 -268.43 977.51 -262.774 972.048 -259.249C966.237 -255.498 959.882 -255.205 952.983 -258.37C946.008 -261.652 940.05 -267.121 935.107 -274.779Z" fill="#FF2A92" />
    <path d="M1032.12 -348.453C1036.35 -341.906 1038.88 -335.177 1039.72 -328.266C1040.52 -321.414 1039.18 -315.707 1035.71 -311.144C1035.81 -318 1033.37 -325.286 1028.39 -333.002C1023.11 -341.185 1016.75 -347.143 1009.32 -350.876C1001.95 -354.646 995.443 -354.712 989.807 -351.074C988.18 -350.024 986.752 -348.73 985.523 -347.191C986.403 -354.881 989.604 -360.507 995.124 -364.07C1000.93 -367.821 1007.31 -368.084 1014.25 -364.861C1021.14 -361.696 1027.1 -356.227 1032.12 -348.453ZM989.221 -309.707C984.92 -316.371 982.377 -323.052 981.593 -329.75C980.734 -336.565 982.044 -342.378 985.523 -347.191C985.42 -340.335 987.86 -333.049 992.84 -325.333C998.122 -317.15 1004.48 -311.192 1011.91 -307.459C1019.34 -303.727 1025.84 -303.661 1031.42 -307.261C1033.05 -308.311 1034.48 -309.606 1035.71 -311.144C1034.81 -303.359 1031.62 -297.703 1026.16 -294.178C1020.35 -290.427 1014 -290.134 1007.1 -293.299C1000.12 -296.58 994.163 -302.05 989.221 -309.707Z" fill="#FF2A92" />
    <path d="M1059.26 -336.284L1073.73 -333.573L1066.87 -319.709L1052.4 -322.419L1059.26 -336.284Z" fill="#FF2A92" />
    <path d="M1106.81 -396.664C1111.04 -390.117 1113.57 -383.388 1114.41 -376.477C1115.21 -369.625 1113.87 -363.917 1110.4 -359.355C1110.5 -366.211 1108.06 -373.497 1103.08 -381.213C1097.8 -389.396 1091.44 -395.354 1084.01 -399.087C1076.64 -402.857 1070.13 -402.923 1064.5 -399.285C1062.87 -398.235 1061.44 -396.94 1060.21 -395.402C1061.09 -403.092 1064.3 -408.718 1069.82 -412.281C1075.63 -416.032 1082 -416.295 1088.94 -413.072C1095.84 -409.907 1101.79 -404.438 1106.81 -396.664ZM1063.91 -357.918C1059.61 -364.582 1057.07 -371.262 1056.28 -377.96C1055.43 -384.775 1056.73 -390.589 1060.21 -395.402C1060.11 -388.546 1062.55 -381.26 1067.53 -373.544C1072.81 -365.361 1079.17 -359.403 1086.6 -355.67C1094.03 -351.938 1100.53 -351.871 1106.11 -355.472C1107.74 -356.522 1109.17 -357.817 1110.4 -359.355C1109.5 -351.57 1106.31 -345.914 1100.85 -342.388C1095.04 -338.638 1088.69 -338.345 1081.79 -341.51C1074.81 -344.791 1068.85 -350.261 1063.91 -357.918Z" fill="#FF2A92" />
    <path d="M1160.93 -431.592C1165.15 -425.046 1167.68 -418.317 1168.52 -411.406C1169.32 -404.553 1167.99 -398.846 1164.51 -394.284C1164.61 -401.14 1162.17 -408.426 1157.19 -416.141C1151.91 -424.325 1145.56 -430.283 1138.12 -434.015C1130.75 -437.786 1124.25 -437.852 1118.61 -434.214C1116.98 -433.163 1115.56 -431.869 1114.33 -430.33C1115.21 -438.02 1118.41 -443.646 1123.93 -447.21C1129.74 -450.96 1136.11 -451.224 1143.05 -448.001C1149.95 -444.836 1155.91 -439.366 1160.93 -431.592ZM1118.03 -392.847C1113.72 -399.51 1111.18 -406.191 1110.4 -412.889C1109.54 -419.704 1110.85 -425.518 1114.33 -430.33C1114.23 -423.474 1116.66 -416.189 1121.64 -408.473C1126.93 -400.29 1133.28 -394.332 1140.71 -390.599C1148.14 -386.866 1154.65 -386.8 1160.23 -390.401C1161.85 -391.451 1163.28 -392.745 1164.51 -394.284C1163.61 -386.498 1160.43 -380.843 1154.97 -377.317C1149.16 -373.566 1142.8 -373.274 1135.9 -376.438C1128.93 -379.72 1122.97 -385.189 1118.03 -392.847Z" fill="#FF2A92" />
    <path d="M1215.04 -466.521C1219.27 -459.974 1221.8 -453.245 1222.64 -446.335C1223.44 -439.482 1222.1 -433.775 1218.62 -429.213C1218.73 -436.069 1216.29 -443.354 1211.31 -451.07C1206.03 -459.253 1199.67 -465.211 1192.24 -468.944C1184.87 -472.714 1178.36 -472.78 1172.73 -469.142C1171.1 -468.092 1169.67 -466.798 1168.44 -465.259C1169.32 -472.949 1172.52 -478.575 1178.04 -482.138C1183.85 -485.889 1190.23 -486.152 1197.16 -482.929C1204.06 -479.764 1210.02 -474.295 1215.04 -466.521ZM1172.14 -427.775C1167.84 -434.439 1165.3 -441.12 1164.51 -447.818C1163.65 -454.633 1164.96 -460.446 1168.44 -465.259C1168.34 -458.403 1170.78 -451.117 1175.76 -443.401C1181.04 -435.218 1187.4 -429.26 1194.83 -425.527C1202.26 -421.795 1208.76 -421.729 1214.34 -425.329C1215.97 -426.379 1217.4 -427.674 1218.62 -429.213C1217.72 -421.427 1214.54 -415.771 1209.08 -412.246C1203.27 -408.495 1196.91 -408.202 1190.02 -411.367C1183.04 -414.649 1177.08 -420.118 1172.14 -427.775Z" fill="#FF2A92" />
  </g>
  <defs>
    <clipPath id="clip0_1_1729">
      <rect width="476" height="103" fill="white" transform="translate(0 259) rotate(-32.841)" />
    </clipPath>
  </defs>
</svg>