<svg width="1107" height="362" viewBox="0 0 1107 362" fill="none" xmlns="http://www.w3.org/2000/svg">
  <g clip-path="url(#clip0_1_7830)">
    <path d="M2035.69 -2.71658L2027.79 -70.162L2059.96 -73.9322L2079.44 92.3063L2047.26 96.0766L2038.03 17.232L1960.99 26.2587L1970.23 105.103L1938.29 108.846L1918.81 -57.3926L1950.75 -61.1353L1960.96 26.0212L1986.6 3.03513L2035.69 -2.71658Z" fill="#FF2A92" />
    <path d="M2219.7 2.20334L2251.97 58.1271L2226.15 81.6157L2194.3 25.1619L2133.23 32.3172L2159.08 9.06609L2183.51 6.20397L2152.61 -48.195L2119.71 87.5877L2099.04 90.0095L2139.99 -70.55L2164.95 -93.216L2219.67 1.96586L2220.14 1.91083L2219.7 2.20334Z" fill="#FF2A92" />
    <path d="M51.1667 181.672L38.9539 183.103L53.758 309.444L107.307 303.17L81.4607 326.421L24.1541 333.136L7.01248 186.846L32.8586 163.595L77.2477 158.393C87.1119 157.238 96.0256 159.483 103.989 165.131C111.62 170.656 116.158 178.23 117.603 187.851C118.586 196.242 116.649 204.092 111.791 211.402C107.072 218.536 100.702 223.776 92.6818 227.123C95.193 222.816 96.0775 217.497 95.3355 211.164C94.1482 201.031 89.504 193.23 81.4028 187.759C73.3017 182.288 63.223 180.259 51.1667 181.672ZM73.1882 229.407L88.6892 227.591C99.806 226.288 109.696 228.741 118.36 234.948C127.161 240.978 132.193 249.376 133.454 260.142C134.512 269.167 132.571 277.66 127.631 285.621C122.672 293.425 115.898 299.274 107.307 303.17C110.222 296.89 111.327 290.742 110.622 284.726C109.655 273.765 104.664 265.041 95.6504 258.553C86.7746 251.89 75.7606 249.328 62.6082 250.869L47.3421 252.658L73.1882 229.407Z" fill="#FF2A92" />
    <path d="M188.279 211.829L231.024 206.82C242.435 205.322 252.648 207.817 261.662 214.304C270.657 220.633 275.813 229.418 277.13 240.659C278.188 249.683 276.224 258.66 271.239 267.59C266.217 276.204 259.567 282.44 251.289 286.299C254.103 280.512 255.143 273.81 254.409 266.192C253.285 255.249 248.17 246.139 239.064 238.86C230.095 231.405 219.113 228.438 206.117 229.961L190.616 231.777L197.74 292.573L251.289 286.299L225.443 309.55L168.136 316.265L148.657 150.026L180.598 146.283L188.279 211.829ZM297.546 301.101L278.067 134.862L310.243 131.092L329.722 297.331L297.546 301.101Z" fill="#FF2A92" />
    <path d="M395.111 243.205L457.721 131.386L487.253 105.054L507.345 276.518L475.168 280.288L461.06 159.884L398.339 270.753L369.069 297.294L349.061 126.544L381.003 122.801L395.111 243.205Z" fill="#FF2A92" />
    <path d="M554.713 102.446L635.976 92.9242L610.13 116.175L560.809 121.954L577.95 268.244L546.009 271.987L528.867 125.697L554.713 102.446Z" fill="#FF2A92" />
    <path d="M671.861 88.7194L718.128 83.2979C730.028 81.9035 740.522 84.7666 749.61 91.887C758.855 98.989 764.251 108.468 765.799 120.324C766.894 129.665 764.939 138.721 759.935 147.493C754.913 156.106 748.015 162.933 739.241 167.974C743.047 159.824 744.261 151.897 742.883 144.195C741.66 136.473 738.878 129.657 734.534 123.747C730.329 117.659 724.393 113.058 716.727 109.944C709.042 106.672 700.816 105.549 692.048 106.576L677.956 108.228L685.692 174.248L739.241 167.974L713.16 191.252L688.029 194.197L695.097 254.518L663.156 258.26L646.014 111.97L671.861 88.7194Z" fill="#FF2A92" />
    <path d="M890.9 157.907L923.167 213.83L897.348 237.319L865.496 180.865L804.432 188.02L830.278 164.769L854.704 161.907L823.806 107.508L790.909 243.291L770.241 245.713L811.187 85.1532L836.149 62.4872L890.873 157.669L891.342 157.614L890.9 157.907Z" fill="#FF2A92" />
    <path d="M1045.16 10.0694C1035.83 23.8428 1021.58 32.9752 1002.42 37.4668C983.406 41.7816 966.645 40.2949 952.141 33.0067L975.24 12.7257C985.801 18.871 997.801 21.7181 1011.24 21.2669C1024.85 20.9556 1036.16 17.2231 1045.16 10.0694ZM972.416 175.559L1035.03 63.7397L1064.56 37.4085L1084.65 208.872L1052.47 212.642L1038.36 92.2377L975.644 203.107L946.374 229.648L926.366 58.8976L958.307 55.1548L972.416 175.559Z" fill="#FF2A92" />
    <path d="M1170.48 30.2937L1251.74 20.7717L1225.89 44.0228L1176.57 49.802L1193.71 196.092L1161.77 199.835L1144.63 53.5448L1170.48 30.2937Z" fill="#FF2A92" />
    <path d="M1287.62 16.567L1333.89 11.1455C1345.79 9.75111 1356.29 12.6141 1365.37 19.7346C1374.62 26.8366 1380.01 36.3156 1381.56 48.1714C1382.66 57.5124 1380.7 66.5687 1375.7 75.3404C1370.68 83.9537 1363.78 90.7806 1355 95.8211C1358.81 87.6712 1360.02 79.7449 1358.65 72.0421C1357.42 64.321 1354.64 57.505 1350.3 51.5941C1346.09 45.5065 1340.16 40.9057 1332.49 37.7915C1324.81 34.5191 1316.58 33.3966 1307.81 34.424L1293.72 36.0753L1301.46 102.096L1355 95.8211L1328.92 119.1L1303.79 122.044L1310.86 182.365L1278.92 186.108L1261.78 39.818L1287.62 16.567Z" fill="#FF2A92" />
    <path d="M1506.66 85.7541L1538.93 141.678L1513.11 165.166L1481.26 108.713L1420.19 115.868L1446.04 92.6168L1470.47 89.7547L1439.57 35.3558L1406.67 171.138L1386 173.56L1426.95 13.0007L1451.91 -9.66529L1506.64 85.5166L1507.11 85.4616L1506.66 85.7541Z" fill="#FF2A92" />
    <path d="M1659.01 41.4211L1651.11 -26.0243L1683.28 -29.7945L1702.76 136.444L1670.58 140.214L1661.35 61.3697L1584.31 70.3964L1593.55 149.241L1561.61 152.984L1542.13 -13.2549L1574.07 -16.9976L1584.28 70.1589L1609.92 47.1728L1659.01 41.4211Z" fill="#FF2A92" />
    <path d="M1725.31 -34.7193L1848.14 -49.1124L1822.06 -25.8339L1788.01 -21.8434L1805.15 124.447L1772.97 128.217L1755.83 -18.0731L1699.23 -11.4408L1725.31 -34.7193Z" fill="#FF2A92" />
    <path d="M3297.46 -218.936L3343.72 -224.358C3355.62 -225.752 3366.12 -222.889 3375.21 -215.769C3384.45 -208.667 3389.85 -199.188 3391.39 -187.332C3392.49 -177.991 3390.53 -168.934 3385.53 -160.163C3380.51 -151.55 3373.61 -144.723 3364.84 -139.682C3368.64 -147.832 3369.86 -155.758 3368.48 -163.461C3367.26 -171.182 3364.47 -177.998 3360.13 -183.909C3355.92 -189.997 3349.99 -194.598 3342.32 -197.712C3334.64 -200.984 3326.41 -202.107 3317.64 -201.079L3303.55 -199.428L3311.29 -133.408L3364.84 -139.682L3338.75 -116.404L3313.62 -113.459L3320.69 -53.138L3288.75 -49.3953L3271.61 -195.685L3297.46 -218.936Z" fill="#FF2A92" />
    <path d="M3495.07 -127.498L3529.04 -246.072L3550.64 -248.604L3488.18 -44.1148L3465.4 -41.4453L3481.76 -86.6967L3399.1 -217.124L3424.94 -240.375L3495.07 -127.498Z" fill="#FF2A92" />
    <path d="M3605.31 -186.879L3649.23 -192.025C3660.03 -193.291 3669.94 -190.68 3678.96 -184.193C3687.95 -177.864 3693.09 -169.238 3694.37 -158.314C3695.43 -149.289 3693.43 -140.55 3688.39 -132.095C3683.32 -123.956 3676.56 -117.948 3668.12 -114.071C3671.2 -120.369 3672.33 -126.922 3671.54 -133.73C3670.57 -144.691 3665.47 -153.644 3656.25 -160.587C3647.18 -167.549 3636.14 -170.269 3623.15 -168.746L3607.65 -166.93L3614.58 -107.797L3668.12 -114.071L3642.28 -90.8201L3584.97 -84.1052L3567.83 -230.395L3593.68 -253.646L3673.76 -263.031L3647.92 -239.78L3599.77 -234.138L3605.31 -186.879Z" fill="#FF2A92" />
    <path d="M3752.01 -272.199L3841.49 -282.684L3860.97 -116.445L3828.79 -112.675L3811.65 -258.965L3759.28 -252.828C3767.12 -215.709 3763.05 -184.016 3747.09 -157.75C3747.35 -171.744 3745.5 -186.855 3741.54 -203.082C3737.32 -220.082 3732.12 -235.361 3725.93 -248.92L3752.01 -272.199ZM3723.61 -96.0162L3705.2 -127.083C3713.63 -129.675 3721.72 -133.753 3729.48 -139.317C3737.38 -145.057 3743.25 -151.202 3747.09 -157.75C3747.79 -144.992 3746.12 -132.84 3742.07 -121.291C3737.85 -109.883 3731.7 -101.458 3723.61 -96.0162Z" fill="#FF2A92" />
    <path d="M3962.6 -206.595L3922.67 -201.917L3929.38 -144.683L4006.88 -153.765L3981.03 -130.514L3899.77 -120.992L3882.63 -267.282L3908.48 -290.533L3990.91 -300.193L3965.07 -276.941L3914.57 -271.025L3920.33 -221.866L3988.44 -229.846L3962.6 -206.595Z" fill="#FF2A92" />
    <path d="M4132.29 -351.667C4122.95 -337.893 4108.71 -328.761 4089.55 -324.269C4070.53 -319.955 4053.77 -321.441 4039.27 -328.729L4062.37 -349.01C4072.93 -342.865 4084.93 -340.018 4098.37 -340.469C4111.98 -340.78 4123.29 -344.513 4132.29 -351.667ZM4059.54 -186.177L4122.15 -297.996L4151.69 -324.328L4171.78 -152.864L4139.6 -149.094L4125.49 -269.498L4062.77 -158.629L4033.5 -132.088L4013.49 -302.839L4045.44 -306.581L4059.54 -186.177Z" fill="#FF2A92" />
    <path d="M2413.64 -9.44693L2445.58 -13.1897L2422.09 7.85879L2415.75 8.60184L2420.87 52.2988L2390.81 55.8214L2385.69 12.1244L2307.95 21.2336L2373.31 -93.5558L2400.89 -118.214L2413.64 -9.44693ZM2376.4 -67.1951L2339.42 -0.750558L2383.58 -5.92435L2376.4 -67.1951Z" fill="#FF2A92" />
    <path d="M2576.42 -61.0212C2578.5 -43.2891 2576.92 -26.8949 2571.7 -11.8386C2566.47 3.05933 2558 13.4404 2546.31 19.3044C2553.4 5.31291 2555.72 -12.1321 2553.27 -33.0307C2550.67 -55.1958 2543.64 -73.8724 2532.18 -89.0605C2520.88 -104.267 2507.63 -110.98 2492.44 -109.201C2488.06 -108.687 2483.83 -107.47 2479.77 -105.55C2489.3 -120.468 2501.49 -128.799 2516.37 -130.542C2532.03 -132.376 2545.34 -126.473 2556.3 -112.831C2567.24 -99.3481 2573.95 -82.0781 2576.42 -61.0212ZM2449.72 -24.7491C2447.6 -42.7978 2449.11 -59.1037 2454.23 -73.6667C2459.31 -88.5463 2467.82 -99.1739 2479.77 -105.55C2472.68 -91.5581 2470.36 -74.1131 2472.81 -53.2146C2475.41 -31.0494 2482.44 -12.3728 2493.9 2.81524C2505.36 18.0033 2518.61 24.7167 2533.64 22.9554C2538.02 22.4417 2542.25 21.2247 2546.31 19.3044C2536.65 34.3995 2524.46 42.8092 2509.74 44.5339C2494.08 46.3685 2480.78 40.5443 2469.84 27.0611C2458.86 13.2613 2452.15 -4.00883 2449.72 -24.7491Z" fill="#FF2A92" />
    <path d="M2722.23 -78.1074C2724.31 -60.3753 2722.74 -43.9811 2717.52 -28.9248C2712.28 -14.0268 2703.82 -3.64585 2692.12 2.21823C2699.21 -11.7733 2701.54 -29.2183 2699.09 -50.1169C2696.49 -72.282 2689.46 -90.9586 2678 -106.147C2666.69 -121.353 2653.45 -128.066 2638.26 -126.287C2633.87 -125.773 2629.65 -124.556 2625.59 -122.636C2635.11 -137.554 2647.31 -145.885 2662.19 -147.628C2677.84 -149.462 2691.15 -143.559 2702.12 -129.918C2713.06 -116.434 2719.77 -99.1643 2722.23 -78.1074ZM2595.54 -41.8353C2593.42 -59.884 2594.92 -76.1899 2600.04 -90.7528C2605.12 -105.632 2613.64 -116.26 2625.59 -122.636C2618.5 -108.644 2616.18 -91.1993 2618.63 -70.3007C2621.23 -48.1356 2628.26 -29.459 2639.72 -14.2709C2651.18 0.917117 2664.43 7.63048 2679.46 5.86919C2683.84 5.35548 2688.06 4.13848 2692.12 2.21823C2682.46 17.3133 2670.28 25.723 2655.56 27.4477C2639.9 29.2823 2626.6 23.4581 2615.65 9.97489C2604.67 -3.82494 2597.97 -21.095 2595.54 -41.8353Z" fill="#FF2A92" />
    <path d="M2765.56 -25.6467L2792.45 -5.4454L2764.51 16.126L2737.62 -4.07535L2765.56 -25.6467Z" fill="#FF2A92" />
    <path d="M2923.5 -101.691C2925.58 -83.9588 2924.01 -67.5647 2918.79 -52.5084C2913.55 -37.6104 2905.08 -27.2294 2893.39 -21.3653C2900.48 -35.3568 2902.8 -52.8018 2900.35 -73.7004C2897.76 -95.8656 2890.73 -114.542 2879.26 -129.73C2867.96 -144.937 2854.71 -151.65 2839.52 -149.87C2835.14 -149.357 2830.92 -148.14 2826.86 -146.219C2836.38 -161.138 2848.58 -169.468 2863.45 -171.211C2879.11 -173.046 2892.42 -167.143 2903.38 -153.501C2914.33 -140.018 2921.03 -122.748 2923.5 -101.691ZM2796.8 -65.4188C2794.69 -83.4675 2796.19 -99.7734 2801.31 -114.336C2806.39 -129.216 2814.91 -139.844 2826.86 -146.219C2819.77 -132.228 2817.45 -114.783 2819.9 -93.8843C2822.49 -71.7191 2829.52 -53.0425 2840.98 -37.8545C2852.45 -22.6664 2865.69 -15.9531 2880.72 -17.7143C2885.11 -18.228 2889.33 -19.445 2893.39 -21.3653C2883.73 -6.27027 2871.54 2.13951 2856.82 3.86412C2841.17 5.6988 2827.87 -0.12548 2816.92 -13.6087C2805.94 -27.4085 2799.23 -44.6785 2796.8 -65.4188Z" fill="#FF2A92" />
    <path d="M3069.32 -118.777C3071.4 -101.045 3069.83 -84.6508 3064.61 -69.5945C3059.37 -54.6966 3050.9 -44.3156 3039.21 -38.4515C3046.3 -52.443 3048.62 -69.888 3046.17 -90.7866C3043.57 -112.952 3036.54 -131.628 3025.08 -146.816C3013.78 -162.023 3000.53 -168.736 2985.34 -166.957C2980.96 -166.443 2976.74 -165.226 2972.67 -163.306C2982.2 -178.224 2994.39 -186.555 3009.27 -188.298C3024.93 -190.132 3038.24 -184.229 3049.2 -170.587C3060.14 -157.104 3066.85 -139.834 3069.32 -118.777ZM2942.62 -82.505C2940.51 -100.554 2942.01 -116.86 2947.13 -131.423C2952.21 -146.302 2960.72 -156.93 2972.67 -163.306C2965.58 -149.314 2963.26 -131.869 2965.71 -110.97C2968.31 -88.8053 2975.34 -70.1287 2986.8 -54.9407C2998.26 -39.7526 3011.51 -33.0392 3026.54 -34.8005C3030.92 -35.3142 3035.15 -36.5312 3039.21 -38.4515C3029.55 -23.3564 3017.36 -14.9467 3002.64 -13.2221C2986.98 -11.3874 2973.68 -17.2117 2962.74 -30.6948C2951.76 -44.4947 2945.05 -61.7647 2942.62 -82.505Z" fill="#FF2A92" />
    <path d="M3215.14 -135.863C3217.21 -118.131 3215.64 -101.737 3210.42 -86.6808C3205.18 -71.7828 3196.72 -61.4018 3185.02 -55.5377C3192.12 -69.5292 3194.44 -86.9742 3191.99 -107.873C3189.39 -130.038 3182.36 -148.715 3170.9 -163.903C3159.59 -179.109 3146.35 -185.822 3131.16 -184.043C3126.77 -183.529 3122.55 -182.312 3118.49 -180.392C3128.01 -195.31 3140.21 -203.641 3155.09 -205.384C3170.74 -207.218 3184.05 -201.315 3195.02 -187.673C3205.96 -174.19 3212.67 -156.92 3215.14 -135.863ZM3088.44 -99.5912C3086.32 -117.64 3087.82 -133.946 3092.94 -148.509C3098.02 -163.388 3106.54 -174.016 3118.49 -180.392C3111.4 -166.4 3109.08 -148.955 3111.53 -128.057C3114.13 -105.891 3121.16 -87.2149 3132.62 -72.0268C3144.08 -56.8388 3157.33 -50.1254 3172.36 -51.8867C3176.74 -52.4004 3180.96 -53.6175 3185.02 -55.5377C3175.37 -40.4427 3163.18 -32.0329 3148.46 -30.3083C3132.8 -28.4736 3119.5 -34.2979 3108.56 -47.781C3097.57 -61.5809 3090.87 -78.8509 3088.44 -99.5912Z" fill="#FF2A92" />
  </g>
  <defs>
    <clipPath id="clip0_1_7830">
      <rect width="1086" height="236" fill="white" transform="translate(0 127) rotate(-6.68319)" />
    </clipPath>
  </defs>
</svg>