<svg width="760" height="318" viewBox="0 0 760 318" fill="none" xmlns="http://www.w3.org/2000/svg">
  <g clip-path="url(#clip0_1_7832)">
    <path d="M918.314 88.9091L910.756 21.4242L942.951 17.8186L961.579 184.155L929.384 187.76L920.549 108.869L843.469 117.502L852.304 196.393L820.344 199.972L801.716 33.636L833.676 30.0567L843.442 117.264L869.199 94.4097L918.314 88.9091Z" fill="#FF2A92" />
    <path d="M1102.3 94.7702L1134.28 150.858L1108.34 174.215L1076.78 117.599L1015.68 124.441L1041.64 101.323L1066.08 98.5857L1035.46 44.0294L1001.87 179.642L981.193 181.958L1022.96 21.6101L1048.04 -0.927935L1102.27 94.5326L1102.74 94.48L1102.3 94.7702Z" fill="#FF2A92" />
    <path d="M-1067.13 263.144L-1079.35 264.513L-1065.19 390.928L-1011.61 384.927L-1037.57 408.046L-1094.91 414.468L-1111.31 268.092L-1085.34 244.973L-1040.93 239.999C-1031.06 238.894 -1022.15 241.185 -1014.22 246.873C-1006.62 252.438 -1002.12 260.034 -1000.72 269.662C-999.781 278.058 -1001.76 285.899 -1006.65 293.184C-1011.41 300.293 -1017.81 305.501 -1025.84 308.807C-1023.31 304.513 -1022.4 299.198 -1023.11 292.861C-1024.24 282.723 -1028.85 274.897 -1036.92 269.385C-1044.99 263.873 -1055.06 261.793 -1067.13 263.144ZM-1045.35 310.991L-1029.84 309.254C-1018.71 308.008 -1008.84 310.511 -1000.21 316.763C-991.435 322.838 -986.446 331.262 -985.24 342.034C-984.229 351.064 -986.213 359.547 -991.194 367.483C-996.192 375.261 -1003 381.076 -1011.61 384.927C-1008.66 378.662 -1007.52 372.52 -1008.2 366.5C-1009.11 355.535 -1014.05 346.785 -1023.04 340.252C-1031.88 333.543 -1042.88 330.925 -1056.04 332.399L-1071.31 334.11L-1045.35 310.991Z" fill="#FF2A92" />
    <path d="M-930.169 294.002L-887.399 289.212C-875.98 287.773 -865.78 290.319 -856.8 296.853C-847.837 303.227 -842.726 312.038 -841.466 323.286C-840.455 332.316 -842.465 341.283 -847.496 350.187C-852.562 358.774 -859.244 364.976 -867.541 368.793C-864.698 363.021 -863.623 356.324 -864.318 348.702C-865.386 337.754 -870.454 328.618 -879.523 321.292C-888.454 313.791 -899.42 310.769 -912.424 312.225L-927.934 313.962L-921.121 374.793L-867.541 368.793L-893.506 391.911L-950.846 398.333L-969.474 231.997L-937.514 228.418L-930.169 294.002ZM-821.36 383.832L-839.989 217.496L-807.794 213.89L-789.165 380.226L-821.36 383.832Z" fill="#FF2A92" />
    <path d="M-723.5 326.436L-660.32 214.938L-630.653 188.758L-611.439 360.322L-643.634 363.927L-657.126 243.453L-720.413 354L-749.818 380.391L-768.953 209.54L-736.993 205.961L-723.5 326.436Z" fill="#FF2A92" />
    <path d="M-563.18 186.495L-481.87 177.389L-507.834 200.507L-557.185 206.034L-540.791 352.41L-572.752 355.989L-589.145 209.613L-563.18 186.495Z" fill="#FF2A92" />
    <path d="M-445.964 173.368L-399.669 168.183C-387.762 166.849 -377.283 169.766 -368.232 176.933C-359.024 184.082 -353.676 193.589 -352.189 205.452C-351.142 214.799 -353.143 223.845 -358.191 232.591C-363.258 241.178 -370.191 247.97 -378.99 252.965C-375.142 244.835 -373.887 236.915 -375.227 229.205C-376.409 221.478 -379.157 214.648 -383.47 208.715C-387.644 202.606 -393.557 197.975 -401.207 194.821C-408.875 191.51 -417.095 190.345 -425.869 191.328L-439.969 192.907L-432.571 258.966L-378.99 252.965L-405.19 276.11L-430.335 278.926L-423.576 339.282L-455.536 342.862L-471.929 196.486L-445.964 173.368Z" fill="#FF2A92" />
    <path d="M-227.281 243.674L-195.301 299.762L-221.239 323.119L-252.802 266.503L-313.903 273.345L-287.938 250.227L-263.498 247.49L-294.117 192.933L-327.708 328.546L-348.388 330.862L-306.621 170.514L-281.543 147.976L-227.308 243.437L-226.838 243.384L-227.281 243.674Z" fill="#FF2A92" />
    <path d="M-72.263 96.6281C-81.6715 110.354 -95.9649 119.413 -115.143 123.807C-134.183 128.024 -150.936 126.452 -165.403 119.089L-142.2 98.9267C-131.671 105.126 -119.686 108.034 -106.245 107.652C-92.6294 107.41 -81.3022 103.736 -72.263 96.6281ZM-145.857 261.743L-82.6765 150.246L-53.0096 124.066L-33.7957 295.63L-65.9907 299.235L-79.4831 178.761L-142.77 289.308L-172.175 315.699L-191.31 144.848L-159.349 141.269L-145.857 261.743Z" fill="#FF2A92" />
    <path d="M52.9443 117.493L134.255 108.387L108.29 131.506L58.9397 137.032L75.3328 283.408L43.3727 286.987L26.9796 140.612L52.9443 117.493Z" fill="#FF2A92" />
    <path d="M170.16 104.366L216.455 99.1811C228.362 97.8476 238.841 100.764 247.893 107.931C257.101 115.08 262.448 124.587 263.936 136.45C264.983 145.797 262.982 154.843 257.933 163.589C252.867 172.177 245.934 178.968 237.134 183.964C240.982 175.833 242.237 167.913 240.898 160.204C239.715 152.476 236.967 145.646 232.654 139.713C228.48 133.604 222.568 128.973 214.918 125.82C207.25 122.508 199.029 121.343 190.256 122.326L176.156 123.905L183.554 189.964L237.134 183.964L210.934 207.108L185.789 209.925L192.549 270.281L160.588 273.86L144.195 127.484L170.16 104.366Z" fill="#FF2A92" />
    <path d="M388.843 174.673L420.823 230.761L394.885 254.117L363.322 197.501L302.222 204.344L328.186 181.225L352.626 178.488L322.008 123.932L288.416 259.544L267.736 261.86L309.503 101.512L334.581 78.9744L388.817 174.435L389.286 174.382L388.843 174.673Z" fill="#FF2A92" />
    <path d="M541.413 131.119L533.855 63.6345L566.05 60.0289L584.679 226.365L552.484 229.971L543.648 151.08L466.568 159.712L475.403 238.603L443.443 242.182L424.815 75.8463L456.775 72.267L466.541 159.475L492.298 136.62L541.413 131.119Z" fill="#FF2A92" />
    <path d="M608.104 55.3191L731.01 41.5546L704.81 64.6994L670.735 68.5156L687.128 214.891L654.933 218.497L638.54 72.1212L581.905 78.464L608.104 55.3191Z" fill="#FF2A92" />
    <path d="M2181.17 -120.853L2227.47 -126.038C2239.37 -127.372 2249.85 -124.455 2258.9 -117.288C2268.11 -110.139 2273.46 -100.633 2274.95 -88.7689C2275.99 -79.4224 2273.99 -70.3762 2268.94 -61.6303C2263.88 -53.0428 2256.94 -46.2513 2248.14 -41.2557C2251.99 -49.386 2253.25 -57.306 2251.91 -65.0157C2250.73 -72.743 2247.98 -79.5731 2243.66 -85.5062C2239.49 -91.6152 2233.58 -96.2464 2225.93 -99.3997C2218.26 -102.711 2210.04 -103.876 2201.27 -102.893L2187.17 -101.314L2194.56 -35.2551L2248.14 -41.2557L2221.94 -18.1108L2196.8 -15.2948L2203.56 45.0614L2171.6 48.6408L2155.21 -97.735L2181.17 -120.853Z" fill="#FF2A92" />
    <path d="M2378.32 -28.4056L2412.89 -146.804L2434.51 -149.225L2371 54.9413L2348.2 57.4942L2364.8 12.3271L2282.8 -118.521L2308.77 -141.64L2378.32 -28.4056Z" fill="#FF2A92" />
    <path d="M2488.86 -87.2215L2532.8 -92.143C2543.61 -93.3537 2553.51 -90.6925 2562.49 -84.1593C2571.45 -77.7846 2576.54 -69.1319 2577.77 -58.2012C2578.78 -49.1715 2576.74 -40.4422 2571.66 -32.0131C2566.54 -23.9009 2559.75 -17.9277 2551.3 -14.0937C2554.4 -20.3762 2555.57 -26.9233 2554.81 -33.7351C2553.9 -44.7009 2548.85 -53.6792 2539.66 -60.67C2530.62 -67.6784 2519.61 -70.4545 2506.6 -68.9982L2491.09 -67.2612L2497.72 -8.09308L2551.3 -14.0937L2525.33 9.02484L2467.99 15.4466L2451.6 -130.929L2477.56 -154.048L2557.7 -163.022L2531.74 -139.904L2483.56 -134.508L2488.86 -87.2215Z" fill="#FF2A92" />
    <path d="M2635.99 -171.79L2725.52 -181.817L2744.15 -15.4813L2711.96 -11.8757L2695.56 -158.251L2643.16 -152.382C2650.81 -115.224 2646.58 -83.5525 2630.48 -57.3679C2630.82 -71.3606 2629.04 -86.4804 2625.16 -102.728C2621.04 -119.749 2615.91 -135.055 2609.79 -148.645L2635.99 -171.79ZM2606.69 4.2448L2588.44 -26.9154C2596.88 -29.4645 2605 -33.5011 2612.79 -39.0251C2620.71 -44.725 2626.61 -50.8393 2630.48 -57.3679C2631.12 -44.6069 2629.38 -32.4629 2625.28 -20.9357C2621 -9.5493 2614.81 -1.15582 2606.69 4.2448Z" fill="#FF2A92" />
    <path d="M2846.24 -105.11L2806.29 -100.636L2812.7 -43.3691L2890.25 -52.0542L2864.29 -28.9356L2782.98 -19.8295L2766.58 -166.205L2792.55 -189.324L2875.03 -198.561L2849.07 -175.443L2798.54 -169.784L2804.05 -120.597L2872.2 -128.229L2846.24 -105.11Z" fill="#FF2A92" />
    <path d="M3016.68 -249.312C3007.27 -235.586 2992.97 -226.527 2973.8 -222.133C2954.76 -217.916 2938 -219.488 2923.54 -226.851L2946.74 -247.013C2957.27 -240.814 2969.25 -237.906 2982.69 -238.288C2996.31 -238.53 3007.64 -242.204 3016.68 -249.312ZM2943.08 -84.1965L3006.26 -195.694L3035.93 -221.874L3055.14 -50.3101L3022.95 -46.7045L3009.46 -167.179L2946.17 -56.6322L2916.76 -30.2411L2897.63 -201.092L2929.59 -204.671L2943.08 -84.1965Z" fill="#FF2A92" />
    <path d="M1296.29 84.1121L1328.25 80.5328L1304.66 101.461L1298.32 102.171L1303.21 145.894L1273.13 149.263L1268.24 105.54L1190.45 114.252L1256.39 -0.201908L1284.1 -24.7191L1296.29 84.1121ZM1259.35 26.1742L1222.03 92.4288L1266.21 87.4809L1259.35 26.1742Z" fill="#FF2A92" />
    <path d="M1459.33 33.3712C1461.32 51.1137 1459.67 67.4997 1454.37 82.5291C1449.06 97.4 1440.54 107.738 1428.81 113.542C1435.98 99.5867 1438.39 82.1538 1436.04 61.243C1433.56 39.0648 1426.63 20.3525 1415.24 5.10603C1404.01 -10.158 1390.8 -16.9391 1375.61 -15.2371C1371.22 -14.7459 1366.99 -13.5505 1362.92 -11.651C1372.52 -26.5205 1384.76 -34.7886 1399.64 -36.4555C1415.31 -38.21 1428.59 -32.2386 1439.48 -18.5411C1450.36 -5.00212 1456.97 12.302 1459.33 33.3712ZM1332.45 68.9948C1330.43 50.9355 1332.02 34.6375 1337.21 20.1009C1342.37 5.24749 1350.94 -5.33647 1362.92 -11.651C1355.76 2.30407 1353.35 19.737 1355.69 40.6478C1358.17 62.8259 1365.11 81.5382 1376.49 96.7847C1387.88 112.031 1401.09 118.812 1416.13 117.128C1420.51 116.637 1424.74 115.441 1428.81 113.542C1419.08 128.587 1406.85 136.935 1392.12 138.584C1376.45 140.338 1363.18 134.446 1352.3 120.907C1341.39 107.051 1334.78 89.7472 1332.45 68.9948Z" fill="#FF2A92" />
    <path d="M1605.24 17.0311C1607.22 34.7736 1605.57 51.1596 1600.27 66.189C1594.96 81.0599 1586.44 91.3975 1574.72 97.2017C1581.88 83.2466 1584.29 65.8137 1581.95 44.9029C1579.46 22.7248 1572.53 4.01244 1561.14 -11.2341C1549.92 -26.4981 1536.7 -33.2791 1521.51 -31.5772C1517.12 -31.0859 1512.89 -29.8906 1508.82 -27.9911C1518.42 -42.8605 1530.66 -51.1287 1545.54 -52.7955C1561.21 -54.5501 1574.49 -48.5787 1585.38 -34.8812C1596.26 -21.3422 1602.88 -4.03811 1605.24 17.0311ZM1478.35 52.6547C1476.33 34.5954 1477.92 18.2974 1483.11 3.76084C1488.27 -11.0926 1496.84 -21.6766 1508.82 -27.9911C1501.66 -14.036 1499.25 3.39691 1501.59 24.3077C1504.08 46.4859 1511.01 65.1982 1522.39 80.4447C1533.78 95.6912 1546.99 102.472 1562.03 100.788C1566.42 100.297 1570.65 99.1012 1574.72 97.2017C1564.98 112.247 1552.75 120.594 1538.02 122.244C1522.35 123.998 1509.08 118.106 1498.21 104.567C1487.3 90.7112 1480.68 73.4071 1478.35 52.6547Z" fill="#FF2A92" />
    <path d="M1648.3 69.7128L1675.08 90.0514L1647.03 111.48L1620.24 91.1409L1648.3 69.7128Z" fill="#FF2A92" />
    <path d="M1806.62 -5.52257C1808.61 12.2199 1806.95 28.6059 1801.66 43.6353C1796.34 58.5062 1787.82 68.8438 1776.1 74.648C1783.26 60.6929 1785.67 43.26 1783.33 22.3492C1780.85 0.171071 1773.91 -18.5413 1762.53 -33.7877C1751.3 -49.0518 1738.09 -55.8328 1722.89 -54.1309C1718.51 -53.6396 1714.28 -52.4443 1710.21 -50.5448C1719.8 -65.4142 1732.04 -73.6824 1746.93 -75.3492C1762.59 -77.1038 1775.88 -71.1323 1786.77 -57.4349C1797.64 -43.8959 1804.26 -26.5918 1806.62 -5.52257ZM1679.74 30.101C1677.72 12.0417 1679.3 -4.25625 1684.5 -18.7928C1689.65 -33.6463 1698.22 -44.2302 1710.21 -50.5448C1703.04 -36.5897 1700.63 -19.1568 1702.98 1.75404C1705.46 23.9322 1712.39 42.6445 1723.78 57.891C1735.16 73.1375 1748.37 79.9185 1763.41 78.2341C1767.8 77.7428 1772.03 76.5475 1776.1 74.648C1766.36 89.6934 1754.13 98.0407 1739.41 99.69C1723.74 101.445 1710.47 95.5524 1699.59 82.0134C1688.68 68.1576 1682.06 50.8534 1679.74 30.101Z" fill="#FF2A92" />
    <path d="M1952.52 -21.8626C1954.51 -4.12012 1952.86 12.2658 1947.56 27.2952C1942.24 42.1662 1933.73 52.5037 1922 58.3079C1929.16 44.3529 1931.57 26.9199 1929.23 6.00911C1926.75 -16.169 1919.81 -34.8813 1908.43 -50.1278C1897.2 -65.3918 1883.99 -72.1729 1868.79 -70.471C1864.41 -69.9797 1860.18 -68.7843 1856.11 -66.8849C1865.71 -81.7543 1877.95 -90.0224 1892.83 -91.6893C1908.5 -93.4439 1921.78 -87.4724 1932.67 -73.775C1943.55 -60.236 1950.16 -42.9319 1952.52 -21.8626ZM1825.64 13.7609C1823.62 -4.29838 1825.2 -20.5963 1830.4 -35.1329C1835.56 -49.9864 1844.13 -60.5703 1856.11 -66.8849C1848.95 -52.9298 1846.54 -35.4968 1848.88 -14.586C1851.36 7.59211 1858.3 26.3044 1869.68 41.5509C1881.07 56.7974 1894.28 63.5784 1909.32 61.8941C1913.7 61.4028 1917.93 60.2074 1922 58.3079C1912.27 73.3533 1900.03 81.7007 1885.31 83.35C1869.64 85.1045 1856.37 79.2123 1845.49 65.6733C1834.58 51.8175 1827.97 34.5134 1825.64 13.7609Z" fill="#FF2A92" />
    <path d="M2098.43 -38.2027C2100.41 -20.4602 2098.76 -4.07428 2093.46 10.9551C2088.15 25.8261 2079.63 36.1637 2067.91 41.9678C2075.07 28.0128 2077.48 10.5798 2075.14 -10.331C2072.65 -32.5091 2065.72 -51.2214 2054.33 -66.4679C2043.11 -81.732 2029.89 -88.513 2014.7 -86.8111C2010.31 -86.3198 2006.08 -85.1244 2002.01 -83.2249C2011.61 -98.0944 2023.85 -106.363 2038.73 -108.029C2054.4 -109.784 2067.68 -103.812 2078.57 -90.115C2089.45 -76.576 2096.07 -59.2719 2098.43 -38.2027ZM1971.54 -2.57911C1969.52 -20.6384 1971.11 -36.9364 1976.3 -51.473C1981.46 -66.3264 1990.03 -76.9104 2002.01 -83.2249C1994.85 -69.2699 1992.44 -51.8369 1994.78 -30.9261C1997.27 -8.74795 2004.2 9.96434 2015.58 25.2108C2026.97 40.4573 2040.18 47.2383 2055.22 45.554C2059.61 45.0627 2063.84 43.8673 2067.91 41.9678C2058.17 57.0133 2045.94 65.3606 2031.21 67.0099C2015.54 68.7645 2002.27 62.8722 1991.4 49.3332C1980.49 35.4774 1973.87 18.1733 1971.54 -2.57911Z" fill="#FF2A92" />
  </g>
  <defs>
    <clipPath id="clip0_1_7832">
      <rect width="738" height="236" fill="white" transform="translate(0 83) rotate(-6.39011)" />
    </clipPath>
  </defs>
</svg>