<svg width="1843" height="774" viewBox="0 0 1843 774" fill="none" xmlns="http://www.w3.org/2000/svg">
<g clip-path="url(#clip0_169_8225)">
<path d="M2035.69 409.283L2027.79 341.838L2059.96 338.068L2079.44 504.306L2047.26 508.077L2038.03 429.232L1960.99 438.259L1970.23 517.103L1938.29 520.846L1918.81 354.607L1950.75 350.865L1960.96 438.021L1986.6 415.035L2035.69 409.283Z" fill="#FF2A92"/>
<path d="M2219.7 414.203L2251.97 470.127L2226.15 493.616L2194.3 437.162L2133.23 444.317L2159.08 421.066L2183.51 418.204L2152.61 363.805L2119.71 499.588L2099.04 502.009L2139.99 341.45L2164.95 318.784L2219.67 413.966L2220.14 413.911L2219.7 414.203Z" fill="#FF2A92"/>
<path d="M51.1667 593.672L38.9539 595.103L53.758 721.444L107.307 715.17L81.4607 738.421L24.1541 745.136L7.01248 598.846L32.8586 575.595L77.2477 570.393C87.1119 569.238 96.0256 571.483 103.989 577.131C111.62 582.656 116.158 590.23 117.603 599.851C118.586 608.242 116.649 616.092 111.791 623.402C107.072 630.536 100.702 635.776 92.6818 639.123C95.193 634.816 96.0775 629.497 95.3355 623.164C94.1482 613.031 89.504 605.23 81.4028 599.759C73.3017 594.288 63.223 592.259 51.1667 593.672ZM73.1882 641.407L88.6892 639.591C99.806 638.288 109.696 640.741 118.36 646.948C127.161 652.978 132.193 661.376 133.454 672.142C134.512 681.167 132.571 689.66 127.631 697.621C122.672 705.425 115.898 711.274 107.307 715.17C110.222 708.89 111.327 702.742 110.622 696.726C109.655 685.765 104.664 677.041 95.6504 670.553C86.7746 663.89 75.7606 661.328 62.6082 662.869L47.3421 664.658L73.1882 641.407Z" fill="#FF2A92"/>
<path d="M188.279 623.829L231.024 618.82C242.435 617.322 252.648 619.817 261.662 626.304C270.657 632.633 275.813 641.418 277.13 652.659C278.188 661.683 276.224 670.66 271.239 679.59C266.217 688.204 259.567 694.44 251.289 698.299C254.103 692.512 255.143 685.81 254.409 678.192C253.285 667.249 248.17 658.139 239.064 650.86C230.095 643.405 219.113 640.438 206.117 641.961L190.616 643.777L197.74 704.573L251.289 698.299L225.443 721.55L168.136 728.265L148.657 562.026L180.598 558.283L188.279 623.829ZM297.546 713.101L278.067 546.862L310.243 543.092L329.722 709.331L297.546 713.101Z" fill="#FF2A92"/>
<path d="M395.111 655.205L457.721 543.386L487.253 517.054L507.345 688.518L475.168 692.288L461.06 571.884L398.339 682.753L369.069 709.294L349.061 538.544L381.003 534.801L395.111 655.205Z" fill="#FF2A92"/>
<path d="M554.713 514.446L635.976 504.924L610.13 528.175L560.809 533.954L577.95 680.244L546.009 683.987L528.867 537.697L554.713 514.446Z" fill="#FF2A92"/>
<path d="M671.861 500.719L718.128 495.298C730.028 493.904 740.522 496.767 749.61 503.887C758.855 510.989 764.251 520.468 765.799 532.324C766.894 541.665 764.939 550.721 759.935 559.493C754.913 568.106 748.015 574.933 739.241 579.974C743.047 571.824 744.261 563.897 742.883 556.195C741.66 548.473 738.878 541.657 734.534 535.747C730.329 529.659 724.393 525.058 716.727 521.944C709.042 518.672 700.816 517.549 692.048 518.576L677.956 520.228L685.692 586.248L739.241 579.974L713.16 603.252L688.029 606.197L695.097 666.518L663.156 670.26L646.014 523.97L671.861 500.719Z" fill="#FF2A92"/>
<path d="M890.9 569.907L923.167 625.83L897.348 649.319L865.496 592.865L804.432 600.02L830.278 576.769L854.704 573.907L823.806 519.508L790.909 655.291L770.241 657.713L811.187 497.153L836.149 474.487L890.873 569.669L891.342 569.614L890.9 569.907Z" fill="#FF2A92"/>
<path d="M1045.16 422.069C1035.83 435.843 1021.58 444.975 1002.42 449.467C983.406 453.782 966.645 452.295 952.141 445.007L975.24 424.726C985.801 430.871 997.801 433.718 1011.24 433.267C1024.85 432.956 1036.16 429.223 1045.16 422.069ZM972.416 587.559L1035.03 475.74L1064.56 449.408L1084.65 620.872L1052.47 624.642L1038.36 504.238L975.644 615.107L946.374 641.648L926.366 470.898L958.307 467.155L972.416 587.559Z" fill="#FF2A92"/>
<path d="M1170.48 442.294L1251.74 432.772L1225.89 456.023L1176.57 461.802L1193.71 608.092L1161.77 611.835L1144.63 465.545L1170.48 442.294Z" fill="#FF2A92"/>
<path d="M1287.62 428.567L1333.89 423.145C1345.79 421.751 1356.29 424.614 1365.37 431.735C1374.62 438.837 1380.01 448.316 1381.56 460.171C1382.66 469.512 1380.7 478.569 1375.7 487.34C1370.68 495.954 1363.78 502.781 1355 507.821C1358.81 499.671 1360.02 491.745 1358.65 484.042C1357.42 476.321 1354.64 469.505 1350.3 463.594C1346.09 457.507 1340.16 452.906 1332.49 449.792C1324.81 446.519 1316.58 445.397 1307.81 446.424L1293.72 448.075L1301.46 514.096L1355 507.821L1328.92 531.1L1303.79 534.044L1310.86 594.365L1278.92 598.108L1261.78 451.818L1287.62 428.567Z" fill="#FF2A92"/>
<path d="M1506.66 497.754L1538.93 553.678L1513.11 577.166L1481.26 520.713L1420.19 527.868L1446.04 504.617L1470.47 501.755L1439.57 447.356L1406.67 583.138L1386 585.56L1426.95 425.001L1451.91 402.335L1506.64 497.517L1507.11 497.462L1506.66 497.754Z" fill="#FF2A92"/>
<path d="M1659.01 453.421L1651.11 385.976L1683.28 382.205L1702.76 548.444L1670.58 552.214L1661.35 473.37L1584.31 482.396L1593.55 561.241L1561.61 564.984L1542.13 398.745L1574.07 395.002L1584.28 482.159L1609.92 459.173L1659.01 453.421Z" fill="#FF2A92"/>
<path d="M1725.31 377.281L1848.14 362.888L1822.06 386.166L1788.01 390.157L1805.15 536.447L1772.97 540.217L1755.83 393.927L1699.23 400.559L1725.31 377.281Z" fill="#FF2A92"/>
<path d="M3297.46 193.064L3343.72 187.642C3355.62 186.248 3366.12 189.111 3375.21 196.231C3384.45 203.333 3389.85 212.812 3391.39 224.668C3392.49 234.009 3390.53 243.065 3385.53 251.837C3380.51 260.45 3373.61 267.277 3364.84 272.318C3368.64 264.168 3369.86 256.242 3368.48 248.539C3367.26 240.818 3364.47 234.002 3360.13 228.091C3355.92 222.003 3349.99 217.402 3342.32 214.288C3334.64 211.016 3326.41 209.893 3317.64 210.921L3303.55 212.572L3311.29 278.592L3364.84 272.318L3338.75 295.596L3313.62 298.541L3320.69 358.862L3288.75 362.605L3271.61 216.315L3297.46 193.064Z" fill="#FF2A92"/>
<path d="M3495.07 284.502L3529.04 165.928L3550.64 163.396L3488.18 367.885L3465.4 370.555L3481.76 325.303L3399.1 194.876L3424.94 171.625L3495.07 284.502Z" fill="#FF2A92"/>
<path d="M3605.31 225.121L3649.23 219.975C3660.03 218.709 3669.94 221.32 3678.96 227.807C3687.95 234.136 3693.09 242.762 3694.37 253.686C3695.43 262.711 3693.43 271.45 3688.39 279.905C3683.32 288.044 3676.56 294.052 3668.12 297.929C3671.2 291.631 3672.33 285.078 3671.54 278.27C3670.57 267.309 3665.47 258.356 3656.25 251.413C3647.18 244.451 3636.14 241.731 3623.15 243.254L3607.65 245.07L3614.58 304.203L3668.12 297.929L3642.28 321.18L3584.97 327.895L3567.83 181.605L3593.68 158.354L3673.76 148.969L3647.92 172.22L3599.77 177.862L3605.31 225.121Z" fill="#FF2A92"/>
<path d="M3752.01 139.801L3841.49 129.316L3860.97 295.555L3828.79 299.325L3811.65 153.035L3759.28 159.172C3767.12 196.291 3763.05 227.984 3747.09 254.25C3747.35 240.256 3745.5 225.145 3741.54 208.918C3737.32 191.918 3732.12 176.639 3725.93 163.08L3752.01 139.801ZM3723.61 315.984L3705.2 284.917C3713.63 282.325 3721.72 278.247 3729.48 272.683C3737.38 266.943 3743.25 260.798 3747.09 254.25C3747.79 267.008 3746.12 279.16 3742.07 290.709C3737.85 302.117 3731.7 310.542 3723.61 315.984Z" fill="#FF2A92"/>
<path d="M3962.6 205.405L3922.67 210.083L3929.38 267.317L4006.88 258.235L3981.03 281.486L3899.77 291.008L3882.63 144.718L3908.48 121.467L3990.91 111.807L3965.07 135.059L3914.57 140.975L3920.33 190.134L3988.44 182.154L3962.6 205.405Z" fill="#FF2A92"/>
<path d="M4132.29 60.3333C4122.95 74.1066 4108.71 83.2391 4089.55 87.7306C4070.53 92.0455 4053.77 90.5588 4039.27 83.2706L4062.37 62.9896C4072.93 69.1349 4084.93 71.982 4098.37 71.5307C4111.98 71.2195 4123.29 67.487 4132.29 60.3333ZM4059.54 225.823L4122.15 114.004L4151.69 87.6723L4171.78 259.136L4139.6 262.906L4125.49 142.502L4062.77 253.371L4033.5 279.912L4013.49 109.161L4045.44 105.419L4059.54 225.823Z" fill="#FF2A92"/>
<path d="M2413.64 402.553L2445.58 398.81L2422.09 419.859L2415.75 420.602L2420.87 464.299L2390.81 467.821L2385.69 424.124L2307.95 433.234L2373.31 318.444L2400.89 293.786L2413.64 402.553ZM2376.4 344.805L2339.42 411.249L2383.58 406.076L2376.4 344.805Z" fill="#FF2A92"/>
<path d="M2576.42 350.979C2578.5 368.711 2576.92 385.105 2571.7 400.161C2566.47 415.059 2558 425.44 2546.31 431.304C2553.4 417.313 2555.72 399.868 2553.27 378.969C2550.67 356.804 2543.64 338.128 2532.18 322.94C2520.88 307.733 2507.63 301.02 2492.44 302.799C2488.06 303.313 2483.83 304.53 2479.77 306.45C2489.3 291.532 2501.49 283.201 2516.37 281.458C2532.03 279.624 2545.34 285.527 2556.3 299.169C2567.24 312.652 2573.95 329.922 2576.42 350.979ZM2449.72 387.251C2447.6 369.202 2449.11 352.896 2454.23 338.333C2459.31 323.454 2467.82 312.826 2479.77 306.45C2472.68 320.442 2470.36 337.887 2472.81 358.785C2475.41 380.951 2482.44 399.627 2493.9 414.815C2505.36 430.003 2518.61 436.717 2533.64 434.955C2538.02 434.442 2542.25 433.225 2546.31 431.304C2536.65 446.399 2524.46 454.809 2509.74 456.534C2494.08 458.369 2480.78 452.544 2469.84 439.061C2458.86 425.261 2452.15 407.991 2449.72 387.251Z" fill="#FF2A92"/>
<path d="M2722.23 333.893C2724.31 351.625 2722.74 368.019 2717.52 383.075C2712.28 397.973 2703.82 408.354 2692.12 414.218C2699.21 400.227 2701.54 382.782 2699.09 361.883C2696.49 339.718 2689.46 321.041 2678 305.853C2666.69 290.647 2653.45 283.934 2638.26 285.713C2633.87 286.227 2629.65 287.444 2625.59 289.364C2635.11 274.446 2647.31 266.115 2662.19 264.372C2677.84 262.538 2691.15 268.441 2702.12 282.082C2713.06 295.566 2719.77 312.836 2722.23 333.893ZM2595.54 370.165C2593.42 352.116 2594.92 335.81 2600.04 321.247C2605.12 306.368 2613.64 295.74 2625.59 289.364C2618.5 303.356 2616.18 320.801 2618.63 341.699C2621.23 363.864 2628.26 382.541 2639.72 397.729C2651.18 412.917 2664.43 419.63 2679.46 417.869C2683.84 417.355 2688.06 416.138 2692.12 414.218C2682.46 429.313 2670.28 437.723 2655.56 439.448C2639.9 441.282 2626.6 435.458 2615.65 421.975C2604.67 408.175 2597.97 390.905 2595.54 370.165Z" fill="#FF2A92"/>
<path d="M2765.56 386.353L2792.45 406.555L2764.51 428.126L2737.62 407.925L2765.56 386.353Z" fill="#FF2A92"/>
<path d="M2923.5 310.309C2925.58 328.041 2924.01 344.435 2918.79 359.492C2913.55 374.39 2905.08 384.771 2893.39 390.635C2900.48 376.643 2902.8 359.198 2900.35 338.3C2897.76 316.134 2890.73 297.458 2879.26 282.27C2867.96 267.063 2854.71 260.35 2839.52 262.13C2835.14 262.643 2830.92 263.86 2826.86 265.781C2836.38 250.862 2848.58 242.532 2863.45 240.789C2879.11 238.954 2892.42 244.857 2903.38 258.499C2914.33 271.982 2921.03 289.252 2923.5 310.309ZM2796.8 346.581C2794.69 328.532 2796.19 312.227 2801.31 297.664C2806.39 282.784 2814.91 272.156 2826.86 265.781C2819.77 279.772 2817.45 297.217 2819.9 318.116C2822.49 340.281 2829.52 358.957 2840.98 374.146C2852.45 389.334 2865.69 396.047 2880.72 394.286C2885.11 393.772 2889.33 392.555 2893.39 390.635C2883.73 405.73 2871.54 414.14 2856.82 415.864C2841.17 417.699 2827.87 411.875 2816.92 398.391C2805.94 384.592 2799.23 367.321 2796.8 346.581Z" fill="#FF2A92"/>
<path d="M3069.32 293.223C3071.4 310.955 3069.83 327.349 3064.61 342.405C3059.37 357.303 3050.9 367.684 3039.21 373.549C3046.3 359.557 3048.62 342.112 3046.17 321.213C3043.57 299.048 3036.54 280.372 3025.08 265.184C3013.78 249.977 3000.53 243.264 2985.34 245.043C2980.96 245.557 2976.74 246.774 2972.67 248.694C2982.2 233.776 2994.39 225.445 3009.27 223.702C3024.93 221.868 3038.24 227.771 3049.2 241.413C3060.15 254.896 3066.85 272.166 3069.32 293.223ZM2942.62 329.495C2940.51 311.446 2942.01 295.14 2947.13 280.577C2952.21 265.698 2960.72 255.07 2972.67 248.694C2965.58 262.686 2963.26 280.131 2965.71 301.03C2968.31 323.195 2975.34 341.871 2986.8 357.059C2998.26 372.247 3011.51 378.961 3026.54 377.199C3030.92 376.686 3035.15 375.469 3039.21 373.549C3029.55 388.644 3017.36 397.053 3002.64 398.778C2986.98 400.613 2973.68 394.788 2962.74 381.305C2951.76 367.505 2945.05 350.235 2942.62 329.495Z" fill="#FF2A92"/>
<path d="M3215.14 276.137C3217.21 293.869 3215.64 310.263 3210.42 325.319C3205.18 340.217 3196.72 350.598 3185.02 356.462C3192.12 342.471 3194.44 325.026 3191.99 304.127C3189.39 281.962 3182.36 263.285 3170.9 248.097C3159.59 232.891 3146.35 226.178 3131.16 227.957C3126.77 228.471 3122.55 229.688 3118.49 231.608C3128.01 216.69 3140.21 208.359 3155.09 206.616C3170.74 204.782 3184.05 210.685 3195.02 224.327C3205.96 237.81 3212.67 255.08 3215.14 276.137ZM3088.44 312.409C3086.32 294.36 3087.82 278.054 3092.94 263.491C3098.02 248.612 3106.54 237.984 3118.49 231.608C3111.4 245.6 3109.08 263.045 3111.53 283.943C3114.13 306.109 3121.16 324.785 3132.62 339.973C3144.08 355.161 3157.33 361.875 3172.36 360.113C3176.74 359.6 3180.96 358.383 3185.02 356.462C3175.37 371.557 3163.18 379.967 3148.46 381.692C3132.8 383.526 3119.5 377.702 3108.56 364.219C3097.57 350.419 3090.87 333.149 3088.44 312.409Z" fill="#FF2A92"/>
</g>
<g clip-path="url(#clip1_169_8225)">
<path d="M2001.31 88.9081L1993.76 21.4232L2025.95 17.8176L2044.58 184.154L2012.39 187.759L2003.55 108.868L1926.47 117.501L1935.31 196.392L1903.35 199.971L1884.72 33.635L1916.68 30.0557L1926.44 117.263L1952.2 94.4087L2001.31 88.9081Z" fill="#FF2A92"/>
<path d="M2185.3 94.7693L2217.28 150.857L2191.34 174.214L2159.78 117.598L2098.68 124.44L2124.64 101.322L2149.08 98.5847L2118.47 44.0284L2084.87 179.641L2064.19 181.957L2105.96 21.6091L2131.04 -0.928911L2185.27 94.5316L2185.74 94.479L2185.3 94.7693Z" fill="#FF2A92"/>
<path d="M15.8758 263.143L3.65574 264.512L17.8134 390.927L71.3936 384.926L45.4289 408.045L-11.9113 414.467L-28.3044 268.091L-2.33969 244.972L42.0755 239.998C51.9455 238.893 60.8476 241.184 68.7817 246.872C76.3847 252.437 80.8839 260.033 82.2795 269.661C83.2198 278.057 81.2425 285.898 76.3476 293.183C71.5917 300.292 65.1951 305.5 57.1579 308.806C59.691 304.512 60.6027 299.197 59.8931 292.86C58.7576 282.722 54.1534 274.896 46.0804 269.384C38.0073 263.873 27.9392 261.792 15.8758 263.143ZM37.6528 310.99L53.1628 309.253C64.2862 308.007 74.1637 310.51 82.7955 316.762C91.5661 322.837 96.5546 331.261 97.7611 342.033C98.7723 351.063 96.7877 359.546 91.8071 367.482C86.8088 375.26 80.0043 381.075 71.3936 384.926C74.3405 378.661 75.4769 372.519 74.8027 366.499C73.8919 355.534 68.9462 346.784 59.9656 340.251C51.124 333.542 40.1232 330.924 26.9632 332.398L11.6881 334.109L37.6528 310.99Z" fill="#FF2A92"/>
<path d="M152.832 294.001L195.602 289.211C207.021 287.772 217.221 290.318 226.201 296.852C235.164 303.226 240.275 312.037 241.535 323.285C242.546 332.315 240.536 341.282 235.506 350.186C230.439 358.773 223.757 364.975 215.46 368.792C218.304 363.02 219.378 356.323 218.683 348.702C217.615 337.753 212.547 328.617 203.478 321.291C194.547 313.79 183.581 310.768 170.577 312.224L155.067 313.961L161.88 374.793L215.46 368.792L189.495 391.91L132.155 398.332L113.527 231.996L145.487 228.417L152.832 294.001ZM261.641 383.831L243.012 217.495L275.207 213.889L293.836 380.225L261.641 383.831Z" fill="#FF2A92"/>
<path d="M359.501 326.435L422.682 214.937L452.349 188.757L471.562 360.321L439.367 363.927L425.875 243.452L362.588 353.999L333.183 380.39L314.048 209.539L346.009 205.96L359.501 326.435Z" fill="#FF2A92"/>
<path d="M519.821 186.494L601.131 177.388L575.167 200.506L525.817 206.033L542.21 352.409L510.249 355.988L493.856 209.612L519.821 186.494Z" fill="#FF2A92"/>
<path d="M637.037 173.367L683.332 168.182C695.239 166.848 705.718 169.765 714.769 176.932C723.978 184.081 729.325 193.588 730.813 205.451C731.859 214.798 729.858 223.844 724.81 232.59C719.744 241.177 712.81 247.969 704.011 252.964C707.859 244.834 709.114 236.914 707.774 229.204C706.592 221.477 703.844 214.647 699.531 208.714C695.357 202.605 689.445 197.974 681.794 194.82C674.126 191.509 665.906 190.344 657.132 191.327L643.032 192.906L650.431 258.965L704.011 252.964L677.811 276.109L652.666 278.925L659.425 339.282L627.465 342.861L611.072 196.485L637.037 173.367Z" fill="#FF2A92"/>
<path d="M855.72 243.673L887.7 299.761L861.762 323.118L830.199 266.502L769.098 273.344L795.063 250.226L819.503 247.489L788.885 192.932L755.293 328.545L734.613 330.861L776.38 170.513L801.458 147.975L855.693 243.436L856.163 243.383L855.72 243.673Z" fill="#FF2A92"/>
<path d="M1010.74 96.6271C1001.33 110.353 987.036 119.412 967.858 123.806C948.818 128.023 932.065 126.451 917.598 119.088L940.801 98.9258C951.33 105.125 963.315 108.033 976.756 107.651C990.372 107.409 1001.7 103.735 1010.74 96.6271ZM937.144 261.743L1000.32 150.245L1029.99 124.065L1049.21 295.629L1017.01 299.234L1003.52 178.76L940.231 289.307L910.826 315.698L891.691 144.847L923.652 141.268L937.144 261.743Z" fill="#FF2A92"/>
<path d="M1135.95 117.492L1217.26 108.386L1191.29 131.505L1141.94 137.031L1158.33 283.407L1126.37 286.986L1109.98 140.611L1135.95 117.492Z" fill="#FF2A92"/>
<path d="M1253.16 104.365L1299.46 99.1801C1311.36 97.8467 1321.84 100.763 1330.89 107.93C1340.1 115.079 1345.45 124.586 1346.94 136.449C1347.98 145.796 1345.98 154.842 1340.93 163.588C1335.87 172.176 1328.93 178.967 1320.13 183.963C1323.98 175.832 1325.24 167.912 1323.9 160.203C1322.72 152.475 1319.97 145.645 1315.66 139.712C1311.48 133.603 1305.57 128.972 1297.92 125.819C1290.25 122.507 1282.03 121.342 1273.26 122.325L1259.16 123.904L1266.55 189.963L1320.13 183.963L1293.94 207.108L1268.79 209.924L1275.55 270.28L1243.59 273.859L1227.2 127.483L1253.16 104.365Z" fill="#FF2A92"/>
<path d="M1471.84 174.672L1503.82 230.76L1477.89 254.116L1446.32 197.5L1385.22 204.343L1411.19 181.224L1435.63 178.487L1405.01 123.931L1371.42 259.543L1350.74 261.859L1392.5 101.511L1417.58 78.9734L1471.82 174.434L1472.29 174.381L1471.84 174.672Z" fill="#FF2A92"/>
<path d="M1624.41 131.118L1616.86 63.6335L1649.05 60.0279L1667.68 226.364L1635.48 229.97L1626.65 151.079L1549.57 159.711L1558.4 238.602L1526.44 242.181L1507.82 75.8453L1539.78 72.266L1549.54 159.474L1575.3 136.619L1624.41 131.118Z" fill="#FF2A92"/>
<path d="M1691.11 55.3181L1814.01 41.5536L1787.81 64.6984L1753.74 68.5146L1770.13 214.89L1737.93 218.496L1721.54 72.1202L1664.91 78.463L1691.11 55.3181Z" fill="#FF2A92"/>
<path d="M3264.17 -120.854L3310.47 -126.039C3322.37 -127.373 3332.85 -124.456 3341.9 -117.289C3351.11 -110.14 3356.46 -100.634 3357.95 -88.7699C3358.99 -79.4234 3356.99 -70.3772 3351.94 -61.6313C3346.88 -53.0438 3339.94 -46.2523 3331.14 -41.2567C3334.99 -49.387 3336.25 -57.307 3334.91 -65.0167C3333.73 -72.744 3330.98 -79.5741 3326.67 -85.5072C3322.49 -91.6162 3316.58 -96.2473 3308.93 -99.4006C3301.26 -102.712 3293.04 -103.877 3284.27 -102.894L3270.17 -101.315L3277.56 -35.2561L3331.14 -41.2567L3304.95 -18.1118L3279.8 -15.2957L3286.56 45.0605L3254.6 48.6398L3238.21 -97.7359L3264.17 -120.854Z" fill="#FF2A92"/>
<path d="M3461.32 -28.4066L3495.89 -146.805L3517.51 -149.226L3454 54.9403L3431.2 57.4932L3447.8 12.3261L3365.8 -118.522L3391.77 -141.641L3461.32 -28.4066Z" fill="#FF2A92"/>
<path d="M3571.86 -87.2225L3615.8 -92.144C3626.61 -93.3547 3636.51 -90.6934 3645.49 -84.1603C3654.45 -77.7855 3659.54 -69.1328 3660.77 -58.2022C3661.78 -49.1725 3659.74 -40.4432 3654.66 -32.0141C3649.54 -23.9019 3642.75 -17.9287 3634.3 -14.0947C3637.4 -20.3771 3638.57 -26.9242 3637.81 -33.7361C3636.9 -44.7019 3631.85 -53.6802 3622.66 -60.671C3613.62 -67.6794 3602.61 -70.4554 3589.6 -68.9992L3574.09 -67.2621L3580.72 -8.09406L3634.3 -14.0947L3608.33 9.02387L3550.99 15.4456L3534.6 -130.93L3560.57 -154.049L3640.7 -163.023L3614.74 -139.905L3566.56 -134.509L3571.86 -87.2225Z" fill="#FF2A92"/>
<path d="M3718.99 -171.791L3808.52 -181.818L3827.15 -15.4823L3794.96 -11.8767L3778.57 -158.252L3726.16 -152.383C3733.81 -115.225 3729.59 -83.5535 3713.48 -57.3688C3713.82 -71.3615 3712.05 -86.4814 3708.16 -102.729C3704.04 -119.75 3698.91 -135.056 3692.79 -148.646L3718.99 -171.791ZM3689.69 4.24383L3671.44 -26.9164C3679.88 -29.4655 3688 -33.5021 3695.79 -39.0261C3703.71 -44.726 3709.61 -50.8402 3713.48 -57.3688C3714.12 -44.6079 3712.38 -32.4638 3708.28 -20.9366C3704.01 -9.55028 3697.81 -1.1568 3689.69 4.24383Z" fill="#FF2A92"/>
<path d="M3929.24 -105.111L3889.29 -100.637L3895.7 -43.3701L3973.25 -52.0552L3947.29 -28.9366L3865.98 -19.8304L3849.59 -166.206L3875.55 -189.325L3958.03 -198.562L3932.07 -175.444L3881.55 -169.785L3887.05 -120.598L3955.2 -128.23L3929.24 -105.111Z" fill="#FF2A92"/>
<path d="M4099.68 -249.313C4090.27 -235.587 4075.97 -226.528 4056.8 -222.134C4037.76 -217.917 4021 -219.489 4006.54 -226.852L4029.74 -247.014C4040.27 -240.815 4052.25 -237.907 4065.69 -238.289C4079.31 -238.531 4090.64 -242.205 4099.68 -249.313ZM4026.08 -84.1974L4089.26 -195.695L4118.93 -221.875L4138.14 -50.3111L4105.95 -46.7055L4092.46 -167.18L4029.17 -56.6332L3999.76 -30.2421L3980.63 -201.093L4012.59 -204.672L4026.08 -84.1974Z" fill="#FF2A92"/>
<path d="M2379.29 84.1112L2411.25 80.5319L2387.66 101.46L2381.32 102.171L2386.21 145.893L2356.13 149.262L2351.24 105.539L2273.45 114.251L2339.39 -0.202885L2367.11 -24.7201L2379.29 84.1112ZM2342.35 26.1733L2305.03 92.4278L2349.21 87.4799L2342.35 26.1733Z" fill="#FF2A92"/>
<path d="M2542.34 33.3702C2544.32 51.1127 2542.67 67.4987 2537.37 82.5281C2532.06 97.399 2523.54 107.737 2511.81 113.541C2518.98 99.5857 2521.39 82.1528 2519.04 61.242C2516.56 39.0638 2509.63 20.3515 2498.24 5.10506C2487.02 -10.159 2473.8 -16.94 2458.61 -15.2381C2454.22 -14.7468 2449.99 -13.5514 2445.92 -11.652C2455.52 -26.5214 2467.76 -34.7896 2482.64 -36.4564C2498.31 -38.211 2511.59 -32.2395 2522.48 -18.5421C2533.36 -5.0031 2539.98 12.301 2542.34 33.3702ZM2415.45 68.9938C2413.43 50.9345 2415.02 34.6365 2420.21 20.0999C2425.37 5.24651 2433.94 -5.33745 2445.92 -11.652C2438.76 2.30309 2436.35 19.736 2438.69 40.6468C2441.17 62.825 2448.11 81.5373 2459.49 96.7838C2470.88 112.03 2484.09 118.811 2499.13 117.127C2503.52 116.636 2507.74 115.44 2511.81 113.541C2502.08 128.586 2489.85 136.934 2475.12 138.583C2459.45 140.337 2446.18 134.445 2435.31 120.906C2424.39 107.05 2417.78 89.7462 2415.45 68.9938Z" fill="#FF2A92"/>
<path d="M2688.24 17.0301C2690.22 34.7727 2688.57 51.1586 2683.27 66.188C2677.96 81.059 2669.44 91.3965 2657.72 97.2007C2664.88 83.2456 2667.29 65.8127 2664.95 44.9019C2662.46 22.7238 2655.53 4.01146 2644.15 -11.235C2632.92 -26.4991 2619.71 -33.2801 2604.51 -31.5782C2600.12 -31.0869 2595.89 -29.8915 2591.82 -27.992C2601.42 -42.8615 2613.66 -51.1297 2628.54 -52.7965C2644.21 -54.5511 2657.49 -48.5796 2668.38 -34.8822C2679.26 -21.3432 2685.88 -4.03909 2688.24 17.0301ZM2561.36 52.6538C2559.33 34.5944 2560.92 18.2965 2566.11 3.75987C2571.27 -11.0936 2579.84 -21.6775 2591.82 -27.992C2584.66 -14.037 2582.25 3.39594 2584.59 24.3068C2587.08 46.4849 2594.01 65.1972 2605.4 80.4437C2616.78 95.6902 2629.99 102.471 2645.03 100.787C2649.42 100.296 2653.65 99.1002 2657.72 97.2007C2647.98 112.246 2635.75 120.593 2621.02 122.243C2605.36 123.997 2592.08 118.105 2581.21 104.566C2570.3 90.7103 2563.68 73.4062 2561.36 52.6538Z" fill="#FF2A92"/>
<path d="M2731.3 69.7118L2758.08 90.0504L2730.03 111.479L2703.24 91.1399L2731.3 69.7118Z" fill="#FF2A92"/>
<path d="M2889.62 -5.52354C2891.61 12.219 2889.95 28.6049 2884.66 43.6343C2879.34 58.5052 2870.82 68.8428 2859.1 74.647C2866.26 60.692 2868.67 43.259 2866.33 22.3482C2863.85 0.170094 2856.91 -18.5422 2845.53 -33.7887C2834.3 -49.0528 2821.09 -55.8338 2805.89 -54.1319C2801.51 -53.6406 2797.28 -52.4452 2793.21 -50.5458C2802.81 -65.4152 2815.05 -73.6834 2829.93 -75.3502C2845.6 -77.1048 2858.88 -71.1333 2869.77 -57.4359C2880.64 -43.8969 2887.26 -26.5928 2889.62 -5.52354ZM2762.74 30.1001C2760.72 12.0407 2762.3 -4.25723 2767.5 -18.7938C2772.65 -33.6472 2781.22 -44.2312 2793.21 -50.5458C2786.05 -36.5907 2783.64 -19.1578 2785.98 1.75306C2788.46 23.9312 2795.4 42.6435 2806.78 57.89C2818.16 73.1365 2831.38 79.9175 2846.42 78.2332C2850.8 77.7419 2855.03 76.5465 2859.1 74.647C2849.36 89.6924 2837.13 98.0398 2822.41 99.6891C2806.74 101.444 2793.47 95.5514 2782.59 82.0124C2771.68 68.1566 2765.06 50.8525 2762.74 30.1001Z" fill="#FF2A92"/>
<path d="M3035.52 -21.8636C3037.51 -4.1211 3035.86 12.2649 3030.56 27.2942C3025.25 42.1652 3016.73 52.5028 3005 58.3069C3012.17 44.3519 3014.58 26.919 3012.23 6.00814C3009.75 -16.17 3002.82 -34.8823 2991.43 -50.1288C2980.2 -65.3928 2966.99 -72.1739 2951.8 -70.4719C2947.41 -69.9807 2943.18 -68.7853 2939.11 -66.8859C2948.71 -81.7553 2960.95 -90.0234 2975.83 -91.6903C2991.5 -93.4448 3004.78 -87.4734 3015.67 -73.776C3026.55 -60.237 3033.16 -42.9328 3035.52 -21.8636ZM2908.64 13.76C2906.62 -4.29936 2908.21 -20.5973 2913.4 -35.1339C2918.56 -49.9873 2927.13 -60.5713 2939.11 -66.8859C2931.95 -52.9308 2929.54 -35.4978 2931.88 -14.587C2934.36 7.59113 2941.3 26.3034 2952.68 41.5499C2964.07 56.7964 2977.28 63.5775 2992.32 61.8931C2996.7 61.4018 3000.93 60.2064 3005 58.3069C2995.27 73.3524 2983.04 81.6997 2968.31 83.349C2952.64 85.1035 2939.37 79.2114 2928.5 65.6724C2917.58 51.8165 2910.97 34.5124 2908.64 13.76Z" fill="#FF2A92"/>
<path d="M3181.43 -38.2037C3183.41 -20.4612 3181.76 -4.07526 3176.46 10.9541C3171.15 25.8251 3162.63 36.1627 3150.91 41.9669C3158.07 28.0118 3160.48 10.5789 3158.14 -10.332C3155.65 -32.5101 3148.72 -51.2224 3137.33 -66.4689C3126.11 -81.7329 3112.9 -88.514 3097.7 -86.812C3093.31 -86.3208 3089.08 -85.1254 3085.01 -83.2259C3094.61 -98.0954 3106.85 -106.364 3121.73 -108.03C3137.4 -109.785 3150.68 -103.813 3161.57 -90.116C3172.45 -76.577 3179.07 -59.2729 3181.43 -38.2037ZM3054.55 -2.58009C3052.52 -20.6394 3054.11 -36.9374 3059.3 -51.474C3064.46 -66.3274 3073.03 -76.9114 3085.01 -83.2259C3077.85 -69.2708 3075.44 -51.8379 3077.78 -30.9271C3080.27 -8.74893 3087.2 9.96337 3098.58 25.2099C3109.97 40.4563 3123.18 47.2374 3138.22 45.553C3142.61 45.0617 3146.84 43.8663 3150.91 41.9669C3141.17 57.0123 3128.94 65.3596 3114.21 67.0089C3098.54 68.7635 3085.27 62.8713 3074.4 49.3323C3063.49 35.4764 3056.87 18.1723 3054.55 -2.58009Z" fill="#FF2A92"/>
</g>
<g clip-path="url(#clip2_169_8225)">
<path d="M517.879 107.053L543.372 35.8002L577.644 48.0622L514.809 223.685L480.537 211.423L510.339 128.127L428.287 98.7702L398.485 182.065L364.463 169.893L427.299 -5.72953L461.32 6.44294L428.376 98.5193L465.596 88.3465L517.879 107.053Z" fill="#40FF00"/>
<path d="M700.743 203.61L705.498 275.497L667.849 286.082L663.774 213.872L598.732 190.601L636.292 180.267L662.308 189.575L658.175 119.892L557.701 239.031L535.687 231.155L656.555 91.2949L692.935 81.1045L700.833 203.359L701.333 203.538L700.743 203.61Z" fill="#40FF00"/>
<path d="M-1572.01 -697.284L-1585.02 -701.938L-1632.77 -568.465L-1575.74 -548.059L-1613.3 -537.724L-1674.34 -559.563L-1619.04 -714.111L-1581.48 -724.445L-1534.2 -707.529C-1523.69 -703.77 -1515.83 -697.089 -1510.61 -687.487C-1505.67 -678.171 -1504.86 -668.352 -1508.17 -658.03C-1511.34 -649.165 -1517.19 -642.294 -1525.71 -637.417C-1534 -632.648 -1543.01 -630.59 -1552.75 -631.244C-1548.08 -634.292 -1544.55 -639.161 -1542.16 -645.851C-1538.33 -656.556 -1539.14 -666.655 -1544.58 -676.15C-1550.03 -685.645 -1559.17 -692.69 -1572.01 -697.284ZM-1573.51 -638.673L-1557 -632.765C-1545.16 -628.529 -1536.42 -621.156 -1530.77 -610.645C-1524.9 -600.243 -1524 -589.355 -1528.07 -577.981C-1531.48 -568.447 -1537.64 -560.937 -1546.57 -555.451C-1555.43 -550.132 -1565.15 -547.668 -1575.74 -548.059C-1569.69 -552.875 -1565.52 -558.461 -1563.25 -564.817C-1558.79 -576.238 -1559.49 -587.431 -1565.35 -598.395C-1570.98 -609.467 -1580.8 -617.508 -1594.81 -622.521L-1611.07 -628.338L-1573.51 -638.673Z" fill="#40FF00"/>
<path d="M-1448.89 -598.898L-1403.36 -582.608C-1391.13 -578.419 -1382.08 -570.843 -1376.22 -559.879C-1370.3 -549.082 -1369.47 -537.746 -1373.72 -525.871C-1377.13 -516.337 -1383.56 -508.355 -1393.01 -501.925C-1402.34 -495.83 -1412.13 -492.917 -1422.38 -493.188C-1416.67 -497.563 -1412.3 -503.734 -1409.26 -511.703C-1404.97 -523.184 -1405.6 -534.825 -1411.16 -546.625C-1416.49 -558.533 -1426.08 -566.963 -1439.92 -571.916L-1456.43 -577.823L-1479.41 -513.595L-1422.38 -493.188L-1459.94 -482.854L-1520.98 -504.693L-1458.14 -680.316L-1424.12 -668.143L-1448.89 -598.898ZM-1383.14 -455.377L-1320.3 -630.999L-1286.03 -618.737L-1348.87 -443.115L-1383.14 -455.377Z" fill="#40FF00"/>
<path d="M-1256.17 -464.57L-1137.66 -544.994L-1094.87 -556.566L-1159.68 -375.424L-1193.95 -387.687L-1148.44 -514.887L-1266.59 -435.467L-1309.23 -423.554L-1244.68 -603.944L-1210.66 -591.771L-1256.17 -464.57Z" fill="#40FF00"/>
<path d="M-1025.64 -525.572L-939.083 -494.604L-976.643 -484.269L-1029.18 -503.065L-1084.47 -348.517L-1118.49 -360.69L-1063.2 -515.238L-1025.64 -525.572Z" fill="#40FF00"/>
<path d="M-900.862 -480.928L-851.58 -463.296C-838.905 -458.761 -829.758 -450.677 -824.138 -439.044C-818.351 -427.352 -817.618 -415.203 -821.94 -402.599C-825.47 -392.731 -831.93 -384.665 -841.32 -378.402C-850.649 -372.307 -860.982 -368.929 -872.318 -368.268C-864.442 -374.506 -859.288 -381.812 -856.856 -390.187C-854.257 -398.502 -853.679 -406.691 -855.121 -414.754C-856.336 -422.924 -860.032 -430.473 -866.207 -437.399C-872.323 -444.492 -880.051 -449.71 -889.39 -453.051L-904.399 -458.422L-929.354 -388.674L-872.318 -368.268L-910.127 -358.023L-936.894 -367.6L-959.695 -303.874L-993.716 -316.046L-938.421 -470.594L-900.862 -480.928Z" fill="#40FF00"/>
<path d="M-714.602 -302.783L-709.846 -230.896L-747.495 -220.311L-751.571 -292.52L-816.612 -315.791L-779.053 -326.125L-753.036 -316.817L-757.169 -386.5L-857.643 -267.361L-879.657 -275.238L-758.789 -415.097L-722.41 -425.288L-714.512 -303.033L-714.011 -302.854L-714.602 -302.783Z" fill="#40FF00"/>
<path d="M-485.932 -373.507C-502.166 -364.411 -521.043 -362.392 -542.56 -367.449C-563.851 -372.614 -579.993 -382.445 -590.984 -396.944L-557.664 -405.682C-550.077 -394.288 -539.405 -385.47 -525.648 -379.227C-511.784 -372.758 -498.546 -370.851 -485.932 -373.507ZM-641.27 -244.566L-522.761 -324.989L-479.962 -336.562L-544.772 -155.42L-579.044 -167.682L-533.533 -294.883L-651.683 -215.463L-694.322 -203.55L-629.781 -383.939L-595.759 -371.767L-641.27 -244.566Z" fill="#40FF00"/>
<path d="M-369.772 -290.911L-283.216 -259.943L-320.776 -249.609L-373.309 -268.404L-428.604 -113.857L-462.626 -126.029L-407.331 -280.577L-369.772 -290.911Z" fill="#40FF00"/>
<path d="M-244.995 -246.268L-195.713 -228.635C-183.039 -224.1 -173.891 -216.016 -168.271 -204.383C-162.484 -192.691 -161.751 -180.542 -166.073 -167.938C-169.604 -158.07 -176.064 -150.004 -185.453 -143.742C-194.782 -137.646 -205.115 -134.268 -216.451 -133.607C-208.575 -139.845 -203.421 -147.152 -200.989 -155.526C-198.391 -163.841 -197.812 -172.03 -199.254 -180.093C-200.47 -188.263 -204.165 -195.812 -210.341 -202.738C-216.456 -209.832 -224.184 -215.049 -233.523 -218.391L-248.533 -223.761L-273.487 -154.014L-216.451 -133.607L-254.26 -123.362L-281.027 -132.939L-303.828 -69.2131L-337.849 -81.3856L-282.554 -235.933L-244.995 -246.268Z" fill="#40FF00"/>
<path d="M-58.7347 -68.1218L-53.9793 3.76515L-91.6283 14.3503L-95.704 -57.8594L-160.745 -81.1304L-123.186 -91.4646L-97.1695 -82.1562L-101.302 -151.839L-201.776 -32.7004L-223.79 -40.5768L-102.923 -180.437L-66.5433 -190.627L-58.645 -68.3726L-58.1447 -68.1936L-58.7347 -68.1218Z" fill="#40FF00"/>
<path d="M116.667 -36.496L142.16 -107.748L176.432 -95.4865L113.596 80.1359L79.3245 67.8739L109.126 -15.4213L27.0741 -44.7786L-2.72785 38.5166L-36.7495 26.3441L26.086 -149.278L60.1076 -137.106L27.1639 -45.0295L64.3834 -55.2023L116.667 -36.496Z" fill="#40FF00"/>
<path d="M221.199 -79.4695L352.032 -32.659L314.222 -22.4143L277.949 -35.3923L222.654 119.155L188.382 106.893L243.677 -47.6544L183.389 -69.2248L221.199 -79.4695Z" fill="#40FF00"/>
<path d="M1895.73 519.658L1945.01 537.29C1957.69 541.825 1966.84 549.909 1972.46 561.542C1978.24 573.235 1978.98 585.383 1974.66 597.987C1971.12 607.855 1964.66 615.921 1955.28 622.184C1945.95 628.279 1935.61 631.658 1924.28 632.319C1932.15 626.08 1937.31 618.774 1939.74 610.399C1942.34 602.084 1942.92 593.895 1941.47 585.832C1940.26 577.662 1936.56 570.114 1930.39 563.187C1924.27 556.094 1916.54 550.876 1907.21 547.535L1892.2 542.165L1867.24 611.912L1924.28 632.319L1886.47 642.563L1859.7 632.986L1836.9 696.712L1802.88 684.54L1858.17 529.992L1895.73 519.658Z" fill="#40FF00"/>
<path d="M2049.39 709.344L2142.4 607.911L2165.41 616.145L2001.09 789.133L1976.82 780.451L2015.74 743.436L1997.19 572.089L2034.75 561.755L2049.39 709.344Z" fill="#40FF00"/>
<path d="M2189.85 704.978L2236.63 721.715C2248.13 725.833 2256.82 733.373 2262.68 744.337C2268.6 755.134 2269.49 766.303 2265.36 777.843C2261.95 787.377 2255.61 795.108 2246.34 801.037C2237.19 806.63 2227.41 809.262 2216.99 808.931C2223.21 804.175 2227.6 798.2 2230.18 791.008C2234.64 779.586 2233.95 768.113 2228.1 756.588C2222.42 745.122 2212.66 736.913 2198.82 731.96L2182.31 726.053L2159.95 788.524L2216.99 808.931L2179.43 819.265L2118.39 797.426L2173.69 642.879L2211.25 632.545L2296.55 663.065L2258.99 673.4L2207.71 655.051L2189.85 704.978Z" fill="#40FF00"/>
<path d="M2379.89 692.883L2475.2 726.984L2412.36 902.606L2378.09 890.344L2433.39 735.796L2377.6 715.837C2367.09 756.79 2347.28 786.398 2318.17 804.661C2325.38 790.826 2331.01 774.823 2335.06 756.652C2339.25 737.586 2341.59 719.744 2342.08 703.127L2379.89 692.883ZM2263.91 854.583L2260.78 814.411C2270.55 816.02 2280.73 815.981 2291.3 814.293C2302.1 812.497 2311.06 809.287 2318.17 804.661C2312.55 817.744 2304.84 829.041 2295.04 838.553C2285.13 847.838 2274.75 853.182 2263.91 854.583Z" fill="#40FF00"/>
<path d="M2559.42 863.242L2516.89 848.027L2495.26 908.491L2577.81 938.027L2540.25 948.361L2453.69 917.393L2508.99 762.845L2546.55 752.511L2634.35 783.927L2596.79 794.261L2543.01 775.018L2524.43 826.952L2596.98 852.908L2559.42 863.242Z" fill="#40FF00"/>
<path d="M2802.26 802.964C2786.02 812.06 2767.14 814.08 2745.63 809.023C2724.34 803.858 2708.19 794.026 2697.2 779.528L2730.52 770.79C2738.11 782.183 2748.78 791.001 2762.54 797.244C2776.4 803.714 2789.64 805.62 2802.26 802.964ZM2646.92 931.906L2765.43 851.482L2808.23 839.91L2743.42 1021.05L2709.14 1008.79L2754.65 881.589L2636.5 961.009L2593.87 972.922L2658.41 792.532L2692.43 804.705L2646.92 931.906Z" fill="#40FF00"/>
<path d="M901.817 288.57L935.838 300.742L901.749 310.054L894.995 307.637L878.478 353.801L846.457 342.344L862.974 296.181L780.171 266.555L902.92 184.535L942.929 173.662L901.817 288.57ZM892.956 212.384L822.766 260.286L869.796 277.113L892.956 212.384Z" fill="#40FF00"/>
<path d="M1091.32 318.165C1084.62 336.898 1074.9 352.478 1062.18 364.906C1049.51 377.167 1035.84 383.312 1021.16 383.341C1035.24 372.907 1046.23 356.651 1054.12 334.573C1062.5 311.157 1064.69 289.015 1060.68 268.147C1056.84 247.34 1046.83 234.042 1030.65 228.254C1025.98 226.583 1021.12 225.695 1016.08 225.589C1033.07 215.441 1049.48 213.202 1065.33 218.87C1082.01 224.837 1092.48 237.358 1096.76 256.434C1101.09 275.342 1099.28 295.919 1091.32 318.165ZM945.741 291.267C952.563 272.199 962.163 256.673 974.541 244.687C987.038 232.367 1000.88 226.001 1016.08 225.589C1002 236.022 991.013 252.278 983.114 274.357C974.735 297.773 972.551 319.915 976.56 340.782C980.57 361.65 990.579 374.948 1006.59 380.676C1011.26 382.347 1016.11 383.235 1021.16 383.341C1003.94 393.596 987.497 395.919 971.82 390.31C955.143 384.344 944.637 371.906 940.303 352.998C936.089 333.755 937.901 313.178 945.741 291.267Z" fill="#40FF00"/>
<path d="M1246.63 373.734C1239.93 392.467 1230.22 408.048 1217.49 420.475C1204.83 432.736 1191.15 438.881 1176.47 438.91C1190.55 428.477 1201.54 412.221 1209.44 390.143C1217.82 366.726 1220 344.584 1215.99 323.717C1212.15 302.909 1202.14 289.611 1185.96 283.823C1181.29 282.152 1176.44 281.264 1171.4 281.158C1188.38 271.01 1204.8 268.771 1220.64 274.44C1237.32 280.406 1247.79 292.928 1252.07 312.003C1256.4 330.912 1254.59 351.489 1246.63 373.734ZM1101.05 346.836C1107.88 327.769 1117.48 312.242 1129.85 300.256C1142.35 287.936 1156.2 281.57 1171.4 281.158C1157.32 291.592 1146.33 307.848 1138.43 329.926C1130.05 353.342 1127.86 375.484 1131.87 396.352C1135.88 417.219 1145.89 430.517 1161.9 436.245C1166.57 437.916 1171.43 438.804 1176.47 438.91C1159.26 449.165 1142.81 451.489 1127.13 445.88C1110.46 439.913 1099.95 427.475 1095.62 408.567C1091.4 389.324 1093.22 368.747 1101.05 346.836Z" fill="#40FF00"/>
<path d="M1264.25 447.674L1281.3 481.23L1242.46 488.841L1225.4 455.286L1264.25 447.674Z" fill="#40FF00"/>
<path d="M1461.01 450.435C1454.3 469.168 1444.59 484.748 1431.87 497.176C1419.2 509.437 1405.53 515.582 1390.84 515.611C1404.92 505.177 1415.91 488.921 1423.81 466.843C1432.19 443.427 1434.38 421.285 1430.37 400.417C1426.52 379.609 1416.51 366.311 1400.34 360.524C1395.67 358.853 1390.81 357.965 1385.77 357.859C1402.76 347.711 1419.17 345.471 1435.02 351.14C1451.69 357.107 1462.17 369.628 1466.44 388.704C1470.78 407.612 1468.97 428.189 1461.01 450.435ZM1315.43 423.537C1322.25 404.469 1331.85 388.942 1344.23 376.957C1356.73 364.636 1370.57 358.27 1385.77 357.859C1371.69 368.292 1360.7 384.548 1352.8 406.626C1344.42 430.043 1342.24 452.185 1346.25 473.052C1350.26 493.92 1360.27 507.218 1376.28 512.946C1380.95 514.617 1385.8 515.505 1390.84 515.611C1373.63 525.866 1357.19 528.189 1341.51 522.58C1324.83 516.613 1314.33 504.176 1309.99 485.267C1305.78 466.025 1307.59 445.448 1315.43 423.537Z" fill="#40FF00"/>
<path d="M1616.32 506.004C1609.62 524.737 1599.9 540.317 1587.18 552.745C1574.52 565.006 1560.84 571.151 1546.16 571.18C1560.24 560.746 1571.23 544.491 1579.13 522.412C1587.5 498.996 1589.69 476.854 1585.68 455.986C1581.84 435.179 1571.83 421.881 1555.65 416.093C1550.98 414.422 1546.13 413.534 1541.08 413.428C1558.07 403.28 1574.49 401.041 1590.33 406.709C1607.01 412.676 1617.48 425.198 1621.76 444.273C1626.09 463.182 1624.28 483.758 1616.32 506.004ZM1470.74 479.106C1477.57 460.038 1487.17 444.512 1499.54 432.526C1512.04 420.206 1525.89 413.84 1541.08 413.428C1527 423.862 1516.02 440.118 1508.12 462.196C1499.74 485.612 1497.55 507.754 1501.56 528.622C1505.57 549.489 1515.58 562.787 1531.59 568.515C1536.26 570.186 1541.12 571.074 1546.16 571.18C1528.94 581.435 1512.5 583.758 1496.82 578.15C1480.15 572.183 1469.64 559.745 1465.31 540.837C1461.09 521.594 1462.9 501.017 1470.74 479.106Z" fill="#40FF00"/>
<path d="M1771.63 561.573C1764.93 580.306 1755.22 595.887 1742.49 608.315C1729.83 620.575 1716.16 626.72 1701.47 626.749C1715.55 616.316 1726.54 600.06 1734.44 577.982C1742.82 554.565 1745 532.423 1740.99 511.556C1737.15 490.748 1727.14 477.45 1710.96 471.662C1706.29 469.991 1701.44 469.103 1696.4 468.997C1713.39 458.85 1729.8 456.61 1745.64 462.279C1762.32 468.246 1772.8 480.767 1777.07 499.842C1781.41 518.751 1779.59 539.328 1771.63 561.573ZM1626.06 534.675C1632.88 515.608 1642.48 500.081 1654.86 488.095C1667.35 475.775 1681.2 469.409 1696.4 468.997C1682.32 479.431 1671.33 495.687 1663.43 517.765C1655.05 541.181 1652.87 563.323 1656.88 584.191C1660.89 605.058 1670.9 618.356 1686.91 624.085C1691.58 625.755 1696.43 626.644 1701.47 626.749C1684.26 637.005 1667.81 639.328 1652.14 633.719C1635.46 627.752 1624.95 615.314 1620.62 596.406C1616.4 577.163 1618.22 556.586 1626.06 534.675Z" fill="#40FF00"/>
</g>
<defs>
<clipPath id="clip0_169_8225">
<rect width="1086" height="236" fill="white" transform="translate(0 539) rotate(-6.68319)"/>
</clipPath>
<clipPath id="clip1_169_8225">
<rect width="738" height="236" fill="white" transform="translate(1083 83) rotate(-6.39011)"/>
</clipPath>
<clipPath id="clip2_169_8225">
<rect width="1106" height="263" fill="white" transform="translate(797 79) rotate(19.6866)"/>
</clipPath>
</defs>
</svg>
