<svg  viewBox="0 0 496 275" fill="none" xmlns="http://www.w3.org/2000/svg">
  <g clip-path="url(#clip0_1_1733)">
    <path d="M-82.626 11.8757L-71.2036 -19.4869L-56.202 -14.0233L-84.3558 63.279L-99.3573 57.8154L-86.0044 21.152L-121.92 8.07127L-135.273 44.7346L-150.165 39.3109L-122.012 -37.9913L-107.12 -32.5676L-121.88 7.96085L-105.511 3.54077L-82.626 11.8757Z" fill="#40FF00" />
    <path d="M-2.68456 54.7494L-0.833113 86.4436L-17.3918 91.0446L-18.9439 59.2094L-47.4139 48.8405L-30.8954 44.3499L-19.5074 48.4974L-21.0929 17.7757L-65.5809 70.1168L-75.2168 66.6074L-21.7103 5.16793L-5.71021 0.738672L-2.64434 54.639L-2.42538 54.7187L-2.68456 54.7494Z" fill="#40FF00" />
    <path d="M-997.229 -346.242L-1002.92 -348.315L-1024.32 -289.566L-999.354 -280.473L-1015.87 -275.982L-1042.59 -285.713L-1017.82 -353.739L-1001.3 -358.23L-980.601 -350.692C-976.002 -349.017 -972.573 -346.059 -970.315 -341.818C-968.175 -337.703 -967.85 -333.374 -969.34 -328.83C-970.761 -324.928 -973.348 -321.909 -977.103 -319.774C-980.757 -317.686 -984.72 -316.795 -988.991 -317.1C-986.934 -318.435 -985.369 -320.575 -984.296 -323.52C-982.58 -328.232 -982.901 -332.685 -985.26 -336.879C-987.618 -341.074 -991.608 -344.194 -997.229 -346.242ZM-998.079 -320.41L-990.852 -317.777C-985.669 -315.89 -981.856 -312.625 -979.413 -307.983C-976.87 -303.387 -976.51 -298.587 -978.333 -293.58C-979.861 -289.384 -982.593 -286.084 -986.527 -283.681C-990.435 -281.352 -994.71 -280.283 -999.354 -280.473C-996.683 -282.585 -994.838 -285.04 -993.819 -287.838C-991.823 -292.865 -992.093 -297.799 -994.628 -302.642C-997.064 -307.532 -1001.35 -311.093 -1007.48 -313.327L-1014.6 -315.919L-998.079 -320.41Z" fill="#40FF00" />
    <path d="M-943.517 -302.664L-923.588 -295.406C-918.232 -293.539 -914.286 -290.184 -911.75 -285.341C-909.188 -280.572 -908.858 -275.574 -910.762 -270.347C-912.29 -266.15 -915.139 -262.643 -919.307 -259.825C-923.421 -257.154 -927.728 -255.887 -932.225 -256.024C-929.708 -257.943 -927.769 -260.655 -926.409 -264.163C-924.486 -269.216 -924.725 -274.348 -927.127 -279.559C-929.429 -284.817 -933.609 -288.549 -939.668 -290.756L-946.895 -293.388L-957.191 -265.117L-932.225 -256.024L-948.744 -251.534L-975.462 -261.265L-947.308 -338.567L-932.416 -333.143L-943.517 -302.664ZM-915.127 -239.291L-886.973 -316.593L-871.972 -311.129L-900.126 -233.827L-915.127 -239.291Z" fill="#40FF00" />
    <path d="M-859.373 -243.125L-807.097 -278.371L-788.274 -283.398L-817.313 -203.666L-832.314 -209.13L-811.923 -265.119L-864.038 -230.315L-882.792 -225.137L-853.874 -304.538L-838.982 -299.114L-859.373 -243.125Z" fill="#40FF00" />
    <path d="M-757.993 -269.618L-720.106 -255.819L-736.624 -251.328L-759.619 -259.703L-784.394 -191.677L-799.286 -197.101L-774.511 -265.127L-757.993 -269.618Z" fill="#40FF00" />
    <path d="M-703.375 -249.726L-681.804 -241.869C-676.256 -239.849 -672.268 -236.27 -669.839 -231.133C-667.337 -225.969 -667.056 -220.613 -668.994 -215.065C-670.576 -210.721 -673.437 -207.177 -677.579 -204.433C-681.693 -201.762 -686.239 -200.291 -691.217 -200.019C-687.74 -202.755 -685.454 -205.967 -684.359 -209.654C-683.191 -213.314 -682.91 -216.923 -683.517 -220.479C-684.024 -224.083 -685.621 -227.416 -688.308 -230.48C-690.969 -233.617 -694.344 -235.93 -698.432 -237.419L-705.002 -239.811L-716.183 -209.111L-691.217 -200.019L-707.845 -195.568L-719.561 -199.835L-729.777 -171.785L-744.669 -177.209L-719.894 -245.235L-703.375 -249.726Z" fill="#40FF00" />
    <path d="M-622.211 -170.884L-620.359 -139.19L-636.918 -134.589L-638.47 -166.424L-666.94 -176.793L-650.422 -181.284L-639.034 -177.136L-640.619 -207.858L-685.107 -155.517L-694.743 -159.026L-641.236 -220.465L-625.236 -224.895L-622.171 -170.994L-621.952 -170.915L-622.211 -170.884Z" fill="#40FF00" />
    <path d="M-521.617 -201.666C-528.772 -197.684 -537.064 -196.826 -546.491 -199.092C-555.819 -201.405 -562.871 -205.767 -567.647 -212.176L-552.995 -215.97C-549.702 -210.935 -545.047 -207.03 -539.03 -204.255C-532.966 -201.379 -527.162 -200.516 -521.617 -201.666ZM-590.217 -145.098L-537.941 -180.343L-519.118 -185.371L-548.157 -105.639L-563.158 -111.102L-542.767 -167.091L-594.882 -132.288L-613.635 -127.11L-584.718 -206.51L-569.825 -201.087L-590.217 -145.098Z" fill="#40FF00" />
    <path d="M-470.906 -165.06L-433.019 -151.261L-449.537 -146.771L-472.532 -155.145L-497.308 -87.1194L-512.2 -92.5431L-487.424 -160.569L-470.906 -165.06Z" fill="#40FF00" />
    <path d="M-416.289 -145.168L-394.717 -137.312C-389.169 -135.291 -385.181 -131.712 -382.752 -126.575C-380.251 -121.411 -379.969 -116.055 -381.907 -110.507C-383.489 -106.163 -386.351 -102.619 -390.492 -99.8748C-394.607 -97.2041 -399.153 -95.7328 -404.13 -95.4608C-400.653 -98.197 -398.367 -101.409 -397.272 -105.096C-396.104 -108.757 -395.824 -112.365 -396.43 -115.921C-396.937 -119.525 -398.534 -122.858 -401.222 -125.922C-403.883 -129.059 -407.257 -131.372 -411.345 -132.861L-417.915 -135.254L-429.096 -104.554L-404.13 -95.4608L-420.758 -91.0101L-432.475 -95.2773L-442.69 -67.2276L-457.582 -72.6513L-432.807 -140.677L-416.289 -145.168Z" fill="#40FF00" />
    <path d="M-335.124 -66.3261L-333.273 -34.6319L-349.831 -30.0309L-351.383 -61.8661L-379.853 -72.235L-363.335 -76.7256L-351.947 -72.5781L-353.532 -103.3L-398.02 -50.9586L-407.656 -54.4681L-354.15 -115.908L-338.15 -120.337L-335.084 -66.4365L-334.865 -66.3567L-335.124 -66.3261Z" fill="#40FF00" />
    <path d="M-258.245 -52.0853L-246.823 -83.4479L-231.821 -77.9844L-259.975 -0.682101L-274.976 -6.14567L-261.624 -42.809L-297.54 -55.8898L-310.893 -19.2264L-325.785 -24.6501L-297.631 -101.952L-282.739 -96.5287L-297.499 -56.0002L-281.131 -60.4203L-258.245 -52.0853Z" fill="#40FF00" />
    <path d="M-212.226 -70.8477L-154.957 -49.9903L-171.585 -45.5396L-187.463 -51.3222L-212.238 16.7038L-227.24 11.2402L-202.464 -56.7858L-228.854 -66.3969L-212.226 -70.8477Z" fill="#40FF00" />
    <path d="M520.753 196.106L542.325 203.962C547.873 205.983 551.861 209.562 554.29 214.699C556.791 219.863 557.073 225.219 555.135 230.767C553.553 235.11 550.691 238.654 546.55 241.399C542.435 244.07 537.889 245.541 532.912 245.813C536.389 243.077 538.675 239.865 539.77 236.178C540.938 232.517 541.218 228.909 540.612 225.352C540.105 221.749 538.508 218.415 535.82 215.352C533.159 212.215 529.785 209.902 525.697 208.413L519.127 206.02L507.946 236.72L532.912 245.813L516.284 250.264L504.567 245.996L494.352 274.046L479.46 268.622L504.235 200.596L520.753 196.106Z" fill="#40FF00" />
    <path d="M587.569 279.978L628.723 235.429L638.797 239.098L566.109 315.065L555.487 311.196L572.691 294.948L565.11 219.39L581.629 214.9L587.569 279.978Z" fill="#40FF00" />
    <path d="M649.23 278.295L669.707 285.753C674.744 287.587 678.53 290.926 681.066 295.768C683.628 300.537 683.985 305.462 682.134 310.542C680.606 314.738 677.798 318.135 673.71 320.732C669.676 323.182 665.374 324.325 660.803 324.161C663.547 322.076 665.496 319.45 666.649 316.284C668.645 311.257 668.379 306.199 665.85 301.109C663.395 296.045 659.138 292.41 653.079 290.203L645.852 287.571L635.837 315.069L660.803 324.161L644.285 328.652L617.567 318.921L642.342 250.895L658.86 246.405L696.2 260.004L679.681 264.494L657.234 256.319L649.23 278.295Z" fill="#40FF00" />
    <path d="M732.679 273.29L774.398 288.484L746.244 365.786L731.243 360.323L756.018 292.297L731.6 283.403C726.851 301.436 718.059 314.453 705.223 322.453C708.432 316.367 710.956 309.323 712.796 301.321C714.696 292.924 715.781 285.064 716.051 277.74L732.679 273.29ZM681.244 344.364L680.005 326.652C684.288 327.378 688.753 327.378 693.4 326.652C698.146 325.879 702.087 324.48 705.223 322.453C702.713 328.21 699.292 333.176 694.96 337.352C690.582 341.428 686.01 343.765 681.244 344.364Z" fill="#40FF00" />
    <path d="M810.913 348.688L792.298 341.908L782.606 368.522L818.74 381.683L802.222 386.173L764.335 372.375L789.11 304.349L805.629 299.858L844.063 313.856L827.545 318.347L804.002 309.773L795.677 332.632L827.432 344.197L810.913 348.688Z" fill="#40FF00" />
    <path d="M917.692 322.535C910.537 326.517 902.245 327.375 892.818 325.109C883.49 322.796 876.438 318.434 871.662 312.025L886.314 308.231C889.607 313.266 894.262 317.171 900.279 319.946C906.343 322.821 912.147 323.685 917.692 322.535ZM849.092 379.103L901.368 343.858L920.191 338.83L891.152 418.562L876.151 413.098L896.542 357.11L844.427 391.913L825.674 397.091L854.592 317.691L869.483 323.114L849.092 379.103Z" fill="#40FF00" />
    <path d="M85.2869 92.5426L100.179 97.9663L85.1867 102.012L82.2302 100.935L74.8298 121.255L60.8138 116.15L68.2142 95.8307L31.9697 82.6304L86.1119 46.6886L103.707 41.9648L85.2869 92.5426ZM81.6476 58.9465L50.6849 79.9404L71.2709 87.4379L81.6476 58.9465Z" fill="#40FF00" />
    <path d="M168.361 105.913C165.358 114.158 161.043 121.009 155.418 126.465C149.82 131.847 143.798 134.533 137.353 134.52C143.567 129.945 148.444 122.799 151.983 113.081C155.737 102.774 156.768 93.0183 155.077 83.8135C153.459 74.6353 149.109 68.7568 142.028 66.1778C139.984 65.4334 137.856 65.0335 135.643 64.9783C143.132 60.5345 150.344 59.5756 157.279 62.1013C164.579 64.76 169.136 70.297 170.949 78.7124C172.79 87.0542 171.927 96.1209 168.361 105.913ZM104.556 93.8068C107.613 85.414 111.877 78.5867 117.349 73.3249C122.874 67.9158 128.972 65.1336 135.643 64.9783C129.43 69.553 124.553 76.6993 121.014 86.4173C117.26 96.7243 116.229 106.48 117.92 115.685C119.611 124.89 123.961 130.768 130.969 133.321C133.013 134.065 135.141 134.465 137.353 134.52C129.765 139.011 122.539 140.007 115.677 137.508C108.377 134.849 103.807 129.349 101.967 121.007C100.181 112.518 101.044 103.451 104.556 93.8068Z" fill="#40FF00" />
    <path d="M236.345 130.673C233.342 138.918 229.027 145.769 223.402 151.225C217.804 156.607 211.782 159.293 205.338 159.28C211.551 154.705 216.428 147.559 219.967 137.841C223.721 127.534 224.752 117.778 223.061 108.574C221.443 99.3953 217.093 93.5168 210.012 90.9379C207.968 90.1934 205.84 89.7936 203.628 89.7383C211.117 85.2946 218.329 84.3356 225.264 86.8613C232.564 89.52 237.12 95.057 238.934 103.472C240.774 111.814 239.911 120.881 236.345 130.673ZM172.54 118.567C175.597 110.174 179.861 103.347 185.333 98.0849C190.858 92.6759 196.956 89.8936 203.628 89.7383C197.414 94.313 192.538 101.459 188.998 111.177C185.244 121.484 184.213 131.24 185.904 140.445C187.596 149.65 191.945 155.528 198.953 158.081C200.997 158.825 203.125 159.225 205.338 159.28C197.749 163.771 190.524 164.767 183.662 162.268C176.362 159.609 171.791 154.109 169.951 145.767C168.165 137.278 169.028 128.211 172.54 118.567Z" fill="#40FF00" />
    <path d="M243.833 163.294L251.21 178.113L234.138 181.402L226.76 166.582L243.833 163.294Z" fill="#40FF00" />
    <path d="M330.181 164.848C327.178 173.094 322.864 179.944 317.239 185.401C311.64 190.783 305.619 193.468 299.174 193.456C305.388 188.881 310.264 181.735 313.804 172.017C317.557 161.71 318.589 151.954 316.897 142.749C315.279 133.571 310.929 127.692 303.848 125.113C301.805 124.369 299.676 123.969 297.464 123.914C304.953 119.47 312.165 118.511 319.1 121.037C326.4 123.695 330.957 129.233 332.77 137.648C334.61 145.99 333.747 155.056 330.181 164.848ZM266.376 152.742C269.433 144.349 273.697 137.522 279.169 132.26C284.695 126.851 290.793 124.069 297.464 123.914C291.25 128.489 286.374 135.635 282.835 145.353C279.081 155.66 278.049 165.416 279.741 174.62C281.432 183.825 285.781 189.704 292.79 192.256C294.833 193.001 296.962 193.4 299.174 193.456C291.585 197.946 284.36 198.942 277.498 196.443C270.198 193.784 265.628 188.284 263.788 179.942C262.001 171.453 262.864 162.387 266.376 152.742Z" fill="#40FF00" />
    <path d="M398.165 189.608C395.162 197.854 390.848 204.704 385.223 210.161C379.624 215.543 373.603 218.228 367.158 218.216C373.372 213.641 378.248 206.495 381.788 196.777C385.541 186.47 386.573 176.714 384.881 167.509C383.263 158.331 378.914 152.452 371.833 149.873C369.789 149.129 367.66 148.729 365.448 148.674C372.937 144.23 380.149 143.271 387.084 145.797C394.384 148.456 398.941 153.993 400.754 162.408C402.594 170.75 401.731 179.816 398.165 189.608ZM334.361 177.502C337.417 169.11 341.682 162.282 347.153 157.02C352.679 151.611 358.777 148.829 365.448 148.674C359.234 153.249 354.358 160.395 350.819 170.113C347.065 180.42 346.034 190.176 347.725 199.38C349.416 208.585 353.766 214.464 360.774 217.016C362.818 217.761 364.946 218.16 367.158 218.216C359.569 222.706 352.344 223.702 345.482 221.203C338.182 218.544 333.612 213.044 331.772 204.702C329.985 196.213 330.848 187.147 334.361 177.502Z" fill="#40FF00" />
    <path d="M466.149 214.368C463.146 222.614 458.832 229.464 453.207 234.921C447.609 240.303 441.587 242.988 435.142 242.976C441.356 238.401 446.233 231.255 449.772 221.537C453.526 211.23 454.557 201.474 452.866 192.269C451.247 183.091 446.898 177.212 439.817 174.633C437.773 173.889 435.645 173.489 433.432 173.434C440.921 168.99 448.133 168.031 455.068 170.557C462.368 173.216 466.925 178.753 468.738 187.168C470.578 195.51 469.715 204.576 466.149 214.368ZM402.345 202.262C405.401 193.87 409.666 187.042 415.137 181.78C420.663 176.371 426.761 173.589 433.432 173.434C427.219 178.009 422.342 185.155 418.803 194.873C415.049 205.18 414.018 214.936 415.709 224.14C417.4 233.345 421.75 239.224 428.758 241.776C430.802 242.521 432.93 242.92 435.142 242.976C427.554 247.467 420.328 248.462 413.466 245.963C406.166 243.304 401.596 237.804 399.756 229.462C397.969 220.973 398.832 211.907 402.345 202.262Z" fill="#40FF00" />
  </g>
  <defs>
    <clipPath id="clip0_1_1733">
      <rect width="485" height="116" fill="white" transform="translate(40) rotate(20.0118)" />
    </clipPath>
  </defs>
</svg>