<svg  viewBox="0 0 964 142" fill="none" xmlns="http://www.w3.org/2000/svg">
  <path d="M17.6217 82.0649L58.8254 15.368L76.5767 0.768397V111.725H58.8254V33.8095L17.6217 99.8918L0 114.645V4.14935H17.6217V82.0649Z" fill="#EAEAEA" />
  <path d="M156.733 47.7944V4.14935H174.484V111.725H156.733V60.7035H114.233V111.725H96.6117V4.14935H114.233V60.5498L129.652 47.7944H156.733Z" fill="#EAEAEA" />
  <path d="M254.863 47.7944V4.14935H272.614V111.725H254.863V60.7035H212.363V111.725H194.742V4.14935H212.363V60.5498L227.782 47.7944H254.863Z" fill="#EAEAEA" />
  <path d="M383.831 51.79C383.831 61.9329 381.412 71.2561 376.575 79.7597C371.824 87.956 365.605 94.0007 357.917 97.8939C365.518 88.4682 369.319 77.0447 369.319 63.6234C369.319 49.8947 365.259 38.215 357.139 28.5844C349.106 18.8514 339.345 13.9848 327.856 13.9848C322.414 13.9848 317.231 15.2655 312.308 17.8268C320.427 7.37663 330.448 2.15151 342.368 2.15151C353.684 2.15151 363.445 7.01804 371.651 16.7511C379.771 26.3817 383.831 38.0613 383.831 51.79ZM300.905 51.79C300.905 65.6212 304.965 77.3521 313.085 86.9827C321.291 96.7157 331.052 101.582 342.368 101.582C347.724 101.582 352.907 100.353 357.917 97.8939C349.71 108.344 339.69 113.569 327.856 113.569C316.454 113.569 306.65 108.703 298.443 98.9697C290.41 89.1342 286.393 77.3521 286.393 63.6234C286.393 53.2756 288.769 44.0036 293.52 35.8074C298.271 27.6111 304.533 21.6176 312.308 17.8268C304.706 27.1501 300.905 38.4711 300.905 51.79Z" fill="#EAEAEA" />
  <path d="M468.849 9.22078L454.337 21.0541C447.945 16.2388 440.732 13.8312 432.699 13.8312C427.084 13.8312 421.815 15.1118 416.891 17.6732C425.011 7.22294 435.16 1.99784 447.34 1.99784C455.287 1.99784 462.457 4.40548 468.849 9.22078ZM405.489 51.6364C405.489 65.57 409.419 77.3521 417.28 86.9827C425.14 96.6133 434.729 101.429 446.044 101.429C451.141 101.429 456.021 100.353 460.686 98.2013C465.351 95.9473 469.151 93.386 472.088 90.5173C468.979 96.1522 464.012 101.429 457.188 106.346C450.364 111.162 442.46 113.569 433.476 113.569C421.555 113.569 411.492 108.703 403.286 98.9697C395.08 89.2366 390.977 77.4033 390.977 63.4697C390.977 53.1219 393.352 43.8499 398.103 35.6537C402.854 27.4574 409.117 21.4639 416.891 17.6732C409.289 26.9964 405.489 38.3175 405.489 51.6364Z" fill="#EAEAEA" />
  <path d="M570.474 51.79C570.474 61.9329 568.056 71.2561 563.219 79.7597C558.468 87.956 552.248 94.0007 544.56 97.8939C552.162 88.4682 555.963 77.0447 555.963 63.6234C555.963 49.8947 551.903 38.215 543.783 28.5844C535.749 18.8514 525.988 13.9848 514.5 13.9848C509.058 13.9848 503.875 15.2655 498.951 17.8268C507.071 7.37663 517.091 2.15151 529.012 2.15151C540.328 2.15151 550.089 7.01804 558.295 16.7511C566.415 26.3817 570.474 38.0613 570.474 51.79ZM487.549 51.79C487.549 65.6212 491.609 77.3521 499.729 86.9827C507.935 96.7157 517.696 101.582 529.012 101.582C534.367 101.582 539.55 100.353 544.56 97.8939C536.354 108.344 526.334 113.569 514.5 113.569C503.097 113.569 493.293 108.703 485.087 98.9697C477.054 89.1342 473.037 77.3521 473.037 63.6234C473.037 53.2756 475.412 44.0036 480.163 35.8074C484.914 27.6111 491.177 21.6176 498.951 17.8268C491.35 27.1501 487.549 38.4711 487.549 51.79Z" fill="#EAEAEA" />
  <path d="M661.064 98.816H674.021V127.861L657.177 142V111.725H584.099V4.14935H601.85V98.816H643.313V4.14935H661.064V98.816Z" fill="#EAEAEA" />
  <path d="M703.52 82.0649L744.724 15.368L762.475 0.768397V111.725H744.724V33.8095L703.52 99.8918L685.898 114.645V4.14935H703.52V82.0649Z" fill="#EAEAEA" />
  <path d="M819.583 77.3009L845.626 4.14935H857.547L810.513 130.013H797.944L809.735 102.351L773.066 12.9091L788.615 0L819.583 77.3009Z" fill="#EAEAEA" />
  <path d="M946.897 0.61472L964 101.89L948.063 114.952L935.235 37.0368L917.095 98.816L901.547 111.725L878.612 37.8052L868.506 111.725H856.715L871.097 13.6775L886.646 0.61472L911.653 81.1429L931.348 13.5238L946.897 0.61472Z" fill="#EAEAEA" />
</svg>