<svg  viewBox="0 0 41 41" fill="none" xmlns="http://www.w3.org/2000/svg">
  <path fill-rule="evenodd" clip-rule="evenodd" d="M18.6874 0.560473C16.5009 0.784018 14.7447 1.20326 12.895 1.94328C11.8654 2.35528 11.7787 2.4782 12.7609 2.13332C13.1323 2.00293 13.6929 1.82715 14.0068 1.7426C14.3208 1.65816 14.9372 1.46721 15.3768 1.31837C16.5847 0.909316 19.3209 0.623745 21.2405 0.706485C23.3296 0.796469 24.1942 0.959458 26.8705 1.76818C27.0862 1.83338 27.2494 2.14339 27.068 2.14339C26.9674 2.14339 25.2128 1.80836 24.3383 1.62217C23.7487 1.49664 24.2962 1.78708 25.0812 2.01629C25.521 2.14464 26.1316 2.40723 26.4377 2.59977C26.9845 2.94363 26.9901 2.95291 26.7504 3.11929C26.5311 3.27164 26.4171 3.26451 25.6222 3.049C25.1359 2.91714 24.6352 2.74374 24.5096 2.6636C24.227 2.4833 22.9531 2.00768 22.8983 2.0619C22.8763 2.08374 23.1683 2.31838 23.5471 2.58335C24.233 3.06281 24.4525 3.38279 24.4525 3.90277C24.4525 4.15518 24.4301 4.16582 24.1586 4.04313C23.9314 3.94047 23.8138 3.94194 23.6397 4.0498C23.4498 4.16741 23.3262 4.1416 22.8511 3.88512C22.2131 3.54092 22.1009 3.43871 21.5089 2.66281L21.0848 2.10706L21.0261 2.776C20.9634 3.4893 20.7317 3.93718 20.2701 4.23702C20.0603 4.37329 19.9455 4.3897 19.8354 4.29916C19.7531 4.23147 19.5161 4.18993 19.3087 4.20679C18.9682 4.23441 18.9154 4.19627 18.7668 3.81641C18.607 3.40837 18.6134 3.37781 18.9734 2.82172C19.1776 2.50616 19.3197 2.2233 19.2893 2.19308C19.2588 2.16286 18.9824 2.31736 18.6752 2.53661C18.368 2.75574 18.0014 3.0172 17.8605 3.1176C17.7197 3.21811 17.2573 3.44222 16.8331 3.61562C16.1844 3.88082 16.0415 3.90583 15.935 3.77295C15.8653 3.68602 15.724 3.61483 15.6211 3.61483C14.989 3.61483 15.9454 2.6172 16.9129 2.26745C17.812 1.94249 17.7345 1.83768 16.7852 2.09495C16.3872 2.2027 15.6251 2.40791 15.0914 2.55087C14.5577 2.69382 14.2564 2.81346 14.4219 2.81663C14.5873 2.81991 14.852 2.88896 15.0097 2.97011C15.3859 3.16366 15.2882 3.35053 14.3467 4.23736C13.913 4.64573 13.5928 5.05185 13.5431 5.25604C13.4977 5.4428 13.2222 5.85027 12.931 6.16154C12.6397 6.4728 12.1546 7.04756 11.853 7.43885C11.4818 7.92024 11.1406 8.22663 10.7975 8.38657C10.3457 8.59709 9.49751 9.40536 9.49751 9.62529C9.49751 9.71731 7.47345 10.5201 7.24285 10.5196C7.16442 10.5194 7.09935 10.4046 7.09844 10.2646C7.09524 9.80378 6.93781 9.68754 6.42683 9.76858C5.8848 9.85449 5.89313 9.88177 6.12716 8.78646C6.26393 8.14661 6.38003 7.91865 6.81121 7.44327C7.09673 7.12827 7.47745 6.65469 7.65702 6.39085L7.98363 5.91105L7.45622 6.19526C7.16625 6.35169 6.78678 6.60942 6.61303 6.76811C6.43928 6.92679 6.15673 7.05888 5.98526 7.06183C5.75226 7.06567 5.67338 7.12374 5.67326 7.2916C5.67326 7.41904 5.58273 7.53348 5.46389 7.55634C5.28443 7.59086 5.27279 7.5629 5.38227 7.36007C5.45248 7.23002 5.49095 7.12363 5.46766 7.12363C5.3664 7.12363 3.76496 9.17435 3.82204 9.23094C3.85686 9.26558 3.97536 9.15782 4.08518 8.99155C4.29135 8.67961 5.22929 7.91593 5.40636 7.91593C5.46127 7.91593 5.47405 8.04327 5.43467 8.1989C5.37519 8.43377 5.40396 8.48187 5.60374 8.48187C5.75226 8.48187 5.84439 8.55408 5.84439 8.67067C5.84439 9.25154 5.54472 10.4307 5.25955 10.972C5.05931 11.3522 4.93111 11.7707 4.93019 12.0473C4.92951 12.2963 4.79674 12.7801 4.6352 13.1225C4.2055 14.0336 3.79293 15.0352 3.61861 15.5904C3.52066 15.9023 3.27967 16.2492 2.94814 16.5553C2.54459 16.9279 2.4133 17.14 2.35234 17.5178C2.29949 17.8457 2.18464 18.0643 1.9973 18.1941C1.84501 18.2995 1.57491 18.5003 1.39705 18.6404C1.01975 18.9376 0.9355 18.9545 0.9355 18.7327C0.9355 18.6434 0.876137 18.4268 0.803531 18.2516L0.671561 17.933L0.581832 18.3857C0.470754 18.946 0.473151 20.7816 0.586626 22.0643L0.67179 23.0264L0.691768 22.2907C0.711632 21.5588 0.885612 20.1453 1.00103 19.7777C1.06656 19.569 1.92984 18.8951 2.13167 18.8951C2.19971 18.8951 2.31307 19.0467 2.38374 19.2321C2.54447 19.6545 3.02965 19.9014 3.33138 19.7146C3.51712 19.5996 3.59429 19.6723 3.99944 20.3434C4.25128 20.7607 4.58965 21.2777 4.7513 21.492C5.00017 21.8221 5.04527 22.0007 5.04527 22.6558C5.04527 23.5536 5.21811 24.0263 5.71619 24.4907C6.038 24.7908 6.07316 24.8899 6.07705 25.5094C6.07933 25.8869 6.15022 26.7305 6.23447 27.3841L6.38768 28.5726L6.11597 28.78C5.89017 28.9527 5.84439 29.0892 5.84439 29.59C5.84439 30.1815 5.83468 30.1988 5.31331 30.5412L4.78224 30.89L4.27834 30.4295C3.99602 30.1715 3.70423 29.9957 3.61473 30.0296C3.27989 30.1571 2.28693 28.5935 1.71898 27.0445C1.53358 26.5389 1.43803 26.3864 1.4136 26.5568C1.37022 26.859 1.95769 28.216 2.43614 28.9189C2.6285 29.2014 2.87554 29.6759 2.98513 29.973C3.28686 30.7917 4.44501 32.4775 4.70564 32.4775C4.86147 32.4775 4.95645 32.6034 5.04401 32.9255C5.11091 33.1719 5.2237 33.4091 5.29471 33.4525C5.38227 33.5063 5.40213 33.4497 5.35635 33.2763C5.31937 33.1359 5.30418 33.0388 5.32279 33.0606C5.41914 33.1734 6.9208 35.0485 7.02983 35.1921C7.12401 35.3161 7.06796 35.3072 6.81475 35.1578C6.23116 34.8134 7.38201 35.8213 8.52715 36.6574C10.2328 37.903 11.7701 38.7102 13.7831 39.4173C14.7412 39.7538 17.096 40.2909 17.5595 40.2788C17.7403 40.2741 17.1948 40.1289 16.3471 39.9561C14.9166 39.6646 14.2236 39.4192 13.6712 39.0086C13.4576 38.85 13.4623 38.8376 13.8045 38.6622C14.1221 38.4993 14.2018 38.4978 14.5646 38.6481C14.7875 38.7405 15.1897 38.816 15.4583 38.816C16.1509 38.816 17.6652 39.3437 18.1275 39.7461C18.5981 40.1559 18.6115 40.2581 18.2022 40.3196C18.0296 40.3455 18.2222 40.3749 18.6303 40.3849C19.0385 40.395 19.5779 40.4273 19.829 40.4569C20.1628 40.4962 20.2088 40.4862 20.0002 40.4198C19.768 40.346 19.7216 40.2671 19.7512 39.9969C19.7976 39.5715 19.8005 39.5694 20.718 39.2721C21.3218 39.0766 21.6369 39.0368 22.145 39.0925C22.5037 39.1318 22.9729 39.1121 23.1875 39.0489C23.4824 38.9621 23.7267 38.9768 24.1864 39.1094C24.5211 39.2059 24.795 39.3233 24.795 39.3703C24.795 39.4173 24.6749 39.5676 24.5281 39.7042C24.2786 39.9367 23.93 40.0229 21.9981 40.3304C21.8097 40.3604 22.1182 40.3621 22.6836 40.3343C24.4592 40.2466 27.304 39.4356 29.3043 38.4467C32.6058 36.8146 35.7349 33.9363 37.6393 30.7797C37.8833 30.3751 38.153 29.9602 38.2384 29.8578C38.3883 29.6782 38.5097 29.3762 39.3707 27.0445C40.6116 23.6835 40.8634 18.8389 39.9589 15.7258C39.4729 14.0534 38.5876 11.8955 37.8692 10.6322C37.0091 9.11979 35.1798 6.67608 34.346 5.92565C32.2485 4.03803 29.1566 2.2842 26.3932 1.41458C24.1924 0.722105 20.7928 0.345192 18.6874 0.560473ZM15.2626 1.53841C15.137 1.56478 14.9201 1.6104 14.7807 1.63983C14.6412 1.66925 14.4715 1.79648 14.4034 1.92245C14.282 2.14747 14.2876 2.14837 14.7141 1.97011C14.953 1.87027 15.431 1.71985 15.7763 1.63586C16.3875 1.48714 16.3921 1.48317 15.9476 1.4868C15.6964 1.48883 15.3882 1.51204 15.2626 1.53841ZM12.838 2.73978C11.8029 3.20973 10.6745 3.91398 10.7834 4.02196C10.8138 4.05207 11.3203 3.87448 11.909 3.62716C12.4978 3.37996 13.1849 3.11884 13.436 3.04697C13.8291 2.93446 13.8944 2.8704 13.9048 2.58641C13.9115 2.40497 13.9115 2.25749 13.9048 2.25873C13.8982 2.25986 13.418 2.47628 12.838 2.73978ZM26.7357 2.37362C26.5859 2.47288 26.5889 2.50141 26.7593 2.60112C26.8665 2.66383 27.1748 2.88081 27.4443 3.0833C27.7138 3.2859 28.1714 3.58823 28.461 3.75518C28.7506 3.92224 29.138 4.22638 29.3218 4.43113C29.5056 4.63577 29.9108 4.99695 30.2222 5.23363C30.5336 5.47042 31.1743 6.01032 31.6457 6.43352C32.1173 6.85673 32.661 7.2839 32.8539 7.38271C33.0467 7.48164 33.4315 7.75204 33.7088 7.98362C34.2066 8.39924 35.8375 9.22958 35.9455 9.1224C35.9762 9.09206 35.9457 8.96427 35.8778 8.83852C35.8098 8.71277 35.7544 8.45505 35.7544 8.2658C35.7544 7.98464 35.5506 7.71095 34.6413 6.77037C32.3976 4.44958 30.1148 2.97951 27.8202 2.37758C27.252 2.22862 26.956 2.22749 26.7357 2.37362ZM11.4382 2.59614C11.3354 2.66202 11.3212 2.7065 11.403 2.70763C11.4777 2.70854 11.5707 2.6584 11.6095 2.59614C11.697 2.45556 11.6575 2.45556 11.4382 2.59614ZM10.2328 3.2249C10.02 3.394 10.0214 3.39604 10.2681 3.27753C10.4093 3.20962 10.525 3.13039 10.525 3.10152C10.525 3.01494 10.4657 3.03995 10.2328 3.2249ZM25.0694 3.35585L24.716 3.40022L24.8314 3.98857C24.8949 4.31217 25.0668 4.73447 25.2134 4.92712C25.361 5.12101 25.4799 5.43589 25.4799 5.63239C25.4799 5.85095 25.7688 6.53166 26.2313 7.4032C26.8396 8.54922 27.0718 8.87848 27.4499 9.13145C27.7069 9.30338 28.0787 9.67316 28.2762 9.9533C28.5975 10.4091 28.7785 10.5237 29.9973 11.0431C30.7463 11.3623 31.3938 11.6036 31.436 11.5793C31.4783 11.5551 31.5466 11.3826 31.588 11.1961C31.6945 10.7154 31.9963 10.5859 32.5121 10.7996C32.741 10.8945 32.9452 10.972 32.966 10.972C33.0514 10.972 33.2416 10.0931 33.2421 9.69591C33.2426 9.39087 33.1267 9.10146 32.837 8.68368C32.6137 8.36189 32.3702 7.87292 32.2958 7.59686C32.1867 7.19278 32.0047 6.95905 31.3602 6.39583C30.1626 5.34919 29.7001 5.01857 29.0108 4.71636C28.6667 4.56548 28.1579 4.29983 27.88 4.12587C27.4091 3.83113 25.7933 3.25817 25.537 3.29507C25.4742 3.30413 25.2638 3.33141 25.0694 3.35585ZM16.4566 3.9854C15.9831 4.18619 15.3666 4.53515 15.0867 4.76085C14.8066 4.98654 14.4151 5.25298 14.2164 5.35304C13.7769 5.57421 12.9573 6.41915 12.1488 7.48458C11.6305 8.16755 11.5559 8.32862 11.6145 8.63841C11.6739 8.95205 11.568 9.40468 11.2798 10.07C11.2116 10.2273 11.7018 11.1309 12.2637 11.8834L12.4612 12.148L12.9071 11.8996C13.5348 11.5498 13.9043 11.579 14.3107 12.0103L14.6491 12.3694L15.8608 11.7431C17.0666 11.1199 17.0734 11.114 17.2315 10.5634C17.3468 10.1621 17.5402 9.86977 17.9345 9.50055L18.4785 8.99121L18.6812 7.71706C18.8686 6.53913 18.8701 6.41394 18.7001 6.05876C18.4845 5.6085 18.4726 5.41824 18.6371 5.06011C18.8184 4.66565 18.3954 3.72858 18.0351 3.72643C17.8915 3.72564 17.6714 3.70141 17.5458 3.67267C17.4202 3.6438 16.93 3.78461 16.4566 3.9854ZM8.97066 3.97374C8.44781 4.3639 8.38217 4.45671 8.7928 4.22513C9.14567 4.02615 9.48324 3.72801 9.35561 3.72801C9.32502 3.72801 9.15184 3.8386 8.97066 3.97374ZM20.604 4.32824C20.2385 4.7021 20.0033 5.05343 19.9587 5.29248C19.9201 5.49928 19.7343 5.8814 19.5458 6.14173C19.255 6.54298 19.1738 6.81734 19.012 7.9457C18.822 9.26976 18.8222 9.2778 19.0606 9.52998C19.3532 9.83966 19.5436 10.315 19.5436 10.7354C19.5436 11.1206 19.6829 11.249 21.0317 12.1065L22.0982 12.7844L22.3907 12.5146C23.031 11.9237 23.4733 11.8808 24.1319 12.3457C24.502 12.607 24.4394 12.639 25.6432 11.5745L26.3059 10.9886L26.1673 10.416C26.0413 9.89512 26.0515 9.79676 26.2808 9.32726L26.5328 8.81102L25.9207 7.55396C25.3827 6.44892 25.2361 6.24371 24.7079 5.85672C24.3774 5.61462 23.976 5.22027 23.8159 4.98043C23.4526 4.436 22.2943 3.78551 21.8743 3.8901C21.7201 3.92847 21.5005 3.91036 21.3865 3.84992C21.217 3.75993 21.0746 3.84697 20.604 4.32824ZM8.65775 5.37443C8.36619 5.59515 8.12759 5.80205 8.12759 5.8342C8.12759 5.90437 9.15035 5.1853 9.22821 5.06034C9.33175 4.89429 9.18574 4.97477 8.65775 5.37443ZM34.5911 9.42098C34.5588 9.75149 34.5228 9.78205 34.1847 9.76688C33.9805 9.7576 33.8136 9.77254 33.8136 9.79993C33.8136 9.82721 33.735 10.2273 33.6387 10.6889C33.4818 11.4425 33.4818 11.5704 33.6387 11.943C33.8348 12.4079 33.8684 13.149 33.7074 13.4475C33.6303 13.5902 33.7829 14.1845 34.2613 15.6051C34.8773 17.4346 34.945 17.5757 35.2723 17.712C35.7015 17.891 35.9612 18.2669 36.1425 18.9717C36.2742 19.4837 36.3225 19.5315 37.2298 20.0485C38.1488 20.5721 38.38 20.6268 38.38 20.3208C38.38 20.0684 38.8015 19.7743 39.0508 19.8528C39.2471 19.9144 39.3003 19.853 39.4089 19.4385C39.4789 19.1707 39.5841 18.7734 39.6424 18.5555C39.9187 17.5254 39.5936 15.2052 38.9496 13.6106C38.1381 11.6014 36.9325 10.0638 35.7544 9.53564C34.5798 9.0091 34.6308 9.01408 34.5911 9.42098ZM7.91742 10.7933C6.89146 11.1945 6.75881 11.2855 6.25822 11.9307C6.07773 12.1633 5.76368 12.4225 5.56047 12.5067C5.25087 12.6349 5.12381 12.8144 4.77802 13.6125C4.55107 14.1365 4.20984 14.9832 4.01977 15.4941C3.67751 16.4145 3.67603 16.429 3.85412 17.0365C4.00173 17.5397 4.01086 17.7607 3.90515 18.2654C3.7556 18.98 3.78768 19.0634 4.78121 20.5438L5.39905 21.4641L5.96403 21.4102C6.49727 21.3595 6.55047 21.3795 6.90927 21.768L7.28954 22.1797L8.76461 21.4862C9.57583 21.1047 10.2773 20.7349 10.3235 20.6645C10.3696 20.594 10.4083 20.409 10.4094 20.2533C10.4126 19.8366 10.7981 19.2808 11.3033 18.9647C11.7061 18.7126 11.7602 18.6198 11.8843 17.9702C11.9596 17.5762 12.149 16.678 12.3053 15.9742L12.5893 14.6945L12.2858 14.3367C12.0139 14.0164 11.9889 13.9144 12.0467 13.3598C12.1084 12.7668 12.0884 12.7062 11.5749 11.9305C11.28 11.4848 10.9835 11.0261 10.9161 10.911C10.8074 10.7255 10.7536 10.718 10.4432 10.8456C9.94662 11.0494 9.46441 10.9696 9.32776 10.6607C9.183 10.3335 9.06439 10.3447 7.91742 10.7933ZM28.5623 11.1984C28.5623 11.2606 28.4595 11.4134 28.3339 11.5379C28.0778 11.7919 27.4803 11.838 27.0371 11.6378C26.7809 11.522 26.6807 11.5767 25.8616 12.2808C25.3691 12.704 24.9284 13.1048 24.8823 13.1713C24.8362 13.2379 24.7977 13.5421 24.7967 13.8474C24.7951 14.3515 24.7518 14.4418 24.3244 14.833L23.8538 15.2638L23.9937 17.1643C24.0705 18.2096 24.1573 19.1038 24.1865 19.1513C24.2157 19.199 24.4437 19.341 24.693 19.4672C25.2443 19.746 25.5691 20.2447 25.6653 20.9601L25.7375 21.497L27.0615 22.1282C28.6283 22.8751 28.894 22.943 29.2767 22.6944C29.8071 22.3498 30.2537 22.2863 30.8156 22.4754L31.3352 22.6504L32.6315 21.3688L33.9278 20.0873V19.3734C33.9278 18.8831 33.9993 18.5209 34.1561 18.216C34.2817 17.9719 34.3834 17.681 34.3823 17.5697C34.3799 17.3451 33.6086 14.9143 33.3095 14.1882C33.177 13.8667 32.9992 13.6692 32.726 13.54C32.5098 13.4378 32.1512 13.1034 31.9291 12.7968C31.5568 12.283 31.4171 12.1943 30.1433 11.6623C28.6857 11.0536 28.5623 11.0174 28.5623 11.1984ZM15.8498 12.3821C14.802 12.9426 14.7037 13.0254 14.42 13.5882C14.1563 14.1116 13.6606 14.5952 13.2482 14.7315C13.1245 14.7724 12.8068 16.0919 12.5206 17.7532L12.3565 18.7054L12.8019 19.1844C13.2453 19.6614 13.412 20.1937 13.3465 20.9244C13.3196 21.2249 14.0028 21.8379 15.4446 22.8067C16.1957 23.3115 16.1983 23.3122 16.6111 23.1412C17.202 22.8964 17.7005 22.9308 18.2739 23.2558L18.7738 23.5391L20.5 22.5403C21.912 21.7233 22.2321 21.4911 22.2577 21.2652C22.3443 20.498 22.5592 20.0199 22.9976 19.6176L23.4574 19.1959L23.3841 18.0092C23.3439 17.3565 23.3109 16.4971 23.3109 16.0995C23.3109 15.3789 23.309 15.3747 22.7522 14.8662C22.3578 14.506 22.1566 14.2162 22.0685 13.8807C21.9531 13.4421 21.8468 13.3423 20.6872 12.5849C19.9963 12.1335 19.3772 11.7643 19.3114 11.7643C19.2457 11.7643 19.0431 11.8734 18.8613 12.0066C18.4874 12.2807 17.8392 12.2486 17.4941 11.9389C17.2115 11.6854 17.0919 11.7175 15.8498 12.3821ZM39.6484 20.0686C39.577 20.1537 39.5049 20.6758 39.488 21.2288C39.4711 21.7817 39.3724 22.4888 39.2689 22.8C39.1653 23.1113 38.9967 24.0352 38.8942 24.8532C38.7916 25.6714 38.6782 26.4521 38.6424 26.5884C38.5852 26.8049 38.617 26.8315 38.8948 26.7989C39.1611 26.7676 39.2375 26.6792 39.3674 26.2522C40.0344 24.0586 40.4461 20.4229 40.0696 20.0496C39.893 19.8745 39.8075 19.8783 39.6484 20.0686ZM35.9082 20.5466C35.6125 20.9941 35.2201 21.0963 34.6962 20.8622L34.2574 20.6659L32.9437 21.9594C31.6763 23.2072 31.6323 23.2669 31.6919 23.6532C31.7904 24.2908 31.5583 24.8917 31.0046 25.433L30.503 25.9232L30.4972 26.965C30.4939 27.5378 30.452 28.3572 30.404 28.7857C30.3147 29.5824 30.3226 29.6061 30.7786 29.9184C30.9131 30.0105 31.0228 30.2592 31.064 30.5653C31.1297 31.054 31.1469 31.0711 32.0442 31.5399C32.5465 31.8023 33.0212 32.0188 33.0991 32.0209C33.1771 32.0231 33.4834 31.8413 33.7797 31.617C34.2495 31.2614 34.3776 31.217 34.7781 31.2702C35.2293 31.3302 35.254 31.3145 36.1569 30.3969C36.9357 29.6054 37.1761 29.262 37.7293 28.1511C38.2814 27.0423 38.4086 26.6672 38.5517 25.7252C38.8027 24.0754 38.7789 23.5149 38.4371 23.0157C38.2391 22.7262 38.1517 22.4454 38.1517 22.0977C38.1517 21.8221 38.1005 21.5018 38.0379 21.3859C37.9406 21.2057 36.3708 20.2533 36.171 20.2533C36.1331 20.2533 36.0149 20.3853 35.9082 20.5466ZM8.92671 22.2082L7.49971 22.9132L7.43829 23.4792C7.36546 24.1505 7.21214 24.4557 6.81943 24.7107C6.46599 24.9404 6.45218 25.2449 6.70379 27.2601L6.87822 28.6572L7.49377 29.3316C7.86103 29.734 8.14837 30.1698 8.20613 30.4119C8.2913 30.7687 8.47338 30.9339 9.71202 31.7779L11.1211 32.7379L11.4627 32.5377C11.9034 32.2797 12.5269 32.3568 13.0955 32.7399C13.5747 33.0627 13.4794 33.0807 15.0057 32.3803L16.0046 31.922V31.4553C16.0046 31.0905 16.0775 30.9165 16.3383 30.6578C16.5219 30.4758 16.7468 30.327 16.8381 30.327C17.2295 30.327 17.2759 30.0506 17.1941 28.2058L17.1144 26.4069L16.7057 26.1881C16.0765 25.8511 15.7763 25.323 15.7763 24.5526V23.9052L14.492 22.9666C13.7857 22.4505 13.1472 21.9821 13.0732 21.9259C12.9892 21.8622 12.8092 21.8901 12.5937 22.0006C12.024 22.2927 11.3929 22.2306 10.942 21.8379C10.7275 21.6512 10.5073 21.4995 10.4528 21.5008C10.3984 21.5021 9.71156 21.8205 8.92671 22.2082ZM20.7994 23.1818L19.1441 24.1657L19.087 24.7896C19.0187 25.536 18.7578 25.9693 18.2252 26.2211L17.8312 26.4073V28.3031V30.1988L18.3133 30.5198C18.7897 30.8371 18.9837 31.099 19.2032 31.7217C19.2971 31.9878 19.5678 32.1599 20.8281 32.7549L22.3405 33.4688L22.7972 33.2106C23.493 32.8172 23.9197 32.7672 24.5778 33.0018L25.1515 33.2063L26.0864 32.7084C27.9681 31.706 27.9259 31.7364 28.0787 31.2736C28.3236 30.5314 28.4789 30.3186 28.9952 30.0187C29.2691 29.8594 29.539 29.6103 29.5947 29.4651C29.6503 29.3198 29.7309 28.466 29.7737 27.5677L29.8516 25.9343L29.4067 25.7079C28.8482 25.4237 28.5485 24.9231 28.4982 24.1913C28.4768 23.8783 28.4438 23.6112 28.425 23.598C28.2736 23.4904 25.4294 22.1775 25.3477 22.1775C25.2897 22.1775 25.0911 22.2883 24.9063 22.4239C24.4324 22.7712 23.5652 22.7751 23.097 22.4322C22.9057 22.292 22.683 22.1821 22.602 22.1877C22.521 22.1933 21.7098 22.6407 20.7994 23.1818ZM0.716198 23.4885C0.721678 23.6204 0.748734 23.6472 0.785151 23.557C0.818143 23.4753 0.814033 23.3776 0.776132 23.34C0.738231 23.3025 0.711289 23.3692 0.716198 23.4885ZM36.0092 31.0039C35.461 31.5418 34.8582 32.2321 34.6698 32.538C34.4815 32.8438 34.1158 33.2482 33.8572 33.4366C33.5987 33.625 33.2295 34.0365 33.0367 34.351C32.844 34.6656 32.433 35.246 32.1234 35.641C31.7643 36.0992 31.5804 36.4344 31.6155 36.5672C31.6639 36.7506 31.7505 36.7194 32.3493 36.303C33.8529 35.2572 36.1702 32.7349 37.2129 31.009C37.4781 30.57 37.6951 30.1918 37.6951 30.1685C37.6951 30.1453 37.5401 30.1038 37.3505 30.0762C37.0443 30.0316 36.8956 30.1344 36.0092 31.0039ZM5.67075 31.1323C5.28215 31.3767 5.15303 31.5218 5.1995 31.662C5.23477 31.7682 5.32199 32.0842 5.39334 32.3643C5.57771 33.0884 5.8042 33.4741 6.61954 34.4529C7.35222 35.3323 9.19944 36.8726 10.3377 37.5532C10.6858 37.7612 11.4099 38.0769 11.9468 38.2546C12.857 38.5559 12.9498 38.5667 13.3196 38.4135C13.6911 38.2596 13.7077 38.2308 13.5825 37.9583C13.4784 37.7318 13.481 37.6162 13.5942 37.4366C13.7193 37.2379 13.6926 37.117 13.4027 36.5678C13.2175 36.2169 12.9769 35.6918 12.8679 35.4009C12.716 34.9955 12.5496 34.7974 12.1547 34.552C11.8209 34.3446 11.522 34.0264 11.3055 33.6479C11.1217 33.3267 10.8945 33.0345 10.8004 32.9988C10.7065 32.963 10.1128 32.5706 9.48142 32.1266C8.44496 31.3981 8.30614 31.3319 8.05384 31.4458C7.58853 31.656 7.25666 31.5908 6.71897 31.1839L6.20605 30.7958L5.67075 31.1323ZM30.3983 32.0164C29.8484 32.5031 29.1807 32.6531 28.5961 32.4212L28.1269 32.235L26.722 32.9713C25.4465 33.6398 25.3037 33.7462 25.1705 34.1277C24.9726 34.6944 24.8226 34.854 24.2527 35.1045C23.9858 35.2219 23.7675 35.3343 23.7675 35.3543C23.7675 35.4978 23.4152 37.3516 23.3616 37.49C23.3166 37.6063 23.4011 37.7145 23.6165 37.8163C23.8541 37.9286 23.948 38.0633 23.9741 38.3288C24.0054 38.6502 24.0702 38.7092 24.5732 38.8747C26.1504 39.3942 28.8481 38.3688 31.1663 36.3689C31.4368 36.1355 31.9445 35.5178 32.2944 34.9964C32.8654 34.1456 32.9174 34.0194 32.801 33.7662C32.7297 33.611 32.7016 33.2958 32.7387 33.0657C32.8058 32.6496 32.8025 32.6455 32.1397 32.3209C30.7673 31.6485 30.8062 31.6553 30.3983 32.0164ZM15.0771 33.0341C13.9157 33.5588 13.8934 33.5761 13.9291 33.9218C13.974 34.357 13.7986 34.7018 13.4812 34.8016C13.169 34.8998 13.23 35.2191 13.7944 36.4434C14.1596 37.2356 14.2798 37.3908 14.6826 37.5904C14.9388 37.7174 15.3282 37.9868 15.548 38.1891C16.092 38.6898 17.3723 39.1758 18.2308 39.2075C18.6075 39.2216 19.0342 39.2708 19.1791 39.3171C19.3511 39.3721 19.7969 39.2935 20.4636 39.0907C21.3037 38.8352 21.5366 38.7129 21.7768 38.4006C21.9373 38.1919 22.2417 37.9494 22.4531 37.8618C22.7945 37.7205 22.8457 37.6416 22.9113 37.1558C22.952 36.8549 23.0334 36.3289 23.0923 35.9868C23.1512 35.6446 23.1602 35.3516 23.1125 35.3355C22.7195 35.2036 22.2793 34.8134 22.2226 34.5467C22.1082 34.0086 22.0373 33.9539 20.51 33.2254L19.022 32.5156L18.7205 32.7388C18.2357 33.0977 17.4176 33.1153 16.7895 32.7804L16.2615 32.4989L15.0771 33.0341ZM20.5996 40.4786C20.7095 40.5071 20.8892 40.5071 20.9992 40.4786C21.1091 40.4502 21.0191 40.4269 20.7994 40.4269C20.5796 40.4269 20.4897 40.4502 20.5996 40.4786Z" fill="currentColor" />
</svg>