<svg xmlns="http://www.w3.org/2000/svg"   fill="none" ><path fill="#EAEAEA" d="M112.525 91.263V8.456h32.042v204.103h-32.042v-96.803H35.809v96.803H4V8.456h31.809v107.008l27.833-24.2h48.883ZM350.003 98.844c0 19.245-4.366 36.934-13.098 53.067-8.576 15.551-19.803 27.02-33.68 34.407 13.721-17.884 20.582-39.558 20.582-65.022 0-26.048-7.329-48.207-21.986-66.48-14.501-18.466-32.12-27.7-52.859-27.7-9.823 0-19.178 2.43-28.066 7.29 14.657-19.827 32.744-29.74 54.262-29.74 20.426 0 38.046 9.232 52.859 27.699 14.657 18.272 21.986 40.432 21.986 66.48Zm-149.69 0c0 26.242 7.329 48.499 21.986 66.772 14.813 18.466 32.433 27.699 52.859 27.699 9.667 0 19.023-2.332 28.067-6.997-14.813 19.827-32.901 29.74-54.263 29.74-20.582 0-38.279-9.233-53.092-27.699-14.502-18.661-21.752-41.016-21.752-67.063 0-19.633 4.288-37.225 12.864-52.776 8.576-15.55 19.88-26.922 33.914-34.114-13.722 17.689-20.583 39.169-20.583 64.439ZM529.251 1.75l30.874 192.148-28.769 24.785-23.155-147.83-32.744 117.214-28.067 24.492-41.398-140.248-18.244 140.248h-21.284l25.962-186.025 28.067-24.785 45.14 152.787 35.552-128.294 28.066-24.493ZM622.359 156.285l74.377-126.544 32.043-27.7v210.518h-32.043V64.73l-74.377 125.378-31.809 27.991V8.456h31.809v147.829ZM878.146 91.263V8.456h32.043v204.103h-32.043v-96.803h-76.715v96.803h-31.809V8.456h31.809v107.008l27.833-24.2h48.882ZM1060.69 123.337l25.26 72.311-28.07 24.784-24.79-72.894h-60.812l28.062-24.493h24.33l-24.09-70.27-47.949 159.784h-20.582l58.706-188.65L1017.89 0l42.8 123.045h.47l-.47.292ZM1248.19 188.067h23.39v55.108L1241.18 270v-57.441h-131.92V8.456h32.05v179.611h74.84V8.456h32.04v179.611ZM1329.51 156.285l74.38-126.544 32.04-27.7v210.518h-32.04V64.73l-74.38 125.378-31.81 27.991V8.456h31.81v147.829ZM1508.58 156.285l74.38-126.544L1615 2.04v210.518h-32.04V64.73l-74.38 125.378-31.81 27.991V8.456h31.81v147.829Z"/></svg>