<svg width="147" height="45" viewBox="0 0 147 45" fill="none" xmlns="http://www.w3.org/2000/svg">
<path d="M15.0193 44.9178L29.9727 29.9767H15.0193V0.0820312L0.078125 14.9865V44.9178H15.0193ZM59.8673 37.4411H67.7112V14.2768H79.6176V37.4411H87.4614V7.55876H59.8673V37.4411ZM136.091 18.7432H129.385V14.2768H144.314V7.54652H121.529V37.4411H136.458C142.442 37.4411 146.92 34.4431 146.92 28.0922C146.92 21.7413 142.442 18.7432 136.078 18.7432H136.091ZM135.332 31.0657H129.373V25.1186H135.332C137.18 25.1186 139.003 25.8528 139.003 28.0922C139.003 30.3315 137.131 31.0657 135.332 31.0657ZM106.71 31.0657C101.473 31.0657 98.5235 27.2234 98.5235 22.4999C98.5235 18.6943 100.665 13.9341 106.551 13.9341C107.87 13.9455 109.171 14.2462 110.361 14.815C111.551 15.3837 112.602 16.2067 113.44 17.2259L118.213 12.4535C116.742 10.6936 114.901 9.27828 112.822 8.30777C110.744 7.33715 108.478 6.83507 106.184 6.83678C104.117 6.78221 102.061 7.1509 100.142 7.92023C98.2237 8.68944 96.4824 9.84301 95.025 11.3101C93.5688 12.777 92.4271 14.5265 91.6721 16.4508C90.9159 18.3751 90.5622 20.4338 90.6308 22.4999C90.6051 25.7954 91.6256 29.0141 93.5468 31.6921C95.4668 34.3703 98.1882 36.3698 101.317 37.4026C104.447 38.4354 107.824 38.4481 110.961 37.439C114.099 36.43 116.835 34.4512 118.776 31.7877L113.979 26.9909C113.218 28.2536 112.139 29.2958 110.851 30.0147C109.564 30.7336 108.111 31.1043 106.637 31.0902" fill="#383838"/>
</svg>
