<svg width="238" height="51" viewBox="0 0 238 51" fill="none" xmlns="http://www.w3.org/2000/svg">
<path fill-rule="evenodd" clip-rule="evenodd" d="M149.068 48.3264C147.661 38.2005 150.475 28.83 154.976 24.5717H176.929V48.3264H164.641V45.5818H157.979C157.418 46.1502 157.043 46.907 157.135 48.3264H149.068ZM175.644 9.61092L177.951 15.1944C158.579 23.7561 158.579 -6.39361 177.765 1.51507L174.906 7.74885C169.464 5.42365 167.527 11.3787 175.644 9.61092ZM226.56 0.213128C221.579 0.213128 219.275 5.05205 223.518 9.05215C221.304 11.9375 219.736 14.5427 220.934 16.8693H227.391C227.854 13.2394 229.237 10.5413 230.988 10.6342V16.8693H238V0.213128H226.56ZM230.804 6.7256C228.22 7.00566 228.037 3.09708 230.804 3.37577V6.7256ZM90.3647 24.405H107.062C109.219 24.405 111.19 24.6892 112.785 24.7834C118.038 25.446 120.102 30.2727 114.192 35.0037L114.004 35.0993C117.663 38.9792 119.82 43.3318 115.599 47.5914C113.16 48.821 110.628 48.254 108 48.254H90.3647V24.405ZM101.246 31.2181V34.9094C106.312 33.2058 106.969 31.3137 101.246 31.2181ZM101.621 41.3454H105.937C107.532 41.4396 106.78 38.0324 106.218 38.2223L101.621 40.0202V41.3454ZM43.7123 44.105V47.9849H30.6727V24.2315H45.7762C58.159 24.2315 61.1613 26.4078 60.4097 32.7495C59.7529 38.8057 50.0906 42.1173 43.7123 44.105ZM43.7123 37.3863C47.3714 36.251 50.4658 31.9913 43.7123 32.6525V37.3863ZM59.7245 48.3264C58.3174 38.2005 61.1315 28.83 65.6342 24.5717H87.5859V48.3264H75.2965V45.5818H68.6351C68.0731 46.1502 67.698 46.907 67.7914 48.3264H59.7245ZM69.1998 39.9983H75.2978V32.7113H72.7641C71.0768 34.1307 69.6697 36.4012 69.1998 39.9983ZM69.8458 9.76529C61.6366 11.3473 63.6652 5.39086 69.1998 7.81032L72.152 1.66808C52.7815 -6.70646 52.2289 23.6291 72.0599 15.4417L69.8458 9.76529ZM135.429 12.5878C135.429 16.0305 132.015 17.5182 127.219 16.5892L127.127 13.0536C128.603 13.1465 128.695 10.3541 128.695 9.14505V0.397552H144.099V16.775H136.72V4.12033H135.43L135.429 12.5878ZM155.167 16.8379H146.312V0.180338H153.691V6.78707C160.978 2.97139 165.221 12.2777 160.515 15.6275C159.225 16.5578 157.382 16.8379 155.167 16.8379ZM153.691 9.67239V13.4881C156.091 13.581 156.918 9.76529 153.691 9.67239ZM133.778 32.0705V39.7675H128.869C129.173 37.0215 130.533 34.0173 132.157 32.0705H133.778ZM28.2812 24.1072V48.2581H16.3574V32.6416H12.0145V48.2581H0V24.1072H28.2812ZM145.752 23.5744V39.7688H147.633V51H138.955C138.425 49.6297 138.122 47.9972 136.501 47.1543C134.875 46.049 132.158 45.8277 130.272 46.6256C127.555 47.7335 127.555 48.2595 125.405 51H119.132V39.7688H121.281C121.855 33.7058 123.474 27.427 127.023 23.5744H145.752ZM118.565 6.27886C119.35 6.27886 120.186 6.85675 120.186 7.96197C120.186 8.80352 119.35 9.59589 118.565 9.59589C117.73 9.59589 116.938 8.80215 116.938 7.96197C116.938 6.85675 117.73 6.27886 118.565 6.27886ZM79.9373 6.27886C80.7647 6.27886 81.5569 6.85675 81.5569 7.96197C81.5569 8.80352 80.7647 9.59589 79.9373 9.59589C79.1451 9.59589 78.3109 8.80215 78.3109 7.96197C78.3109 6.85675 79.1451 6.27886 79.9373 6.27886ZM26.6616 6.27886C27.4903 6.27886 28.2812 6.85675 28.2812 7.96197C28.2812 8.80352 27.4903 9.59589 26.6616 9.59589C25.8694 9.59589 25.0352 8.80215 25.0352 7.96197C25.0365 6.85675 25.8694 6.27886 26.6616 6.27886ZM210.992 10.1314H208.275L209.373 6.59308L210.992 10.1314ZM96.288 0.263669L99.2293 3.31703L101.683 0.263669H109.047V16.7668H101.683V8.80351L99.2293 11.7653L96.288 8.80351V16.7668H89.4492V0.263669H96.288ZM43.233 0.263669L45.9982 3.31703L48.7148 0.263669H55.4682V16.7668H48.7148V8.80351L45.9982 11.7653L43.233 8.80351V16.7668H36.4795V0.263669H43.233ZM8.197 0.263669V5.43731C8.98921 5.43731 9.8234 4.95232 10.3895 4.42361C11.443 3.31703 11.443 1.06287 11.443 0.263669H18.4998C18.4998 3.31703 17.453 6.27886 15.7846 8.49067C17.9771 10.1314 18.4998 13.9772 18.8112 16.7668H12.0131C11.4417 14.8187 11.4417 12.6069 9.82069 11.544C9.28984 11.2366 8.76712 10.6601 8.19429 10.6601V16.7668H0.304696V0.263669H8.197ZM205.029 0.263669H214.811L219.981 16.7668H213.141L212.089 13.7135H207.18L206.081 16.7668H199.286L205.029 0.263669ZM179.469 0.263669H186.267V5.43731C187.626 5.43731 188.983 4.42362 189.774 3.58207C190.081 2.47548 190.081 1.06287 190.298 0.263669H197.666C197.666 1.06287 197.666 2.47548 197.4 3.31703C196.572 6.27749 195.779 6.59171 194.946 8.49067C197.138 10.6588 197.668 13.9772 198.193 16.7668H190.298C190.081 14.8187 190.081 12.6069 188.461 11.238C187.889 10.9675 186.792 10.6601 186.268 10.6601V16.7668H179.47L179.469 0.263669ZM118.565 0C123.169 0 127.023 3.58207 127.023 8.49067C127.023 12.8719 123.169 16.7668 118.565 16.7668C113.962 16.7668 110.453 12.8719 110.453 8.49067C110.453 3.58207 113.962 0 118.565 0ZM79.9373 0C84.5836 0 88.1343 3.58207 88.1343 8.49067C88.1343 12.8719 84.5836 16.7668 79.9373 16.7668C75.375 16.7668 71.5575 12.8719 71.5575 8.49067C71.5561 3.58207 75.375 0 79.9373 0ZM26.9663 0C31.3092 0 35.3826 3.58207 35.3826 8.49067C35.3826 12.8719 31.3092 16.7668 26.9663 16.7668C22.6247 16.7668 18.5011 12.8719 18.5011 8.49067C18.5011 3.58207 22.6247 0 26.9663 0ZM158.542 39.9983H164.641V32.7113H162.108C160.418 34.1307 159.011 36.4012 158.542 39.9983Z" fill="#383838"/>
</svg>
