<svg width="142" height="43" viewBox="0 0 142 43" fill="none" xmlns="http://www.w3.org/2000/svg">
<g clip-path="url(#clip0_1_7214)">
<path fill-rule="evenodd" clip-rule="evenodd" d="M35.6719 39.272C38.0574 39.1866 39.5342 38.7313 39.5342 35.9709V21.9126V21.8842V20.3759C39.5342 17.587 38.029 17.1317 35.6719 17.0748V14.5705H50.4113V17.0748H50.326C47.9973 17.1602 46.6625 17.6439 46.6625 20.3759V24.1039V24.1893V26.0106H50.5248H51.7744H52.5128H53.7624H57.6532V22.0549V20.3759C57.6532 17.587 56.2616 17.1317 53.9044 17.0748V14.5705H68.6438V17.0748C66.2582 17.1317 64.7531 17.587 64.7531 20.3759V23.1079V31.7876V35.9424C64.7531 38.7313 66.2582 39.1866 68.6154 39.2435V41.7478H53.876V39.2435C56.2616 39.1582 57.6247 38.7028 57.6247 35.9424V33.6658V30.3077V29.141H46.6341V32.812V35.9709C46.6341 38.7598 48.0257 39.2151 50.3828 39.272V41.7763H35.6435V39.272H35.6719ZM83.8092 16.8756C83.0424 16.8756 82.3608 16.9894 81.8212 17.2171C81.2532 17.4447 80.7704 17.7293 80.3728 18.0424C79.9752 18.3839 79.6344 18.7253 79.3221 19.0953C79.0381 19.4653 78.8109 19.8352 78.6689 20.1482C78.2713 20.8882 77.9305 21.8842 77.5897 23.1079C77.2489 24.3316 77.1069 25.9537 77.1069 27.9742C77.1069 28.9702 77.1921 30.137 77.3909 31.4176C77.5897 32.6982 77.9305 33.9219 78.4417 35.0887C78.9529 36.2555 79.6344 37.223 80.4864 38.0199C81.3668 38.8167 82.4744 39.2151 83.8092 39.2151C85.2008 39.2151 86.3368 38.8167 87.2171 38.0199C88.0975 37.223 88.8075 36.227 89.2903 35.0887C89.8015 33.9219 90.1423 32.7267 90.3411 31.4461C90.5399 30.1655 90.6251 29.084 90.6251 28.1449C90.6251 27.3481 90.5399 26.3236 90.3695 25.0715C90.1991 23.7909 89.8583 22.5672 89.3755 21.315C88.8927 20.0913 88.2111 19.0384 87.3023 18.1562C86.3936 17.3309 85.2292 16.8756 83.8092 16.8756ZM84.2636 13.859C86.3936 13.859 88.2395 14.1721 89.8867 14.7697C91.5055 15.3958 92.8687 16.1641 94.0047 17.1602C94.5158 17.6155 95.027 18.1562 95.595 18.8107C96.163 19.4653 96.6458 20.2336 97.1002 21.1443C97.5546 22.0265 97.9238 23.051 98.2078 24.1893C98.4918 25.3276 98.6338 26.6082 98.6338 28.088C98.6338 30.9338 98.151 33.2389 97.2138 35.0887C96.2766 36.91 95.0554 38.3614 93.6071 39.4143C92.1303 40.4672 90.5399 41.2356 88.7791 41.6625C87.8419 41.8901 85.8824 42.2032 83.866 42.1747C81.5088 42.1463 79.0949 41.7763 78.1009 41.4633C76.3401 40.8941 74.7781 40.0404 73.4433 38.9021C72.1086 37.7353 71.0578 36.2839 70.291 34.5195C69.5242 32.7551 69.1266 30.6492 69.1266 28.2303C69.1266 25.6691 69.5526 23.4778 70.3762 21.6565C71.1998 19.8352 72.3074 18.3839 73.6989 17.2455C75.0905 16.1072 76.7093 15.2819 78.5269 14.7412C80.3444 14.1436 82.2756 13.859 84.2636 13.859ZM116.526 17.5586C115.162 17.5586 114.083 17.8716 113.26 18.4977C112.436 19.1238 111.783 19.8637 111.328 20.7459C110.931 21.4573 110.59 22.3964 110.249 23.5632C109.908 24.73 109.766 26.3236 109.766 28.3441C109.766 29.141 109.823 30.137 109.937 31.3607C110.05 32.5844 110.334 33.7796 110.789 34.9748C111.243 36.1416 111.896 37.1661 112.777 37.9914C113.657 38.8167 114.907 39.2435 116.469 39.2435C118.088 39.2435 119.366 38.8167 120.274 37.9629C121.211 37.1092 121.893 36.0847 122.319 34.9464C122.773 33.7796 123.029 32.6128 123.143 31.4176C123.228 30.2224 123.285 29.2833 123.285 28.6287C123.285 27.3481 123.199 26.0675 123.029 24.73C122.859 23.3925 122.518 22.2257 122.007 21.1443C121.495 20.0913 120.814 19.2091 119.933 18.5546C119.053 17.9001 117.917 17.5586 116.526 17.5586ZM130.697 0.056916C130.47 1.59365 130.072 2.87426 129.476 3.89874C128.908 4.92323 128.226 5.74851 127.431 6.37459C126.636 7.00066 125.755 7.48445 124.761 7.82594C123.767 8.16744 122.773 8.3951 121.723 8.56585L117.15 9.24884C115.929 9.44805 114.68 9.70417 113.43 10.0741C112.18 10.4441 111.044 11.0417 110.022 11.8385C109 12.6353 108.148 13.7167 107.438 15.1112C106.756 16.4772 106.33 18.2985 106.216 20.5467H106.33C107.608 18.64 109.227 17.1602 111.186 16.1357C113.146 15.0827 115.304 14.5705 117.605 14.5705C119.877 14.5705 121.779 14.912 123.285 15.5665C124.79 16.2495 125.983 16.961 126.863 17.7578C128.226 18.9246 129.277 20.3475 130.072 22.0549C130.867 23.7624 131.265 25.8683 131.265 28.3157C131.265 31.0761 130.782 33.3527 129.845 35.1741C128.908 36.9954 127.715 38.4183 126.267 39.4712C124.818 40.5242 123.199 41.2641 121.439 41.6909C120.416 41.9186 118.514 42.2316 116.526 42.2032C114.026 42.1747 111.357 41.7763 110.05 41.1787C108.432 40.4388 107.182 39.6704 106.302 38.8736C105.336 38.0199 104.569 37.0807 103.973 36.0563C103.377 35.0318 102.922 33.9788 102.61 32.869C102.297 31.7591 102.099 30.6492 101.985 29.5394C101.871 28.4295 101.815 27.3481 101.815 26.2952C101.815 24.7015 101.9 23.0225 102.099 21.2866C102.297 19.5506 102.61 17.8432 103.036 16.1926C103.462 14.542 104.03 12.9484 104.74 11.4686C105.45 9.98875 106.302 8.67968 107.324 7.59828C108.176 6.71608 109.056 5.94772 109.994 5.3501C110.931 4.75248 111.84 4.2687 112.805 3.9272C113.742 3.58571 114.68 3.30113 115.617 3.10192C116.554 2.90271 117.434 2.76042 118.343 2.64659L122.915 2.07743C123.909 1.9636 124.875 1.79285 125.812 1.50827C126.749 1.25215 127.317 0.739907 127.545 0H130.697V0.056916ZM0.569934 40.0404C1.79112 40.638 3.1543 41.0649 4.54588 41.4917C9.68621 43.0854 18.2345 42.1463 20.8189 41.2641C22.0684 40.8372 23.2612 40.2965 24.3972 39.585C25.5332 38.9021 26.6408 38.0199 27.6916 36.9385C28.8275 35.8286 29.7647 34.6903 30.4747 33.4666C31.2131 32.2713 31.7811 31.0476 32.2355 29.824C32.6615 28.6003 32.9739 27.405 33.1443 26.2098C33.3147 25.0146 33.3715 23.8478 33.3715 22.7379C33.3147 19.2945 32.6047 16.3633 31.2699 13.8875C29.9635 11.4401 28.3164 9.44805 26.3568 7.91132C24.596 6.51688 22.4944 5.46393 20.0805 4.72402C13.861 2.78888 3.94949 4.15487 0.797131 10.2733C0.257538 11.0702 -0.0264579 12.0377 0.0019417 13.1191C0.0303413 14.5136 0.541534 15.6519 1.53552 16.6195C2.55791 17.5586 3.75069 18.0139 5.11387 17.9854C6.56225 17.957 7.78343 17.4447 8.77742 16.4772C9.77141 15.4811 10.2258 14.3144 10.1974 12.9199C10.1974 12.2369 10.027 11.6109 9.74301 11.0132C9.45901 10.4156 9.06142 9.87492 8.57862 9.41959C8.20943 9.07809 7.78344 8.76506 7.30064 8.53739C10.1406 7.22833 13.2646 6.94375 16.1613 8.05361C17.6381 8.62277 18.9161 9.39113 20.0237 10.3872C20.5633 10.8994 21.1029 11.5255 21.6424 12.2369C22.182 12.9484 22.6648 13.8021 23.0908 14.7981C23.5168 15.7942 23.886 16.9325 24.17 18.2416C24.454 19.5506 24.6244 21.002 24.6528 22.6525C24.7096 24.7869 24.5108 26.8074 24.0564 28.7426C23.602 30.6777 22.8636 32.3852 21.8128 33.8934C19.4273 37.3084 15.7069 38.9874 11.589 38.959C7.47104 38.9305 4.09149 37.7922 1.87632 36.3693L0.569934 40.0404ZM137.399 34.1211C139.927 34.1211 142 36.1132 142 38.5606C142 41.0079 139.955 43 137.399 43C134.872 43 132.799 41.0079 132.799 38.5606C132.799 36.1132 134.872 34.1211 137.399 34.1211Z" fill="#383838"/>
</g>
<defs>
<clipPath id="clip0_1_7214">
<rect width="142" height="43" fill="white"/>
</clipPath>
</defs>
</svg>
