<svg width="154" height="27" viewBox="0 0 154 27" fill="none" xmlns="http://www.w3.org/2000/svg">
<g clip-path="url(#clip0_1_7251)">
<path fill-rule="evenodd" clip-rule="evenodd" d="M20.3159 18.7743C20.3159 14.99 24.2199 14.8384 28.8766 14.8384H29.5172V10.7836H28.652C24.0329 10.7836 21.1028 10.4419 21.1028 7.8419C21.1028 5.58671 22.9048 4.89586 25.2726 4.89586C28.3782 4.89586 30.0569 5.57186 31.3562 6.50167V1.60871C30.08 0.997095 28.0904 0.5 25.2733 0.5C20.0136 0.5 15.8474 2.56514 15.8474 7.61038C15.8474 9.63714 16.8589 12.2 19.7136 12.7349C16.7465 13.2326 14.9822 15.9465 14.9822 18.7749C14.9816 24.4349 19.6007 26.5 25.2726 26.5C29.3259 26.5 32.0684 25.9268 33.8704 24.6627V19.5308C32.5857 20.9199 29.6295 22.1041 26.3218 22.1041C23.6728 22.1041 20.3159 21.2604 20.3159 18.7743ZM79.2039 1.07386H52.8054V15.6048L36.6129 0.5H36.3888V25.9268H41.626V11.9301L57.8149 26.5H58.0426V5.4691H65.9318V25.9268H71.1654V5.4691H79.2039V1.07386ZM5.81129 1.15H0.5V25.85H14.352V21.1H5.81129V1.15ZM128.767 10.801C128.767 4.56838 124.876 1.15 118.397 1.15H110.684V25.85H115.928V20.455H118.396C119.109 20.455 119.819 20.4179 120.457 20.3002L125.286 25.85H131.463L125.136 18.3651C127.455 16.5767 128.766 13.8417 128.766 10.8003L128.767 10.801ZM117.873 16.0827H115.928V5.51862H117.911C121.657 5.51862 123.527 7.4581 123.527 10.8003C123.527 13.7656 121.582 16.0827 117.873 16.0827ZM104.72 20.65C104.346 20.6484 103.974 20.7224 103.628 20.8679C103.281 21.0134 102.966 21.2274 102.701 21.4977C102.436 21.7679 102.227 22.0889 102.084 22.4423C101.941 22.7957 101.869 23.1743 101.87 23.5564C101.87 25.187 103.145 26.5 104.72 26.5C106.262 26.5 107.537 25.187 107.537 23.5564C107.537 21.9333 106.262 20.65 104.72 20.65ZM148.22 1.15V14.207C148.22 19.657 146.166 22.1171 142.806 22.1171C139.336 22.1171 137.376 19.657 137.376 14.207V1.15H132.093V13.0227C132.093 21.2963 134.997 26.5 142.806 26.5C150.617 26.5 153.5 21.1824 153.5 13.0227V1.15H148.22ZM86.9996 0.5H86.775L74.1671 25.85H79.7935L81.6319 21.7321H92.4014L94.3558 25.85H99.9822L86.999 0.5H86.9996ZM83.511 17.5387L86.8873 10.068L90.4136 17.5387H83.511Z" fill="#383838"/>
</g>
<defs>
<clipPath id="clip0_1_7251">
<rect width="153" height="26" fill="white" transform="translate(0.5 0.5)"/>
</clipPath>
</defs>
</svg>
