<svg width="221" height="43" viewBox="0 0 221 43" fill="none" xmlns="http://www.w3.org/2000/svg">
<g clip-path="url(#clip0_1_7056)">
<path d="M0 11.9278C0 8.50132 2.79837 5.71153 6.23844 5.71153C9.6792 5.71153 12.4762 8.50064 12.4762 11.9278C12.4762 12.3155 12.4361 12.6951 12.3682 13.0632C11.3673 12.6437 10.2706 12.4109 9.11966 12.4109C6.08634 12.4109 3.43125 14.0247 1.95431 16.4329C0.753747 15.3002 0 13.7013 0 11.9278ZM10.471 20.7837C10.471 18.7754 11.1847 16.9323 12.3703 15.487C11.4223 14.9071 10.3107 14.5667 9.11898 14.5667C5.67891 14.5667 2.88121 17.3545 2.88121 20.7837C2.88121 24.2102 5.67891 27 9.11898 27C10.3107 27 11.4223 26.659 12.3703 26.0791C11.1847 24.6345 10.471 22.7899 10.471 20.7837ZM21.7616 20.2985C18.7255 20.2985 16.0697 18.6821 14.5935 16.2698C13.3895 17.4046 12.6351 19.0055 12.6351 20.783C12.6351 24.2095 15.4321 26.9993 18.8722 26.9993C22.3123 26.9993 25.1113 24.2095 25.1113 20.783C25.1113 20.3946 25.0699 20.0171 25.002 19.6497C24.0031 20.0678 22.9092 20.2985 21.7616 20.2985ZM22.372 5.74333C22.3815 5.90234 22.3978 6.05729 22.3978 6.2163C22.3978 10.1388 19.6708 13.432 16.0113 14.3353C16.9559 16.5716 19.1764 18.1441 21.7616 18.1441C25.2016 18.1441 28 15.3537 28 11.9271C27.9993 8.70702 25.5255 6.04985 22.372 5.74333ZM13.9952 0C11.4128 0 9.19096 1.57251 8.24572 3.80813C11.9099 4.70807 14.6397 8.00196 14.6397 11.9278C14.6397 12.0855 14.6315 12.2431 14.622 12.4015C17.7687 12.0862 20.2337 9.43237 20.2337 6.2163C20.2337 2.78979 17.436 0 13.9952 0Z" fill="#383838"/>
<path d="M39.36 5.83904C39.1308 5.83904 38.7749 5.98654 38.6736 6.06093C38.5969 6.13533 38.4697 6.40638 38.4457 6.97437C38.4183 7.4686 38.4183 10.5311 38.393 13.3451C38.393 15.5925 38.4457 17.1968 38.4457 17.8146C38.4703 19.3219 38.5463 19.7663 40.0205 20.1351C40.5297 20.2341 40.733 20.432 40.733 20.6552C40.733 20.8519 40.3018 21 39.9445 21C39.2834 21 37.8325 20.8519 36.7142 20.8519C35.9764 20.8519 34.7301 20.9502 33.9424 20.9502C33.3579 20.9502 33 20.8279 33 20.5549C33 20.3822 33.3579 20.1842 33.6105 20.1105C34.8561 19.8142 35.162 19.4435 35.2386 18.3076C35.316 17.321 35.3919 15.7154 35.3919 14.4552C35.3919 13.666 35.3919 8.13427 35.3413 7.41879C35.2653 6.55517 35.1367 6.15991 33.7384 5.98654C33.4072 5.93737 33.1533 5.76529 33.1533 5.6165C33.1533 5.41855 33.3825 5.27106 33.6878 5.22189C33.8391 5.19795 34.2983 5.19795 34.5275 5.19795C36.1557 5.19795 38.2411 5 39.3854 5C41.8279 5 43.4814 5.44443 44.5238 6.43096C45.7188 7.56758 46 8.90086 46 9.76448C46 11.79 45.0583 12.8768 44.3205 13.4933C43.6581 14.0367 42.2592 14.604 41.2675 14.604C40.9882 14.604 40.2751 14.5561 39.9452 14.4313C39.588 14.2831 39.4107 14.1609 39.4107 13.9383C39.4107 13.8387 39.588 13.6912 39.7926 13.6912H40.1745C41.2421 13.6912 42.821 12.4563 42.821 9.88869C42.8203 7.91303 41.4467 5.83904 39.36 5.83904Z" fill="#383838"/>
<path d="M66 13.247C66 16.58 64.5422 18.7443 62.7179 20.1685C61.2328 21.2886 59.0181 22 57.013 22C54.2775 22 51.8806 20.9832 50.2406 19.2783C48.8326 17.8015 48 15.7919 48 13.449C48 10.3446 49.4059 8.3604 51.3599 6.83288C52.5324 5.94211 54.7212 5 56.9079 5C62.6654 5.00067 66 9.17382 66 13.247ZM53.3391 7.18959C52.4539 8.02969 51.5148 9.86124 51.5148 12.8903C51.5148 16.8087 53.965 21.0592 57.7678 21.0592C59.201 21.0592 60.0862 20.3465 60.4247 20.0151C61.5188 18.9463 62.4306 16.7587 62.4306 14.0351C62.4306 12.0248 61.6232 8.97113 59.7218 7.2656C58.8352 6.50284 57.43 5.89144 56.2834 5.89144C55.1095 5.8921 53.9397 6.60486 53.3391 7.18959Z" fill="#383838"/>
<path d="M81.1467 5.40808C81.7646 5.56011 82.4102 5.71281 83.0024 5.78949C83.1827 5.78949 83.3894 6.09488 83.3894 6.47696C83.4144 7.18843 83.467 8.07927 83.5177 8.81808C83.544 9.35219 83.363 9.78494 83.0808 9.78494C82.9518 9.78494 82.7202 9.47955 82.5898 9.09747C82.3325 8.30932 81.9456 7.62185 81.5066 7.29045C80.3991 6.37494 79.085 5.81416 77.6932 5.81416C73.5948 5.81416 71.6621 9.02146 71.6621 12.8895C71.6621 14.5952 71.9714 16.0708 72.5387 17.1911C73.9561 19.9909 76.3014 20.9838 78.3125 20.9838C78.6474 20.9838 79.9102 20.9331 80.8124 20.3977C81.7653 19.8642 82.4608 19.1248 83.0544 18.0826C83.3637 17.5225 83.5447 17.2924 83.7513 17.2924C84.0336 17.2924 84.0336 17.9545 83.9553 18.2353C83.8276 18.8701 83.415 19.9909 83.1827 20.4497C83.1051 20.6784 82.6425 21.0852 82.2549 21.2632C81.8943 21.3899 80.1162 22 77.7446 22C73.9284 22 71.2232 20.321 70.1664 19.1248C69.1865 18.0059 68 16.2242 68 13.399C68 10.319 69.7531 8.15595 70.8356 7.28978C73.0262 5.50877 75.6808 5 77.7952 5C78.981 5 80.2188 5.17803 81.1467 5.40808Z" fill="#383838"/>
<path d="M87.0876 5.28652C87.6941 5.28652 88.9097 5.41553 89.6931 5.41553C90.452 5.41553 91.9187 5.31165 92.5259 5.31165C93.0322 5.31165 93.3106 5.44201 93.3106 5.67489C93.3106 5.90778 92.9308 6.03746 92.6531 6.11622C91.6662 6.40071 91.4634 6.53039 91.3878 7.69618C91.3368 8.65556 91.3627 11.5575 91.3627 12.7755C91.3627 12.8794 91.4382 13.0342 91.539 13.0342C92.905 12.9303 93.7401 12.4904 94.6501 10.9865C95.3593 9.79487 95.865 8.80901 96.498 7.79939C97.5101 6.08839 98.725 5 100.09 5C100.95 5 101.406 5.36257 101.406 6.08839C101.406 6.32127 101.228 6.7626 101.077 6.91809C100.875 7.15029 100.646 7.20325 100.343 7.15029C100.065 7.09869 99.7364 7.02129 99.4825 7.02129C97.9899 7.02129 97.3331 8.10967 96.6246 9.24966C95.9154 10.391 95.3587 11.2981 94.9795 11.842C94.9537 11.8936 94.9537 11.9974 94.9795 12.0484C95.5621 13.1884 97.8123 16.8432 98.9258 18.3458C100.596 20.6006 101.253 20.7826 102.595 21.0929C102.747 21.1438 103 21.2491 103 21.3787C103 21.611 102.848 21.7671 102.494 21.8717C102.138 21.9749 101.557 22 100.976 22C98.7502 22 97.6625 21.6381 96.6743 20.2897C95.7384 19.0981 94.676 17.4136 93.5134 15.5213C92.677 14.1477 92.3489 13.7071 91.539 13.6813C91.4124 13.6813 91.3872 13.8639 91.3627 13.9923C91.3627 16.0923 91.4382 18.8136 91.4634 19.7716C91.4899 20.2897 91.6152 20.6781 92.7287 20.9646C93.184 21.0936 93.4631 21.2755 93.4631 21.4826C93.4631 21.7169 93.0322 21.8724 92.6286 21.8724C92.0718 21.8724 90.3254 21.8201 89.5413 21.8201C88.7572 21.8201 87.4919 21.9233 86.682 21.9233C86.3036 21.9233 86 21.7169 86 21.5335C86 21.302 86.2022 21.171 86.7582 21.0427C87.9731 20.7568 88.2515 20.3936 88.3284 18.8136C88.3781 17.5168 88.3781 15.7297 88.3781 12.9561C88.3781 9.92388 88.3284 8.93869 88.3025 8.00647C88.2754 6.78908 88.05 6.45096 87.1645 6.19227C86.5064 6.01098 86.3281 5.8297 86.3281 5.64774C86.3281 5.41553 86.7344 5.28652 87.0876 5.28652Z" fill="#383838"/>
<path d="M121 13.247C121 16.58 119.54 18.7443 117.717 20.1685C116.232 21.2886 114.018 22 112.013 22C109.277 22 106.881 20.9832 105.239 19.2783C103.833 17.8015 103 15.7919 103 13.449C103 10.3446 104.407 8.3604 106.36 6.83288C107.532 5.94211 109.72 5 111.909 5C117.665 5.00067 121 9.17382 121 13.247ZM108.34 7.18959C107.454 8.02969 106.516 9.86124 106.516 12.8903C106.516 16.8087 108.964 21.0592 112.768 21.0592C114.202 21.0592 115.086 20.3465 115.426 20.0151C116.52 18.9463 117.432 16.7587 117.432 14.0351C117.432 12.0248 116.623 8.97113 114.723 7.2656C113.836 6.50284 112.43 5.89144 111.284 5.89144C110.111 5.8921 108.938 6.60486 108.34 7.18959Z" fill="#383838"/>
<path d="M127.826 12.2021C129.555 12.2021 132.912 12.1015 135.582 12.1015C135.684 12.1015 135.786 11.8534 135.812 11.4786C135.862 11.1554 135.862 8.23931 135.761 7.26771C135.659 6.3699 135.531 6.12178 134.514 5.84558C134.159 5.74763 133.777 5.59745 133.777 5.34737C133.777 5.17369 134.032 5.02351 134.616 5.02351C134.947 5.02351 136.829 5.09925 137.49 5.09925C138.304 5.09925 139.907 5 140.211 5C140.696 5 141 5.12406 141 5.32321C141 5.57264 140.771 5.72217 140.186 5.87104C139.271 6.0715 139.118 6.4698 139.066 7.19197C138.94 8.36402 138.863 10.6069 138.863 14.1466C138.863 16.5893 138.94 17.8854 138.964 18.7068C138.99 19.6784 139.245 19.7535 140.263 20.0774C140.72 20.2276 140.974 20.4019 140.974 20.6017C140.974 20.8753 140.617 20.9497 140.159 20.9497C139.727 20.9497 138.354 20.8753 137.591 20.8753C137.031 20.8753 134.996 21 134.488 21C133.879 21 133.624 20.8753 133.624 20.65C133.624 20.4267 133.955 20.2276 134.31 20.127C135.556 19.8031 135.607 19.6053 135.736 17.7594C135.811 16.763 135.836 14.4195 135.786 13.747C135.786 13.523 135.684 13.4225 135.581 13.4225C133.546 13.4225 128.334 13.3487 127.825 13.3983C127.698 13.4225 127.494 13.6223 127.494 13.7718C127.444 14.6944 127.494 17.3611 127.52 18.1583C127.545 19.331 127.698 19.7039 128.74 20.0029C129.274 20.1525 129.63 20.3529 129.63 20.6265C129.656 20.8753 129.147 20.9504 128.816 20.9504C128.638 20.9504 126.528 20.8759 125.637 20.8759C125.052 20.8759 123.756 20.9758 122.891 20.9758C122.23 20.9758 122 20.8518 122 20.6513C122 20.3784 122.281 20.2289 122.712 20.1041C123.832 19.8051 124.06 19.5302 124.187 18.4835C124.289 17.4878 124.416 13.7731 124.416 10.3588C124.416 9.61117 124.467 8.24061 124.416 7.24355C124.365 6.42148 124.137 6.14724 123.297 5.89781C122.712 5.72347 122.432 5.54848 122.432 5.34868C122.432 5.10055 122.763 5.00131 123.222 5.00131C123.908 5.00131 125.305 5.10055 125.967 5.10055C127.036 5.10055 128.181 5.02481 128.79 5.02481C129.323 5.02481 129.63 5.12537 129.63 5.34868C129.63 5.62357 129.3 5.7731 128.765 5.89781C127.697 6.12243 127.62 6.59517 127.594 7.61704C127.544 8.5142 127.442 11.4048 127.52 11.8789C127.546 12.0767 127.648 12.2021 127.826 12.2021Z" fill="#383838"/>
<path d="M154.667 5C154.845 5 154.998 5.12393 154.998 5.27252C154.948 5.99079 154.972 7.57594 154.998 8.41879C155.023 8.73997 154.845 9.21039 154.643 9.21039C154.441 9.21039 154.185 9.08711 154.033 8.51742C153.704 7.42735 153.247 6.28797 152.309 6.18999C151.523 6.09072 149.62 6.11537 149.088 6.14003C148.58 6.14003 148.454 6.28862 148.454 6.53583C148.351 7.8238 148.351 10.0526 148.351 11.7117C148.351 13.4454 148.377 16.7656 148.377 18.5227C148.403 19.5894 148.808 19.836 149.976 20.1078C150.355 20.2311 150.633 20.405 150.633 20.6029C150.633 20.8008 150.33 20.9753 149.873 20.9753C149.239 20.9753 147.693 20.8514 146.728 20.8514C145.789 20.8514 144.192 21 143.684 21C143.278 21 143 20.7768 143 20.6542C143 20.381 143.304 20.2078 143.76 20.1085C144.852 19.8619 144.953 19.4395 145.003 18.8705C145.08 18.1016 145.283 16.617 145.283 11.7623C145.283 9.45955 145.283 7.94902 145.232 7.30472C145.181 6.48716 145.003 6.19064 144.014 5.96679C143.456 5.8182 143.253 5.66961 143.253 5.42175C143.253 5.24851 143.609 5.09927 143.988 5.09927C145.105 5.09927 146.095 5.17389 147.108 5.17389H150.406C153.754 5.17324 154.363 5.07462 154.667 5Z" fill="#383838"/>
<path d="M164.361 5.83904C164.132 5.83904 163.774 5.98654 163.674 6.06093C163.597 6.13533 163.47 6.40638 163.444 6.97437C163.42 7.4686 163.42 10.5311 163.394 13.3451C163.394 15.5925 163.444 17.1968 163.444 17.8146C163.47 19.3219 163.546 19.7663 165.022 20.1351C165.53 20.2341 165.734 20.432 165.734 20.6552C165.734 20.8519 165.301 21 164.945 21C164.282 21 162.834 20.8519 161.715 20.8519C160.976 20.8519 159.73 20.9502 158.942 20.9502C158.356 20.9502 158 20.8279 158 20.5549C158 20.3822 158.356 20.1842 158.611 20.1105C159.857 19.8142 160.163 19.4435 160.239 18.3076C160.315 17.321 160.391 15.7154 160.391 14.4552C160.391 13.666 160.391 8.13427 160.341 7.41879C160.263 6.55517 160.136 6.15991 158.738 5.98654C158.407 5.93737 158.153 5.76465 158.153 5.6165C158.153 5.41855 158.383 5.27106 158.688 5.22189C158.84 5.19795 159.298 5.19795 159.528 5.19795C161.154 5.19795 163.24 5 164.385 5C166.827 5 168.481 5.44443 169.524 6.43096C170.72 7.56758 171 8.90086 171 9.76448C171 11.79 170.059 12.8768 169.32 13.4933C168.659 14.0367 167.26 14.604 166.268 14.604C165.988 14.604 165.276 14.5561 164.946 14.4313C164.589 14.2831 164.411 14.1609 164.411 13.9383C164.411 13.8387 164.589 13.6912 164.793 13.6912H165.173C166.242 13.6912 167.819 12.4563 167.819 9.88869C167.819 7.91303 166.445 5.83904 164.361 5.83904Z" fill="#383838"/>
<path d="M181.837 5.15151C182.686 5.15151 183.741 5.05258 184.102 5.00247C184.205 4.97709 184.385 5.15151 184.412 5.32527C184.437 5.77303 184.437 7.48726 184.437 7.98318C184.437 8.33071 184.256 8.67889 184.026 8.67889C183.793 8.67889 183.588 8.30663 183.536 8.05802C183.2 6.66659 182.48 6.29433 181.888 6.19475C181.399 6.11991 180.292 6.02034 178.308 6.04572C178.205 6.04572 177.998 6.14529 177.972 6.74143C177.921 7.3623 177.845 10.8155 177.87 12.1815C177.87 12.2557 177.972 12.4288 178.128 12.4288H180.188C182.017 12.4288 181.966 12.3293 182.454 11.2366C182.609 10.8643 182.788 10.5897 183.021 10.5897C183.227 10.5897 183.304 11.0127 183.278 11.286C183.227 11.9824 183.175 12.4282 183.175 12.9996C183.175 13.6712 183.227 14.0695 183.278 14.6891C183.304 15.1369 183.15 15.4349 182.944 15.4349C182.738 15.4349 182.533 15.1375 182.454 14.8883C182.118 13.7949 181.784 13.6218 180.78 13.5476C179.956 13.4721 179.003 13.4721 178.206 13.4721C178.103 13.4721 177.871 13.7207 177.871 13.7702C177.768 14.4665 177.794 16.4033 177.819 17.2227C177.846 17.8195 177.819 18.7397 177.922 19.2604C177.999 19.4843 178.232 19.8071 178.489 19.8572C178.901 19.9307 179.7 20.0056 180.575 20.0056C181.348 20.0056 182.301 20.0056 182.945 19.783C183.717 19.509 184.414 18.9135 184.979 17.9438C185.339 17.2975 185.572 17.075 185.778 17.075C186.036 17.075 186.01 17.5963 185.984 17.7967C185.984 17.9946 185.237 20.2802 185.006 20.6778C184.929 20.851 184.516 21 184.387 21C184.104 21 177.744 20.8757 175.813 20.8757C174.087 20.8757 173.803 21 172.876 21C172.387 21 172 20.9252 172 20.6778C172 20.4533 172.335 20.2802 172.773 20.1793C174.086 19.8826 174.42 19.6327 174.524 18.2933C174.601 17.2487 174.73 15.3614 174.73 12.2811C174.73 9.35052 174.755 8.20705 174.705 7.48726C174.653 6.5924 174.446 6.09648 173.34 5.89603C172.798 5.79841 172.515 5.69884 172.515 5.45023C172.515 5.22635 172.953 5.07666 173.314 5.07666C174.525 5.07666 176.637 5.15216 177.974 5.15216L181.837 5.15151Z" fill="#383838"/>
<path d="M200.147 5.40808C200.765 5.56011 201.41 5.71281 202.003 5.78949C202.183 5.78949 202.389 6.09488 202.389 6.47696C202.415 7.18843 202.466 8.07927 202.519 8.81808C202.544 9.35219 202.363 9.78494 202.08 9.78494C201.951 9.78494 201.718 9.47955 201.59 9.09747C201.332 8.30932 200.945 7.62185 200.507 7.29045C199.398 6.37494 198.084 5.81416 196.692 5.81416C192.594 5.81416 190.661 9.02146 190.661 12.8895C190.661 14.5952 190.97 16.0708 191.537 17.1911C192.955 19.9909 195.301 20.9838 197.311 20.9838C197.646 20.9838 198.909 20.9331 199.81 20.3977C200.764 19.8642 201.461 19.1248 202.052 18.0826C202.362 17.5225 202.544 17.2924 202.749 17.2924C203.033 17.2924 203.033 17.9545 202.956 18.2353C202.827 18.8701 202.414 19.9909 202.182 20.4497C202.104 20.6784 201.64 21.0852 201.254 21.2632C200.893 21.3899 199.115 22 196.742 22C192.928 22 190.223 20.321 189.166 19.1248C188.186 18.0059 187 16.2242 187 13.399C187 10.319 188.752 8.15595 189.836 7.28978C192.026 5.50877 194.681 5 196.794 5C197.982 5 199.219 5.17803 200.147 5.40808Z" fill="#383838"/>
<path d="M218.148 5.40808C218.766 5.56011 219.41 5.71281 220.003 5.78949C220.184 5.78949 220.39 6.09488 220.39 6.47696C220.415 7.18843 220.467 8.07927 220.518 8.81808C220.545 9.35219 220.363 9.78494 220.08 9.78494C219.952 9.78494 219.72 9.47955 219.591 9.09747C219.333 8.30932 218.946 7.62185 218.508 7.29045C217.398 6.37494 216.085 5.81416 214.694 5.81416C210.595 5.81416 208.661 9.02146 208.661 12.8895C208.661 14.5952 208.97 16.0708 209.538 17.1911C210.955 19.9909 213.301 20.9838 215.313 20.9838C215.646 20.9838 216.911 20.9331 217.812 20.3977C218.766 19.8642 219.462 19.1248 220.055 18.0826C220.363 17.5225 220.546 17.2924 220.751 17.2924C221.033 17.2924 221.033 17.9545 220.956 18.2353C220.829 18.8701 220.415 19.9909 220.183 20.4497C220.107 20.6784 219.642 21.0852 219.256 21.2632C218.894 21.3899 217.115 22 214.744 22C210.928 22 208.222 20.321 207.165 19.1248C206.186 18.0059 205 16.2242 205 13.399C205 10.319 206.753 8.15595 207.835 7.28978C210.026 5.50877 212.682 5 214.796 5C215.982 5 217.219 5.17803 218.148 5.40808Z" fill="#383838"/>
<path d="M41.0816 31.043C41.5139 31.043 42.4192 31.0007 42.5815 31.0007C42.8384 31.0007 43 31.071 43 31.1843C43 31.3106 42.8653 31.4082 42.5677 31.4921C41.9869 31.6477 41.9462 31.774 41.9055 32.1944C41.8516 32.7691 41.8378 33.6831 41.8378 35.184C41.8378 36.5463 41.8647 38.2445 41.8785 38.7093C41.8917 39.2553 42.0408 39.3407 42.5677 39.4806C42.7438 39.5359 42.9461 39.6478 42.9461 39.7611C42.9461 39.9154 42.7707 39.985 42.527 39.985C42.297 39.985 41.4725 39.9297 41.0671 39.9297C40.7564 39.9297 39.784 40 39.5134 40C39.1888 40 39.0403 39.9154 39.0403 39.7898C39.0403 39.6621 39.2289 39.5645 39.4188 39.5222C40.0679 39.3536 40.1217 39.2137 40.1756 38.1742C40.1894 37.8923 40.2025 36.4624 40.2025 35.0297C40.2163 33.5288 40.1756 32.1944 40.1625 31.8702C40.1625 31.688 40.0403 31.6184 39.9726 31.6184C39.0003 31.6184 36.5267 31.5761 36.1621 31.6184C36.0944 31.6184 35.986 31.7303 35.9729 31.8293C35.9321 32.1944 35.9045 33.724 35.9045 35.2277C35.9045 36.659 35.9183 38.0486 35.9183 38.3988C35.9183 39.0588 36.0261 39.2704 36.5806 39.4376C36.8644 39.5222 37.053 39.6342 37.053 39.7475C37.0668 39.8874 36.7967 39.9713 36.6207 39.9713C36.5254 39.9713 35.4039 39.929 34.9315 39.929C34.6214 39.929 33.9592 39.9993 33.5131 39.9993C33.1347 39.9993 33 39.901 33 39.7891C33 39.6335 33.27 39.5502 33.4192 39.5086C34.0407 39.368 34.1215 39.1564 34.1622 38.5537C34.1891 38.0479 34.2838 36.56 34.2838 34.8195C34.2838 33.6537 34.3107 32.8122 34.2838 32.2777C34.2562 31.8013 34.1077 31.6177 33.6885 31.5058C33.3784 31.4225 33.2293 31.3092 33.2293 31.1973C33.2293 31.0567 33.4054 31 33.6478 31C34.0131 31 34.7561 31.0423 35.1214 31.0423L41.0816 31.043Z" fill="#383838"/>
<path d="M49.2985 35.0267C49.6854 35.4342 50 36.04 50 36.7501C50 37.7109 49.5421 38.4875 48.7688 39.0396C47.9671 39.6185 47.0658 39.7113 46.5654 39.7113C46.3065 39.7113 46.0351 39.6978 45.8632 39.671C45.8061 39.6582 45.7491 39.79 45.7491 39.8559C45.7344 40.4476 45.7637 41.5523 45.8061 41.8428C45.8493 42.1972 45.921 42.3942 46.493 42.5522C46.7798 42.6315 46.8793 42.7364 46.8793 42.8292C46.8793 42.9482 46.651 43 46.4791 43C46.0782 43 45.0907 42.9341 44.575 42.9341C44.2172 42.9341 44.0314 42.9738 43.4155 42.9738C43.1726 42.9738 43 42.8951 43 42.7761C43 42.6961 43.1441 42.5912 43.3723 42.5394C44.0446 42.4083 44.1309 42.2503 44.1734 41.4737C44.188 41.0137 44.2165 39.9608 44.2165 38.6321C44.2165 37.7506 44.2312 36.2761 44.2019 35.7771C44.188 35.5007 44.1442 35.4477 44.101 35.4093C43.8442 35.2244 43.5575 35.0005 43.5575 34.9352C43.5575 34.8687 43.7154 34.6845 43.8581 34.6314C44.1442 34.5527 44.9313 34.3288 45.3183 34.119C45.4623 34.0397 45.5765 34 45.605 34C45.6621 34 45.7762 34.119 45.7762 34.1849C45.7477 34.4209 45.7477 34.5917 45.733 34.8028C45.733 34.8559 45.8047 34.9077 45.8479 34.8956C46.1061 34.7376 46.4916 34.5527 46.6921 34.4747C46.9357 34.3819 47.2649 34.2904 47.679 34.2904C48.2538 34.2898 48.9129 34.6186 49.2985 35.0267ZM45.9356 35.2238C45.8924 35.2634 45.7922 35.4214 45.7776 35.5666C45.692 36.1443 45.692 37.21 45.7205 37.908C45.7205 38.144 45.7776 38.3685 45.8639 38.5131C46.1652 38.9993 46.7373 39.2635 47.038 39.2635C47.196 39.2635 47.3526 39.2238 47.5245 39.1055C48.2691 38.6059 48.384 37.4742 48.384 37.1192C48.384 36.7622 48.3116 36.0931 47.7827 35.5526C47.4674 35.2238 46.9378 35.0657 46.7095 35.0657C46.436 35.0657 46.1214 35.1316 45.9356 35.2238Z" fill="#383838"/>
<path d="M57 36.9791C57 38.1957 56.2912 39.0696 55.7859 39.4137C55.227 39.8294 54.5321 40 53.9049 40C53.2909 40 52.527 39.6999 52.0224 39.2556C51.4363 38.7549 51 37.8531 51 37.0508C51 36.0494 51.4217 35.289 51.9402 34.8308C52.3493 34.4596 53.1132 34 54.1223 34C55.4869 33.9986 57 35.1163 57 36.9791ZM53.196 34.7876C52.8818 35.0877 52.6371 35.718 52.6371 36.663C52.6371 37.1351 52.6915 37.679 52.8002 38.0383C53.0866 39.0418 53.7139 39.5279 54.2874 39.5279C54.424 39.5279 54.6826 39.4136 54.8868 39.1567C55.1733 38.7834 55.3914 38.0237 55.3914 37.2075C55.3914 36.6058 55.2681 35.6755 54.8457 35.0453C54.5997 34.7145 54.2457 34.4728 53.8644 34.4728C53.6317 34.4721 53.4142 34.5731 53.196 34.7876Z" fill="#383838"/>
<path d="M62.7069 34.3207C62.8879 34.452 62.9433 34.6554 62.9433 34.844C62.9433 35.1047 62.4847 35.5263 62.4017 35.5263C62.2767 35.5263 62.0539 35.4246 61.7628 35.1633C61.3874 34.844 61.0956 34.5375 60.6655 34.5375C60.5128 34.5375 60.2765 34.6258 60.0685 34.8574C59.7207 35.2353 59.5276 35.9614 59.5276 36.6303C59.5276 37.5739 59.9023 38.0683 59.9712 38.1559C60.2353 38.533 60.7357 38.9391 61.4853 38.9391C61.8884 38.9391 62.347 38.7661 62.819 38.4603C62.8886 38.4165 63 38.4603 63 38.5775C63 38.7223 62.8886 38.9109 62.7778 39.0267C62.3058 39.5487 61.4995 40 60.6391 40C59.6255 40 58.8475 39.4491 58.4585 38.8374C58.1803 38.3875 58 37.7483 58 37.1522C58 36.02 58.5558 35.1929 59.3891 34.6258C59.8753 34.2627 60.7917 34 61.3475 34C61.7628 34.0007 62.4564 34.118 62.7069 34.3207Z" fill="#383838"/>
<path d="M65.2099 39C65.0572 39 64.8921 38.9631 64.8921 38.8529C64.8921 38.7552 64.9812 38.6825 65.197 38.6193C65.5401 38.5347 65.7311 38.4478 65.7571 38.2154C65.7831 37.8473 65.8208 37.0639 65.8208 36.1691V34.7226C65.8208 34.6732 65.7948 34.613 65.7182 34.6005C65.5531 34.588 65.2359 34.5755 65.1339 34.5755C64.7524 34.5755 64.5873 34.9311 64.46 35.2737C64.3579 35.5072 64.2566 35.6174 64.1545 35.6174C64.0402 35.6174 63.9895 35.3964 64.0018 35.2135C64.0148 34.7971 64.0908 34.4534 64.0908 34.1835C64.0779 34.1108 64.1805 34 64.2436 34C64.3072 34 64.3839 34.0494 64.4723 34.0858C64.5614 34.1227 64.9682 34.1477 65.2736 34.1477H67.7653C68.0707 34.1477 68.5412 34.1108 68.6426 34.0745C68.7323 34.0375 68.8213 34.0006 68.885 34.0006C68.9487 34.0006 69 34.1114 69 34.1841C68.9617 34.5397 68.974 34.8328 68.987 35.251C69 35.4959 68.8733 35.643 68.7576 35.643C68.6686 35.643 68.6049 35.5686 68.5419 35.3237C68.4398 34.8704 68.2234 34.5761 67.8927 34.5761C67.6385 34.5761 67.3461 34.5886 67.2571 34.6011C67.1928 34.6136 67.168 34.7119 67.155 34.7846C67.1421 35.1271 67.155 35.7652 67.155 36.3287C67.155 37.2235 67.168 37.7376 67.2064 38.0814C67.2447 38.4364 67.3337 38.5103 67.6892 38.608C67.8927 38.6694 67.9823 38.7552 67.9823 38.8046C67.9823 38.9011 67.8036 39 67.6633 39C67.2311 39 66.7229 38.9631 66.4428 38.9631C66.151 38.9631 65.6298 39 65.2099 39Z" fill="#383838"/>
<path d="M76.2985 35.0267C76.6854 35.4342 77 36.04 77 36.7501C77 37.7109 76.5421 38.4875 75.7688 39.0396C74.9671 39.6185 74.0658 39.7113 73.5654 39.7113C73.3065 39.7113 73.0351 39.6978 72.8632 39.671C72.8061 39.6582 72.7491 39.79 72.7491 39.8559C72.7344 40.4476 72.7637 41.5523 72.8061 41.8428C72.8493 42.1972 72.921 42.3942 73.493 42.5522C73.7798 42.6315 73.8793 42.7364 73.8793 42.8292C73.8793 42.9482 73.6503 43 73.4784 43C73.0782 43 72.09 42.9341 71.575 42.9341C71.2172 42.9341 71.0314 42.9738 70.4155 42.9738C70.1726 42.9738 70 42.8951 70 42.7761C70 42.6961 70.1441 42.5912 70.3723 42.5394C71.0446 42.4083 71.1309 42.2503 71.1734 41.4737C71.188 41.0137 71.2165 39.9608 71.2165 38.6321C71.2165 37.7506 71.2312 36.2761 71.2019 35.7771C71.188 35.5007 71.1442 35.4477 71.101 35.4093C70.8442 35.2244 70.5575 35.0005 70.5575 34.9352C70.5575 34.8687 70.7155 34.6845 70.8581 34.6314C71.1442 34.5527 71.932 34.3288 72.3183 34.119C72.4623 34.0397 72.5765 34 72.605 34C72.6621 34 72.7762 34.119 72.7762 34.1849C72.7477 34.4209 72.7477 34.5917 72.7331 34.8028C72.7331 34.8559 72.8047 34.9077 72.8479 34.8956C73.1061 34.7376 73.4916 34.5527 73.6921 34.4747C73.9357 34.3819 74.2649 34.2904 74.679 34.2904C75.2531 34.2898 75.9129 34.6186 76.2985 35.0267ZM72.9349 35.2238C72.8917 35.2634 72.7915 35.4214 72.7769 35.5666C72.6913 36.1443 72.6913 37.21 72.7198 37.908C72.7198 38.144 72.7769 38.3685 72.8632 38.5131C73.1645 38.9993 73.7366 39.2635 74.0373 39.2635C74.1953 39.2635 74.3519 39.2238 74.5238 39.1055C75.2684 38.6059 75.3833 37.4742 75.3833 37.1192C75.3833 36.7622 75.3109 36.0931 74.782 35.5526C74.4667 35.2238 73.9371 35.0657 73.7088 35.0657C73.4353 35.0657 73.1207 35.1316 72.9349 35.2238Z" fill="#383838"/>
<path d="M80.7209 34.7697C80.8761 34.999 81.0049 35.3567 81.0049 35.9993C81.0049 36.5571 80.9534 38.2563 80.9534 38.4147C80.9534 38.8142 81.2122 38.9858 81.4315 38.9858C81.4962 38.9858 81.7544 38.8718 81.8844 38.8142C81.9227 38.785 81.9359 38.8003 81.9611 38.8281C81.9874 38.8857 82 38.9865 82 39.0288C82 39.3005 81.3931 40 80.6694 40C80.295 40 79.8942 39.8708 79.7007 39.3143C79.6875 39.2581 79.6103 39.2289 79.5845 39.2581C79.2616 39.5144 78.7314 39.7867 78.5636 39.8576C78.421 39.9139 78.1635 39.9715 77.9951 39.9715C77.517 39.9715 77.0006 39.3289 77.0006 38.5287C77.0006 38.2702 77.1037 38 77.2324 37.7992C77.3625 37.5992 77.5817 37.5137 77.698 37.4575C77.9825 37.3282 79.1579 36.9719 79.4551 36.8711C79.6109 36.8149 79.6882 36.7127 79.6882 36.6565C79.7013 36.5273 79.7271 35.7423 79.7145 35.5568C79.7013 35.2136 79.43 34.6412 78.8482 34.6412C78.6679 34.6412 78.5253 34.6704 78.4349 34.7419C78.3827 34.7704 78.357 34.9149 78.357 35.3991C78.357 35.4568 78.3306 35.4998 78.3048 35.529C78.215 35.629 77.2582 36.1 77.1684 36.1C77.0905 36.1 77 35.9847 77 35.8993C77 35.4859 77.284 35.1004 78.0856 34.5287C78.5636 34.1855 79.1969 34 79.3772 34C80.1656 33.9993 80.5275 34.4557 80.7209 34.7697ZM79.5198 38.9427C79.5719 38.8996 79.6234 38.728 79.6234 38.6704C79.6492 38.4703 79.675 37.8715 79.675 37.3991C79.675 37.3428 79.6234 37.2567 79.5845 37.2567C79.364 37.2567 78.7697 37.4706 78.5379 37.627C78.3821 37.7562 78.3042 37.8277 78.3042 38.1994C78.3042 38.8267 78.7697 39.1136 79.016 39.1136C79.1315 39.1143 79.3904 39.0281 79.5198 38.9427Z" fill="#383838"/>
<path d="M89.6414 39C89.2814 39 88.5755 38.9508 88.2582 38.9508C87.9277 38.9508 87.5095 38.9751 87.0914 38.9751C86.9185 38.9751 86.702 38.9259 86.702 38.7885C86.702 38.6755 86.861 38.625 87.1054 38.563C87.3653 38.5138 87.5088 38.3637 87.5229 38.2628C87.5523 38.0507 87.5663 37.6131 87.5663 36.7756C87.5663 36.6875 87.5229 36.6255 87.4514 36.6255L85.564 36.6383C85.4631 36.6383 85.4344 36.6875 85.4197 36.8753C85.405 37.088 85.4197 37.7632 85.4484 38.0756C85.4631 38.3643 85.55 38.5144 85.7944 38.5636C86.0248 38.6262 86.1551 38.7131 86.1551 38.7891C86.1551 38.8633 86.0395 38.9885 85.737 38.9885C85.6361 38.9885 85.003 38.9508 84.685 38.9508C84.2242 38.9508 83.6051 38.9885 83.3607 38.9885C83.1156 38.9885 83 38.8754 83 38.7757C83 38.701 83.1296 38.6135 83.3607 38.563C83.6912 38.4883 83.7641 38.3989 83.8215 38.2743C83.8789 38.0878 83.9084 37.5377 83.9084 36.5878C83.9084 35.6379 83.9084 35.1377 83.8936 34.9007C83.8789 34.6005 83.8355 34.5136 83.4041 34.4011C83.1877 34.3379 83.0721 34.251 83.0721 34.1629C83.0721 34.0383 83.2451 34.0006 83.4321 34.0006C83.7781 34.0006 84.3545 34.0383 84.671 34.0383C85.1319 34.0383 85.3336 34.0006 85.7804 34.0006C86.0108 34.0006 86.1404 34.0511 86.1404 34.1629C86.1404 34.237 86.0675 34.313 85.8525 34.3871C85.4918 34.5008 85.4484 34.5877 85.4344 34.8126C85.4197 35.1997 85.4197 35.9381 85.4197 36.0633C85.4344 36.101 85.4771 36.163 85.5353 36.163H87.436C87.4794 36.163 87.5656 36.1004 87.5656 36.0512C87.5803 35.7133 87.5803 34.9627 87.5656 34.8253C87.5516 34.5251 87.436 34.4625 87.2056 34.3865C87.0326 34.3239 86.8603 34.2619 86.8603 34.1367C86.8603 34.0377 87.0326 34 87.2343 34C87.4941 34 87.969 34.0377 88.3283 34.0377C88.8038 34.0377 89.1211 34 89.5098 34C89.7556 34 89.8991 34.0626 89.8991 34.1501C89.8991 34.2735 89.7556 34.3239 89.5826 34.3744C89.107 34.4996 89.1217 34.6126 89.0783 34.9244C89.0636 35.0362 89.0636 35.7497 89.0636 36.4237C89.0636 37.0868 89.0783 37.6873 89.107 38.0744C89.1217 38.3983 89.3375 38.4627 89.6694 38.574C89.8998 38.6372 90 38.7241 90 38.8116C90.0014 38.938 89.8004 39 89.6414 39Z" fill="#383838"/>
<path d="M95.7076 34.3207C95.8886 34.452 95.9446 34.6554 95.9446 34.844C95.9446 35.1047 95.4854 35.5263 95.4023 35.5263C95.2774 35.5263 95.0552 35.4246 94.7635 35.1633C94.388 34.844 94.0963 34.5375 93.6661 34.5375C93.5135 34.5375 93.2771 34.6258 93.0691 34.8574C92.7214 35.2353 92.5276 35.9614 92.5276 36.6303C92.5276 37.5739 92.903 38.0683 92.9719 38.1559C93.236 38.533 93.7357 38.9391 94.4853 38.9391C94.8884 38.9391 95.347 38.7661 95.8197 38.4603C95.8893 38.4165 96 38.4603 96 38.5775C96 38.7223 95.8886 38.9109 95.7778 39.0267C95.3058 39.5487 94.4988 40 93.6391 40C92.6248 40 91.8475 39.4491 91.4585 38.8374C91.1803 38.3875 91 37.7483 91 37.1522C91 36.02 91.5558 35.1929 92.3891 34.6258C92.8753 34.2627 93.7917 34 94.3468 34C94.7628 34.0007 95.4571 34.118 95.7076 34.3207Z" fill="#383838"/>
<path d="M97.2099 39C97.0572 39 96.8921 38.9631 96.8921 38.8529C96.8921 38.7552 96.9812 38.6825 97.197 38.6193C97.5401 38.5347 97.7312 38.4478 97.7571 38.2154C97.7831 37.8473 97.8208 37.0639 97.8208 36.1691V34.7226C97.8208 34.6732 97.7948 34.613 97.7182 34.6005C97.5531 34.588 97.2359 34.5755 97.1339 34.5755C96.7524 34.5755 96.5873 34.9311 96.46 35.2737C96.3579 35.5072 96.2565 35.6174 96.1545 35.6174C96.0401 35.6174 95.9895 35.3964 96.0018 35.2135C96.0148 34.7971 96.0908 34.4534 96.0908 34.1835C96.0779 34.1108 96.1805 34 96.2436 34C96.3079 34 96.3839 34.0494 96.4723 34.0858C96.5614 34.1227 96.9688 34.1477 97.2742 34.1477H99.7659C100.071 34.1477 100.542 34.1108 100.643 34.0745C100.733 34.0375 100.821 34.0006 100.886 34.0006C100.949 34.0006 101 34.1114 101 34.1841C100.962 34.5397 100.974 34.8328 100.987 35.251C101 35.4959 100.873 35.643 100.758 35.643C100.669 35.643 100.605 35.5686 100.542 35.3237C100.44 34.8704 100.224 34.5761 99.8933 34.5761C99.6392 34.5761 99.3467 34.5886 99.2577 34.6011C99.194 34.6136 99.1687 34.7119 99.1557 34.7846C99.1433 35.1271 99.1557 35.7652 99.1557 36.3287C99.1557 37.2235 99.1687 37.7376 99.207 38.0814C99.2453 38.4364 99.3343 38.5103 99.6899 38.608C99.8933 38.6694 99.9829 38.7552 99.9829 38.8046C99.9829 38.9011 99.8042 39 99.6639 39C99.2317 39 98.7229 38.9631 98.4434 38.9631C98.151 38.9631 97.6291 39 97.2099 39Z" fill="#383838"/>
<path d="M106.754 36.2196C106.681 36.2323 106.725 36.2826 106.783 36.3069C107.043 36.3699 107.363 36.5068 107.478 36.5814C107.696 36.731 108 36.9546 108 37.466C108 38.1392 107.42 38.5755 106.797 38.7737C106.246 38.9488 105.536 38.9736 104.942 38.9736C104.622 38.9736 104.304 38.9615 103.927 38.9615C103.463 38.9615 102.884 38.987 102.376 38.9991C102.173 39.0112 102 38.8997 102 38.7991C102 38.6876 102.173 38.6495 102.362 38.6119C102.869 38.5004 102.884 38.3259 102.913 38.0265C102.956 37.7648 102.971 37.3533 102.971 36.382C102.971 35.8954 102.985 35.4597 102.956 34.9738C102.942 34.6605 102.899 34.5611 102.406 34.4369C102.232 34.3993 102.087 34.2999 102.087 34.1503C102.087 34.0879 102.144 34.0248 102.392 34.0248C102.652 34.0248 103.247 34.063 103.536 34.063C103.812 34.063 105.029 34 105.493 34C106.406 34 107.623 34.1988 107.623 35.1846C107.623 35.7718 107.188 36.0445 106.754 36.2196ZM104.927 34.4133C104.724 34.4133 104.594 34.4508 104.536 34.4878C104.492 34.5254 104.464 34.5993 104.449 34.7617C104.434 34.9356 104.42 35.8209 104.449 36.0075C104.464 36.1081 104.521 36.1323 104.608 36.1323C104.855 36.1323 105.304 36.1202 105.536 36.0445C105.913 35.9215 106.116 35.647 106.116 35.2852C106.116 34.9483 105.768 34.4133 104.927 34.4133ZM105.899 36.731C105.681 36.6062 105.232 36.5183 104.971 36.5183C104.797 36.5183 104.71 36.5183 104.579 36.5438C104.521 36.5559 104.492 36.6062 104.478 36.6934C104.449 36.8177 104.449 37.2909 104.464 37.7018C104.464 37.9405 104.493 38.1392 104.623 38.3138C104.739 38.4507 105.044 38.6004 105.189 38.6004C105.884 38.6004 106.407 38.1023 106.407 37.5285C106.406 37.1546 106.16 36.8922 105.899 36.731Z" fill="#383838"/>
<path d="M115 36.9791C115 38.1957 114.292 39.0696 113.787 39.4137C113.228 39.8294 112.532 40 111.905 40C111.29 40 110.527 39.6999 110.022 39.2556C109.436 38.7549 109 37.8531 109 37.0508C109 36.0494 109.422 35.289 109.94 34.8308C110.35 34.4596 111.113 34 112.122 34C113.486 33.9986 115 35.1163 115 36.9791ZM111.195 34.7876C110.881 35.0877 110.636 35.718 110.636 36.663C110.636 37.1351 110.69 37.679 110.8 38.0383C111.086 39.0418 111.713 39.5279 112.285 39.5279C112.422 39.5279 112.681 39.4136 112.886 39.1567C113.173 38.7834 113.391 38.0237 113.391 37.2075C113.391 36.6058 113.267 35.6755 112.845 35.0453C112.599 34.7145 112.246 34.4728 111.864 34.4728C111.632 34.4721 111.414 34.5731 111.195 34.7876Z" fill="#383838"/>
<path d="M120.385 39.128C120.278 39.128 120.142 39.1658 120.033 39.2526C119.72 39.5172 119.654 40.1324 119.6 40.6114C119.559 40.8998 119.449 41 119.341 41C119.206 41 119.124 40.8118 119.11 40.6609C119.056 40.1587 119.029 39.1536 119.002 38.8518C118.988 38.7632 119.056 38.6874 119.11 38.6874C119.273 38.6874 119.436 38.6746 119.599 38.6496C119.653 38.6373 119.735 38.6117 119.775 38.5371C120.033 37.9842 120.805 36.1855 121.226 35.1053C121.253 35.0301 121.307 34.892 121.348 34.7668C121.389 34.6275 121.565 34.465 121.932 34.1497C122.027 34.0495 122.121 34 122.203 34C122.284 34 122.366 34.1002 122.543 34.5273C122.936 35.5696 123.831 37.9701 124.061 38.4363C124.102 38.5365 124.184 38.6367 124.305 38.6367C124.482 38.674 124.726 38.674 124.916 38.674C124.97 38.674 125.011 38.7375 124.997 38.8249C124.957 39.1524 124.685 39.8178 124.604 40.5467C124.563 40.8356 124.414 40.9982 124.278 40.9982C124.142 40.9982 124.075 40.8729 124.075 40.5839V40.1819C124.075 39.4402 123.803 39.1261 123.437 39.1261H120.385V39.128ZM121.539 35.7608C121.511 35.6723 121.443 35.7101 121.416 35.7608C121.131 36.5142 120.48 38.1363 120.358 38.55C120.344 38.6007 120.372 38.6624 120.425 38.6624C120.643 38.6624 122.298 38.6881 122.488 38.6502C122.542 38.638 122.57 38.6007 122.555 38.5628C122.447 38.1852 121.701 36.1372 121.539 35.7608Z" fill="#383838"/>
<path d="M131 36.9791C131 38.1957 130.291 39.0696 129.786 39.4137C129.227 39.8294 128.531 40 127.904 40C127.29 40 126.527 39.6999 126.022 39.2556C125.436 38.7549 125 37.8531 125 37.0508C125 36.0494 125.422 35.289 125.941 34.8308C126.349 34.4596 127.114 34 128.122 34C129.486 33.9986 131 35.1163 131 36.9791ZM127.195 34.7876C126.881 35.0877 126.636 35.718 126.636 36.663C126.636 37.1351 126.69 37.679 126.799 38.0383C127.087 39.0418 127.713 39.5279 128.285 39.5279C128.422 39.5279 128.682 39.4136 128.886 39.1567C129.173 38.7834 129.391 38.0237 129.391 37.2075C129.391 36.6058 129.267 35.6755 128.845 35.0453C128.6 34.7145 128.246 34.4728 127.864 34.4728C127.632 34.4721 127.414 34.5731 127.195 34.7876Z" fill="#383838"/>
<path d="M136.754 36.2196C136.681 36.2323 136.725 36.2826 136.783 36.3069C137.043 36.3699 137.362 36.5068 137.478 36.5814C137.696 36.731 138 36.9546 138 37.466C138 38.1392 137.42 38.5755 136.796 38.7737C136.247 38.9488 135.536 38.9736 134.942 38.9736C134.622 38.9736 134.304 38.9615 133.927 38.9615C133.463 38.9615 132.883 38.987 132.376 38.9991C132.173 39.0112 132 38.8997 132 38.7991C132 38.6876 132.173 38.6495 132.362 38.6119C132.87 38.5004 132.883 38.3259 132.913 38.0265C132.956 37.7648 132.971 37.3533 132.971 36.382C132.971 35.8954 132.986 35.4597 132.956 34.9738C132.942 34.6605 132.899 34.5611 132.405 34.4369C132.232 34.3993 132.087 34.2999 132.087 34.1503C132.087 34.0879 132.145 34.0248 132.392 34.0248C132.652 34.0248 133.247 34.063 133.536 34.063C133.812 34.063 135.03 34 135.493 34C136.406 34 137.623 34.1988 137.623 35.1846C137.623 35.7718 137.188 36.0445 136.754 36.2196ZM134.927 34.4133C134.724 34.4133 134.594 34.4508 134.536 34.4878C134.492 34.5254 134.463 34.5993 134.448 34.7617C134.434 34.9356 134.42 35.8209 134.448 36.0075C134.463 36.1081 134.521 36.1323 134.609 36.1323C134.856 36.1323 135.304 36.1202 135.536 36.0445C135.913 35.9215 136.116 35.647 136.116 35.2852C136.116 34.9483 135.768 34.4133 134.927 34.4133ZM135.899 36.731C135.681 36.6062 135.233 36.5183 134.971 36.5183C134.798 36.5183 134.71 36.5183 134.579 36.5438C134.521 36.5559 134.493 36.6062 134.478 36.6934C134.448 36.8177 134.448 37.2909 134.463 37.7018C134.463 37.9405 134.492 38.1392 134.622 38.3138C134.739 38.4507 135.043 38.6004 135.188 38.6004C135.883 38.6004 136.406 38.1023 136.406 37.5285C136.405 37.1546 136.159 36.8922 135.899 36.731Z" fill="#383838"/>
<path d="M143.465 34.601C143.789 34.9172 144 35.3632 144 35.8651C144 35.9663 143.86 36.2099 143.691 36.2099H140.61C140.539 36.2099 140.469 36.2531 140.454 36.3111C140.412 36.4255 140.398 36.6412 140.398 36.8283C140.398 37.1424 140.568 37.8034 140.836 38.1622C141.189 38.6215 141.783 38.8811 142.404 38.8811C142.998 38.8811 143.408 38.7373 143.676 38.3772C143.732 38.2913 143.804 38.2061 143.861 38.2061C143.918 38.2061 143.988 38.306 143.988 38.3925C143.988 38.4784 143.945 38.6368 143.875 38.7513C143.437 39.4395 142.772 40 141.614 40C139.989 40 139 38.7513 139 37.1152C139 35.9663 139.621 34.8181 140.794 34.2722C141.148 34.0998 141.571 34 141.953 34C142.517 33.9993 143.096 34.2282 143.465 34.601ZM140.539 35.6208C140.525 35.6927 140.581 35.7645 140.638 35.7645C141.005 35.7792 141.444 35.7645 142.15 35.7645C142.391 35.7645 142.645 35.6208 142.645 35.2759C142.645 34.8746 142.249 34.4 141.853 34.4C141.26 34.4 140.709 34.9598 140.539 35.6208Z" fill="#383838"/>
<path d="M150.298 35.0267C150.685 35.4342 151 36.04 151 36.7501C151 37.7109 150.542 38.4875 149.768 39.0396C148.967 39.6185 148.065 39.7113 147.565 39.7113C147.306 39.7113 147.035 39.6978 146.863 39.671C146.806 39.6582 146.749 39.79 146.749 39.8559C146.734 40.4476 146.763 41.5523 146.806 41.8428C146.849 42.1972 146.92 42.3942 147.493 42.5522C147.779 42.6315 147.879 42.7364 147.879 42.8292C147.879 42.9482 147.65 43 147.478 43C147.077 43 146.09 42.9341 145.575 42.9341C145.217 42.9341 145.032 42.9738 144.416 42.9738C144.172 42.9738 144 42.8951 144 42.7761C144 42.6961 144.143 42.5912 144.372 42.5394C145.045 42.4083 145.132 42.2503 145.174 41.4737C145.189 41.0137 145.217 39.9608 145.217 38.6321C145.217 37.7506 145.232 36.2761 145.203 35.7771C145.189 35.5007 145.145 35.4477 145.102 35.4093C144.845 35.2244 144.559 35.0005 144.559 34.9352C144.559 34.8687 144.716 34.6845 144.859 34.6314C145.145 34.5527 145.933 34.3288 146.319 34.119C146.462 34.0397 146.577 34 146.605 34C146.662 34 146.777 34.119 146.777 34.1849C146.749 34.4209 146.749 34.5917 146.734 34.8028C146.734 34.8559 146.806 34.9077 146.848 34.8956C147.106 34.7376 147.493 34.5527 147.692 34.4747C147.937 34.3819 148.265 34.2904 148.68 34.2904C149.253 34.2898 149.912 34.6186 150.298 35.0267ZM146.935 35.2238C146.892 35.2634 146.792 35.4214 146.777 35.5666C146.691 36.1443 146.691 37.21 146.72 37.908C146.72 38.144 146.777 38.3685 146.863 38.5131C147.164 38.9993 147.736 39.2635 148.037 39.2635C148.195 39.2635 148.352 39.2238 148.524 39.1055C149.268 38.6059 149.382 37.4742 149.382 37.1192C149.382 36.7622 149.31 36.0931 148.781 35.5526C148.467 35.2238 147.937 35.0657 147.708 35.0657C147.436 35.0657 147.12 35.1316 146.935 35.2238Z" fill="#383838"/>
<path d="M151.465 34.0122C151.734 34.0122 152.227 34.0498 152.651 34.0498C152.989 34.0498 153.442 34.0122 153.865 34.0122C154.006 34.0122 154.19 34.0626 154.19 34.1488C154.19 34.2485 154.091 34.3493 153.865 34.3985C153.385 34.5121 153.442 34.6871 153.413 34.8487C153.371 35.5486 153.371 36.5358 153.385 37.1233C153.4 37.1974 153.442 37.2108 153.498 37.1604C154.05 36.6106 154.867 35.7989 155.418 35.2491C155.573 35.099 155.629 34.9623 155.629 34.8998V34.7497C155.629 34.5747 155.573 34.4751 155.22 34.3755C155.136 34.3499 154.98 34.2625 154.98 34.175C154.98 34.0753 155.107 34.0128 155.333 34.0128C155.629 34.0128 156.011 34.0504 156.433 34.0504C156.843 34.0377 157.167 34 157.534 34C157.787 34 157.887 34.0753 157.887 34.1634C157.887 34.2631 157.787 34.3384 157.548 34.3998C157.153 34.5134 157.097 34.6762 157.083 34.8384C157.083 34.938 157.068 35.4004 157.068 35.9374C157.068 36.6762 157.096 37.6124 157.111 38.0498C157.125 38.4496 157.408 38.5243 157.662 38.5747C157.887 38.6252 158 38.7369 158 38.8123C158 38.887 157.831 39 157.675 39C157.322 39 156.885 38.9623 156.448 38.9623C156.08 38.9623 155.587 39 155.078 39C154.909 39 154.725 38.9374 154.725 38.8123C154.725 38.7126 154.824 38.6501 155.064 38.5996C155.388 38.5115 155.543 38.3378 155.558 38.175C155.587 37.8372 155.628 37.3627 155.628 35.7637C155.628 35.7005 155.572 35.6877 155.53 35.7382C154.881 36.3761 154.033 37.1993 153.526 37.7375C153.469 37.8001 153.385 37.8998 153.385 37.9994V38.1883C153.385 38.3505 153.484 38.4757 153.752 38.5614C153.921 38.5996 154.076 38.6877 154.076 38.7618C154.076 38.887 153.892 38.9866 153.71 38.9866C153.568 38.9866 152.779 38.9623 152.453 38.9623C151.987 38.9623 151.649 39 151.395 39C151.268 39 151 38.9745 151 38.8244C151 38.7248 151.141 38.6373 151.366 38.5869C151.719 38.5 151.832 38.3876 151.875 38.2375C151.903 38.062 151.917 37.8256 151.917 37.2126C151.917 36.0875 151.917 35.1634 151.903 34.9137C151.889 34.6264 151.804 34.5504 151.436 34.4259C151.183 34.339 151.112 34.2503 151.112 34.1762C151.112 34.0626 151.239 34.0122 151.465 34.0122Z" fill="#383838"/>
<path d="M164.971 34.1257C164.971 34.2381 164.852 34.3614 164.616 34.3981C164.115 34.5088 164.115 34.6573 164.099 34.8185C164.099 34.9171 164.07 35.4367 164.07 36.1415C164.07 36.883 164.085 37.5638 164.099 37.9968C164.114 38.3925 164.365 38.4298 164.63 38.5044C164.866 38.5651 165 38.6649 165 38.7636C165 38.8508 164.808 38.9374 164.616 38.9374C164.513 38.9374 163.332 38.9001 163.021 38.9001C162.533 38.9001 162.312 38.9374 162.046 38.9374C161.825 38.9374 161.618 38.8754 161.618 38.7515C161.618 38.6397 161.752 38.5898 161.973 38.5411C162.312 38.4677 162.489 38.3053 162.519 38.1706C162.548 38.0221 162.548 37.0683 162.548 36.699C162.548 36.6238 162.504 36.5992 162.474 36.5992C162.252 36.5992 162.002 36.7724 161.677 37.1434C161.293 37.5638 161.028 37.9096 160.687 38.2939C160.274 38.7515 159.847 38.9987 158.886 38.9987C158.783 38.9987 158.443 39.0107 158.281 38.9614C158.177 38.9368 158 38.8869 158 38.7882C158 38.6884 158.133 38.6643 158.265 38.6277C158.62 38.5405 158.93 38.4039 159.801 37.4399C160.185 37.031 160.584 36.6984 160.791 36.5986C160.82 36.586 160.82 36.5613 160.791 36.5613C159.772 36.3761 159.255 35.8938 159.255 35.3375C159.255 34.6693 159.742 34 161.824 34C162.503 34 163.315 34.0379 163.818 34.0247C164.113 34.0247 164.378 34.0126 164.585 34.0126C164.749 34.0259 164.971 34.0391 164.971 34.1257ZM162.533 34.6573C162.533 34.5467 162.489 34.4101 162.429 34.4101C162.326 34.3861 162.311 34.3729 162.09 34.3729C161.455 34.3729 160.894 34.6699 160.894 35.2515C160.894 35.9316 161.603 36.2654 162.473 36.2786C162.532 36.2786 162.547 36.2414 162.547 36.1914C162.563 35.8078 162.548 35.0897 162.533 34.6573Z" fill="#383838"/>
</g>
<defs>
<clipPath id="clip0_1_7056">
<rect width="221" height="43" fill="white"/>
</clipPath>
</defs>
</svg>
