<svg width="175" height="57" viewBox="0 0 175 57" fill="none" xmlns="http://www.w3.org/2000/svg">
<path d="M126.333 35H131V54H127.41V42.0838H127.282L125.435 54H122.563L120.718 42.0838H120.59V54H117V35H121.667L124.001 48.3541L126.335 35H126.333Z" fill="#383838"/>
<path d="M133 35H140.835V37.0904H136.863V42.9802H140.835V45.0707H136.863V51.9096H141V54H133V35.0015V35Z" fill="#383838"/>
<path d="M152.228 51.5932H153V57H149.527V53.6445H145.473V57H142V51.5932H142.194C143.241 51.5932 143.296 50.4221 143.296 49.729V35H152.228V51.5932ZM147.156 50.1019C147.156 50.8475 146.991 51.2745 146.633 51.5932H148.37V37.0513H147.156V50.1019Z" fill="#383838"/>
<path d="M155.001 35H158.675V44.4739H158.806L160.327 35H164V54H160.327V44.5276H160.196L158.673 54H155V35H155.001Z" fill="#383838"/>
<path d="M166.995 35H173.005L175 54H171.256L170.901 48.9516H169.098L168.742 54H165L166.995 35ZM170.766 46.861L170.11 37.3335H169.891L169.236 46.861H170.766Z" fill="#383838"/>
<path d="M34 35V54H37.6693V37.3566H41V35H34Z" fill="#383838"/>
<path d="M46.8878 37.3566H47.1077L47.7643 46.8678H46.2342L46.8893 37.3566H46.8878ZM43.9922 35L42 54H45.7406L46.0966 48.9569H47.9004L48.2549 54H52L50.0048 35H43.9922Z" fill="#383838"/>
<path d="M56.8845 47.3518V50.9299C56.8845 51.4171 57.2751 51.5552 57.4954 51.5552C57.8587 51.5552 58.1079 51.2566 58.1079 50.9299V46.5096C58.1079 45.9125 57.9939 45.262 56.5502 45.262H54.9681V43.1707H56.6049C57.7173 43.1707 58.1094 42.9271 58.1094 41.7596V37.9795C58.1094 37.6542 57.8587 37.3542 57.497 37.3542C57.2766 37.3542 56.886 37.4923 56.886 37.9795V41.0793H53V38.3909C53 37.0631 53.1657 35 55.886 35H59.1109C61.8343 35 62 37.0646 62 38.3909V41.4314C62 43.493 60.5289 44.0648 59.3617 44.0098V44.2C61.9726 44.145 62 46.0997 62 46.7785V50.6061C62 51.9354 61.8343 54 59.1109 54H55.886C53.1657 54 53 51.9354 53 50.6061V47.3488H56.886V47.3518H56.8845Z" fill="#383838"/>
<path d="M64 35H73V54H69.1094V37.354H67.8875V54H64V35Z" fill="#383838"/>
<path d="M78.8902 45.4498V37.354H79.3905C79.8087 37.354 80.1129 37.7075 80.1129 38.3045V44.4978C80.1129 45.0948 79.8087 45.4498 79.3905 45.4498H78.8902ZM81.112 35H75V54H78.8902V47.5379H81.112C83.8373 47.5379 84 45.475 84 44.1458V38.3907C84 37.0629 83.8358 35 81.112 35Z" fill="#383838"/>
<path d="M91.1133 50.9269C91.1133 51.2522 90.861 51.5522 90.5008 51.5522C90.2773 51.5522 89.8897 51.4141 89.8897 50.9269V37.978C89.8897 37.4909 90.2788 37.3527 90.5008 37.3527C90.8625 37.3527 91.1133 37.6528 91.1133 37.978V50.9269ZM86 50.6061C86 51.9354 86.1657 54 88.8895 54H92.1105C94.8343 54 95 51.9354 95 50.6061V38.3909C95 37.0631 94.8343 35 92.1105 35H88.8895C86.1657 35 86 37.0646 86 38.3909V50.6061Z" fill="#383838"/>
<path d="M106.334 35H111V54H107.409V42.0843H107.281L105.436 54H102.565L100.719 42.0843H100.588V54H97V35H101.667L103.999 48.3533L106.334 35Z" fill="#383838"/>
<path d="M30.0194 9.71366C28.8397 4.72226 25.8821 0.663386 25.4737 0C24.8304 0.932523 22.4694 4.51277 21.2701 8.49163C19.9608 12.9215 19.768 16.8538 20.2215 20.7279C20.669 24.6006 22.3655 28.5751 22.3655 28.5751C23.2665 30.6642 24.6164 32.9016 25.4948 34C26.78 32.3837 29.7407 27.564 30.6643 21.2662C31.178 17.7659 31.2021 14.7022 30.0209 9.71366M25.4737 32.7576C24.8952 31.7014 23.9927 29.6909 23.9098 26.5864C23.8842 23.5837 25.1317 21.0145 25.4948 20.4777C25.8188 21.0145 26.8885 23.252 27.0166 26.3158C27.1025 29.3185 26.0734 31.6796 25.4753 32.7576M29.6744 18.1806C29.6307 20.0849 29.3971 22.0925 29.0958 23.2927C29.2043 21.224 28.9466 18.3042 28.454 16.026C27.9613 13.7478 26.5646 9.93916 25.4512 8.17885C24.4236 9.85623 23.155 13.1499 22.4935 16.0056C21.8261 18.8643 21.8065 22.3195 21.8065 23.3567C21.6302 22.4824 21.1872 19.3677 21.3138 16.2341C21.4178 13.6489 22.043 10.9953 22.3851 9.77476C23.6944 5.69698 25.1724 3.08707 25.4512 2.67246C25.7299 3.08707 27.5952 6.29635 28.5624 9.67147C29.5267 13.0466 29.7166 16.2748 29.6744 18.1806Z" fill="#383838"/>
<path d="M27.1189 35.4978H18.5013V41.2841C18.5013 41.2841 18.5144 41.2682 18.523 41.2595C20.5504 39.2289 23.847 39.2289 25.8773 41.2595C27.9076 43.2929 27.9076 46.587 25.8773 48.6175C25.8715 48.6262 25.857 48.6305 25.8498 48.6407C25.8411 48.6523 25.8281 48.6609 25.8194 48.6696C23.7949 50.6814 21.1495 51.6872 18.5028 51.6872C15.856 51.6872 13.1832 50.6727 11.1572 48.6465C7.58287 45.0717 7.15597 39.5401 9.88088 35.4978C10.2485 34.9536 10.6725 34.4341 11.1572 33.9521C13.1832 31.9245 15.843 30.9099 18.5028 30.9099V17C8.28183 17 0 25.2814 0 35.4978C0 45.7143 8.28182 54 18.5013 54C23.8267 54 28.6253 51.7451 32 48.1428V35.4978H27.1189Z" fill="#383838"/>
</svg>
