<svg width="119" height="79" viewBox="0 0 119 79" fill="none" xmlns="http://www.w3.org/2000/svg">
<path fill-rule="evenodd" clip-rule="evenodd" d="M54.8256 2.69692C57.497 2.54959 63.3324 2.75621 66.1967 2.85321C77.2609 3.22766 85.9526 3.57228 96.2737 7.6363C101.866 9.83841 106.976 13.6241 109.859 17.3513C113.968 22.665 115.26 27.8817 115.68 34.7885C116.119 42.0184 115.896 49.4927 113.537 55.7058C111.199 61.8613 107.699 65.2194 102.854 68.264C98.3949 71.066 92.0047 73.4528 85.8642 74.4661C78.9583 75.6058 71.52 75.976 64.3698 76.1705C56.8607 76.3747 49.121 76.3413 41.6923 75.7516C31.8818 74.9728 22.774 72.9729 15.0251 67.5634C7.49569 62.3071 3.82264 54.3585 3.40998 44.2787C3.13139 37.4755 3.43149 28.9914 5.85412 23.4003C8.24918 17.8731 11.9845 13.4574 16.4943 10.7944C21.131 8.05645 27.4244 5.79872 33.4614 4.55397C38.5028 3.51445 44.021 3.14977 49.2499 2.89237C51.1012 2.80126 52.9674 2.79942 54.8256 2.69692ZM1.54629 43.3324C2.25209 53.8576 5.3526 62.148 13.0367 68.1002C20.7553 74.079 29.7933 76.317 39.9812 77.3132C43.7379 77.6806 47.6206 77.8618 51.4314 77.9164C55.3799 77.973 59.3741 78.0473 63.3323 77.9598C69.5622 77.822 79.7302 77.2759 85.6904 76.2212C92.3163 75.0487 98.4873 72.8853 103.427 69.8622C104.855 68.9881 107.512 67.158 108.669 66.0024C108.936 65.7361 109.216 65.5466 109.469 65.2701C109.714 65.0024 109.904 64.81 110.196 64.543C110.856 63.9398 112.413 61.9551 112.928 61.2268C117.415 54.883 117.812 43.8568 117.353 35.8103C116.945 28.6358 115.164 21.9434 111.824 17.1301C108.587 12.4645 103.356 9.05769 98.1758 6.67643C85.8934 1.03018 70.5574 0.871607 55.6463 1.03664C42.0151 1.18757 25.6116 3.17049 15.7976 9.36439C12.5445 11.4174 10.1423 13.5253 7.77253 16.4888C4.51287 20.5652 2.61436 26.4835 1.96831 31.7469C1.66733 34.1991 1.38669 40.9522 1.54629 43.3324Z" fill="#383838"/>
<path fill-rule="evenodd" clip-rule="evenodd" d="M26.0648 24.2532C26.1836 24.4202 27.4546 28.6082 27.5487 29.0826L24.656 29.4179L26.0648 24.2532ZM31.4646 34.8654C31.0656 32.5873 28.3562 24.2691 27.5016 21.9627C27.1259 20.9486 26.5525 18.5173 24.8295 19.0847C23.8613 19.4036 25.1438 21.2017 24.937 21.8957C24.7918 22.3831 24.6244 22.8271 24.4672 23.3091C23.8306 25.2617 21.0735 33.6707 21.5565 35.2513C21.7057 35.7395 22.3539 35.9087 22.8855 35.6287C23.331 35.394 23.3952 34.9495 23.5309 34.3868C23.7592 33.4398 24.0791 32.2783 24.2301 31.3347L28.3177 30.936C28.5143 31.8693 28.8616 32.9407 29.125 33.8675C29.3956 34.8199 29.4829 36.2127 30.7956 35.9726C31.4231 35.8578 31.581 35.5297 31.4646 34.8654Z" fill="#383838"/>
<path fill-rule="evenodd" clip-rule="evenodd" d="M66.5035 23.1105C66.5035 25.0032 66.6379 26.9 66.6378 28.834C66.6378 29.8061 66.6435 30.7867 66.6526 31.7594C66.6571 32.2576 66.684 32.6158 67.0148 32.7953C67.2834 32.941 67.9661 32.945 68.2815 32.8514C69.1198 32.6024 69.6532 29.7032 69.8902 28.6811C70.2487 27.1352 70.5391 25.4739 70.9054 23.9568C71.0759 24.1824 71.3823 25.7607 71.4343 26.0057C71.5808 26.696 71.7178 27.3528 71.857 28.0518C72.1158 29.3524 72.3293 30.9431 72.6745 32.1761C72.7745 32.5338 72.8941 32.8499 73.1775 32.9571C73.4643 33.0656 73.9422 32.9504 74.1424 32.8103C74.68 32.4341 74.4806 31.4926 74.3745 30.837C74.1479 29.4356 73.9126 28.0269 73.6334 26.6325C73.3828 25.3815 72.6897 21.8447 71.6331 21.1922C70.9873 20.7934 70.3262 21.0693 69.948 21.5266C69.2158 22.4118 68.7998 28.1742 68.26 29.7815C68.2707 27.7793 68.4102 25.6686 68.2976 23.6687C68.2429 22.6961 68.2725 20.7026 67.0427 21.1697C66.4225 21.4052 66.5035 22.5217 66.5035 23.1105Z" fill="#383838"/>
<path fill-rule="evenodd" clip-rule="evenodd" d="M90.8487 27.9643C90.9031 27.2089 91.3929 23.1925 91.612 22.7795C92.0026 23.1406 93.6332 26.735 93.766 27.4742L90.8487 27.9643ZM94.5423 29.426C94.6515 30.1059 95.0349 31.1834 95.236 31.89C95.5197 32.8864 95.5644 33.8894 96.3156 33.9777C97.8372 34.1564 97.5503 33.2343 97.2996 32.2265C96.4096 28.649 94.7076 23.9301 92.7124 21.2227C92.2467 20.5908 91.6454 19.8623 90.7273 20.0224C89.435 20.2479 89.946 21.6711 89.9177 22.2168C89.8791 22.9608 89.5794 24.1055 89.4425 24.8819C89.1409 26.5938 88.2775 31.9013 88.5538 33.1182C88.7486 33.9763 90.3205 33.9214 90.4536 33.0332C90.5721 32.2437 90.5867 30.9575 90.6067 30.1051L94.5423 29.426Z" fill="#383838"/>
<path fill-rule="evenodd" clip-rule="evenodd" d="M56.5698 23.0769C58.129 22.6869 58.8326 23.0366 59.3401 24.1814C59.7549 25.117 59.9969 26.385 60.1384 27.5106C60.2393 28.3128 60.532 32.6864 60.7076 33.071C60.9293 33.5571 61.7875 33.5726 62.1759 33.2602C62.7447 32.8026 62.4083 30.5041 62.3292 29.6766C62.2112 28.4424 62.0608 27.2015 61.8913 25.9918C61.5781 23.7576 60.5186 21.52 58.5774 21.0795C57.5267 20.841 55.7268 21.1691 55.0477 21.6648C54.0381 22.4017 54.6807 23.5213 54.9578 24.7171C55.4722 26.9379 55.8799 29.6416 55.845 32.0104C55.8378 32.4917 55.6299 33.5902 55.9566 33.8414C56.3835 34.1695 57.3102 33.932 57.5716 33.6399C58.2755 32.8529 57.6258 27.4285 57.418 26.2428C57.2397 25.225 56.5706 23.0838 56.5698 23.0769Z" fill="#383838"/>
<path fill-rule="evenodd" clip-rule="evenodd" d="M80.1874 29.4669L80.1326 29.2551L80.4006 29.1921L82.7929 28.8934C82.8027 29.8869 82.8842 30.9201 82.9265 31.9275C82.966 32.866 82.9096 34.1056 84.1334 33.69C84.6139 33.5268 84.4895 33.0303 84.4747 32.4787C84.4199 30.4344 84.4468 23.3504 83.634 22.3937C83.3623 22.0739 82.8081 22.1107 82.6132 22.4956C82.3445 23.0267 82.7934 25.4665 82.7109 26.8988L79.8044 27.3016C79.6135 26.2932 79.4717 25.2621 79.2995 24.2457C79.1709 23.4859 79.015 21.7539 78.039 22.0294C77.1301 22.286 77.622 24.1056 77.7277 24.8933C77.7985 25.4212 77.8752 25.9625 77.9489 26.4879C78.1038 27.5927 78.2061 27.4199 77.9034 27.8257C77.0234 29.0059 78.1463 29.3954 78.3834 30.2767C78.8423 31.982 78.218 34.2166 80.0035 33.9831C80.6244 33.9018 80.4823 33.3563 80.4488 32.7767C80.3906 31.7677 80.1733 30.3849 80.1874 29.4669Z" fill="#383838"/>
<path fill-rule="evenodd" clip-rule="evenodd" d="M37.9226 23.7614C38.2836 25.8304 38.7305 27.9595 39.1347 30.0551C39.2603 30.7064 39.526 32.6974 39.8722 33.0565C40.1723 33.3677 40.9916 33.324 41.2854 33.0467C41.6341 32.7175 41.4712 31.9816 41.3934 31.4658C41.0747 29.3526 40.6229 27.3135 40.1445 25.2799C39.7116 23.4397 39.1498 20.8505 37.1086 21.0068C35.4478 21.1339 36.1556 22.724 36.1996 23.3482C36.2913 24.6485 34.7554 30.887 34.5226 32.8262C34.4379 33.5311 34.5751 33.9372 35.2113 33.9931C35.8539 34.0495 36.1316 33.7556 36.327 33.2934C36.6154 32.6113 37.2353 28.0202 37.4048 26.9327C37.496 26.3466 37.7571 24.1247 37.9226 23.7614Z" fill="#383838"/>
<path fill-rule="evenodd" clip-rule="evenodd" d="M47.4122 29.1448C47.7696 28.8562 48.4253 28.7712 48.919 28.9164C50.2861 29.3182 49.2757 31.9081 47.6495 31.8747L47.4122 29.1448ZM46.9881 27.0603C46.8972 26.0887 46.5147 23.7797 46.2157 22.9434C46.038 22.4463 45.5146 21.6682 44.8609 22.1531C44.3288 22.5477 44.5132 23.4002 44.6174 24.1498C44.833 25.7009 45.4807 31.6934 45.8626 32.7097C46.7855 35.1661 50.5224 33.811 51.3154 31.1915C51.7215 29.8505 51.4338 28.101 50.6849 27.3975C49.4944 26.279 48.0655 26.7976 46.9881 27.0603Z" fill="#383838"/>
<path fill-rule="evenodd" clip-rule="evenodd" d="M80.5577 29.2799L80.5504 29.1081L80.7819 29L80.5 29.0642L80.5577 29.2799Z" fill="#383838"/>
<path fill-rule="evenodd" clip-rule="evenodd" d="M76.8162 46.5916C76.8312 47.5347 76.915 53.4297 76.7169 53.6706C76.6271 53.7798 75.5027 53.7285 75.3993 53.7194C75.4572 52.1371 75.7416 45.4847 75.3691 44.2131C75.2252 43.7216 74.6684 43.5089 74.1496 43.758C73.7227 43.9629 73.6846 44.5603 73.6841 45.0986C73.7467 46.3598 73.6722 50.3555 73.6056 51.8198C73.5098 53.9253 72.9171 56.0338 74.907 55.9033C75.749 55.8481 76.5113 55.6281 77.3993 55.6281C79.7814 55.6281 81.6247 56.5847 81.6254 54.6793L81.5337 46.963C81.5344 46.2404 81.5193 44.327 81.144 43.8868C80.8946 43.5942 80.1054 43.6022 79.8766 43.9164C79.6713 44.1979 79.6286 44.9299 79.6286 45.3474C79.628 48.1495 79.7243 50.9309 79.6949 53.7306L78.3831 53.7304C78.2673 52.9186 78.7106 46.2979 78.3005 44.5062C78.1895 44.0215 77.9174 43.8231 77.3409 43.9168C76.8665 43.9939 76.7801 44.4012 76.7801 44.9119L76.8162 46.5916Z" fill="#383838"/>
<path fill-rule="evenodd" clip-rule="evenodd" d="M99.6035 45.1887C100.497 45.2943 104.215 46.2272 104.235 46.9651C104.065 47.4798 102.823 47.8999 102.247 48.1053C101.595 48.3383 100.457 48.7156 99.756 48.7848L99.6035 45.1887ZM99.9212 51.1905C100.766 51.0365 103.309 50.0692 104.118 49.6725C105.153 49.1654 106.886 48.0232 106.258 46.3401C105.446 44.1618 99.7721 42.5659 98.2778 43.1193C97.4804 43.4146 97.5081 44.271 97.5465 45.1995C97.6531 47.7757 97.8808 50.9961 97.8786 53.4351C97.8781 54.0622 97.7808 55.6594 97.9143 56.1507C98.1901 57.1661 99.6129 56.9206 99.8652 56.661C100.24 56.2757 100.031 54.68 100.009 54.0599C99.9743 53.1093 99.9856 52.1393 99.9212 51.1905Z" fill="#383838"/>
<path fill-rule="evenodd" clip-rule="evenodd" d="M64.3193 52.5393C64.3034 51.3742 64.0655 45.3688 63.7633 44.6119C63.5549 44.09 62.7963 43.8337 62.3596 44.301C61.9918 44.6945 62.1126 45.498 62.1537 46.0968C62.2415 47.3774 62.3965 48.6612 62.4675 49.9528C62.543 51.3264 62.5128 52.68 62.4705 54.057C62.4485 54.7689 62.3881 55.4101 62.8412 55.8048C63.356 56.253 63.9222 56.0168 64.3405 55.6839C65.6935 54.6068 67.1325 50.7314 67.3992 50.3988C67.5013 51.6471 67.5145 53.1682 67.5195 54.4327C67.5221 55.0991 67.4466 55.7065 68.1723 55.8017C68.9532 55.904 69.3455 55.7295 69.4244 54.993C69.5403 53.9108 69.3846 52.0866 69.3423 50.9463C69.2938 49.6362 69.2239 48.3286 69.1462 47.0246C69.0774 45.8699 69.1849 43.9606 68.1125 44.0006C67.4944 44.0236 67.2972 44.5068 67.1469 45.0653C66.9985 45.6167 66.8663 46.1264 66.7054 46.6757C66.1544 48.5572 65.5155 50.1415 64.6951 51.8691L64.3889 52.455C64.3815 52.4655 64.3604 52.5076 64.3548 52.4971C64.3492 52.4863 64.3319 52.5258 64.3193 52.5393Z" fill="#383838"/>
<path fill-rule="evenodd" clip-rule="evenodd" d="M19.6436 44.462C22.9174 43.9673 21.5632 51.0609 21.96 54.4964C22.201 56.5827 23.8286 56.217 23.9289 55.3494L23.8727 51.2578C23.7758 48.1427 24.131 42.8442 20.1811 42.5579C18.9453 42.4683 17.6331 42.8494 16.9878 43.5102C16.5757 43.9323 16.4311 44.2894 16.4949 45.0566C16.7602 48.2459 16.7843 51.6123 17.0337 54.8549C17.086 55.5353 17.3474 55.8962 17.9021 56.0945C18.7091 56.3829 18.9816 56.0182 18.9573 55.24C18.8816 52.8148 18.6602 49.8271 18.5214 47.3406C18.4203 45.5297 18.0091 44.7091 19.6436 44.462Z" fill="#383838"/>
<path fill-rule="evenodd" clip-rule="evenodd" d="M89.0099 53.6996C89.0616 52.4093 89.0862 51.1149 89.1159 49.8245C89.1269 49.347 89.0325 49.3034 89.468 49.2734L92.2604 49.0763C92.8986 49.033 93.3784 49.0448 93.4213 48.3284C93.4645 47.6066 93.4971 47.054 92.7599 47.0267C91.7634 46.9898 90.1497 47.172 89.1265 47.2578L89.0125 45.0035C89.6467 44.8587 91.4291 44.7955 92.2946 44.6999C92.7452 44.6501 92.9332 44.5746 92.9983 44.1603C93.1471 43.2126 93.056 42.6338 92.075 42.6847C91.3348 42.7232 90.5625 42.7781 89.8263 42.8276C88.0409 42.9475 86.7268 41.9355 86.9408 44.5382C87.0743 46.1608 87.2008 47.5164 87.1561 49.2053C87.1146 50.7705 86.9886 52.2719 86.9465 53.8088C86.8832 56.1214 87.9559 56.0121 89.5993 55.9204C92.1199 55.7795 92.9547 56.0593 92.8628 54.3696C92.8107 53.4095 92.2543 53.5036 91.3931 53.5454C90.5912 53.5843 89.8119 53.6568 89.0099 53.6996Z" fill="#383838"/>
<path fill-rule="evenodd" clip-rule="evenodd" d="M41.748 51.5933C42.8453 51.3064 43.6441 51.5564 43.4807 52.8132C43.3795 53.5915 42.6577 54.3413 41.9289 54.4168L41.748 51.5933ZM41.1052 46.1697C42.1264 46.1638 46.88 45.9908 47.2224 44.8889C47.352 44.4717 47.2078 43.9329 46.8839 43.7807C46.4958 43.5982 44.8209 43.9301 44.2857 44.001C43.3978 44.1188 42.4698 44.2156 41.5458 44.2124C40.7672 44.2096 39.451 43.8407 39.0541 44.5233C38.7642 45.022 39.1563 46.5001 39.2606 47.0785C39.4112 47.9132 39.5391 48.7688 39.6392 49.6244L40.1676 55.0093C40.3343 55.7543 40.9407 56.3043 41.6754 56.473C43.3842 56.8654 46.0563 54.776 45.4012 51.7375C44.9456 49.6244 43.0971 49.71 41.5818 49.8541L41.1052 46.1697Z" fill="#383838"/>
<path fill-rule="evenodd" clip-rule="evenodd" d="M30.9593 45.8438C31.2979 46.3343 32.3313 49.5392 32.4728 50.3232L30.2932 50.5934L30.9593 45.8438ZM32.8665 52.0209C33.1434 52.7867 33.3553 53.6753 33.5878 54.4622C33.8136 55.2264 33.937 56.2859 34.6988 56.4578C36.1684 56.7893 35.781 55.6294 35.5419 54.7358C34.9528 52.5353 33.1349 45.8766 32.0284 44.2079C31.8791 43.9827 31.5138 43.5495 31.2621 43.4268C29.7338 42.6819 29.2233 46.1202 29.0272 47.3259C28.8623 48.3393 27.8787 54.8825 28.2073 55.6993C28.4017 56.1825 29.6516 56.8159 29.8292 55.1688C29.8718 54.7742 30.0053 52.5539 30.191 52.4148C30.2733 52.3532 32.5763 52.0494 32.8665 52.0209Z" fill="#383838"/>
<path fill-rule="evenodd" clip-rule="evenodd" d="M53.9134 46.5996C54.6641 48.5516 55.2776 50.6817 55.981 52.6767C56.5932 54.4135 56.8886 56.9294 58.2955 56.3974C58.8134 56.2017 58.7048 55.4526 58.5701 54.9253C58.2936 53.8432 56.9669 50.1745 56.5105 48.8475C56.221 48.0058 54.7081 43.273 54.3235 42.957C53.8426 42.5617 53.2328 42.7564 53.0005 43.2366C52.8574 43.5323 52.6895 44.4993 52.5998 44.8838C52.3421 45.9888 52.0984 47.05 51.8451 48.174C51.3514 50.3651 50.8377 52.5542 50.3433 54.7511C50.2299 55.2548 50.0081 55.9835 50.319 56.4351C50.563 56.7894 51.4558 57.0167 51.7954 56.5833C52.2659 55.9831 53.7674 46.8891 53.9134 46.5996Z" fill="#383838"/>
</svg>
