<svg width="221" height="39" viewBox="0 0 221 39" fill="none" xmlns="http://www.w3.org/2000/svg">
<g clip-path="url(#clip0_1_7269)">
<mask id="mask0_1_7269" style="mask-type:luminance" maskUnits="userSpaceOnUse" x="0" y="0" width="221" height="39">
<path d="M221 0H0V39H221V0Z" fill="white"/>
</mask>
<g mask="url(#mask0_1_7269)">
<path d="M66 24C66 26.9 63.3701 29 59.6687 29H51V11H59.3766C62.9806 11 65.5129 13 65.5129 15.8C65.5129 17.7 64.5388 18.9 63.0781 19.6C64.6363 20.2 66 21.8 66 24ZM54.7986 14.3V18.2H59.2791C60.6428 18.2 61.5194 17.4 61.5194 16.3C61.5194 15.2 60.5453 14.3 59.2791 14.3H54.7986ZM59.6687 25.7C61.1299 25.7 62.2014 24.8 62.2014 23.5C62.2014 22.2 61.2273 21.3 59.6687 21.3H54.7986V25.7H59.6687Z" fill="#383838"/>
<path d="M81.61 29L75.1833 21.8604H74.1466V29H70V11H74.1466V17.9385H75.1833L81.4025 11H86.2746L78.5 19.6481L87 29H81.61Z" fill="#383838"/>
<path d="M87 20.5C87 14.9839 90.9583 11 96.4998 11C102.042 11 106 14.9839 106 20.5C106 26.0161 102.042 30 96.4998 30C90.9583 30 87 26.0161 87 20.5ZM101.844 20.5C101.844 17.0269 99.6665 14.6774 96.4998 14.6774C93.3331 14.6774 91.156 17.0269 91.156 20.5C91.156 23.9731 93.3331 26.3226 96.4998 26.3226C99.6665 26.3226 101.844 23.9731 101.844 20.5Z" fill="#383838"/>
<path d="M121 11H125V29H121V21.7598H113V29H109V11H113V18.1397H121V11Z" fill="#383838"/>
<path d="M134.086 29V14.6201H128V11H144V14.6201H137.914V29H134.086Z" fill="#383838"/>
<path d="M162 19.3764V29.5914H159.026L158.205 26.7312C157.282 28.2635 155.333 30 152.359 30C148.667 30 146 27.5484 146 24.1774C146 20.8065 148.667 18.457 154.103 18.457H158.102C157.898 16.1075 156.667 14.4731 154.41 14.4731C152.564 14.4731 151.333 15.4947 150.718 16.6183L147.026 16.0054C147.949 12.8387 151.128 11 154.616 11C159.128 11 162 14.0645 162 19.3764ZM158 21.6237H154.205C151.128 21.6237 150.102 22.6452 150.102 23.9731C150.102 25.5054 151.333 26.5269 153.385 26.5269C156.051 26.5269 158 24.586 158 21.6237Z" fill="#383838"/>
<path d="M177.61 29L171.183 21.8604H170.146V29H166V11H170.146V17.9385H171.183L177.402 11H182.274L174.5 19.6481L183 29H177.61Z" fill="#383838"/>
<path d="M189.086 29V14.6201H183V11H199V14.6201H192.914V29H189.086Z" fill="#383838"/>
<path d="M219.955 21.6237H205.28C205.688 24.4839 207.726 26.3226 210.783 26.3226C212.923 26.3226 214.554 25.4032 215.471 24.0753L219.242 24.6882C217.917 28.1613 214.35 30 210.478 30C204.975 30 201 26.0161 201 20.5C201 14.9839 204.975 11 210.478 11C215.98 11 219.955 14.9839 219.955 20.2957C220.057 20.8065 219.955 21.2151 219.955 21.6237ZM205.586 18.457H215.675C214.961 16.2097 213.127 14.5753 210.58 14.5753C208.134 14.4731 206.197 16.1075 205.586 18.457Z" fill="#383838"/>
<path d="M0 18.72C0 9.89531 0 5.48297 2.67119 2.74148C5.34238 0 9.64159 0 18.24 0H19.76C28.3584 0 32.6576 0 35.3288 2.74148C38 5.48297 38 9.89531 38 18.72V20.28C38 29.1047 38 33.517 35.3288 36.2585C32.6576 39 28.3584 39 19.76 39H18.24C9.64159 39 5.34238 39 2.67119 36.2585C0 33.517 0 29.1047 0 20.28V18.72Z" fill="#383838"/>
<path d="M20.1611 28C11.2779 28 6.21109 21.994 6 12H10.4497C10.5959 19.3353 13.8762 22.4424 16.4746 23.0831V12H20.6646V18.3263C23.2305 18.054 25.926 15.1712 26.8355 12H31.0254C30.3271 15.9079 27.4039 18.7908 25.3253 19.9759C27.4039 20.9369 30.7333 23.4514 32 28H27.3877C26.3971 24.9569 23.9288 22.6026 20.6646 22.2822V28H20.1611Z" fill="#6D6D6D"/>
</g>
</g>
<defs>
<clipPath id="clip0_1_7269">
<rect width="221" height="39" fill="white"/>
</clipPath>
</defs>
</svg>
