<svg width="130" height="71" viewBox="0 0 130 71" fill="none" xmlns="http://www.w3.org/2000/svg">
<g clip-path="url(#clip0_1_7228)">
<path fill-rule="evenodd" clip-rule="evenodd" d="M0.5 0H129.378V70.7776H0.5V0ZM3.40101 2.90868V67.8688H126.477V2.90868H3.40101Z" fill="#383838"/>
<path fill-rule="evenodd" clip-rule="evenodd" d="M40.6613 47.4123C41.5235 48.7164 41.8439 49.2008 42.3959 49.919L46.1758 49.9319V19.8326L61.3472 44.0544L76.5571 19.3763V49.919H97.4227C88.0809 45.9219 81.6863 37.8339 81.6863 28.5873C81.6863 21.1434 85.9378 14.4277 92.4131 10.0293H70.2048L61.1468 24.5481L52.4574 10.0293H37.0408C38.9049 11.9275 39.9486 14.4855 39.9459 17.1496C39.9459 23.1403 36.6405 30.5453 30.3234 32.183C36.8055 41.5811 39.3552 45.4371 40.6613 47.4123ZM10.1445 32.7137V49.9157H32.6498C30.1514 46.0125 20.6418 32.7137 20.432 32.7137C20.1673 32.6944 10.1445 32.7137 10.1445 32.7137ZM108.998 46.0131C97.684 46.0131 88.5008 38.4592 88.5008 29.1834C88.5008 19.9077 97.684 12.3537 108.998 12.3537C112.807 12.3213 116.566 13.2236 119.947 14.9817V26.5069H109.121V32.504H114.379V45.4273C112.612 45.818 110.807 46.0145 108.998 46.0131ZM10.1447 26.584L18.8182 26.8364C27.2464 26.8364 31.9721 23.0108 31.9721 17.7613C31.9721 13.6833 29.28 11.188 24.8932 10.0294H10.1447V26.584Z" fill="#383838"/>
<path d="M11.6358 61.4619H10.1445V53.5615H12.9722C14.2634 53.5615 15.0446 54.6004 15.0446 55.8689C15.0446 57.1376 14.2247 58.2449 12.9496 58.2449H11.6358V61.4619ZM11.6358 57.0765H12.3912C13.1433 57.0765 13.5145 56.6494 13.5145 55.8948C13.5145 55.1407 13.1433 54.7363 12.3912 54.7363H11.6358V57.0765Z" fill="#383838"/>
<path d="M17.3035 53.5615L18.5172 57.7688L19.7277 53.5615H21.3643L19.2242 59.9506C18.811 61.1961 18.3429 61.6463 17.6102 61.6463C17.3032 61.6485 16.9978 61.6006 16.7063 61.5038V60.3579C16.8384 60.4096 16.978 60.4393 17.1195 60.4454C17.4133 60.4454 17.6328 60.261 17.7845 59.7981L15.625 53.5615H17.3035Z" fill="#383838"/>
<path d="M25.2604 56.1521V55.9771C25.2604 54.9804 25.0086 54.6405 24.3759 54.6405C23.7432 54.6405 23.4721 54.9804 23.4721 55.9771V59.0939C23.4721 60.1198 23.7336 60.46 24.3663 60.46C24.9989 60.46 25.2604 60.1099 25.2604 59.0939V58.6668H26.7549V58.9904C26.7549 60.4242 26.2417 61.6505 24.3759 61.6505C22.4133 61.6505 21.9453 60.4143 21.9453 59.013V56.1521C21.9453 54.3007 22.7749 53.4365 24.3986 53.4365C25.9254 53.4365 26.7549 54.3007 26.7549 55.7569V56.1521H25.2604Z" fill="#383838"/>
<path d="M31.0566 56.1521V55.9771C31.0566 54.9804 30.8049 54.6405 30.1722 54.6405C29.5395 54.6405 29.2651 54.9804 29.2651 55.9771V59.0939C29.2651 60.1198 29.5298 60.46 30.1625 60.46C30.7951 60.46 31.0566 60.1099 31.0566 59.0939V58.6668H32.5512V58.9904C32.5512 60.4242 32.0379 61.6505 30.1722 61.6505C28.2096 61.6505 27.7383 60.4143 27.7383 59.013V56.1521C27.7383 54.3007 28.5679 53.4365 30.1948 53.4365C31.7216 53.4365 32.5512 54.3007 32.5512 55.7569V56.1521H31.0566Z" fill="#383838"/>
<path d="M35.0869 56.9889L36.8978 53.5615H38.586L36.5911 56.9856L38.6538 61.4586H36.985L35.6744 58.3093L35.0869 59.0859V61.4586H33.5859V53.5615H35.0805L35.0869 56.9889Z" fill="#383838"/>
<path d="M40.9433 53.5615H42.9446L44.6909 61.4586H43.0769L42.7058 59.4035H41.0078L40.5398 61.4586H38.9258L40.9433 53.5615ZM42.525 58.2317L41.9278 54.5583L41.208 58.2317H42.525Z" fill="#383838"/>
<path d="M47.9547 58.2467L46.6022 61.4604H44.9883L46.499 58.0716C45.7242 57.7222 45.2659 56.8679 45.2659 55.8712C45.2659 54.6024 46.018 53.5635 47.293 53.5635H50.1723V61.4604H48.6778V58.2467H47.9547ZM48.6843 54.7351H47.9321C47.18 54.7351 46.7991 55.1491 46.7991 55.8938C46.7991 56.6379 47.18 57.0749 47.9321 57.0749H48.6843V54.7351Z" fill="#383838"/>
<path d="M56.2815 53.5615L57.3306 58.6913L58.3763 53.5615H60.7647V61.4586H59.3704V54.3059L57.8762 61.4586H56.7948L55.3 54.3156V61.4586H53.9023V53.5615H56.2815Z" fill="#383838"/>
<path d="M66.0716 53.5615V54.7655H63.3533V56.6037H65.8328V57.8079H63.3533V60.2577H66.0716V61.4586H61.875V53.5615H66.0716Z" fill="#383838"/>
<path d="M72.4547 53.5615V60.261H72.9356V63.0476H71.493V61.4619H68.2328V63.0476H66.793V60.261H67.2612C67.7838 59.0991 67.9809 58.2026 67.9809 56.0274V53.5615H72.4547ZM69.4526 54.7655V56.5585C69.4526 58.3743 69.2039 59.2709 68.7455 60.2577H70.9599V54.7558L69.4526 54.7655Z" fill="#383838"/>
<path d="M75.2278 53.5615V56.5162C75.2459 57.4502 75.1833 58.3836 75.0406 59.3061L77.216 53.5615H78.8299V61.4586H77.4323V58.4744C77.3999 57.5558 77.4614 56.6361 77.6162 55.7297L75.4342 61.4586H73.8203V53.5615H75.2278Z" fill="#383838"/>
<path d="M81.4299 53.5615H83.4373L85.1835 61.4586H83.5696L83.2019 59.4035H81.5106L81.0357 61.4619H79.4219L81.4299 53.5615ZM83.0114 58.2317L82.4108 54.5583L81.6813 58.235L83.0114 58.2317Z" fill="#383838"/>
<path d="M89.9432 53.5615V54.7655H87.3028V61.4586H85.8086V53.5615H89.9432Z" fill="#383838"/>
<path d="M92.2135 61.4619H90.7188V53.5615H93.5436C94.8347 53.5615 95.6158 54.6004 95.6158 55.8689C95.6158 57.1376 94.799 58.2449 93.5205 58.2449H92.2135V61.4619ZM92.2135 57.0765H92.9787C93.7308 57.0765 94.1018 56.6494 94.1018 55.8948C94.1018 55.1407 93.7308 54.7363 92.9787 54.7363H92.2261L92.2135 57.0765Z" fill="#383838"/>
<path d="M97.8791 53.5615L99.0895 57.7688L100.3 53.5615H101.936L99.7998 59.9506C99.3832 61.1961 98.9149 61.6463 98.1854 61.6463C97.8785 61.6485 97.5733 61.6006 97.2818 61.5038V60.3579C97.4136 60.4096 97.5536 60.4393 97.6946 60.4454C97.9916 60.4454 98.2079 60.261 98.36 59.7981L96.207 53.5615H97.8791Z" fill="#383838"/>
<path d="M107.539 53.5615V61.4586H106.044V54.7687H104.069V61.4619H102.574V53.5615H107.539Z" fill="#383838"/>
<path d="M113.594 53.5615V61.4586H112.099V54.7687H110.127V61.4619H108.633V53.5615H113.594Z" fill="#383838"/>
<path d="M116.196 53.5615H118.2L119.946 61.4586H118.333L117.961 59.4035H116.27L115.802 61.4586H114.188L116.196 53.5615ZM117.777 58.2317L117.19 54.5616L116.47 58.235L117.777 58.2317Z" fill="#383838"/>
</g>
<defs>
<clipPath id="clip0_1_7228">
<rect width="129" height="71" fill="white" transform="translate(0.5)"/>
</clipPath>
</defs>
</svg>
