<svg width="193" height="65" viewBox="0 0 193 65" fill="none" xmlns="http://www.w3.org/2000/svg">
<g clip-path="url(#clip0_1_6894)">
<path d="M59.5 10.5H54.9006H49.2626H32.3487C29.5297 10.5 27.1558 12.2549 26.1172 14.7411L15.5831 43.2589C14.6929 45.7451 12.1706 47.5 9.5 47.5H14.0994H18.9956H36.7997C39.6187 47.5 41.9926 45.7451 43.0312 43.2589L53.5653 14.7411C54.3071 12.1087 56.8294 10.5 59.5 10.5Z" fill="#383838"/>
<path d="M23.971 14.0625C25.1594 10.6346 28.4275 8.39904 32.1413 8.39904H34.8152L36.4493 4.07692C37.192 1.84135 39.2717 0.5 41.5 0.5H37.6377H33.0326H19.2174C16.9891 0.5 14.9094 1.84135 14.1667 4.07692L5.55072 27.9231C4.80797 30.0096 2.72826 31.5 0.5 31.5H4.21377H8.22464H17.7319L23.971 14.0625Z" fill="#383838"/>
<path d="M67.1 22.75H67.8333C68.42 22.75 68.86 22.9063 69.3 23.0625C69.74 23.2188 70.18 23.5313 70.4733 23.8438C70.7667 24.1563 71.06 24.4687 71.2067 24.9375C71.3533 25.4062 71.5 25.875 71.5 26.5C71.5 27.125 71.3533 27.5937 71.2067 28.0625C71.06 28.5312 70.7667 28.8438 70.3267 29.1562C70.0333 29.4688 69.5933 29.7812 69.1533 29.9375C68.7133 30.0938 68.2733 30.25 67.6867 30.25H66.9533V31.5H64.9V30.25H64.1667C63.58 30.25 63.14 30.0938 62.7 29.9375C62.26 29.7812 61.82 29.4688 61.5267 29.1562C61.2333 28.8438 60.94 28.5312 60.7933 28.0625C60.6467 27.5937 60.5 27.125 60.5 26.5C60.5 25.875 60.6467 25.4062 60.7933 24.9375C60.94 24.4687 61.2333 24.1563 61.6733 23.8438C61.9667 23.5313 62.4067 23.2188 62.8467 23.0625C63.2867 22.9063 63.7267 22.75 64.3133 22.75H65.0467V21.5H67.1V22.75ZM64.3133 24.625C63.7267 24.625 63.2867 24.7812 62.9933 25.0937C62.7 25.4062 62.5533 25.875 62.5533 26.5C62.5533 27.125 62.7 27.4375 62.9933 27.75C63.2867 28.0625 63.7267 28.2187 64.3133 28.2187H65.0467V24.625H64.3133ZM67.8333 28.375C68.42 28.375 68.86 28.2188 69.1533 27.9063C69.4467 27.5938 69.5933 27.125 69.5933 26.5C69.5933 25.875 69.4467 25.5625 69.1533 25.25C68.86 24.9375 68.42 24.7813 67.8333 24.7813H67.1V28.375H67.8333Z" fill="#383838"/>
<path d="M79.8281 21.8077C80.3906 22.1154 80.9531 22.4231 81.2344 22.8846C81.6562 23.3462 81.9375 23.8077 82.2187 24.4231C82.5 25.0385 82.5 25.6538 82.5 26.4231C82.5 27.0385 82.3594 27.8077 82.2187 28.4231C81.9375 29.0385 81.6562 29.5 81.2344 29.9615C80.8125 30.4231 80.3906 30.7308 79.8281 31.0385C79.2656 31.3462 78.5625 31.5 78 31.5C77.2969 31.5 76.7344 31.3462 76.1719 31.1923C75.6094 30.8846 75.0469 30.5769 74.7656 30.1154C74.3438 29.6538 74.0625 29.1923 73.7813 28.5769C73.5 27.9615 73.5 27.3462 73.5 26.5769C73.5 25.9615 73.6406 25.1923 73.7813 24.5769C74.0625 23.9615 74.3438 23.5 74.7656 23.0385C75.1875 22.5769 75.6094 22.2692 76.1719 21.9615C76.7344 21.6538 77.2969 21.5 78 21.5C78.7031 21.5 79.2656 21.6538 79.8281 21.8077ZM76.875 23.6538C76.5938 23.8077 76.3125 23.9615 76.0313 24.2692C75.75 24.5769 75.6094 24.8846 75.4688 25.1923C75.3281 25.5 75.3281 25.9615 75.3281 26.4231C75.3281 26.8846 75.3281 27.1923 75.4688 27.6538C75.6094 27.9615 75.75 28.4231 76.0313 28.5769C76.3125 28.8846 76.5938 29.0385 76.875 29.1923C77.1563 29.3462 77.5781 29.5 78 29.5C78.4219 29.5 78.8437 29.3462 79.125 29.1923C79.4062 29.0385 79.6875 28.8846 79.9688 28.5769C80.25 28.2692 80.3906 27.9615 80.5312 27.6538C80.6719 27.3462 80.6719 26.8846 80.6719 26.4231C80.6719 25.9615 80.6719 25.5 80.5312 25.1923C80.3906 24.8846 80.25 24.4231 79.9688 24.2692C79.6875 23.9615 79.4062 23.8077 79.125 23.6538C78.8437 23.5 78.4219 23.5 78 23.5C77.5781 23.3462 77.1563 23.5 76.875 23.6538Z" fill="#383838"/>
<path d="M87.5364 24.9839H91.4636V21.5H93.5V30.5H91.4636V26.871H87.5364V30.5H85.5V21.5H87.5364V24.9839Z" fill="#383838"/>
<path d="M104.232 28.6867H105.5V29.2733L105.359 32.5H103.528V30.5933H97.6127L97.4718 32.5H95.6408L95.5 29.2733V28.6867H95.9225C96.0634 28.6867 96.3451 28.6867 96.4859 28.54C96.6268 28.3933 96.7676 28.2467 96.9085 27.9533C97.1901 27.3667 97.331 26.6333 97.4718 25.9C97.6127 25.02 97.6127 24.14 97.6127 22.9667V21.5H104.232V28.6867ZM99.3028 26.4867C99.162 27.3667 99.0211 28.1 98.7394 28.6867H102.261V23.26H99.5845C99.5845 24.58 99.4437 25.6067 99.3028 26.4867Z" fill="#383838"/>
<path d="M69.5 47.5H67.4259V40.3871H63.5741V47.5H61.5V38.5H69.5V47.5Z" fill="#383838"/>
<path d="M77.1923 38.7039C77.6538 38.8481 78.1154 39.1365 78.4231 39.4249C78.7308 39.7133 79.0385 40.0017 79.1923 40.4343C79.3462 40.8669 79.5 41.2995 79.5 41.7321C79.5 42.3089 79.3462 42.7415 79.1923 43.1741C79.0385 43.6067 78.7308 43.8951 78.4231 44.1834C78.1154 44.4718 77.6538 44.616 77.1923 44.7602C76.7308 44.9044 76.1154 45.0486 75.6538 45.0486H73.6538V47.5H71.5V38.5597H75.8077C76.2692 38.4155 76.7308 38.5597 77.1923 38.7039ZM75.5 43.1741C76.1154 43.1741 76.5769 43.0299 76.8846 42.7415C77.1923 42.4531 77.3462 42.1647 77.3462 41.5879C77.3462 41.1553 77.1923 40.7227 76.8846 40.5785C76.5769 40.2901 76.1154 40.1459 75.5 40.1459H73.5V43.0299H75.5V43.1741Z" fill="#383838"/>
<path d="M88.3542 40.2419H83.5417V41.9839H87.7708V43.7258H83.5417V45.6129H88.5V47.5H81.5V38.5H88.3542V40.2419Z" fill="#383838"/>
<path d="M95.537 42.3462C95.6852 42.1923 95.8333 41.8846 95.8333 41.7308C95.8333 41.4231 95.6852 41.1154 95.537 40.9615C95.2407 40.6538 94.7963 40.5 94.3518 40.5C93.463 40.5 92.7222 40.8077 91.9815 41.4231L90.9444 39.8846C91.3889 39.4231 91.9815 39.1154 92.5741 38.8077C93.1667 38.6538 93.7593 38.5 94.5 38.5C95.0926 38.5 95.537 38.5 95.9815 38.6538C96.4259 38.8077 96.7222 38.9615 97.0185 39.2692C97.3148 39.5769 97.6111 39.7308 97.7593 40.1923C97.9074 40.5 98.0556 40.9615 98.0556 41.2692C98.0556 41.7308 97.9074 42.0385 97.7593 42.3462C97.6111 42.6538 97.3148 42.9615 97.0185 43.1154V43.2692C97.463 43.4231 97.7593 43.7308 98.0556 44.0385C98.3518 44.3462 98.5 44.8077 98.5 45.4231C98.5 45.8846 98.3518 46.3462 98.2037 46.6538C98.0555 46.9615 97.7593 47.4231 97.463 47.5769C97.1667 47.8846 96.7222 48.0385 96.2778 48.1923C95.8333 48.3462 95.2407 48.5 94.5 48.5C94.0556 48.5 93.7593 48.5 93.3148 48.3462C93.0185 48.3462 92.5741 48.1923 92.2778 48.0385C91.9815 47.8846 91.6852 47.7308 91.3889 47.5769C91.0926 47.4231 90.7963 47.1154 90.5 46.9615L91.537 45.4231C91.9815 45.8846 92.4259 46.0385 93.0185 46.1923C93.463 46.3462 94.0556 46.5 94.6481 46.5C95.2407 46.5 95.6852 46.3462 95.9815 46.1923C96.2778 45.8846 96.4259 45.5769 96.4259 45.2692C96.4259 44.6538 95.9815 44.1923 95.2407 44.1923H92.8704V42.3462H94.9444C95.0926 42.5 95.3889 42.5 95.537 42.3462Z" fill="#383838"/>
<path d="M102.605 44.5968L106.816 38.5H108.5V47.5H106.535V41.8387L102.465 47.5H100.5V38.5H102.465V44.5968H102.605Z" fill="#383838"/>
<path d="M119.232 45.6867H120.5V46.2733L120.359 49.5H118.528L118.387 47.5933H112.472L112.331 49.5H110.5V46.2733V45.6867H110.923C111.063 45.6867 111.345 45.6867 111.486 45.54C111.627 45.3933 111.768 45.2467 111.908 44.9533C112.19 44.3667 112.331 43.6333 112.472 42.9C112.613 42.02 112.613 41.14 112.613 39.9667V38.5H119.232V45.6867ZM114.303 43.4867C114.162 44.3667 114.021 45.1 113.739 45.6867H117.261V40.26H114.585C114.444 41.4333 114.444 42.6067 114.303 43.4867Z" fill="#383838"/>
<path d="M129.354 40.2419H124.542V41.9839H128.771V43.7258H124.542V45.6129H129.5V47.5H122.5V38.5H129.354V40.2419Z" fill="#383838"/>
<path d="M134.536 41.9839H138.464V38.5H140.5V47.5H138.464V43.871H134.536V47.5H132.5V38.5H134.536V41.9839Z" fill="#383838"/>
<path d="M150.36 40.3571H147.412V47.5H145.447V40.3571H142.5V38.5H150.5V40.3571H150.36Z" fill="#383838"/>
<path d="M157.907 39.9615C157.449 39.8077 156.992 39.6538 156.534 39.6538C156.076 39.6538 155.619 39.6538 155.314 39.8077C155.008 39.9615 154.551 40.1154 154.398 40.4231C154.093 40.7308 153.941 41.0385 153.788 41.3462C153.636 41.6538 153.636 42.1154 153.636 42.5769C153.636 43.0385 153.636 43.5 153.788 43.8077C153.941 44.1154 154.093 44.4231 154.398 44.7308C154.703 45.0385 155.008 45.1923 155.314 45.3462C155.619 45.5 156.076 45.5 156.534 45.5C157.144 45.5 157.602 45.3462 158.059 45.1923C158.517 45.0385 158.975 44.7308 159.28 44.4231L160.5 45.9615C159.432 47.0385 158.059 47.5 156.381 47.5C155.619 47.5 155.008 47.3462 154.398 47.1923C153.788 46.8846 153.331 46.5769 152.873 46.1154C152.415 45.6538 152.11 45.1923 151.805 44.5769C151.5 43.9615 151.5 43.3462 151.5 42.5769C151.5 41.9615 151.653 41.1923 151.805 40.5769C152.11 39.9615 152.415 39.5 152.873 39.0385C153.331 38.5769 153.941 38.2692 154.551 37.9615C155.161 37.6538 155.924 37.5 156.686 37.5C157.449 37.5 158.059 37.6538 158.669 37.8077C159.28 37.9615 159.89 38.4231 160.347 38.7308L159.127 40.2692C158.822 40.4231 158.364 40.1154 157.907 39.9615Z" fill="#383838"/>
<path d="M164.672 41.9839L165.759 41.8387L168.552 38.5H171.19L167.621 42.7097L171.5 47.5H168.707L165.759 43.5806H164.672V47.5H162.5V38.5H164.672V41.9839Z" fill="#383838"/>
<path d="M174.605 44.5968L178.816 38.5H180.5V47.5H178.535V41.8387L174.465 47.5H172.5V38.5H174.465V44.5968H174.605Z" fill="#383838"/>
<path d="M187.577 41.6429L189.577 38.5H192.192L189.115 42.9286L192.5 47.5H189.731L187.577 44.0714H187.423L185.269 47.5H182.5L185.885 42.9286L182.808 38.6429H185.423L187.577 41.6429Z" fill="#383838"/>
<path d="M68.5 57.2419H63.5851V64.5H61.5V55.5H68.5V57.2419Z" fill="#383838"/>
<path d="M75.1923 55.738C75.6538 55.8816 76.1154 56.1689 76.4231 56.4562C76.7308 56.7435 77.0385 57.0307 77.1923 57.4617C77.3462 57.8926 77.5 58.3235 77.5 58.7544C77.5 59.329 77.3462 59.7599 77.1923 60.1908C77.0385 60.6217 76.7308 60.909 76.4231 61.1963C76.1154 61.4836 75.6538 61.6272 75.1923 61.7708C74.7308 61.9145 74.1154 62.0581 73.6538 62.0581H71.6538V64.5H69.5V55.5944H73.8077C74.2692 55.4507 74.7308 55.4507 75.1923 55.738ZM73.5 60.1908C74.1154 60.1908 74.5769 60.0472 74.8846 59.7599C75.1923 59.4726 75.3462 59.1853 75.3462 58.6108C75.3462 58.1799 75.1923 57.7489 74.8846 57.6053C74.5769 57.318 74.1154 57.1744 73.5 57.1744H71.5V60.0472H73.5V60.1908Z" fill="#383838"/>
<path d="M88.5 63.5H86.2612L85.5149 61.7581H81.4851L80.7388 63.5H78.5L82.3806 54.5H84.6194L88.5 63.5ZM84.7687 60.0161L83.5746 56.5323H83.4254L82.2313 60.0161H84.7687Z" fill="#383838"/>
<path d="M91.5364 57.9839H95.4636V54.5H97.5V63.5H95.4636V59.871H91.5364V63.5H89.5V54.5H91.5364V57.9839Z" fill="#383838"/>
<path d="M108.5 56.3571H105.553V63.5H103.588V56.3571H100.5V54.5H108.5V56.3571Z" fill="#383838"/>
<path d="M115.828 54.8077C116.391 55.1154 116.953 55.4231 117.234 55.8846C117.656 56.3462 117.938 56.8077 118.219 57.4231C118.5 58.0385 118.5 58.6538 118.5 59.4231C118.5 60.0385 118.359 60.8077 118.219 61.4231C117.938 62.0385 117.656 62.5 117.234 62.9615C116.812 63.4231 116.391 63.7308 115.828 64.0385C115.266 64.3462 114.563 64.5 114 64.5C113.297 64.5 112.734 64.3462 112.172 64.1923C111.609 63.8846 111.047 63.5769 110.766 63.1154C110.344 62.6538 110.063 62.1923 109.781 61.5769C109.5 60.9615 109.5 60.3462 109.5 59.5769C109.5 58.9615 109.641 58.1923 109.781 57.5769C110.063 56.9615 110.344 56.5 110.766 56.0385C111.188 55.5769 111.609 55.2692 112.172 54.9615C112.734 54.5 113.297 54.5 114 54.5C114.703 54.5 115.266 54.5 115.828 54.8077ZM112.875 56.6538C112.594 56.8077 112.313 56.9615 112.031 57.2692C111.75 57.5769 111.609 57.8846 111.469 58.1923C111.328 58.6538 111.328 58.9615 111.328 59.4231C111.328 59.8846 111.328 60.1923 111.469 60.6538C111.609 60.9615 111.75 61.4231 112.031 61.5769C112.313 61.8846 112.594 62.0385 112.875 62.1923C113.156 62.3462 113.578 62.5 114 62.5C114.422 62.5 114.844 62.3462 115.125 62.1923C115.406 62.0385 115.688 61.7308 115.969 61.5769C116.25 61.2692 116.391 60.9615 116.531 60.6538C116.672 60.3462 116.672 59.8846 116.672 59.4231C116.672 58.9615 116.672 58.5 116.531 58.1923C116.391 57.8846 116.25 57.4231 115.969 57.2692C115.688 56.9615 115.406 56.8077 115.125 56.6538C114.844 56.5 114.422 56.5 114 56.5C113.578 56.3462 113.156 56.5 112.875 56.6538Z" fill="#383838"/>
<path d="M127.962 55.2258C128.577 55.6613 128.885 56.2419 128.885 56.9677C128.885 57.4032 128.731 57.6936 128.577 57.9839C128.423 58.2742 128.115 58.5645 127.962 58.7097V58.8548C128.423 59 128.731 59.2903 129.038 59.5806C129.346 60.0161 129.5 60.4516 129.5 60.8871C129.5 61.3226 129.5 61.6129 129.346 61.9032C129.192 62.1935 129.038 62.4839 128.731 62.7742C128.423 63.0645 128.115 63.2097 127.654 63.3548C127.192 63.5 126.731 63.5 126.115 63.5H121.5V54.5H125.808C126.577 54.6452 127.346 54.7903 127.962 55.2258ZM125.5 58.129C125.808 58.129 126.115 57.9839 126.423 57.8387C126.577 57.6935 126.731 57.4032 126.731 57.1129C126.731 56.5323 126.269 56.2419 125.5 56.2419H123.346V58.129H125.5ZM125.808 61.9032C126.731 61.9032 127.192 61.6129 127.192 60.8871C127.192 60.5968 127.038 60.3065 126.885 60.1613C126.577 60.0161 126.269 59.871 125.808 59.871H123.346V62.0484H125.808V61.9032Z" fill="#383838"/>
</g>
<defs>
<clipPath id="clip0_1_6894">
<rect width="192" height="64" fill="white" transform="translate(0.5 0.5)"/>
</clipPath>
</defs>
</svg>
