<svg width="231" height="77" viewBox="0 0 231 77" fill="none" xmlns="http://www.w3.org/2000/svg">
<g clip-path="url(#clip0_1_6886)">
<path d="M56.5382 36.1719C56.5382 36.1719 57.4072 26.3386 57.4956 25.3759C57.5213 24.8161 57.4339 24.257 57.2384 23.7317C57.043 23.2064 56.7436 22.7257 56.358 22.3183C55.9725 21.911 55.5087 21.5852 54.9943 21.3605C54.4799 21.1358 53.9254 21.0168 53.3639 21.0105H28.4927C27.346 20.9312 26.2142 21.3053 25.3418 22.0521C24.4695 22.7988 23.9266 23.8582 23.8307 25.0011C23.7202 26.1549 21.658 49.9296 21.5328 51.2965C21.4594 51.8786 21.5095 52.4697 21.6799 53.0312C21.8504 53.5928 22.1374 54.1122 22.5222 54.5559C22.907 54.9995 23.3811 55.3573 23.9136 55.6061C24.4461 55.8549 25.0251 55.9891 25.613 56H50.3369C53.6217 56 54.8958 54.2656 55.1757 51.5905C55.3451 49.9884 56.1552 40.3095 56.1552 40.3095H41.2045L40.5637 47.7909H36.7782L38.4058 29.2195H42.1914L41.5874 36.1719H56.5382Z" fill="#383838"/>
<path d="M79.6662 24.0055C79.1322 25.5339 74.7491 39.1209 74.7491 39.1209L76.6996 21H61.6519L58.5 56H69.8395C72.6874 56 73.659 54.3981 74.1336 53.1121C74.7047 51.5837 78.88 40.1497 78.88 40.1497L77.3449 56H92.4L95.5 21.0147H83.6858C82.7777 21.0082 81.8925 21.2973 81.1663 21.8376C80.4401 22.3779 79.9131 23.1395 79.6662 24.0055Z" fill="#383838"/>
<path d="M156.455 21L155.045 36.9599H151.222L152.633 21H137.573C137.573 21 136.125 37.9082 135.97 39.5329C135.791 41.481 136.905 44.2378 140.237 44.2378H154.407L154.095 47.7885H135.242L134.5 56H164.479C166.512 56 168.472 54.6841 168.739 51.8759C168.91 50.0748 171.5 21 171.5 21H156.455Z" fill="#383838"/>
<path d="M196.284 21H175.619L172.5 56H187.714L188.681 45.1691H203.467C206.084 45.1691 207.816 43.8603 208.101 40.8603C208.206 39.6912 209.413 26.4265 209.488 25.2574C209.676 22.6691 207.576 21 204.989 21H196.284ZM189.333 37.9118L190.083 29.2279H193.9L193.15 37.9118H189.333Z" fill="#383838"/>
<path d="M113.595 32.7574L113.914 29.2132H132.759L133.5 21H99.584L96.5 56H126.524C128.437 56 130.505 54.8824 130.772 51.9559C130.972 49.75 131.899 39.3529 132.069 37.4632C132.292 34.9412 130.676 32.7574 127.51 32.7574H113.595ZM116.027 48.7206H112.187L112.928 40.0441H116.761L116.027 48.7206Z" fill="#383838"/>
</g>
<defs>
<clipPath id="clip0_1_6886">
<rect width="230" height="77" fill="white" transform="translate(0.5)"/>
</clipPath>
</defs>
</svg>
