<svg width="85" height="101" viewBox="0 0 85 101" fill="none" xmlns="http://www.w3.org/2000/svg">
<path d="M56.6186 29.6048C56.4734 28.3709 55.8528 28.3303 54.7522 28.2531C54.2768 28.2196 51.8513 28.5217 52.4331 27.5492C52.5692 27.4014 52.7472 27.3704 52.9368 27.3488C54.2204 27.2031 55.5917 27.441 56.8662 27.4556C59.8907 27.4906 62.904 27.3223 65.9265 27.3749C66.2799 27.3644 66.3984 27.9355 66.172 28.1279C65.7016 28.5262 62.8934 27.8919 62.3192 28.7566C62.2592 28.8468 62.0641 29.3383 62.0641 29.4049V31.5592C64.4916 31.0737 66.8788 30.6349 69.3785 30.7536C80.1186 31.2631 85.3568 39.3337 84.1332 49.5324C83.4909 54.8856 80.3203 59.3785 75.3407 61.5363C71.1289 63.3614 66.537 63.37 62.0636 62.621V65.176C62.0636 65.2046 62.2632 65.6725 62.291 65.7021C62.7805 66.2296 64.9398 66.0378 65.6366 66.1339C66.0747 66.1946 66.5607 66.6249 66.173 67.0052C65.8524 67.3198 63.935 67.0453 63.4238 67.0302C61.6129 66.9776 59.7868 66.8884 57.9753 66.924C56.4377 66.9546 54.541 67.2697 53.0346 67.1339C52.0348 67.0438 52.2415 66.2522 53.0492 66.137C53.8553 66.0217 56.6192 66.4035 56.6192 65.0753V62.6205L52.0353 63.1255L50.6206 63.1205C39.8205 62.7467 33.4449 55.2939 34.4371 44.6357C35.0668 37.8703 39.1434 32.6564 45.9299 31.207C49.5614 30.4315 53.0331 30.7601 56.6192 31.5587C56.5667 30.936 56.6907 30.2135 56.6192 29.6048H56.6186ZM56.6086 61.4081L56.6025 33.1278C54.6141 31.941 51.8064 31.68 49.5115 31.8608C44.2183 32.2781 41.5044 36.9104 40.7164 41.6578C40.0454 45.7003 40.1139 51.808 41.7489 55.603C44.4522 61.8775 50.3882 62.9982 56.6081 61.4081H56.6086ZM62.0767 61.4045C64.7447 62.1059 67.6638 62.3239 70.3535 61.5899C77.6366 59.602 78.6036 51.2038 78.3016 44.8311C78.0687 39.9178 76.3107 33.694 70.9358 32.211C68.2738 31.4765 64.4841 31.7321 62.0792 33.1278L62.0762 61.405L62.0767 61.4045Z" fill="#383838"/>
<path d="M31.3385 66.2012C30.9095 65.7898 30.5399 63.6401 29.6541 63.615C29.1787 63.6015 27.9269 64.384 27.4197 64.6115C20.1204 67.8885 12.5913 67.1581 6.60842 61.6691C-2.05559 53.7203 -1.17079 36.8132 9.03848 30.5142C13.399 27.8239 19.8815 27.0684 24.7118 28.8499C25.7978 29.2502 28.7073 31.0398 29.5508 30.9656C30.4547 30.8864 30.671 28.9922 31.1545 28.6445C31.3804 28.4822 31.7419 28.4832 31.9133 28.7131C32.1033 28.9686 31.5881 31.2051 31.5286 31.7206C31.216 34.4255 31.4721 37.2281 31.212 39.8227C31.1389 40.5497 30.7537 41.1063 30.184 40.3463C29.216 35.3588 27.6879 30.5954 22.1396 29.3023C7.58095 25.9096 5.41759 45.5907 8.05082 55.3265C9.74682 61.5985 14.5545 66.4977 21.5563 65.3976C27.1384 64.5203 29.4716 60.3751 30.8823 55.4267C31.027 54.9187 31.152 53.788 31.3693 53.4057C31.5165 53.1462 31.9602 53.1186 32.1815 53.292C32.365 53.4358 32.3322 53.7364 32.3292 53.9553C32.2879 57.0294 31.9224 60.0219 32.0151 63.1756C32.0312 63.7202 32.428 66.0143 32.0242 66.2818C31.8714 66.3835 31.4676 66.3244 31.339 66.2012H31.3385Z" fill="#383838"/>
<path d="M12.8596 81.0566V81.5576C15.4232 81.473 15.4242 85.538 12.8641 85.4704L12.8596 86.0676H11.8503L11.8457 85.4704C9.25533 85.528 9.28357 81.486 11.8503 81.5576V81.0566H12.8596ZM11.8508 82.3597C10.5989 82.1358 10.5541 84.8898 11.8508 84.6643V82.3597ZM12.8591 84.6643C14.1407 84.8832 14.1003 82.1508 12.8591 82.3597V84.6643Z" fill="#383838"/>
<path d="M29.4 81.0571L29.3929 85.2104L29.709 85.3201L29.7025 87.0691H28.794L28.7945 86.0666H26.677V87.0691L25.7695 87.0686V85.265C25.7695 85.239 26.0146 85.3452 26.1976 85.0386C26.3377 84.8041 26.5762 83.7715 26.5762 83.5115V81.0566H29.3995L29.4 81.0571ZM28.4925 85.2655V81.9088C28.2525 81.6343 27.8164 81.7956 27.4842 81.7585V84.013C27.4842 84.3357 27.1414 84.9248 27.0809 85.2655H28.4925Z" fill="#383838"/>
<path d="M57.6294 81.0571V85.2655H58.8394V81.0571L59.8487 81.0566L59.8412 85.2104L60.1573 85.3201L60.1512 87.0696H59.2422L59.2427 86.0671H56.6211V81.0571H57.6294Z" fill="#383838"/>
<path d="M72.9583 81.0566V84.0125C72.9583 84.0721 72.7954 84.2174 72.8584 84.3632L73.0097 84.264L74.1799 81.0687L75.2774 81.0566V86.0666H74.3699V82.8602L73.112 85.9689L72.0508 86.0666V81.0566H72.9583Z" fill="#383838"/>
<path d="M64.4883 81.0566H65.3963L65.3454 84.3642L66.6224 81.0737L67.7149 81.0566V85.9163C67.5001 86.1783 67.1114 86.0385 66.8074 86.0666V82.76L65.48 86.0496L64.4883 86.0666V81.0566Z" fill="#383838"/>
<path d="M41.3945 77.2492V72.2393H43.3608C43.452 72.2393 43.9209 72.4933 44.0212 72.5849C44.54 73.0579 44.4356 74.2042 43.816 74.5939C44.3973 75.0453 44.5108 75.4617 44.4104 76.1886C44.3671 76.5007 44.0015 77.2492 43.6633 77.2492H41.3945ZM42.4679 72.9532C42.2561 73.0233 42.0686 74.3479 42.6509 74.3484C43.8826 74.35 43.51 72.607 42.4679 72.9532ZM42.302 76.5478C43.4999 76.7793 43.6905 76.0138 43.2105 75.0939L42.302 75.0448V76.5478Z" fill="#383838"/>
<path d="M26.8522 72.1622C27.7043 72.0711 28.5795 72.4643 28.6914 73.3892C28.7544 73.9102 28.7615 75.9949 28.6415 76.4503C28.3209 77.6707 26.0431 77.7328 25.5939 76.567C25.3851 76.0254 25.3882 73.8521 25.5313 73.2594C25.6917 72.5961 26.1762 72.2344 26.8522 72.1617V72.1622ZM26.948 72.9588C26.6682 73.0164 26.52 73.2284 26.4771 73.4984C26.4 73.9844 26.4096 75.4924 26.4691 75.9989C26.5719 76.8791 27.551 76.8345 27.7381 76.054C27.8661 75.5199 27.9397 73.1382 27.305 72.9588C27.185 72.9183 27.0685 72.9343 26.948 72.9588Z" fill="#383838"/>
<path d="M50.9642 81.0698L52.0865 86.0663L51.0222 85.9726L50.8775 84.7637L49.7245 84.7602L49.4613 86.0618L48.457 86.0663L49.6559 81.1144L50.9647 81.0693L50.9642 81.0698ZM50.6753 83.9621L50.273 81.8589L49.8692 83.9621H50.6758H50.6753Z" fill="#383838"/>
<path d="M11.931 73.0654C11.5983 72.7328 11.0603 72.9998 10.9681 73.4136C10.8904 73.7613 10.895 75.9357 10.9918 76.2528C11.2736 77.1726 12.3943 76.4011 12.055 75.5459H13.0644C13.0608 76.619 12.7543 77.3505 11.5655 77.39C10.6605 77.4201 10.1377 77.0509 9.98293 76.1526C9.85992 75.4392 9.85034 73.5349 10.1508 72.9021C10.721 71.7012 13.0099 71.9618 13.0684 73.4958C13.0921 74.1115 12.6298 73.9748 12.1493 73.8996C11.9764 73.7769 12.1211 73.2553 11.9305 73.0654H11.931Z" fill="#383838"/>
<path d="M36.7576 81.0566V81.758H35.0435V82.9604H36.6568L36.6412 83.5962L36.5055 83.762H35.0435V85.265H36.7576V86.0666H34.1864L34.0352 85.9163V81.0566H36.7576Z" fill="#383838"/>
<path d="M21.7342 81.0566V81.758H20.02V82.9604H21.5325V83.762H20.02V85.265H21.7342V86.0666H19.0117V81.0566H21.7342Z" fill="#383838"/>
<path d="M59.5467 72.2393V73.0409H57.8325V74.2432H59.4459V74.9446H57.8325V76.5478H59.5467V77.2492H56.8242V72.2393H59.5467Z" fill="#383838"/>
<path d="M42.302 83.9624V86.0666H41.3945V81.0566H43.5624C44.0656 81.0566 44.5324 82.0461 44.5239 82.5045C44.4971 83.8592 43.4656 84.1012 42.302 83.9624ZM42.302 83.261C43.9678 83.5802 43.9678 81.4389 42.302 81.758V83.261Z" fill="#383838"/>
<path d="M75.1774 72.2393V73.0414L74.0683 73.0409V77.2492H73.06V73.0409L71.9448 72.9973C71.7774 72.88 71.7965 72.354 72.0012 72.2393H75.1774Z" fill="#383838"/>
<path d="M12.3559 89.9756C12.4341 90.3699 11.6592 89.9991 11.9566 90.4701C11.9884 90.5202 12.5203 90.5763 12.6584 90.6269C14.0953 91.1514 13.4378 93.1404 11.9526 92.9816L12.0136 93.2917C12.1351 93.3849 12.4416 93.2802 12.3554 93.5818H11.0456C11.0022 93.3212 11.2634 93.2852 11.4444 93.2761L11.4489 92.9821C9.40052 92.9715 9.38388 90.5026 11.4479 90.4756L11.0456 89.9761H12.3554L12.3559 89.9756ZM11.4489 90.7767C10.0015 90.6234 10.0055 92.8593 11.4489 92.6805V90.7767ZM11.9531 92.6805C13.3587 92.8513 13.3078 90.6569 11.9531 90.7767V92.6805Z" fill="#383838"/>
<path d="M48.3514 96.2891C48.2728 96.5551 47.7989 96.4389 47.8478 96.7886C48.8566 96.6498 49.7838 97.525 49.3325 98.516C48.9877 99.2735 47.8871 99.1563 47.8478 99.3457C47.7928 99.6112 48.3207 99.5631 48.3514 99.7941H47.0411C47.0058 99.4208 47.5781 99.6969 47.4434 99.1944C45.3819 99.4013 45.3638 96.6007 47.4445 96.7886V96.4885L47.0411 96.2881H48.3514V96.2891ZM47.444 96.9895C45.9844 96.997 45.9501 99.0536 47.444 98.9935V96.9895ZM47.8473 97.1398V98.8432C47.8473 99.1573 48.96 98.9544 48.965 98.0426C48.966 97.8076 48.8828 97.4504 48.7094 97.2851C48.5617 97.1443 47.9259 96.8612 47.8473 97.1398Z" fill="#383838"/>
<path d="M11.5996 96.3877C12.5172 96.5155 12.8777 97.4493 12.2606 98.1467C11.8517 98.6086 11.407 98.4894 10.8429 98.4914V99.5946C10.9079 99.6587 11.3445 99.4373 11.2462 99.794H9.93638C9.8668 99.4723 10.1557 99.6166 10.3392 99.5941V96.7384L9.93588 96.5871V96.3877C10.4582 96.4388 11.0944 96.3176 11.5996 96.3877ZM10.8434 98.2915C12.4078 98.4333 12.4315 96.4734 10.8434 96.5881V98.2915Z" fill="#383838"/>
<path d="M52.9915 90.9775L52.68 90.9174C52.7057 90.2891 51.9444 90.2751 51.4735 90.4204C50.5186 90.7155 50.4813 92.6032 51.2809 93.1278C51.5854 93.3277 52.2726 93.489 52.5353 93.1784C52.6558 93.0361 52.6225 92.4765 52.8388 92.5812C53.0762 92.6959 52.9931 93.247 52.98 93.471C51.8572 93.7836 50.4899 93.6037 50.2131 92.2856C49.896 90.7771 51.046 89.8277 52.5131 90.1003C53.1115 90.2115 53.0047 90.4359 52.991 90.9775H52.9915Z" fill="#383838"/>
<path d="M71.2449 91.7787C70.9293 92.0668 70.1619 92.7407 69.9839 93.0808C69.931 93.1825 69.9214 93.2702 69.934 93.3814C70.1332 93.3859 70.294 93.3018 70.236 93.5818H69.1279L69.4364 93.3273V91.3324L69.1264 91.2266C69.0825 90.9812 69.322 91.0864 69.4788 91.0774C69.7293 91.0628 69.986 91.0864 70.236 91.0784L69.8317 91.5272C69.8443 91.8594 69.8085 92.2011 69.8327 92.5317C69.8438 92.681 69.7546 92.8218 69.9824 92.7797L71.2433 91.4265L70.9424 91.0779H71.9497C72.0177 91.392 71.7001 91.2136 71.6457 91.5252C71.6078 91.7427 71.6225 93.165 71.6976 93.2867C71.7657 93.3965 72.0364 93.3033 71.9502 93.5818H70.9429C70.8854 93.3048 71.0447 93.3819 71.2449 93.3819V91.7787Z" fill="#383838"/>
<path d="M35.9487 91.0771C36.0052 91.3602 35.8529 91.257 35.6578 91.2831L35.6906 92.0852L36.9581 92.1793C36.9339 91.6874 37.1199 91.3632 36.655 91.0776H37.7642L37.4536 91.4243L37.4552 93.3271L37.7637 93.5816H36.6556L36.9641 93.3271L36.9581 92.3792L35.7047 92.3777C35.6074 92.3923 35.624 93.1072 35.6603 93.2204C35.7208 93.4088 36.0349 93.291 35.9487 93.5811H34.9414L35.2454 93.1337L35.25 91.3317L34.9414 91.0771H35.9487Z" fill="#383838"/>
<path d="M40.3911 99.0929L41.8007 97.64L41.3994 97.4887C41.4927 97.2147 41.8955 97.2788 42.1561 97.2893C42.3124 97.2958 42.5534 97.1961 42.5091 97.4386L42.199 97.5443V99.5393L42.5075 99.7938H41.3989C42.013 99.413 41.8093 98.7307 41.7508 98.0899L40.3916 99.4451L40.6926 99.7938H39.6852C39.6172 99.4797 39.9348 99.658 39.9893 99.3464C40.0271 99.129 40.0125 97.7066 39.9373 97.5849C39.8693 97.4752 39.5985 97.5684 39.6847 97.2898H40.6921C40.7495 97.5669 40.5902 97.4897 40.3901 97.4897V99.0929H40.3911Z" fill="#383838"/>
<path d="M28.5896 97.9904C28.4162 98.2986 27.1215 99.29 27.2929 99.5811L27.5813 99.793H26.4727L26.7812 99.539V97.5441L26.4727 97.2895C26.8276 97.3381 27.4033 97.1317 27.5813 97.4884L27.178 97.6397V99.0926L28.5886 97.6382L28.2876 97.2895H29.295L28.9909 97.7369L28.9864 99.539L29.295 99.7935H28.2876C28.2302 99.5165 28.3895 99.5936 28.5896 99.5936V97.9904Z" fill="#383838"/>
<path d="M70.8381 98.0902C70.6687 98.0536 70.6339 98.1438 70.5376 98.2425C70.1767 98.6107 69.8535 99.1102 69.4275 99.4443L69.8298 99.7925C69.5797 99.7845 69.3236 99.8081 69.0725 99.7935C68.9152 99.7845 68.6763 99.8897 68.7201 99.6442L69.0302 99.5385L69.0256 97.7365L68.7216 97.2891H69.729L69.4249 97.7365L69.4784 98.993C69.6064 98.9899 70.8381 97.7349 70.8366 97.6393C70.8351 97.5275 70.4262 97.5561 70.5366 97.2891H71.5439L71.2399 97.7365L71.2354 99.5385L71.5439 99.793H70.5366C70.4791 99.516 70.6385 99.5931 70.8386 99.5931V98.0902H70.8381Z" fill="#383838"/>
<path d="M24.9646 97.9904C24.7912 98.2986 23.4965 99.29 23.6679 99.5811L23.9563 99.793H22.8477L23.1562 99.539V97.5441L22.8477 97.2895C23.2026 97.3381 23.7783 97.1317 23.9563 97.4884L23.553 97.6397V99.0926L24.9636 97.6382L24.6626 97.2895H25.67L25.3659 97.7369L25.3614 99.539L25.67 99.7935H24.6626C24.6052 99.5165 24.7645 99.5936 24.9646 99.5936V97.9904Z" fill="#383838"/>
<path d="M74.4709 98.0902C74.3076 98.0551 74.2652 98.1458 74.1654 98.2375C73.8115 98.5631 73.4878 99.1387 73.0603 99.4443L73.4626 99.7925C73.2125 99.7845 72.9564 99.8081 72.7054 99.7935C72.5481 99.7845 72.3091 99.8897 72.3529 99.6442L72.663 99.5385L72.6585 97.7365L72.3545 97.2891H73.3618L73.0578 97.7365L73.1112 98.993C73.2635 98.9894 74.4709 97.7349 74.4694 97.6393C74.4679 97.5275 74.059 97.5561 74.1694 97.2891H75.1767L74.8727 97.7365L74.8682 99.5385L75.1767 99.793H74.1694C74.112 99.516 74.2713 99.5931 74.4714 99.5931V98.0902H74.4709Z" fill="#383838"/>
<path d="M66.303 92.3793L66.3156 93.2189L66.7058 93.5812H65.5977L65.9062 93.3266V91.3317L65.6738 91.2751L65.6476 91.0762L66.7058 91.0777C65.6466 92.0276 66.6453 92.4534 67.6703 92.0852C67.7308 91.998 67.7504 91.4489 67.7202 91.3387C67.6864 91.2144 67.3264 91.3006 67.3108 91.0777H68.4194L68.1109 91.3317V93.3266L68.4194 93.5812C68.1674 93.5501 67.4237 93.6894 67.3113 93.4309L67.702 93.2189L67.7141 92.3793H66.3025H66.303Z" fill="#383838"/>
<path d="M65.1906 99.7938C65.0983 99.5198 65.3741 99.61 65.4437 99.4982C65.5183 99.378 65.5334 97.9542 65.4956 97.7368C65.4411 97.4251 65.1235 97.603 65.1916 97.2894H66.1989C66.2564 97.5664 66.097 97.4893 65.8969 97.4893V99.5934H67.2077V97.6396L66.8044 97.4883C66.9818 97.132 67.5581 97.338 67.913 97.2894L67.609 97.7368L67.604 99.5383L67.9201 99.648L67.9125 100.494C67.5803 100.563 67.6478 99.9762 67.6105 99.7933H65.1906V99.7938Z" fill="#383838"/>
<path d="M55.6138 97.2896L55.6128 97.488C55.5307 97.4935 55.3113 97.5852 55.3113 97.6403V99.5941H55.7157C55.6869 99.8897 55.8281 100.273 55.5619 100.495L55.3008 99.8051L53.2952 99.795L53.2201 100.372L52.9927 100.495C53.0305 100.245 52.9352 99.8887 52.9902 99.6638C52.9977 99.6327 53.2952 99.4428 53.4162 99.263C53.5664 99.0395 54.118 97.6072 54.0015 97.49C53.815 97.4634 53.5301 97.6142 53.5972 97.2891H55.6138V97.2896ZM54.908 99.5941V97.6403L54.3151 97.503L53.5962 99.543L54.908 99.5941Z" fill="#383838"/>
<path d="M37.1382 97.3128C39.4689 96.8349 39.4714 100.004 37.5218 99.8989C35.9221 99.8133 35.845 97.5778 37.1382 97.3128ZM36.9965 97.7221C36.4142 98.3529 36.8079 100.062 37.971 99.5422C39.057 99.0568 38.0487 96.5814 36.9965 97.7221Z" fill="#383838"/>
<path d="M14.0409 97.3098C16.4548 96.7647 16.4533 100.329 14.1654 99.8488C12.788 99.5598 12.9141 97.5643 14.0409 97.3098ZM14.3454 97.5062C13.3713 97.7061 13.456 99.6489 14.5233 99.6489C15.757 99.6489 15.5876 97.2512 14.3454 97.5062Z" fill="#383838"/>
<path d="M39.4558 90.9997C40.3991 90.8519 41.1665 91.4561 41.0969 92.427C41.0112 93.6179 39.3827 94.0387 38.6754 93.1299C38.0553 92.3334 38.4339 91.16 39.4558 90.9997ZM39.7331 91.2211C38.5731 91.2211 38.6255 93.3875 39.7331 93.3865C40.8781 93.3854 40.872 91.2211 39.7331 91.2211Z" fill="#383838"/>
<path d="M34.2371 97.2901L33.9285 97.5446L33.9356 98.3923C34.9187 98.6148 34.6222 96.7471 35.6477 97.4419L35.4954 97.7916L35.0457 97.5907L34.6369 98.5396C35.0361 98.6689 35.0568 99.2585 35.2988 99.492C35.4375 99.6258 35.6956 99.5812 35.75 99.7941L34.8536 99.7836C34.7382 99.4003 34.535 98.6058 34.0878 98.5902C33.8746 98.5827 33.9567 98.5887 33.9346 98.7395C33.869 99.1774 33.8549 99.5591 34.2376 99.7941H33.1289L33.4375 99.5401V97.5451L33.1289 97.2906H34.2371V97.2901Z" fill="#383838"/>
<path d="M19.5171 91.0762L19.2081 91.3312L19.2595 93.2881L19.625 93.4414L19.6175 94.1828H19.3155L19.2716 93.6748L17.1975 93.5812C17.2015 93.773 17.2635 94.1778 16.9464 94.1839C16.655 93.4499 17.1324 93.3697 17.4163 92.8472C17.5292 92.6393 17.9875 91.3863 17.8983 91.2836L17.5 91.0772H19.5166L19.5171 91.0762ZM18.8113 91.2766L18.1514 91.3723L17.4995 93.3297L18.8113 93.3808V91.2766Z" fill="#383838"/>
<path d="M54.7863 91.0016C56.6366 90.71 56.871 93.1574 55.6243 93.5386C53.5244 94.1804 52.9895 91.2847 54.7863 91.0016ZM55.0656 91.2265C53.9041 91.1835 53.9207 93.3873 55.0636 93.3878C56.1607 93.3883 56.2015 91.2686 55.0656 91.2265Z" fill="#383838"/>
<path d="M45.5051 91.0016C47.3554 90.71 47.5898 93.1574 46.343 93.5386C44.2432 94.1804 43.7083 91.2847 45.5051 91.0016ZM45.7844 91.2265C44.6228 91.1835 44.6394 93.3873 45.7824 93.3878C46.8794 93.3883 46.9203 91.2686 45.7844 91.2265Z" fill="#383838"/>
<path d="M75.1775 91.0767V91.2766H74.875V93.2305C74.875 93.3362 75.2884 93.3171 75.177 93.5807H74.1696L74.4782 93.3261L74.456 92.5446C73.9135 92.0641 73.4164 93.0842 73.3509 93.5696L72.6567 93.5807C72.5987 93.3021 72.8613 93.3787 73.006 93.1794C73.1381 92.997 73.181 92.763 73.3181 92.5812C73.4134 92.4544 73.6594 92.5366 73.5636 92.2801C72.7983 92.3297 73.0267 91.0762 73.5132 91.0762H75.177L75.1775 91.0767ZM74.4721 91.2766C73.2304 91.1092 73.2188 92.3783 74.4721 92.1794V91.2766Z" fill="#383838"/>
<path d="M59.0404 91.0762V91.5777C58.7389 91.7315 58.7424 91.3487 58.5745 91.2916C58.3688 91.2215 58.0562 91.3026 57.8299 91.2761V92.0787C58.5307 91.971 59.6897 92.3632 59.1311 93.2209C59.0555 93.3367 58.5781 93.5812 58.4858 93.5812H57.0237V93.3813H57.3262V91.2771C57.3262 91.259 57.0126 91.245 57.0237 91.0767H59.0404V91.0762ZM57.8309 93.3808L58.6456 93.1393C59.0863 92.5726 58.1087 92.0336 57.8753 92.3733L57.8309 93.3808Z" fill="#383838"/>
<path d="M16.0889 91.0762V91.5767C15.8237 91.6493 15.8565 91.3106 15.7153 91.2746C15.495 91.218 15.127 91.3156 14.8779 91.2761V92.1789C15.0504 92.1673 15.2606 92.2149 15.4224 92.1648C15.612 92.1062 15.4935 91.7926 15.7854 91.8783L15.7864 92.6288C15.547 92.8477 15.5964 92.4489 15.4224 92.3923C15.2631 92.3407 15.0493 92.3903 14.8779 92.3783V93.3813L15.8227 93.3677L15.9881 92.8793H16.2896V93.5812H14.2225C14.1998 93.5812 14.038 93.4078 14.0708 93.3818L14.3808 93.3261L14.3818 91.4239L14.0713 91.0762H16.0879H16.0889Z" fill="#383838"/>
<path d="M58.4385 97.2891V97.8908L58.1426 97.8858L57.9732 97.502L57.1721 97.5831L57.1277 98.3918L57.7791 98.3978L57.834 98.0907L58.136 98.0902L58.138 98.8331L57.834 98.8922L57.7801 98.5856L57.2225 98.6352L57.1272 99.5941L58.1698 99.5982L58.3271 99.2535L58.6402 99.1923V99.794H56.4219L56.7314 99.539V97.5441L56.4219 97.2891H58.4385Z" fill="#383838"/>
<path d="M52.1885 97.2891V97.8908L51.8926 97.8858L51.7232 97.5025L50.9221 97.5836L50.8777 98.3923L51.5291 98.3988C51.7005 97.6533 51.9924 98.4173 51.8875 98.8361C51.585 99.0881 51.577 98.6593 51.4207 98.6052C50.73 98.3657 50.8706 99.1498 50.8772 99.5946L51.9248 99.6007C52.0433 99.5671 51.9793 99.1042 52.2888 99.1939V99.7945H50.1719L50.4809 99.5395L50.4764 97.7375L50.1719 97.2896H52.1885V97.2891Z" fill="#383838"/>
<path d="M31.4167 91.0762L31.1076 91.3312V93.3261L31.4162 93.5807C31.0613 93.5321 30.4855 93.7385 30.3075 93.3818L30.7109 93.2305V91.2766L30.1109 91.2821C30.0575 91.8928 29.7706 93.8031 28.8601 93.5877C28.6917 93.5476 28.7562 93.1989 28.7961 93.0812L29.2977 93.2811C29.5508 92.6563 29.823 92.0341 29.8109 91.3377L29.4001 91.0767H31.4167V91.0762Z" fill="#383838"/>
<path d="M22.3409 91.0767V91.5782C22.0394 91.732 22.0429 91.3497 21.875 91.2921C21.6486 91.2144 21.2816 91.3106 21.0295 91.2766V92.1794C21.202 92.1678 21.4122 92.2154 21.574 92.1653C21.7636 92.1067 21.6451 91.7931 21.937 91.8788L21.938 92.6293L21.7379 92.6032L21.6814 92.3722L21.0295 92.3783V93.3813C21.3008 93.3392 21.7384 93.4509 21.9753 93.3682C22.1952 93.2916 22.1074 92.8196 22.4412 92.8803V93.5812H20.3242L20.6287 93.1333L20.6333 91.3312L20.3242 91.0762H22.3409V91.0767Z" fill="#383838"/>
<path d="M33.2297 91.0772L32.8199 91.3377L32.8259 92.0787C33.3417 92.0251 34.2713 92.0737 34.3379 92.739C34.4423 93.7806 32.7866 93.5646 32.1211 93.5801L32.4251 93.1328L32.4296 91.3307L32.1211 91.0762H33.2297V91.0772ZM32.9923 92.2891C32.7634 92.3642 32.6258 93.4038 33.1682 93.3782C34.3081 93.3246 33.811 92.0195 32.9923 92.2891Z" fill="#383838"/>
<path d="M63.776 90.9799C63.8743 91.045 64.4858 92.8521 64.6648 93.1557C64.805 93.3932 65.0384 93.3055 64.9905 93.581H63.9832L64.2831 93.2318L63.9665 92.5961L63.836 92.5725C63.0752 92.4773 62.9012 92.6537 62.7727 93.3806C62.9718 93.3857 63.1332 93.301 63.0752 93.581H62.2695L63.3903 91.1392C63.4311 91.0019 63.6746 90.9127 63.7765 90.9799H63.776ZM63.8813 92.3781L63.5289 91.5781L63.176 92.3787H63.8813V92.3781Z" fill="#383838"/>
<path d="M59.6459 97.4903C59.4457 97.4903 59.2864 97.5675 59.3439 97.2904C60.0669 97.2488 61.8894 97.1902 61.3842 98.3661C61.1014 99.0239 60.2222 98.8044 60.0926 98.9863L60.0482 99.595C60.1133 99.6591 60.5504 99.4382 60.4521 99.7944H59.3439C59.2864 99.5174 59.4457 99.5945 59.6459 99.5945V97.4903ZM60.2141 97.4983C59.9928 97.569 59.8385 98.7268 60.3941 98.6937C61.3399 98.6376 60.9784 97.2549 60.2141 97.4983Z" fill="#383838"/>
<path d="M28.2885 93.3831C28.1206 93.7298 27.5988 93.5399 27.2807 93.5815C27.1864 93.2824 27.5151 93.4692 27.4864 93.2383C27.4017 92.5589 26.9349 92.5093 26.3399 92.5765L26.0601 93.2358L26.2714 93.5815H25.4657C25.4491 93.3169 25.6709 93.3555 25.8252 93.0885C26.0092 92.7709 26.5855 91.0439 26.6808 90.9808C26.776 90.9177 26.9338 90.9908 27.0276 91.0775C27.3029 91.331 27.6563 92.7643 27.9396 93.1772C28.0243 93.3004 28.1353 93.3786 28.288 93.3831H28.2885ZM27.0785 92.3791C27.1617 92.2994 26.8754 91.6171 26.6767 91.578L26.3732 92.3786H27.0785V92.3791Z" fill="#383838"/>
<path d="M24.711 91.0777C25.4138 91.2285 25.4632 92.3247 24.767 92.5361C24.3485 92.6634 23.5791 92.3918 23.866 93.22C23.9532 93.471 24.3399 93.245 24.2567 93.5822H23.1486C23.0911 93.3051 23.2504 93.3823 23.4506 93.3823V91.2781H23.1481V91.0777C23.6049 91.1433 24.2905 90.9875 24.711 91.0777ZM23.8539 92.3808C25.1289 92.6303 25.1244 91.0622 23.8539 91.2776V92.3808Z" fill="#383838"/>
<path d="M64.2089 99.5769C64.2921 99.658 64.5673 99.4721 64.4872 99.7938H63.4799C63.4219 99.5132 63.5832 99.5989 63.7829 99.5929L63.4839 98.9381L62.5376 98.8875L62.2633 99.5343L62.5719 99.7928H61.7657C61.6982 99.5162 61.9376 99.6219 62.048 99.4276C62.3894 98.8279 62.6026 97.9451 62.8834 97.2988L63.3286 97.389L64.2089 99.5764V99.5769ZM63.378 98.6916L63.0261 97.7908L62.6732 98.6916H63.378Z" fill="#383838"/>
<path d="M32.3096 97.4034L32.3232 98.0903C32.0031 98.1299 32.0701 97.7446 31.8629 97.5973C30.5672 96.676 29.7137 100.023 31.8563 99.5798L32.0212 99.0918H32.3227V99.7932C31.5649 99.9189 30.6726 99.9836 30.2213 99.2281C29.4026 97.8563 31.0719 96.8554 32.3096 97.4039V97.4034Z" fill="#383838"/>
<path d="M61.4106 91.0778C62.5828 91.3082 61.8401 92.9991 60.6539 92.5803V93.3829H61.0577C60.8802 93.7396 60.304 93.5332 59.949 93.5818C59.8376 93.3182 60.251 93.3373 60.251 93.2316V91.2777C60.251 91.2531 59.8427 91.2997 59.8477 91.0773C60.3135 91.1394 60.976 90.9916 61.4106 91.0773V91.0778ZM60.6544 92.3809C61.8754 92.5462 61.8795 91.1139 60.6544 91.2777V92.3809Z" fill="#383838"/>
<path d="M18.8937 97.4038L18.9073 98.0907C18.5287 98.1498 18.6764 97.6763 18.5453 97.5791C18.1949 97.3181 17.5002 97.5801 17.2899 97.9359C16.8271 98.7194 17.4165 99.9423 18.4414 99.5811C18.6613 99.5035 18.573 99.033 18.9073 99.0937V99.7935C17.9272 99.9784 16.7686 99.8802 16.6562 98.6773C16.5347 97.3772 17.8622 97.0496 18.8942 97.4038H18.8937Z" fill="#383838"/>
<path d="M22.0247 97.4008C22.0529 97.6302 22.1038 97.9258 21.885 98.0891C21.7565 98.0856 21.7782 97.3627 21.0033 97.509C19.6985 97.755 20.1371 100.102 21.64 99.5506L21.7343 99.0921H22.0358L21.9929 99.7009C19.0375 100.665 18.9256 96.486 22.0247 97.4003V97.4008Z" fill="#383838"/>
<path d="M43.7159 91.0762V91.7781H43.4139V91.2761L42.5059 91.2766V93.3808C42.706 93.3808 42.8653 93.3036 42.8079 93.5807H41.8006C41.7325 93.267 42.0501 93.4449 42.1046 93.1333C42.1429 92.9148 42.1283 91.4995 42.0521 91.3768C41.9826 91.264 41.7214 91.247 41.6992 91.0762H43.7159Z" fill="#383838"/>
<path d="M40.3135 96.6636C40.1088 96.4677 40.2258 96.2217 40.4405 96.0874C40.7138 96.0253 40.6936 97.1235 41.3566 96.5974C41.4242 96.5438 41.7272 95.6941 41.895 96.2462C42.1078 96.9451 40.6997 97.0338 40.313 96.6641L40.3135 96.6636Z" fill="#383838"/>
<path d="M27.5017 96.5665C27.5748 96.6742 28.0694 96.7378 28.1955 96.6456L28.4415 96.0875C29.5532 96.7067 27.4518 97.2263 27.1266 96.5905C27.0455 96.4317 27.0571 96.1241 27.2315 96.0875C27.5189 96.0274 27.4422 96.4793 27.5017 96.567V96.5665Z" fill="#383838"/>
<path d="M49.0584 8.21218C49.0402 8.06927 48.9504 7.3547 48.9574 7.30957C49.2809 7.52921 49.2087 7.92034 49.0584 8.21218Z" fill="#383838"/>
<path d="M49.9668 7.61133C49.9073 7.76563 49.868 7.87535 49.7651 8.01112C50.1372 7.90792 50.4019 7.86734 50.774 8.01363C50.6666 8.2531 50.6207 8.52064 50.4226 8.71602C50.0465 9.08776 50.5572 8.27715 50.5597 8.24809C50.6061 7.73558 49.4006 8.28517 49.1602 8.41342C49.4032 8.17445 49.7525 7.8478 49.9668 7.61183V7.61133Z" fill="#383838"/>
<path d="M50.2695 11.2189C50.5698 11.1171 50.6546 10.8012 50.3705 10.6172C50.9876 11.0123 50.8942 10.9682 50.2695 11.2189Z" fill="#383838"/>
<path d="M42.7045 19.0336C42.3654 19.2156 42.4123 19.1444 42.3008 18.833C42.375 18.8932 42.6232 19.0903 42.7045 19.0336Z" fill="#383838"/>
<path d="M35.8502 8.31154C35.6334 8.1903 34.7007 7.90674 34.5394 8.11215C34.6548 8.22838 34.6901 8.542 34.7411 8.61214C34.6216 8.43629 34.183 8.1903 34.6059 7.92427L35.2901 8.01646L35.3955 7.81055C35.5331 7.86215 35.7862 8.27697 35.8497 8.31104L35.8502 8.31154Z" fill="#383838"/>
<path d="M36.4566 9.31348C36.3971 9.40265 36.3204 9.48031 36.2766 9.57951L36.2927 9.71578L36.8594 10.314L36.2035 10.6156L36.0109 10.4067L34.9446 10.5149L35.1452 10.3661L34.8438 10.1161L36.5574 10.3145C36.3099 10.1156 36.2125 9.70475 36.0532 9.51387C36.1253 9.50085 36.2615 9.35055 36.4566 9.31348Z" fill="#383838"/>
<path d="M49.163 8.41249C49.0424 8.53084 48.9601 8.67425 48.7603 8.71337C48.7093 8.49473 48.9788 8.37338 49.062 8.21191C49.0681 8.26055 49.0545 8.3117 49.063 8.36085L49.163 8.41249Z" fill="#383838"/>
<path d="M36.0542 9.5141C35.6821 9.58173 34.9365 9.24807 34.4414 9.5131C34.5775 9.22803 35.0898 9.33224 35.3484 9.3127C35.0156 9.06571 34.942 8.90439 34.7434 8.6123C35.0227 8.99957 35.8208 9.23454 36.0542 9.5141Z" fill="#383838"/>
<path d="M35.8499 8.31123C35.9447 8.36433 36.6197 8.99158 36.65 9.07324L36.6424 9.201C36.5885 9.23506 36.4861 9.26713 36.4549 9.31322C36.2598 9.35029 36.1236 9.50059 36.0515 9.51362C35.8181 9.23406 35.02 8.99909 34.7407 8.61182C34.6903 8.54169 34.6545 8.22856 34.5391 8.11183C34.7004 7.90592 35.6331 8.18999 35.8499 8.31123Z" fill="#383838"/>
<path d="M42.3018 18.8323C42.4132 19.1434 42.3663 19.2146 42.7051 19.0327C42.9653 18.8929 42.9572 18.7907 43.0575 18.5322C43.8985 19.1244 44.7107 19.8819 45.8319 19.5793C46.0689 19.7446 45.7946 20.0277 45.8783 20.2326C45.9328 20.3664 46.2983 20.5938 46.4213 20.8012C46.8886 21.5898 46.5176 22.4951 45.5703 22.5342C45.3021 22.5452 45.0187 22.3218 44.8816 22.3333C44.8191 22.3383 44.755 22.5878 44.6214 22.689C44.1727 23.0292 43.6595 22.9485 43.173 22.7596L42.6411 23.2336L42.0285 22.7526C41.4316 23.0382 40.2156 23.0307 40.4868 22.1394C40.2065 22.0617 40.325 22.3163 40.1173 22.4185C39.6928 22.6279 38.935 22.4941 38.7021 22.0587C38.3058 21.3163 38.7979 20.6369 39.357 20.1745L39.2778 19.5337C40.3124 19.9696 41.3015 19.1735 42.0502 18.5327C42.1541 18.6114 42.2045 18.7522 42.3023 18.8318L42.3018 18.8323ZM41.2935 19.7351C41.1846 19.6389 40.3119 20.3168 40.4878 20.6359L41.2935 19.7351ZM43.6862 22.212C44.1586 21.668 43.5834 20.2852 43.1095 19.8343C43.2794 20.67 43.6686 21.4811 43.412 22.3393C43.4215 22.3513 43.6625 22.2391 43.6862 22.212ZM44.7218 20.6354C44.8004 20.413 44.144 19.7046 44.0169 19.8348C43.9685 20.0272 44.1314 20.0713 44.2186 20.184C44.33 20.3283 44.5231 20.664 44.7218 20.6354ZM41.7976 22.3383C41.482 21.5387 41.8768 20.7281 41.9983 19.9345C41.5027 20.4525 40.7974 22.0272 41.7976 22.3383ZM40.1833 22.0387C40.1818 21.663 40.1198 21.2962 40.3759 20.9851C40.1178 20.7521 40.0225 20.6334 39.8727 20.9771C39.6928 21.3909 39.7714 21.8178 40.1833 22.0387ZM45.0253 22.0387C45.4765 21.7677 45.3454 21.1539 45.2249 20.7361L44.8337 20.9961C44.9386 21.3423 45.0802 21.6635 45.0253 22.0382V22.0387Z" fill="#383838"/>
<path d="M45.633 12.8212C45.4661 12.8547 45.3073 12.9394 45.1293 12.9209V10.4164H39.9864V12.9214L39.1807 12.4204C39.0688 12.7916 39.3814 12.7115 39.4888 12.8608C39.9173 13.4539 38.9796 14.3021 38.977 13.0216C38.7371 12.977 38.607 13.4204 38.6761 13.5226C38.6897 13.5431 38.9125 13.3227 39.033 13.7175C39.211 14.3021 38.9775 15.0331 38.423 15.3237L38.0721 14.6253C37.9738 15.003 37.7449 15.5606 37.2654 15.5261L37.1137 14.6253C36.8384 15.0441 36.5394 15.3547 36.0554 15.5266L36.1542 14.224L35.2543 14.8327L36.242 17.0972L36.1038 17.3296L35.8008 17.232L34.4255 13.9399L33.8301 13.8778C33.6642 13.7776 33.8855 13.5566 33.7474 13.3688C33.5588 13.1123 33.2195 13.1939 33.0567 13.0942C33.0274 13.0762 32.6886 12.5837 32.6705 12.5266C32.545 12.1293 32.7214 11.8112 32.6856 11.5637C32.6614 11.3953 32.2778 11.2561 32.3231 11.0707L33.4318 10.4174C32.8681 10.4525 31.3284 9.91691 32.4532 9.49307L33.4318 9.21501C32.9528 9.18395 32.0327 8.65841 32.0166 8.16392C32.009 7.92896 32.0443 8.0522 32.1709 8.00962C32.6801 7.83828 33.0279 7.98757 33.5336 8.01012C32.9735 7.45902 32.2359 7.01163 32.3231 6.10734C32.9392 5.9876 33.3098 6.32627 33.8361 6.50713C33.151 5.65343 32.6508 4.07079 33.6849 3.30376L34.9281 5.78219C34.8591 6.36385 34.7083 6.83278 34.9468 7.40942L34.9523 6.36435L35.1979 5.90894L36.1361 7.17295C36.0378 7.56123 35.8412 7.85782 36.0564 8.26012C36.067 8.34428 35.8815 8.32675 35.8533 8.31122C35.7897 8.27715 35.5366 7.86182 35.399 7.81072L35.2936 8.01663L34.6095 7.92445C34.1865 8.18998 34.6251 8.43597 34.7446 8.61232C34.9432 8.9044 35.0169 9.06572 35.3496 9.31271C35.0915 9.33275 34.5792 9.22804 34.4426 9.51311C34.9372 9.24808 35.6834 9.58174 36.0554 9.51411C36.2147 9.70499 36.312 10.1158 36.5596 10.3147L34.8459 10.1163L35.1474 10.3663L34.9468 10.5151L36.0131 10.4069L36.2057 10.6158L36.8616 10.3142L36.2949 9.71601L36.2788 9.57974C36.3231 9.48054 36.3993 9.40239 36.4588 9.31371C36.6665 9.27463 36.9765 9.38635 37.1641 9.26411C36.6705 8.9064 35.9889 8.39789 36.0953 7.70902C36.2642 6.61535 36.605 7.60531 36.8621 7.86082C37.1606 8.15691 37.9072 8.52815 38.0262 8.9079C38.2879 9.74156 37.3073 10.3272 37.8255 11.1123C38.1936 11.6704 39.5871 11.724 39.8865 11.0186C39.2805 10.9114 39.0875 10.5031 39.1817 9.91591C39.5936 10.1028 39.8346 10.2075 40.2894 10.0141C40.2425 9.80769 39.8755 9.95248 39.7091 9.79116C39.6365 9.72052 39.5407 9.36982 39.5851 9.31421C40.7446 9.75358 40.6685 8.43546 40.37 7.68146C40.2107 7.27967 39.8452 6.98207 39.7862 6.50913L40.1336 6.61434L40.242 6.40192L40.9957 6.70803L40.8964 6.20753C41.4313 6.37336 41.8402 6.52617 42.1079 7.05672L42.608 8.01062C42.8586 7.1945 43.3552 6.43449 44.2218 6.20804L44.2238 6.70903C44.2511 6.74661 45.2281 6.07427 44.9277 6.60783L45.331 6.50863C45.3249 7.03769 44.9095 7.31674 44.7552 7.78918C44.5011 8.56572 44.4351 9.57623 45.5332 9.41441C45.579 9.8142 45.2851 9.95048 44.9282 9.91591C44.9922 10.1464 45.2705 10.1378 45.4747 10.1133C45.7257 10.0827 45.8886 9.79016 46.0287 10.0767C46.2395 10.8337 45.2649 10.8984 45.332 11.1664C45.4399 11.5983 47.6995 11.9555 47.4258 10.2902C47.3713 9.95749 47.0754 9.62833 47.0466 9.35479C46.9549 8.48256 48.5455 8.05671 48.661 7.20903C48.6958 7.18197 48.9105 7.27516 48.962 7.31023C48.9549 7.35532 49.0446 8.06924 49.0628 8.21202C48.9796 8.37334 48.7104 8.49458 48.7613 8.71302C48.9609 8.67394 49.0431 8.53065 49.1636 8.41242C49.4041 8.28416 50.6096 7.73457 50.5632 8.24709C50.5606 8.27615 50.0499 9.08676 50.426 8.71502C50.6237 8.51963 50.6701 8.2526 50.7774 8.01262C50.4054 7.86633 50.1407 7.90691 49.7686 8.01012C49.8715 7.87435 49.9103 7.76463 49.9703 7.61032C50.7759 6.72256 50.0958 6.36485 50.2158 5.80523C50.3489 5.186 51.3749 4.10335 51.3829 3.30176C52.2874 3.74764 52.1659 4.71256 51.8634 5.5337C51.7338 5.88539 51.4878 6.16144 51.3829 6.50813C51.8422 6.27216 52.1946 6.02768 52.7457 6.10683C52.8868 6.12687 52.9181 6.04972 52.8924 6.25413C52.7901 7.07626 52.0348 7.58878 51.4828 8.11082C52.0585 7.97304 52.6822 7.71303 53.1934 8.16092C52.9489 8.76512 52.299 9.10429 51.6849 9.21501L52.7502 9.50709C53.6905 9.88935 52.2889 10.4976 51.7858 10.4169L52.7966 11.0662V11.2696C52.3721 11.6468 51.8155 11.6408 51.2811 11.6193L52.2849 12.5712C51.9012 12.9825 51.2786 12.7741 50.7769 12.8217C52.1795 14.0687 51.1072 14.1649 49.8694 13.6233L50.3731 14.9244C49.7852 14.974 49.3749 14.5556 48.963 14.2235C49.0507 14.6849 49.2806 15.0511 49.0618 15.5256C48.6232 15.3166 48.176 15.0316 48.0535 14.5246C47.8483 14.5742 47.9788 15.0085 47.9587 15.1799C47.8578 16.0551 47.1329 14.995 46.9952 14.6243C46.9146 14.8883 46.9796 15.1618 46.6932 15.3232C46.1079 14.8768 46.0393 14.4108 46.0378 13.722L46.2894 13.4219L46.8919 13.9229L47.1475 13.2215C47.4414 13.4048 47.6426 13.7786 48.0489 13.719C48.1356 13.4574 48.2254 13.216 48.062 12.9625L48.2551 12.8713C48.0741 12.6769 47.7958 12.5346 47.8528 12.22L48.7598 12.2631L49.0628 13.1213L48.659 13.221L49.1631 13.222L48.9609 12.3212L50.0036 12.4039C50.2738 12.3192 50.2133 11.9755 49.9703 11.9199L49.9753 12.2736C49.1187 12.472 48.6443 12.1864 48.5586 11.3192L49.6678 11.6183L49.6174 11.4194C49.8987 11.473 50.0676 11.3007 50.2718 11.2185C50.8959 10.968 50.9892 11.0121 50.3726 10.6173C50.2884 10.5637 50.2203 10.3533 49.9698 10.4159L50.4734 10.0171C49.9788 10.1684 49.2377 10.4389 48.7245 10.3162C48.6343 10.2947 48.6968 10.0512 48.5087 10.1173L48.356 10.3157C49.2897 10.5492 49.2357 11.1965 48.2551 11.2195C48.4618 11.4971 48.6287 11.7425 48.5511 12.1138L47.6501 12.0211C47.812 12.2946 47.7444 12.5396 47.6501 12.8217C47.7444 12.7861 47.8251 12.6949 47.9521 12.7215V13.6233L47.2478 13.0707C47.1984 12.7946 47.4908 12.978 47.6446 12.9129C47.6698 12.9023 47.6461 12.8232 47.6501 12.8217C47.2922 12.8502 47.0406 12.7551 46.8944 12.4214L46.3897 13.1193L45.8856 12.4204C45.8619 12.4204 45.6526 12.7671 45.6335 12.8222L45.633 12.8212ZM48.6579 8.81422L47.9526 9.31321L48.852 9.42243L48.7598 10.0156C48.9836 9.97152 48.9196 9.67092 49.0623 9.56571C49.396 9.31972 50.5657 9.32874 50.8752 9.71501C50.8556 9.23606 50.2052 9.38435 49.9375 9.3112C49.8513 9.28766 49.8654 9.1098 49.8135 9.1083C49.6148 9.10129 49.153 9.50108 49.0093 9.48756C48.9171 9.47854 48.6937 9.12634 48.4563 9.21351L48.6579 8.81472V8.81422ZM34.6423 10.718C33.7842 10.954 35.1636 11.469 35.5498 11.4194C35.4046 11.718 34.8873 11.9299 34.9927 12.3222C35.1298 12.5106 35.9314 12.4429 36.1537 12.3202L35.9531 13.2215C36.3841 13.2876 36.7043 13.1253 37.0612 12.9214C37.1827 13.0862 36.796 13.8873 37.3642 13.722C37.3839 13.5416 37.1802 13.721 37.1535 13.4795C37.1308 13.2736 37.1268 12.712 37.3622 12.6213C37.3849 12.986 37.6763 12.9379 37.9697 12.9224C37.9284 13.0301 37.8901 13.0952 37.9153 13.219C37.9304 13.2951 38.059 13.7155 38.1699 13.723L38.1719 12.7215L38.4724 12.9219L38.3715 12.4209C38.3131 12.3588 37.3088 13.5822 37.4641 12.0201L36.5571 12.1198C36.49 11.719 36.7487 11.5046 36.9609 11.2195C36.5787 11.2731 36.3408 11.1353 36.0544 10.9184L36.1542 11.218C35.6042 11.3087 35.157 11.3017 34.6382 11.0687L34.6418 10.719L34.6423 10.718ZM34.4391 11.4189C34.1679 11.1659 34.1643 12.0877 34.1376 12.1203C33.7333 12.21 34.0635 11.7601 34.0363 11.7235L33.4338 11.5186C33.1126 12.1263 33.6385 11.9144 33.6334 12.4204C32.8656 11.7841 32.5203 12.1143 33.279 12.7866L33.6889 12.6203L33.7791 12.8127L34.0378 12.722L33.8361 13.1208L34.4406 13.0206L34.1376 12.6709C34.4124 12.6038 34.248 12.5121 34.3332 12.3708C34.5883 11.9464 34.7809 12.1093 34.4396 11.4189H34.4391ZM35.2468 13.6233L34.7905 13.8202L34.8943 14.222L35.2468 13.6233Z" fill="#383838"/>
<path d="M46.0347 13.7222C45.9122 13.7382 45.7241 13.603 45.6314 13.5218C45.6157 13.7939 45.403 13.9627 45.4252 14.37C45.4398 14.641 45.5709 14.9577 45.7327 15.1771C45.586 15.2653 45.4791 15.1761 45.5305 15.4241L46.135 15.6275L45.9339 16.0263L46.7395 16.1766C46.4552 16.5488 46.0695 16.5598 45.6309 16.5288L45.832 17.1285H45.227L45.1252 18.1305C44.8635 18.1771 44.9694 18.0949 44.916 17.9887C44.8181 17.7953 44.802 17.5648 44.6245 17.378C44.1592 16.8885 43.4756 17.1024 43.6137 17.8304L43.2124 17.5298C43.1852 17.9191 43.5557 18.0233 43.7902 18.2021C44.1058 18.4431 43.7135 18.5488 43.469 18.5308C43.2492 18.5142 43.1297 18.3108 42.9094 18.3314L42.7072 19.0333C42.6261 19.0899 42.378 18.893 42.3039 18.8329C42.2716 18.7422 42.2444 18.3664 42.2021 18.3324C41.8401 18.5578 41.4776 18.6741 41.1952 18.2813C41.5623 18.127 41.9651 17.878 42.0004 17.4301L41.5991 17.7307C41.6671 16.9065 40.8106 16.9922 40.442 17.5338C40.3089 17.7292 40.3185 17.9742 40.136 18.1295C39.8864 17.8524 39.8693 17.4581 39.9843 17.13L39.2789 17.1285L39.4801 16.5288C39.0848 16.5864 38.8151 16.4912 38.4733 16.3259C38.2454 16.0584 39.1786 16.108 39.23 15.9276L39.0788 15.6766L39.6818 15.4246C39.7927 15.1876 39.4776 15.2352 39.475 15.1746C39.47 15.0554 39.6565 14.8214 39.6848 14.5774C39.7473 14.0408 39.465 13.6681 39.7594 13.1496C39.8234 13.0368 39.7513 12.9797 39.9843 13.0213V16.0774C39.9843 16.1155 40.1768 16.3805 40.2343 16.4301C40.681 16.8134 41.3924 16.5293 41.9293 16.6495C42.252 16.7222 42.4466 17.133 42.6553 17.1305C42.8141 16.1876 45.1267 17.0328 45.1267 16.1776V13.0213H45.4272C45.4368 13.2693 45.4549 13.3675 45.6309 13.5223C45.647 13.2372 45.4978 13.2057 45.6309 12.8209C45.8991 12.7668 46.0145 12.6686 46.1128 13.0995C46.1794 13.391 46.0337 13.5333 46.0342 13.7227L46.0347 13.7222Z" fill="#383838"/>
<path d="M50.3726 10.6169C50.6564 10.8008 50.5717 11.1164 50.2718 11.2181C50.1205 11.2692 49.0431 11.2702 48.9609 11.2171C49.2281 10.8984 49.2312 10.7391 48.9609 10.4175C49.1026 10.3193 50.182 10.4936 50.3726 10.6169Z" fill="#383838"/>
<path d="M48.9609 7.31006C48.9806 7.1803 49.4883 6.66628 49.6093 6.50195C49.694 6.38722 49.8926 5.73893 50.0686 5.90777C50.3801 6.56057 50.2123 6.9824 49.9693 7.61115C49.755 7.84712 49.4056 8.17377 49.1626 8.41275L49.0628 8.36115C49.0547 8.31205 49.0678 8.26095 49.0618 8.21235C49.212 7.92077 49.2841 7.52999 48.9609 7.31056V7.31006Z" fill="#383838"/>
<path d="M41.9055 11.8191C42.1193 11.6648 41.9292 11.521 42.3068 11.7199L42.4016 11.2615L42.8115 11.2189C42.7081 11.6683 42.6128 11.771 42.813 12.2204C43.2138 11.8752 43.7422 11.7745 44.1752 12.1147L43.9196 13.1222C43.5092 13.1843 43.7412 12.6973 43.5188 12.6222L43.6192 13.6242C43.9857 13.4959 44.151 13.4859 44.3653 13.8341C44.6043 14.2224 44.4283 14.5911 44.2715 14.3261C44.2125 14.2259 44.2998 14.0986 44.2655 14.0225C44.09 13.6352 43.666 13.9754 43.4104 14.0821L43.7215 15.4278C44.0023 15.5215 43.9171 15.2058 44.0739 15.1282L44.2746 15.3291L44.4248 15.1282C44.3401 16.1181 43.968 15.7945 43.3888 15.9508C42.9758 16.0625 42.6542 16.3832 42.1067 16.2289L42.3083 15.9303L41.3494 15.528L41.1503 15.7279C40.9693 15.6367 41.0313 15.1232 40.5947 15.2269C40.5755 15.0235 40.8548 15.1913 40.9814 15.1121C41.0217 15.0871 41.3943 14.3401 41.4008 14.268C41.4266 13.9909 41.243 13.6603 41.3998 13.3251C41.2017 13.1042 40.9668 14.2444 40.5942 14.1257L40.8448 13.2239C41.0908 12.8847 42.2332 13.6758 42.0043 12.6237L41.7603 12.8181C41.6267 12.5661 40.7232 12.5981 40.7958 12.274C40.8493 12.0355 41.5551 11.8406 41.5839 11.8041C41.6428 11.7279 41.6338 11.1833 41.7043 11.0205L41.906 11.8211L41.9055 11.8191ZM42.7157 14.7204L42.5105 14.1247L42.1198 15.1126L42.6093 15.3256C42.6426 15.292 42.4319 14.8085 42.6602 14.8271C42.8705 14.8441 42.7142 15.3361 42.9113 15.3256L42.9622 14.8256L43.1105 15.1587L43.416 15.2254C43.3993 14.8506 43.2526 14.4679 42.9622 14.2244L43.2148 14.7239L42.7152 14.7199L42.7157 14.7204ZM41.8022 15.4268L42.0038 14.4248L41.3106 14.8752L41.8016 15.4268H41.8022Z" fill="#383838"/>
<path d="M42.0025 1.49805L42.2056 2.90084C42.4164 2.80865 42.2772 2.34523 42.3004 2.14483C42.3433 1.78011 42.5853 1.64334 42.8172 1.94143C43.0491 2.23952 42.8172 2.5797 42.8106 2.90134C43.1393 2.77709 43.1045 1.59724 43.2139 1.49855C44.855 1.78812 43.7655 2.92538 43.6122 3.89932L41.6107 3.89231C41.3092 2.96045 40.4043 1.70346 42.0025 1.49855V1.49805Z" fill="#383838"/>
<path d="M49.9668 5.10514L49.3638 4.70434C49.4596 5.00494 49.503 5.41375 49.1622 5.60614C49.1834 5.09011 48.8975 4.80404 48.9565 4.25144C48.9968 3.87269 49.2696 3.75997 49.258 3.40626L48.1004 2.80156C47.9028 2.77551 47.9643 2.80607 47.9482 2.95186C47.865 3.69834 48.6419 4.49142 47.1445 4.70334C47.9467 4.03101 47.2398 3.67279 47.1581 3.12721C47.0936 2.69385 48.1075 2.27501 48.4846 2.21289C48.7437 2.66178 49.624 2.99695 49.868 3.25146C50.1428 3.53853 49.6593 3.88021 49.6593 4.25345C49.6593 4.62669 49.9976 4.75545 49.9668 5.10514Z" fill="#383838"/>
<path d="M37.9672 4.70394C37.892 4.76557 37.225 4.45094 37.1555 4.33471C36.8308 3.79464 37.3581 3.31218 37.16 2.80166L35.8542 3.40737C35.8461 3.79163 36.2399 4.05515 36.2399 4.45495C36.2399 4.8352 35.7675 5.1849 36.0503 5.55914L35.8522 5.60674L35.7488 4.70545L35.1459 5.10624C35.1605 4.79011 35.4529 4.59172 35.4529 4.25455C35.4529 3.91738 35.0849 3.59574 35.1529 3.36779C35.399 3.13282 35.7201 3.00857 35.9994 2.79916C36.1739 2.6684 36.4204 2.31018 36.56 2.24706C36.8197 2.12983 37.889 2.70246 37.9525 2.9725C38.0599 3.4264 37.161 4.14283 37.9682 4.70444L37.9672 4.70394Z" fill="#383838"/>
<path d="M46.8416 4.90728L46.8511 5.19435C47.1239 5.04806 47.0901 5.37471 47.2177 5.40777C47.3679 5.44685 47.5423 5.3712 47.749 5.45787C48.1549 5.62771 48.1635 6.4278 47.7864 6.49443C47.6926 6.51097 47.3674 6.30756 47.0962 6.29904C46.6505 6.28502 46.4352 6.5786 46.0354 6.40726L46.1372 6.20886L45.684 6.41177L45.5781 6.20135L45.2303 6.30856L45.2287 6.00646L44.3233 6.50796L44.4221 5.90676C44.0243 6.19183 43.6018 6.42279 43.1133 6.20586L44.1206 5.80456C44.2093 5.51549 43.8776 5.63122 43.8186 5.40627L44.2214 5.35567L43.7178 4.90527C44.7478 5.05657 45.8126 5.05407 46.8421 4.90577L46.8416 4.90728ZM46.2376 5.30707L45.7349 5.40827V5.50597L46.2376 5.60717V5.30757V5.30707Z" fill="#383838"/>
<path d="M41.4975 4.9063L40.9939 5.3567L41.3962 5.4073L41.0947 5.75549L42.102 6.20639C41.5207 6.40678 41.2086 6.23194 40.7423 5.90579L40.7907 6.50799L40.036 6.10218L39.9331 6.3131L39.4819 6.10719L39.5807 6.50799C39.2454 6.12773 39.0972 6.50799 38.8426 6.48744C38.6989 6.47592 38.524 6.30909 38.2215 6.29857C37.684 6.28003 37.0881 6.87672 37.1673 5.86571C37.2263 5.11472 38.0243 5.70288 38.2205 5.1057L38.3702 5.30509L38.3717 4.9043C39.4017 5.0581 40.4675 5.0556 41.497 4.9058L41.4975 4.9063ZM39.4804 5.4073L38.8764 5.3066C38.8129 5.67984 39.3715 5.63876 39.4804 5.4073Z" fill="#383838"/>
<path d="M39.2798 16.7309L39.1785 17.3301L39.7825 17.3316L39.7951 17.9859L39.2284 18.3301L38.9314 17.9353C38.5881 18.1467 37.5258 18.9553 37.5117 18.1292L38.5735 17.4288L38.1696 17.2284C38.3985 16.6833 38.7005 16.4884 39.2798 16.7304V16.7309Z" fill="#383838"/>
<path d="M46.942 17.2292L46.6395 17.2793C46.9657 17.7888 47.8071 17.8264 47.6468 18.5318L46.1837 17.8319L46.0335 18.2322C45.3191 18.1445 45.3075 17.8569 45.43 17.2297C46.3546 17.6415 45.8399 16.7157 45.9326 16.629C46.4686 16.5042 46.9016 16.6265 46.9425 17.2297L46.942 17.2292Z" fill="#383838"/>
<path d="M45.6342 4.30316L45.7345 3.70297C46.1903 3.59726 46.0073 3.973 46.2372 4.10276L46.3405 3.40137C46.6783 3.50557 46.9642 3.6193 46.9248 4.02811C46.8286 5.0281 46.0138 4.98451 45.2047 4.80366C44.8684 4.31318 44.7176 3.65888 45.3816 3.40387L45.6342 4.30266V4.30316Z" fill="#383838"/>
<path d="M38.8741 3.40284L38.9765 4.30364L39.0768 3.70344L39.3848 3.74703L39.5794 4.20344L39.6823 3.40234C39.9782 3.42639 40.3009 3.62328 40.2853 3.94242C40.252 4.61726 39.8991 4.92186 39.2321 4.90834C38.199 4.8873 37.8098 3.62579 38.8741 3.40335V3.40284Z" fill="#383838"/>
<path d="M50.47 18.7371C50.5961 18.9986 50.2825 19.0472 50.284 19.0788C50.29 19.2321 50.4902 19.3694 50.2179 19.5347C49.9306 19.5948 49.8902 19.0457 50.0662 18.8819L49.867 18.8343L49.9669 19.5342L49.6659 19.4335L49.5121 19.8353L49.3614 19.2346L49.1093 19.7366L48.7725 19.6194L48.6576 19.2346L48.5053 19.7331C48.2003 19.5111 48.4216 19.3518 48.5557 19.1349C48.167 19.2907 48.041 19.1855 47.9492 18.7847C47.9527 18.5853 50.2129 18.5693 50.47 18.7366V18.7371Z" fill="#383838"/>
<path d="M50.573 18.131L49.5874 18.0102L49.4648 17.0293C50.0482 17.0764 50.4712 17.5929 50.573 18.1305V18.131Z" fill="#383838"/>
<path d="M48.9586 17.0293V18.0298L47.9513 18.1305C47.9125 17.5689 48.4207 17.1135 48.9586 17.0293Z" fill="#383838"/>
<path d="M45.0266 4.80606C45.0508 4.98342 44.7982 4.90476 44.6873 4.89324C44.097 4.83061 43.2595 4.61067 42.9102 4.10467C43.7682 3.9213 44.2548 4.61819 45.0266 4.80656V4.80606Z" fill="#383838"/>
<path d="M42.2041 4.10352C41.7817 4.76884 40.9019 4.82094 40.1875 4.90311L41.4726 4.12706L42.2041 4.10352Z" fill="#383838"/>
<path d="M36.5561 18.1315C36.3822 17.873 35.8977 17.9451 36.0555 17.4336L36.3575 17.375L36.8576 18.0834C36.8999 18.3615 36.7119 18.1295 36.5566 18.1315C36.5843 18.1726 36.6705 18.3018 36.6544 18.3239L36.357 18.4822L36.7583 18.6335L36.5566 18.9321L36.9589 18.8329L37.0104 19.2347L37.2609 18.9336L37.4727 19.7913L37.2629 20.0343C37.5992 19.9406 37.8195 20.369 37.513 20.4356C37.4031 20.4596 36.9287 19.7232 36.8505 19.5864C36.8011 19.4997 36.8102 19.4176 36.8601 19.3344L36.4618 19.3224L36.4492 19.0438L36.0514 19.0323C36.0373 18.7312 36.2612 18.4862 35.9531 18.2808C36.1019 18.0684 36.3328 18.1335 36.5561 18.1305V18.1315Z" fill="#383838"/>
<path d="M46.7343 6.79733L46.7873 6.61296C47.2138 6.73721 47.6655 7.02628 48.1046 6.80785L48.1561 7.00825C47.6766 7.2387 47.3343 7.24822 46.8463 7.00825L46.7953 7.30984C46.4333 6.97368 45.9282 6.7853 45.4336 6.80835C45.7467 6.38 46.3623 6.59843 46.7343 6.79733Z" fill="#383838"/>
<path d="M39.6829 6.80774C39.2145 6.83228 38.724 6.92096 38.421 7.30873L38.3711 6.90894C37.9103 7.27316 37.3723 7.32476 36.9609 6.85834C37.5206 6.96755 37.9032 6.79872 38.418 6.60082L38.5213 6.80974C38.8465 6.56024 39.4006 6.36936 39.6829 6.80774Z" fill="#383838"/>
<path d="M49.36 16.0309L49.3791 16.3117C49.8409 16.2761 49.7324 16.6481 49.3711 16.5398C49.4326 17.0082 48.876 16.9555 49.1606 16.5293L48.8594 16.6286V16.2274L49.1606 16.3267L49.0602 16.0273L49.36 16.0304V16.0309Z" fill="#383838"/>
<path d="M37.4626 18.733C37.3481 18.9029 36.7239 18.6372 36.6562 18.4341L37.2966 18.3408L37.4172 18.4286L37.4626 18.733Z" fill="#383838"/>
<path d="M42.7002 0.499889L42.3086 0.699219L42.5092 1.08841L42.9008 0.889079L42.7002 0.499889Z" fill="#383838"/>
<path d="M39.1795 2.70072C39.5801 2.67514 39.3389 3.59832 39.2289 3.60132C39.0119 3.60684 39.1775 2.8346 39.1795 2.70072Z" fill="#383838"/>
<path d="M42.4071 1.19771C42.6932 0.984089 43.0137 1.62444 42.6579 1.69816C42.4117 1.7493 42.2562 1.31053 42.4071 1.19771Z" fill="#383838"/>
<path d="M45.9744 2.85951C46.0168 2.90063 46.0753 2.91216 46.1328 2.90314L45.9224 3.06059C45.9133 3.14183 46.1358 3.60517 45.8815 3.60166C45.6665 3.59865 45.826 2.82942 45.8326 2.70155C45.9804 2.66595 45.9042 2.79131 45.9744 2.86001V2.85951Z" fill="#383838"/>
<path d="M49.7659 18.2314V18.5316C49.3957 18.5301 49.3957 18.233 49.7659 18.2314Z" fill="#383838"/>
<path d="M49.3645 17.832C49.363 18.1999 49.064 18.1999 49.0625 17.832H49.3645Z" fill="#383838"/>
<path d="M48.2578 18.5316V18.2314C48.628 18.233 48.628 18.5301 48.2578 18.5316Z" fill="#383838"/>
<path d="M48.9583 18.2314C48.9568 18.5993 48.6578 18.5993 48.6562 18.2314H48.9583Z" fill="#383838"/>
<path d="M49.3645 18.2314C49.363 18.5993 49.064 18.5993 49.0625 18.2314H49.3645Z" fill="#383838"/>
<path d="M49.3645 17.4307H49.0625V17.6304H49.3645V17.4307Z" fill="#383838"/>
<path d="M50.1698 18.2314H49.9688V18.5316H50.1698V18.2314Z" fill="#383838"/>
<path d="M49.3645 17.0293H49.0625V17.2291H49.3645V17.0293Z" fill="#383838"/>
<path d="M50.3712 18.5324C50.2188 18.381 50.6714 18.1047 50.6714 18.3825C50.6714 18.4487 50.4292 18.5901 50.3712 18.5324Z" fill="#383838"/>
<path d="M35.2457 13.623L34.8935 14.2223L34.7891 13.8201L35.2457 13.623Z" fill="#383838"/>
<path d="M41.7998 22.3393C40.7995 22.0282 41.5049 20.4536 42.0004 19.9355C41.8789 20.7291 41.4842 21.5397 41.7998 22.3393Z" fill="#383838"/>
<path d="M43.69 22.2127C43.6669 22.2397 43.4254 22.3515 43.4158 22.3399C43.6724 21.4817 43.2832 20.6706 43.1133 19.835C43.5872 20.2859 44.1619 21.6686 43.69 22.2127Z" fill="#383838"/>
<path d="M41.2985 19.7358L40.4921 20.6374C40.316 20.318 41.1895 19.6395 41.2985 19.7358Z" fill="#383838"/>
<path d="M44.726 20.6365C44.5272 20.6656 44.3339 20.3291 44.2224 20.1847C44.1351 20.0719 43.9721 20.0278 44.0205 19.8352C44.1482 19.7048 44.8047 20.4139 44.726 20.6365Z" fill="#383838"/>
<path d="M46.2375 5.30664V5.60651L45.7344 5.50522V5.40743L46.2375 5.30664Z" fill="#383838"/>
<path d="M39.4806 5.40646C39.3722 5.63813 38.8125 5.67925 38.8761 5.30566L39.4806 5.40646Z" fill="#383838"/>
<path d="M46.9403 13.7227C46.0978 13.4261 46.604 13.2292 46.842 12.7217C47.1465 12.7848 47.0285 13.6575 46.9403 13.7227Z" fill="#383838"/>
<path d="M36.6579 11.3195C36.4119 12.2248 36.1023 12.4022 35.1459 12.32C35.0486 11.7944 36.3206 11.082 36.6579 11.3195Z" fill="#383838"/>
<path d="M37.2632 12.2197C37.4154 12.6511 36.2548 13.2994 36.0547 13.121C36.0839 12.8951 36.2584 12.3595 36.458 12.2643C36.6274 12.1837 37.0202 12.4437 37.2632 12.2197Z" fill="#383838"/>
</svg>
