<svg width="204" height="43" viewBox="0 0 204 43" fill="none" xmlns="http://www.w3.org/2000/svg">
<g clip-path="url(#clip0_1_7254)">
<path d="M15.0015 0.256658H11.5228C11.1487 0.256658 10.8455 0.561678 10.8455 0.937939V4.30403L5.33607 13.8944V0.940626C5.33829 0.564372 5.03684 0.257552 4.66278 0.255324C4.66099 0.255314 4.65921 0.25531 4.65742 0.255314H1.17732C0.803247 0.255313 0.500001 0.560332 0.5 0.936594C0.5 0.937042 0.5 0.93749 0.500001 0.937939V42.308C0.500001 42.6842 0.803258 42.9893 1.17732 42.9893H4.65742C5.03148 42.9893 5.33474 42.6842 5.33474 42.308V26.9959L10.8455 17.3908V42.3093C10.8455 42.6856 11.15 42.9906 11.5228 42.9906H15.0015C15.3756 42.9906 15.6802 42.6856 15.6802 42.3093V0.937939C15.6795 0.56146 15.3758 0.256657 15.0015 0.256658ZM125.995 1.40358e-06H122.513C122.139 -1.39464e-06 121.836 0.305016 121.836 0.681278C121.836 0.681276 121.836 0.681279 121.836 0.681278V4.04469L116.325 13.6364V0.681283C116.326 0.305764 116.024 0.000744302 115.651 1.38316e-06C115.65 -3.93815e-07 115.649 -3.93815e-07 115.648 1.36273e-06H112.168C111.794 -0.000743149 111.49 0.303673 111.489 0.679933C111.489 0.680383 111.489 0.680833 111.489 0.681283V42.0513C111.489 42.4276 111.794 42.7326 112.168 42.7326H115.648C116.022 42.7326 116.324 42.4262 116.324 42.0513V26.7366L121.836 17.1328V42.0513C121.836 42.4276 122.141 42.7326 122.513 42.7326H125.995C126.368 42.7311 126.669 42.4265 126.669 42.0513V0.681283C126.67 0.305765 126.368 0.000744833 125.995 1.40358e-06ZM47.5448 35.2506H43.9378C43.6728 35.2491 43.4583 35.0334 43.4569 34.7668V27.1921L45.4073 23.8005L48.1273 28.5386C48.1273 28.5386 48.7685 29.4899 48.7685 30.7114V34.2858C48.6911 34.6298 48.4306 35.2506 47.5448 35.2506ZM47.0492 8.88756C48.2569 8.89831 48.3424 10.1131 48.1286 10.6143C47.9977 10.9233 45.7079 15.1588 43.4555 19.2546V9.374C43.4555 9.10525 43.672 8.88756 43.9392 8.88756H47.0492ZM47.6384 19.909C48.293 18.7695 48.8447 17.8047 49.1827 17.2081C50.7163 14.5031 52.1672 12.3034 52.1672 10.015V4.41153C52.1164 1.42303 49.2121 0.0980945 47.7613 0.138407L39.2968 0.129002C38.9242 0.128999 38.6222 0.432814 38.6221 0.807591C38.6221 0.808488 38.6222 0.809386 38.6222 0.810283V42.179C38.6222 42.5552 38.9241 42.8603 39.2981 42.8603L49.1974 42.8414C50.6469 42.8817 53.5512 41.5582 53.6033 38.5683V31.73C53.6033 30.2626 53.0088 29.2642 53.0088 29.2642L47.6384 19.909ZM135.917 10.7419C135.704 10.2421 135.79 9.02731 136.997 9.01656H140.989C141.365 9.01656 141.668 9.3216 141.668 9.69784V21.332C139.131 16.7525 136.07 11.1021 135.917 10.7433M136.285 0.266064C134.836 0.225751 131.93 1.55069 131.881 4.53919V10.1426C131.881 12.431 133.332 14.6321 134.864 17.3371C135.127 17.802 135.523 18.494 135.993 19.3164L132.702 25.0488C132.702 25.0488 132.109 26.0432 132.109 27.5146L132.113 42.3107C132.113 42.6869 132.415 42.9906 132.788 42.9906H136.269C136.643 42.9906 136.945 42.6869 136.945 42.3107L136.944 28.2093C136.944 26.9892 137.585 26.0378 137.585 26.0378L138.718 24.0625C139.878 26.0835 141 28.0306 141.668 29.1916V42.308C141.668 42.6842 141.97 42.9892 142.344 42.9892H146.018C146.284 42.9885 146.5 42.7709 146.5 42.5028V0.744439C146.501 0.477275 146.287 0.259493 146.022 0.258009C146.021 0.258004 146.02 0.258001 146.019 0.258001C144.042 0.258001 136.631 0.266064 136.285 0.266064ZM90.9786 35.944C91.0214 35.6788 90.8424 35.4289 90.5788 35.3859C90.5528 35.3816 90.5266 35.3795 90.5004 35.3796H82.4661C81.718 35.3796 81.1128 34.7709 81.1128 34.0184L81.1048 10.3899C81.1048 9.63738 81.7113 9.02731 82.4594 9.02731H88.5513C88.8183 9.02782 89.0353 8.81044 89.0358 8.54179C89.0358 8.51538 89.0337 8.48901 89.0295 8.46294L87.8232 0.923158C87.7634 0.545325 87.4394 0.267279 87.059 0.267408H81.0687C79.7595 0.176033 76.254 0.987658 76.2861 5.11163V38.1437C76.254 42.2959 79.8129 43.09 81.0968 42.9852V42.9812H89.1925C89.5727 42.9815 89.897 42.7043 89.958 42.3268L90.9786 35.944ZM20.0981 35.3809C19.8325 35.3796 19.6161 35.595 19.6147 35.8622C19.6146 35.8896 19.6167 35.9169 19.6212 35.944L20.6378 42.308C20.6975 42.686 21.0214 42.9645 21.402 42.9651H29.0662C30.3754 43.0551 33.8783 42.2435 33.8489 38.1195V32.0417H33.8515V24.6874C33.8515 19.0705 30.0268 18.8044 30.0268 18.8044H30.0174C30.6052 17.7792 31.1436 16.8466 31.3934 16.4032C32.9257 13.6982 33.8355 12.431 33.8355 10.144V4.54053C33.7834 1.55069 30.8791 0.217689 29.4283 0.255314H22.0459C21.6665 0.255738 21.3434 0.532922 21.2831 0.90972L20.0767 8.45219C20.03 8.74781 20.2571 9.01656 20.555 9.01656H27.8185C28.2981 9.00044 28.8926 9.25441 29.0355 10.0311L29.0368 10.6371C29.0368 10.6371 28.97 12.9349 27.9 14.6872L25.3884 18.8031H23.6463C23.315 18.8031 23.0318 19.045 22.9784 19.3755L22.3973 23.0171C22.3492 23.3127 22.5763 23.5815 22.8742 23.5815H25.4939C26.4411 23.5815 26.89 23.5761 27.0249 23.5815C27.7463 23.6057 29.0422 23.9846 29.0422 25.886V27.954H29.0395C29.0355 29.799 29.0328 31.9167 29.0315 34.0184C29.0315 34.7709 28.4236 35.3783 27.6782 35.3783H20.0981V35.3809ZM71.812 35.3809H63.3903V23.5398H67.3326C67.6306 23.5398 67.8577 23.2711 67.8109 22.9754L67.2284 19.3312C67.1676 18.9542 66.844 18.6771 66.4643 18.6768H63.3917V9.01656H71.9069C72.2048 9.01656 72.4319 8.74781 72.3852 8.45353L71.1828 0.919127C71.1224 0.541827 70.7986 0.264486 70.4187 0.26472L59.0405 0.256658C58.7733 0.256658 58.5569 0.475689 58.5569 0.744439V42.5028C58.5569 42.7716 58.7733 42.9879 59.0405 42.9879L70.5055 42.9798C70.8855 42.9808 71.21 42.704 71.271 42.3268L72.289 35.944C72.3325 35.6797 72.1548 35.4299 71.892 35.3861C71.866 35.3818 71.8397 35.3796 71.8134 35.3796M107.98 8.43338L106.781 0.921814C106.721 0.544274 106.397 0.266498 106.017 0.266064H93.1135C92.734 0.266489 92.4109 0.543673 92.3507 0.92047L91.1496 8.43203C91.1068 8.69721 91.2859 8.94708 91.5495 8.99012C91.5754 8.99436 91.6017 8.99646 91.6279 8.99641L97.1333 9.00178V42.3187C97.1333 42.695 97.4365 43 97.8106 43H101.291C101.665 43 101.968 42.695 101.968 42.3187L101.971 8.99641H107.504C107.77 8.99718 107.986 8.78122 107.986 8.51405C107.987 8.48657 107.984 8.45913 107.98 8.43203" fill="#383838"/>
<path d="M172.514 6.03477H166.539V0H160.5V43H203.5V0H172.514V6.03477ZM178.971 30.9694L188.938 17.9874H178.971V12.0104H197.444V17.9874L187.477 30.9681H197.444V36.9451H178.971V30.9694ZM172.514 36.9451C172.514 36.9451 166.539 36.9451 166.539 36.9451V12.0104H172.514V36.9451Z" fill="#383838"/>
</g>
<defs>
<clipPath id="clip0_1_7254">
<rect width="203" height="43" fill="white" transform="translate(0.5)"/>
</clipPath>
</defs>
</svg>
