<svg width="47" height="42" viewBox="0 0 47 42" fill="none" xmlns="http://www.w3.org/2000/svg">
<g clip-path="url(#clip0_3_720)">
<path d="M18.2676 32.0859C17.2578 32.0859 17.3496 31.7188 17.0742 30.8008L14.1367 21.1621L36.627 7.94336" fill="#C8DAEA"/>
<path d="M18.2656 32.0859C18.9082 32.0859 19.2754 31.7188 19.7344 31.3516L23.8652 27.4043L18.7246 24.2832" fill="#A9C9DD"/>
<path d="M18.7278 24.2827L31.1203 33.3706C32.4055 34.1968 33.507 33.7378 33.8742 32.0855L38.9231 8.40186C39.382 6.38233 38.0969 5.46436 36.7199 6.10694L7.25314 17.4898C5.32541 18.2241 5.32541 19.4175 6.88595 19.8765L14.5051 22.2632L31.9465 11.1558C32.7727 10.6968 33.507 10.8804 32.9563 11.523" fill="#EAEAEA"/>
</g>
<defs>
<clipPath id="clip0_3_720">
<rect width="47" height="42" fill="white"/>
</clipPath>
</defs>
</svg>
