<svg width="41" height="41" viewBox="0 0 41 41" fill="none" xmlns="http://www.w3.org/2000/svg">
<path d="M39.2175 27.1351C38.3248 26.0636 37.3104 25.1032 36.3293 24.1744C35.9805 23.844 35.6198 23.5026 35.2721 23.163C34.2739 22.187 34.2376 21.8203 35.0279 20.7118C35.5747 19.9476 36.1544 19.1825 36.715 18.4425C37.2236 17.7711 37.7495 17.0769 38.2535 16.3803L38.357 16.2371C39.3203 14.9042 40.3166 13.5259 40.8467 11.8632C40.9844 11.4246 41.129 10.779 40.7985 10.2393C40.4681 9.69993 39.8273 9.53539 39.374 9.45854C39.1498 9.42051 38.9271 9.41532 38.7205 9.41532L32.4118 9.4108L32.3597 9.41035C31.4058 9.41035 30.763 9.85985 30.3947 10.7847C30.043 11.6683 29.6567 12.6093 29.2159 13.504C28.3387 15.2856 27.2246 17.3377 25.6125 19.0491L25.5443 19.1219C25.3539 19.3265 25.1383 19.5582 24.9806 19.5582C24.9564 19.5582 24.9301 19.5536 24.9004 19.5442C24.5664 19.4141 24.3423 18.6057 24.3524 18.2297C24.3526 18.2245 24.3527 18.2193 24.3527 18.2141L24.3483 10.9226C24.3483 10.8973 24.3465 10.8723 24.3432 10.8472C24.1827 9.6619 23.8272 8.92406 22.484 8.661C22.4484 8.65389 22.4119 8.65039 22.3756 8.65039H15.8158C14.7471 8.65039 14.1582 9.08477 13.6047 9.73492C13.4553 9.90871 13.1442 10.2705 13.2984 10.7094C13.4548 11.1548 13.9625 11.2501 14.1279 11.281C14.9485 11.4372 15.4111 11.9392 15.5422 12.8163C15.7709 14.3394 15.799 15.965 15.6306 17.9324C15.5837 18.4792 15.4908 18.9015 15.3378 19.2623C15.3022 19.3465 15.1762 19.6213 15.0476 19.6214C15.0068 19.6214 14.8886 19.6054 14.6734 19.4571C14.1645 19.1085 13.7922 18.611 13.3582 17.9965C11.8816 15.9097 10.6424 13.6109 9.56913 10.9671C9.17109 9.99381 8.42772 9.44895 7.47501 9.43292C6.42817 9.41701 5.47907 9.40933 4.57387 9.40933C3.58481 9.40933 2.66787 9.41848 1.77249 9.4371C1.00599 9.45064 0.475797 9.68041 0.196822 10.1205C-0.0826051 10.561 -0.0644355 11.1396 0.250879 11.84C2.77497 17.4514 5.06354 21.5314 7.6716 25.0696C9.49905 27.5454 11.332 29.2591 13.4395 30.4623C15.6597 31.7324 18.148 32.35 21.046 32.35C21.3746 32.35 21.7143 32.342 22.0568 32.3259C23.7408 32.2439 24.3655 31.6344 24.4445 29.9947C24.4821 29.1568 24.5738 28.278 24.9857 27.5285C25.2457 27.0563 25.4881 27.0563 25.5678 27.0563C25.7213 27.0563 25.9115 27.127 26.1159 27.2594C26.4825 27.4986 26.7968 27.8191 27.0544 28.0991C27.2969 28.3651 27.5367 28.6338 27.7768 28.9026C28.2948 29.4828 28.8304 30.0826 29.3899 30.6515C30.6146 31.8975 31.9638 32.4456 33.5134 32.3266H39.2974C39.3097 32.3266 39.3221 32.3262 39.3344 32.3254C39.9107 32.2873 40.4099 31.9676 40.7039 31.4483C41.0681 30.8049 41.0607 29.9841 40.6842 29.2521C40.2571 28.4245 39.703 27.7173 39.2175 27.1351Z" fill="#EAEAEA"/>
</svg>
